ISO-10303-21;
HEADER;
FILE_DESCRIPTION(('Fuse_Littelfuse_60R050XU simplified model'),'2;1');
FILE_NAME('Fuse_Littelfuse_60R050XU.step','2026-09-11T12:00:00',(''),(''),'gen_60r050xu_step.py','gen_60r050xu_step.py','');
FILE_SCHEMA(('AUTOMOTIVE_DESIGN { 1 0 10303 214 1 1 1 1 }'));
ENDSEC;
DATA;
#1=CARTESIAN_POINT('',(6.451369,0.95,9.132084));
#2=DIRECTION('',(0.,1.,0.));
#3=DIRECTION('',(-0.233445,0.,-0.97237));
#4=AXIS2_PLACEMENT_3D('',#1,#2,#3);
#5=PLANE('',#4);
#6=CARTESIAN_POINT('',(6.451369,0.95,9.132084));
#7=CARTESIAN_POINT('',(6.306673,0.95,8.529383));
#8=CARTESIAN_POINT('',(6.069476,0.95,7.956738));
#9=CARTESIAN_POINT('',(5.745617,0.95,7.428248));
#10=CARTESIAN_POINT('',(5.343072,0.95,6.956928));
#11=CARTESIAN_POINT('',(4.871752,0.95,6.554383));
#12=CARTESIAN_POINT('',(4.343262,0.95,6.230524));
#13=CARTESIAN_POINT('',(3.770617,0.95,5.993327));
#14=CARTESIAN_POINT('',(3.167916,0.95,5.848631));
#15=CARTESIAN_POINT('',(2.55,0.95,5.8));
#16=CARTESIAN_POINT('',(1.932084,0.95,5.848631));
#17=CARTESIAN_POINT('',(1.329383,0.95,5.993327));
#18=CARTESIAN_POINT('',(0.756738,0.95,6.230524));
#19=CARTESIAN_POINT('',(0.228248,0.95,6.554383));
#20=CARTESIAN_POINT('',(-0.243072,0.95,6.956928));
#21=CARTESIAN_POINT('',(-0.645617,0.95,7.428248));
#22=CARTESIAN_POINT('',(-0.969476,0.95,7.956738));
#23=CARTESIAN_POINT('',(-1.206673,0.95,8.529383));
#24=CARTESIAN_POINT('',(-1.351369,0.95,9.132084));
#25=CARTESIAN_POINT('',(-1.4,0.95,9.75));
#26=CARTESIAN_POINT('',(-1.351369,0.95,10.367916));
#27=CARTESIAN_POINT('',(-1.206673,0.95,10.970617));
#28=CARTESIAN_POINT('',(-0.969476,0.95,11.543262));
#29=CARTESIAN_POINT('',(-0.645617,0.95,12.071752));
#30=CARTESIAN_POINT('',(-0.243072,0.95,12.543072));
#31=CARTESIAN_POINT('',(0.228248,0.95,12.945617));
#32=CARTESIAN_POINT('',(0.756738,0.95,13.269476));
#33=CARTESIAN_POINT('',(1.329383,0.95,13.506673));
#34=CARTESIAN_POINT('',(1.932084,0.95,13.651369));
#35=CARTESIAN_POINT('',(2.55,0.95,13.7));
#36=CARTESIAN_POINT('',(3.167916,0.95,13.651369));
#37=CARTESIAN_POINT('',(3.770617,0.95,13.506673));
#38=CARTESIAN_POINT('',(4.343262,0.95,13.269476));
#39=CARTESIAN_POINT('',(4.871752,0.95,12.945617));
#40=CARTESIAN_POINT('',(5.343072,0.95,12.543072));
#41=CARTESIAN_POINT('',(5.745617,0.95,12.071752));
#42=CARTESIAN_POINT('',(6.069476,0.95,11.543262));
#43=CARTESIAN_POINT('',(6.306673,0.95,10.970617));
#44=CARTESIAN_POINT('',(6.451369,0.95,10.367916));
#45=CARTESIAN_POINT('',(6.5,0.95,9.75));
#46=POLY_LOOP('',(#6,#7,#8,#9,#10,#11,#12,#13,#14,#15,#16,#17,#18,#19,#20,#21,#22,#23,#24,#25,#26,#27,#28,#29,#30,#31,#32,#33,#34,#35,#36,#37,#38,#39,#40,#41,#42,#43,#44,#45));
#47=FACE_OUTER_BOUND('',#46,.T.);
#48=FACE_SURFACE('',(#47),#5,.T.);
#49=CARTESIAN_POINT('',(6.5,-2.15,9.75));
#50=DIRECTION('',(0.,-1.,-0.));
#51=DIRECTION('',(-0.078459,0.,0.996917));
#52=AXIS2_PLACEMENT_3D('',#49,#50,#51);
#53=PLANE('',#52);
#54=CARTESIAN_POINT('',(6.5,-2.15,9.75));
#55=CARTESIAN_POINT('',(6.451369,-2.15,10.367916));
#56=CARTESIAN_POINT('',(6.306673,-2.15,10.970617));
#57=CARTESIAN_POINT('',(6.069476,-2.15,11.543262));
#58=CARTESIAN_POINT('',(5.745617,-2.15,12.071752));
#59=CARTESIAN_POINT('',(5.343072,-2.15,12.543072));
#60=CARTESIAN_POINT('',(4.871752,-2.15,12.945617));
#61=CARTESIAN_POINT('',(4.343262,-2.15,13.269476));
#62=CARTESIAN_POINT('',(3.770617,-2.15,13.506673));
#63=CARTESIAN_POINT('',(3.167916,-2.15,13.651369));
#64=CARTESIAN_POINT('',(2.55,-2.15,13.7));
#65=CARTESIAN_POINT('',(1.932084,-2.15,13.651369));
#66=CARTESIAN_POINT('',(1.329383,-2.15,13.506673));
#67=CARTESIAN_POINT('',(0.756738,-2.15,13.269476));
#68=CARTESIAN_POINT('',(0.228248,-2.15,12.945617));
#69=CARTESIAN_POINT('',(-0.243072,-2.15,12.543072));
#70=CARTESIAN_POINT('',(-0.645617,-2.15,12.071752));
#71=CARTESIAN_POINT('',(-0.969476,-2.15,11.543262));
#72=CARTESIAN_POINT('',(-1.206673,-2.15,10.970617));
#73=CARTESIAN_POINT('',(-1.351369,-2.15,10.367916));
#74=CARTESIAN_POINT('',(-1.4,-2.15,9.75));
#75=CARTESIAN_POINT('',(-1.351369,-2.15,9.132084));
#76=CARTESIAN_POINT('',(-1.206673,-2.15,8.529383));
#77=CARTESIAN_POINT('',(-0.969476,-2.15,7.956738));
#78=CARTESIAN_POINT('',(-0.645617,-2.15,7.428248));
#79=CARTESIAN_POINT('',(-0.243072,-2.15,6.956928));
#80=CARTESIAN_POINT('',(0.228248,-2.15,6.554383));
#81=CARTESIAN_POINT('',(0.756738,-2.15,6.230524));
#82=CARTESIAN_POINT('',(1.329383,-2.15,5.993327));
#83=CARTESIAN_POINT('',(1.932084,-2.15,5.848631));
#84=CARTESIAN_POINT('',(2.55,-2.15,5.8));
#85=CARTESIAN_POINT('',(3.167916,-2.15,5.848631));
#86=CARTESIAN_POINT('',(3.770617,-2.15,5.993327));
#87=CARTESIAN_POINT('',(4.343262,-2.15,6.230524));
#88=CARTESIAN_POINT('',(4.871752,-2.15,6.554383));
#89=CARTESIAN_POINT('',(5.343072,-2.15,6.956928));
#90=CARTESIAN_POINT('',(5.745617,-2.15,7.428248));
#91=CARTESIAN_POINT('',(6.069476,-2.15,7.956738));
#92=CARTESIAN_POINT('',(6.306673,-2.15,8.529383));
#93=CARTESIAN_POINT('',(6.451369,-2.15,9.132084));
#94=POLY_LOOP('',(#54,#55,#56,#57,#58,#59,#60,#61,#62,#63,#64,#65,#66,#67,#68,#69,#70,#71,#72,#73,#74,#75,#76,#77,#78,#79,#80,#81,#82,#83,#84,#85,#86,#87,#88,#89,#90,#91,#92,#93));
#95=FACE_OUTER_BOUND('',#94,.T.);
#96=FACE_SURFACE('',(#95),#53,.T.);
#97=CARTESIAN_POINT('',(6.5,0.95,9.75));
#98=DIRECTION('',(0.996917,0.,0.078459));
#99=DIRECTION('',(-0.078459,0.,0.996917));
#100=AXIS2_PLACEMENT_3D('',#97,#98,#99);
#101=PLANE('',#100);
#102=CARTESIAN_POINT('',(6.5,0.95,9.75));
#103=CARTESIAN_POINT('',(6.451369,0.95,10.367916));
#104=CARTESIAN_POINT('',(6.451369,-2.15,10.367916));
#105=CARTESIAN_POINT('',(6.5,-2.15,9.75));
#106=POLY_LOOP('',(#102,#103,#104,#105));
#107=FACE_OUTER_BOUND('',#106,.T.);
#108=FACE_SURFACE('',(#107),#101,.T.);
#109=CARTESIAN_POINT('',(6.451369,0.95,10.367916));
#110=DIRECTION('',(0.97237,0.,0.233445));
#111=DIRECTION('',(-0.233445,0.,0.97237));
#112=AXIS2_PLACEMENT_3D('',#109,#110,#111);
#113=PLANE('',#112);
#114=CARTESIAN_POINT('',(6.451369,0.95,10.367916));
#115=CARTESIAN_POINT('',(6.306673,0.95,10.970617));
#116=CARTESIAN_POINT('',(6.306673,-2.15,10.970617));
#117=CARTESIAN_POINT('',(6.451369,-2.15,10.367916));
#118=POLY_LOOP('',(#114,#115,#116,#117));
#119=FACE_OUTER_BOUND('',#118,.T.);
#120=FACE_SURFACE('',(#119),#113,.T.);
#121=CARTESIAN_POINT('',(6.306673,0.95,10.970617));
#122=DIRECTION('',(0.92388,0.,0.382683));
#123=DIRECTION('',(-0.382683,0.,0.92388));
#124=AXIS2_PLACEMENT_3D('',#121,#122,#123);
#125=PLANE('',#124);
#126=CARTESIAN_POINT('',(6.306673,0.95,10.970617));
#127=CARTESIAN_POINT('',(6.069476,0.95,11.543262));
#128=CARTESIAN_POINT('',(6.069476,-2.15,11.543262));
#129=CARTESIAN_POINT('',(6.306673,-2.15,10.970617));
#130=POLY_LOOP('',(#126,#127,#128,#129));
#131=FACE_OUTER_BOUND('',#130,.T.);
#132=FACE_SURFACE('',(#131),#125,.T.);
#133=CARTESIAN_POINT('',(6.069476,0.95,11.543262));
#134=DIRECTION('',(0.85264,0.,0.522499));
#135=DIRECTION('',(-0.522499,0.,0.85264));
#136=AXIS2_PLACEMENT_3D('',#133,#134,#135);
#137=PLANE('',#136);
#138=CARTESIAN_POINT('',(6.069476,0.95,11.543262));
#139=CARTESIAN_POINT('',(5.745617,0.95,12.071752));
#140=CARTESIAN_POINT('',(5.745617,-2.15,12.071752));
#141=CARTESIAN_POINT('',(6.069476,-2.15,11.543262));
#142=POLY_LOOP('',(#138,#139,#140,#141));
#143=FACE_OUTER_BOUND('',#142,.T.);
#144=FACE_SURFACE('',(#143),#137,.T.);
#145=CARTESIAN_POINT('',(5.745617,0.95,12.071752));
#146=DIRECTION('',(0.760406,0.,0.649448));
#147=DIRECTION('',(-0.649448,0.,0.760406));
#148=AXIS2_PLACEMENT_3D('',#145,#146,#147);
#149=PLANE('',#148);
#150=CARTESIAN_POINT('',(5.745617,0.95,12.071752));
#151=CARTESIAN_POINT('',(5.343072,0.95,12.543072));
#152=CARTESIAN_POINT('',(5.343072,-2.15,12.543072));
#153=CARTESIAN_POINT('',(5.745617,-2.15,12.071752));
#154=POLY_LOOP('',(#150,#151,#152,#153));
#155=FACE_OUTER_BOUND('',#154,.T.);
#156=FACE_SURFACE('',(#155),#149,.T.);
#157=CARTESIAN_POINT('',(5.343072,0.95,12.543072));
#158=DIRECTION('',(0.649448,0.,0.760406));
#159=DIRECTION('',(-0.760406,0.,0.649448));
#160=AXIS2_PLACEMENT_3D('',#157,#158,#159);
#161=PLANE('',#160);
#162=CARTESIAN_POINT('',(5.343072,0.95,12.543072));
#163=CARTESIAN_POINT('',(4.871752,0.95,12.945617));
#164=CARTESIAN_POINT('',(4.871752,-2.15,12.945617));
#165=CARTESIAN_POINT('',(5.343072,-2.15,12.543072));
#166=POLY_LOOP('',(#162,#163,#164,#165));
#167=FACE_OUTER_BOUND('',#166,.T.);
#168=FACE_SURFACE('',(#167),#161,.T.);
#169=CARTESIAN_POINT('',(4.871752,0.95,12.945617));
#170=DIRECTION('',(0.522499,0.,0.85264));
#171=DIRECTION('',(-0.85264,0.,0.522499));
#172=AXIS2_PLACEMENT_3D('',#169,#170,#171);
#173=PLANE('',#172);
#174=CARTESIAN_POINT('',(4.871752,0.95,12.945617));
#175=CARTESIAN_POINT('',(4.343262,0.95,13.269476));
#176=CARTESIAN_POINT('',(4.343262,-2.15,13.269476));
#177=CARTESIAN_POINT('',(4.871752,-2.15,12.945617));
#178=POLY_LOOP('',(#174,#175,#176,#177));
#179=FACE_OUTER_BOUND('',#178,.T.);
#180=FACE_SURFACE('',(#179),#173,.T.);
#181=CARTESIAN_POINT('',(4.343262,0.95,13.269476));
#182=DIRECTION('',(0.382683,0.,0.92388));
#183=DIRECTION('',(-0.92388,0.,0.382683));
#184=AXIS2_PLACEMENT_3D('',#181,#182,#183);
#185=PLANE('',#184);
#186=CARTESIAN_POINT('',(4.343262,0.95,13.269476));
#187=CARTESIAN_POINT('',(3.770617,0.95,13.506673));
#188=CARTESIAN_POINT('',(3.770617,-2.15,13.506673));
#189=CARTESIAN_POINT('',(4.343262,-2.15,13.269476));
#190=POLY_LOOP('',(#186,#187,#188,#189));
#191=FACE_OUTER_BOUND('',#190,.T.);
#192=FACE_SURFACE('',(#191),#185,.T.);
#193=CARTESIAN_POINT('',(3.770617,0.95,13.506673));
#194=DIRECTION('',(0.233445,0.,0.97237));
#195=DIRECTION('',(-0.97237,0.,0.233445));
#196=AXIS2_PLACEMENT_3D('',#193,#194,#195);
#197=PLANE('',#196);
#198=CARTESIAN_POINT('',(3.770617,0.95,13.506673));
#199=CARTESIAN_POINT('',(3.167916,0.95,13.651369));
#200=CARTESIAN_POINT('',(3.167916,-2.15,13.651369));
#201=CARTESIAN_POINT('',(3.770617,-2.15,13.506673));
#202=POLY_LOOP('',(#198,#199,#200,#201));
#203=FACE_OUTER_BOUND('',#202,.T.);
#204=FACE_SURFACE('',(#203),#197,.T.);
#205=CARTESIAN_POINT('',(3.167916,0.95,13.651369));
#206=DIRECTION('',(0.078459,0.,0.996917));
#207=DIRECTION('',(-0.996917,0.,0.078459));
#208=AXIS2_PLACEMENT_3D('',#205,#206,#207);
#209=PLANE('',#208);
#210=CARTESIAN_POINT('',(3.167916,0.95,13.651369));
#211=CARTESIAN_POINT('',(2.55,0.95,13.7));
#212=CARTESIAN_POINT('',(2.55,-2.15,13.7));
#213=CARTESIAN_POINT('',(3.167916,-2.15,13.651369));
#214=POLY_LOOP('',(#210,#211,#212,#213));
#215=FACE_OUTER_BOUND('',#214,.T.);
#216=FACE_SURFACE('',(#215),#209,.T.);
#217=CARTESIAN_POINT('',(2.55,0.95,13.7));
#218=DIRECTION('',(-0.078459,0.,0.996917));
#219=DIRECTION('',(-0.996917,0.,-0.078459));
#220=AXIS2_PLACEMENT_3D('',#217,#218,#219);
#221=PLANE('',#220);
#222=CARTESIAN_POINT('',(2.55,0.95,13.7));
#223=CARTESIAN_POINT('',(1.932084,0.95,13.651369));
#224=CARTESIAN_POINT('',(1.932084,-2.15,13.651369));
#225=CARTESIAN_POINT('',(2.55,-2.15,13.7));
#226=POLY_LOOP('',(#222,#223,#224,#225));
#227=FACE_OUTER_BOUND('',#226,.T.);
#228=FACE_SURFACE('',(#227),#221,.T.);
#229=CARTESIAN_POINT('',(1.932084,0.95,13.651369));
#230=DIRECTION('',(-0.233445,0.,0.97237));
#231=DIRECTION('',(-0.97237,0.,-0.233445));
#232=AXIS2_PLACEMENT_3D('',#229,#230,#231);
#233=PLANE('',#232);
#234=CARTESIAN_POINT('',(1.932084,0.95,13.651369));
#235=CARTESIAN_POINT('',(1.329383,0.95,13.506673));
#236=CARTESIAN_POINT('',(1.329383,-2.15,13.506673));
#237=CARTESIAN_POINT('',(1.932084,-2.15,13.651369));
#238=POLY_LOOP('',(#234,#235,#236,#237));
#239=FACE_OUTER_BOUND('',#238,.T.);
#240=FACE_SURFACE('',(#239),#233,.T.);
#241=CARTESIAN_POINT('',(1.329383,0.95,13.506673));
#242=DIRECTION('',(-0.382683,0.,0.92388));
#243=DIRECTION('',(-0.92388,0.,-0.382683));
#244=AXIS2_PLACEMENT_3D('',#241,#242,#243);
#245=PLANE('',#244);
#246=CARTESIAN_POINT('',(1.329383,0.95,13.506673));
#247=CARTESIAN_POINT('',(0.756738,0.95,13.269476));
#248=CARTESIAN_POINT('',(0.756738,-2.15,13.269476));
#249=CARTESIAN_POINT('',(1.329383,-2.15,13.506673));
#250=POLY_LOOP('',(#246,#247,#248,#249));
#251=FACE_OUTER_BOUND('',#250,.T.);
#252=FACE_SURFACE('',(#251),#245,.T.);
#253=CARTESIAN_POINT('',(0.756738,0.95,13.269476));
#254=DIRECTION('',(-0.522499,0.,0.85264));
#255=DIRECTION('',(-0.85264,0.,-0.522499));
#256=AXIS2_PLACEMENT_3D('',#253,#254,#255);
#257=PLANE('',#256);
#258=CARTESIAN_POINT('',(0.756738,0.95,13.269476));
#259=CARTESIAN_POINT('',(0.228248,0.95,12.945617));
#260=CARTESIAN_POINT('',(0.228248,-2.15,12.945617));
#261=CARTESIAN_POINT('',(0.756738,-2.15,13.269476));
#262=POLY_LOOP('',(#258,#259,#260,#261));
#263=FACE_OUTER_BOUND('',#262,.T.);
#264=FACE_SURFACE('',(#263),#257,.T.);
#265=CARTESIAN_POINT('',(0.228248,0.95,12.945617));
#266=DIRECTION('',(-0.649448,0.,0.760406));
#267=DIRECTION('',(-0.760406,0.,-0.649448));
#268=AXIS2_PLACEMENT_3D('',#265,#266,#267);
#269=PLANE('',#268);
#270=CARTESIAN_POINT('',(0.228248,0.95,12.945617));
#271=CARTESIAN_POINT('',(-0.243072,0.95,12.543072));
#272=CARTESIAN_POINT('',(-0.243072,-2.15,12.543072));
#273=CARTESIAN_POINT('',(0.228248,-2.15,12.945617));
#274=POLY_LOOP('',(#270,#271,#272,#273));
#275=FACE_OUTER_BOUND('',#274,.T.);
#276=FACE_SURFACE('',(#275),#269,.T.);
#277=CARTESIAN_POINT('',(-0.243072,0.95,12.543072));
#278=DIRECTION('',(-0.760406,0.,0.649448));
#279=DIRECTION('',(-0.649448,0.,-0.760406));
#280=AXIS2_PLACEMENT_3D('',#277,#278,#279);
#281=PLANE('',#280);
#282=CARTESIAN_POINT('',(-0.243072,0.95,12.543072));
#283=CARTESIAN_POINT('',(-0.645617,0.95,12.071752));
#284=CARTESIAN_POINT('',(-0.645617,-2.15,12.071752));
#285=CARTESIAN_POINT('',(-0.243072,-2.15,12.543072));
#286=POLY_LOOP('',(#282,#283,#284,#285));
#287=FACE_OUTER_BOUND('',#286,.T.);
#288=FACE_SURFACE('',(#287),#281,.T.);
#289=CARTESIAN_POINT('',(-0.645617,0.95,12.071752));
#290=DIRECTION('',(-0.85264,0.,0.522499));
#291=DIRECTION('',(-0.522499,0.,-0.85264));
#292=AXIS2_PLACEMENT_3D('',#289,#290,#291);
#293=PLANE('',#292);
#294=CARTESIAN_POINT('',(-0.645617,0.95,12.071752));
#295=CARTESIAN_POINT('',(-0.969476,0.95,11.543262));
#296=CARTESIAN_POINT('',(-0.969476,-2.15,11.543262));
#297=CARTESIAN_POINT('',(-0.645617,-2.15,12.071752));
#298=POLY_LOOP('',(#294,#295,#296,#297));
#299=FACE_OUTER_BOUND('',#298,.T.);
#300=FACE_SURFACE('',(#299),#293,.T.);
#301=CARTESIAN_POINT('',(-0.969476,0.95,11.543262));
#302=DIRECTION('',(-0.92388,0.,0.382683));
#303=DIRECTION('',(-0.382683,0.,-0.92388));
#304=AXIS2_PLACEMENT_3D('',#301,#302,#303);
#305=PLANE('',#304);
#306=CARTESIAN_POINT('',(-0.969476,0.95,11.543262));
#307=CARTESIAN_POINT('',(-1.206673,0.95,10.970617));
#308=CARTESIAN_POINT('',(-1.206673,-2.15,10.970617));
#309=CARTESIAN_POINT('',(-0.969476,-2.15,11.543262));
#310=POLY_LOOP('',(#306,#307,#308,#309));
#311=FACE_OUTER_BOUND('',#310,.T.);
#312=FACE_SURFACE('',(#311),#305,.T.);
#313=CARTESIAN_POINT('',(-1.206673,0.95,10.970617));
#314=DIRECTION('',(-0.97237,0.,0.233445));
#315=DIRECTION('',(-0.233445,0.,-0.97237));
#316=AXIS2_PLACEMENT_3D('',#313,#314,#315);
#317=PLANE('',#316);
#318=CARTESIAN_POINT('',(-1.206673,0.95,10.970617));
#319=CARTESIAN_POINT('',(-1.351369,0.95,10.367916));
#320=CARTESIAN_POINT('',(-1.351369,-2.15,10.367916));
#321=CARTESIAN_POINT('',(-1.206673,-2.15,10.970617));
#322=POLY_LOOP('',(#318,#319,#320,#321));
#323=FACE_OUTER_BOUND('',#322,.T.);
#324=FACE_SURFACE('',(#323),#317,.T.);
#325=CARTESIAN_POINT('',(-1.351369,0.95,10.367916));
#326=DIRECTION('',(-0.996917,0.,0.078459));
#327=DIRECTION('',(-0.078459,0.,-0.996917));
#328=AXIS2_PLACEMENT_3D('',#325,#326,#327);
#329=PLANE('',#328);
#330=CARTESIAN_POINT('',(-1.351369,0.95,10.367916));
#331=CARTESIAN_POINT('',(-1.4,0.95,9.75));
#332=CARTESIAN_POINT('',(-1.4,-2.15,9.75));
#333=CARTESIAN_POINT('',(-1.351369,-2.15,10.367916));
#334=POLY_LOOP('',(#330,#331,#332,#333));
#335=FACE_OUTER_BOUND('',#334,.T.);
#336=FACE_SURFACE('',(#335),#329,.T.);
#337=CARTESIAN_POINT('',(-1.4,0.95,9.75));
#338=DIRECTION('',(-0.996917,0.,-0.078459));
#339=DIRECTION('',(0.078459,0.,-0.996917));
#340=AXIS2_PLACEMENT_3D('',#337,#338,#339);
#341=PLANE('',#340);
#342=CARTESIAN_POINT('',(-1.4,0.95,9.75));
#343=CARTESIAN_POINT('',(-1.351369,0.95,9.132084));
#344=CARTESIAN_POINT('',(-1.351369,-2.15,9.132084));
#345=CARTESIAN_POINT('',(-1.4,-2.15,9.75));
#346=POLY_LOOP('',(#342,#343,#344,#345));
#347=FACE_OUTER_BOUND('',#346,.T.);
#348=FACE_SURFACE('',(#347),#341,.T.);
#349=CARTESIAN_POINT('',(-1.351369,0.95,9.132084));
#350=DIRECTION('',(-0.97237,0.,-0.233445));
#351=DIRECTION('',(0.233445,0.,-0.97237));
#352=AXIS2_PLACEMENT_3D('',#349,#350,#351);
#353=PLANE('',#352);
#354=CARTESIAN_POINT('',(-1.351369,0.95,9.132084));
#355=CARTESIAN_POINT('',(-1.206673,0.95,8.529383));
#356=CARTESIAN_POINT('',(-1.206673,-2.15,8.529383));
#357=CARTESIAN_POINT('',(-1.351369,-2.15,9.132084));
#358=POLY_LOOP('',(#354,#355,#356,#357));
#359=FACE_OUTER_BOUND('',#358,.T.);
#360=FACE_SURFACE('',(#359),#353,.T.);
#361=CARTESIAN_POINT('',(-1.206673,0.95,8.529383));
#362=DIRECTION('',(-0.92388,0.,-0.382683));
#363=DIRECTION('',(0.382683,0.,-0.92388));
#364=AXIS2_PLACEMENT_3D('',#361,#362,#363);
#365=PLANE('',#364);
#366=CARTESIAN_POINT('',(-1.206673,0.95,8.529383));
#367=CARTESIAN_POINT('',(-0.969476,0.95,7.956738));
#368=CARTESIAN_POINT('',(-0.969476,-2.15,7.956738));
#369=CARTESIAN_POINT('',(-1.206673,-2.15,8.529383));
#370=POLY_LOOP('',(#366,#367,#368,#369));
#371=FACE_OUTER_BOUND('',#370,.T.);
#372=FACE_SURFACE('',(#371),#365,.T.);
#373=CARTESIAN_POINT('',(-0.969476,0.95,7.956738));
#374=DIRECTION('',(-0.85264,0.,-0.522499));
#375=DIRECTION('',(0.522499,0.,-0.85264));
#376=AXIS2_PLACEMENT_3D('',#373,#374,#375);
#377=PLANE('',#376);
#378=CARTESIAN_POINT('',(-0.969476,0.95,7.956738));
#379=CARTESIAN_POINT('',(-0.645617,0.95,7.428248));
#380=CARTESIAN_POINT('',(-0.645617,-2.15,7.428248));
#381=CARTESIAN_POINT('',(-0.969476,-2.15,7.956738));
#382=POLY_LOOP('',(#378,#379,#380,#381));
#383=FACE_OUTER_BOUND('',#382,.T.);
#384=FACE_SURFACE('',(#383),#377,.T.);
#385=CARTESIAN_POINT('',(-0.645617,0.95,7.428248));
#386=DIRECTION('',(-0.760406,0.,-0.649448));
#387=DIRECTION('',(0.649448,0.,-0.760406));
#388=AXIS2_PLACEMENT_3D('',#385,#386,#387);
#389=PLANE('',#388);
#390=CARTESIAN_POINT('',(-0.645617,0.95,7.428248));
#391=CARTESIAN_POINT('',(-0.243072,0.95,6.956928));
#392=CARTESIAN_POINT('',(-0.243072,-2.15,6.956928));
#393=CARTESIAN_POINT('',(-0.645617,-2.15,7.428248));
#394=POLY_LOOP('',(#390,#391,#392,#393));
#395=FACE_OUTER_BOUND('',#394,.T.);
#396=FACE_SURFACE('',(#395),#389,.T.);
#397=CARTESIAN_POINT('',(-0.243072,0.95,6.956928));
#398=DIRECTION('',(-0.649448,0.,-0.760406));
#399=DIRECTION('',(0.760406,0.,-0.649448));
#400=AXIS2_PLACEMENT_3D('',#397,#398,#399);
#401=PLANE('',#400);
#402=CARTESIAN_POINT('',(-0.243072,0.95,6.956928));
#403=CARTESIAN_POINT('',(0.228248,0.95,6.554383));
#404=CARTESIAN_POINT('',(0.228248,-2.15,6.554383));
#405=CARTESIAN_POINT('',(-0.243072,-2.15,6.956928));
#406=POLY_LOOP('',(#402,#403,#404,#405));
#407=FACE_OUTER_BOUND('',#406,.T.);
#408=FACE_SURFACE('',(#407),#401,.T.);
#409=CARTESIAN_POINT('',(0.228248,0.95,6.554383));
#410=DIRECTION('',(-0.522499,0.,-0.85264));
#411=DIRECTION('',(0.85264,0.,-0.522499));
#412=AXIS2_PLACEMENT_3D('',#409,#410,#411);
#413=PLANE('',#412);
#414=CARTESIAN_POINT('',(0.228248,0.95,6.554383));
#415=CARTESIAN_POINT('',(0.756738,0.95,6.230524));
#416=CARTESIAN_POINT('',(0.756738,-2.15,6.230524));
#417=CARTESIAN_POINT('',(0.228248,-2.15,6.554383));
#418=POLY_LOOP('',(#414,#415,#416,#417));
#419=FACE_OUTER_BOUND('',#418,.T.);
#420=FACE_SURFACE('',(#419),#413,.T.);
#421=CARTESIAN_POINT('',(0.756738,0.95,6.230524));
#422=DIRECTION('',(-0.382683,0.,-0.92388));
#423=DIRECTION('',(0.92388,0.,-0.382683));
#424=AXIS2_PLACEMENT_3D('',#421,#422,#423);
#425=PLANE('',#424);
#426=CARTESIAN_POINT('',(0.756738,0.95,6.230524));
#427=CARTESIAN_POINT('',(1.329383,0.95,5.993327));
#428=CARTESIAN_POINT('',(1.329383,-2.15,5.993327));
#429=CARTESIAN_POINT('',(0.756738,-2.15,6.230524));
#430=POLY_LOOP('',(#426,#427,#428,#429));
#431=FACE_OUTER_BOUND('',#430,.T.);
#432=FACE_SURFACE('',(#431),#425,.T.);
#433=CARTESIAN_POINT('',(1.329383,0.95,5.993327));
#434=DIRECTION('',(-0.233445,0.,-0.97237));
#435=DIRECTION('',(0.97237,0.,-0.233445));
#436=AXIS2_PLACEMENT_3D('',#433,#434,#435);
#437=PLANE('',#436);
#438=CARTESIAN_POINT('',(1.329383,0.95,5.993327));
#439=CARTESIAN_POINT('',(1.932084,0.95,5.848631));
#440=CARTESIAN_POINT('',(1.932084,-2.15,5.848631));
#441=CARTESIAN_POINT('',(1.329383,-2.15,5.993327));
#442=POLY_LOOP('',(#438,#439,#440,#441));
#443=FACE_OUTER_BOUND('',#442,.T.);
#444=FACE_SURFACE('',(#443),#437,.T.);
#445=CARTESIAN_POINT('',(1.932084,0.95,5.848631));
#446=DIRECTION('',(-0.078459,0.,-0.996917));
#447=DIRECTION('',(0.996917,0.,-0.078459));
#448=AXIS2_PLACEMENT_3D('',#445,#446,#447);
#449=PLANE('',#448);
#450=CARTESIAN_POINT('',(1.932084,0.95,5.848631));
#451=CARTESIAN_POINT('',(2.55,0.95,5.8));
#452=CARTESIAN_POINT('',(2.55,-2.15,5.8));
#453=CARTESIAN_POINT('',(1.932084,-2.15,5.848631));
#454=POLY_LOOP('',(#450,#451,#452,#453));
#455=FACE_OUTER_BOUND('',#454,.T.);
#456=FACE_SURFACE('',(#455),#449,.T.);
#457=CARTESIAN_POINT('',(2.55,0.95,5.8));
#458=DIRECTION('',(0.078459,0.,-0.996917));
#459=DIRECTION('',(0.996917,0.,0.078459));
#460=AXIS2_PLACEMENT_3D('',#457,#458,#459);
#461=PLANE('',#460);
#462=CARTESIAN_POINT('',(2.55,0.95,5.8));
#463=CARTESIAN_POINT('',(3.167916,0.95,5.848631));
#464=CARTESIAN_POINT('',(3.167916,-2.15,5.848631));
#465=CARTESIAN_POINT('',(2.55,-2.15,5.8));
#466=POLY_LOOP('',(#462,#463,#464,#465));
#467=FACE_OUTER_BOUND('',#466,.T.);
#468=FACE_SURFACE('',(#467),#461,.T.);
#469=CARTESIAN_POINT('',(3.167916,0.95,5.848631));
#470=DIRECTION('',(0.233445,0.,-0.97237));
#471=DIRECTION('',(0.97237,0.,0.233445));
#472=AXIS2_PLACEMENT_3D('',#469,#470,#471);
#473=PLANE('',#472);
#474=CARTESIAN_POINT('',(3.167916,0.95,5.848631));
#475=CARTESIAN_POINT('',(3.770617,0.95,5.993327));
#476=CARTESIAN_POINT('',(3.770617,-2.15,5.993327));
#477=CARTESIAN_POINT('',(3.167916,-2.15,5.848631));
#478=POLY_LOOP('',(#474,#475,#476,#477));
#479=FACE_OUTER_BOUND('',#478,.T.);
#480=FACE_SURFACE('',(#479),#473,.T.);
#481=CARTESIAN_POINT('',(3.770617,0.95,5.993327));
#482=DIRECTION('',(0.382683,0.,-0.92388));
#483=DIRECTION('',(0.92388,0.,0.382683));
#484=AXIS2_PLACEMENT_3D('',#481,#482,#483);
#485=PLANE('',#484);
#486=CARTESIAN_POINT('',(3.770617,0.95,5.993327));
#487=CARTESIAN_POINT('',(4.343262,0.95,6.230524));
#488=CARTESIAN_POINT('',(4.343262,-2.15,6.230524));
#489=CARTESIAN_POINT('',(3.770617,-2.15,5.993327));
#490=POLY_LOOP('',(#486,#487,#488,#489));
#491=FACE_OUTER_BOUND('',#490,.T.);
#492=FACE_SURFACE('',(#491),#485,.T.);
#493=CARTESIAN_POINT('',(4.343262,0.95,6.230524));
#494=DIRECTION('',(0.522499,0.,-0.85264));
#495=DIRECTION('',(0.85264,0.,0.522499));
#496=AXIS2_PLACEMENT_3D('',#493,#494,#495);
#497=PLANE('',#496);
#498=CARTESIAN_POINT('',(4.343262,0.95,6.230524));
#499=CARTESIAN_POINT('',(4.871752,0.95,6.554383));
#500=CARTESIAN_POINT('',(4.871752,-2.15,6.554383));
#501=CARTESIAN_POINT('',(4.343262,-2.15,6.230524));
#502=POLY_LOOP('',(#498,#499,#500,#501));
#503=FACE_OUTER_BOUND('',#502,.T.);
#504=FACE_SURFACE('',(#503),#497,.T.);
#505=CARTESIAN_POINT('',(4.871752,0.95,6.554383));
#506=DIRECTION('',(0.649448,0.,-0.760406));
#507=DIRECTION('',(0.760406,0.,0.649448));
#508=AXIS2_PLACEMENT_3D('',#505,#506,#507);
#509=PLANE('',#508);
#510=CARTESIAN_POINT('',(4.871752,0.95,6.554383));
#511=CARTESIAN_POINT('',(5.343072,0.95,6.956928));
#512=CARTESIAN_POINT('',(5.343072,-2.15,6.956928));
#513=CARTESIAN_POINT('',(4.871752,-2.15,6.554383));
#514=POLY_LOOP('',(#510,#511,#512,#513));
#515=FACE_OUTER_BOUND('',#514,.T.);
#516=FACE_SURFACE('',(#515),#509,.T.);
#517=CARTESIAN_POINT('',(5.343072,0.95,6.956928));
#518=DIRECTION('',(0.760406,0.,-0.649448));
#519=DIRECTION('',(0.649448,0.,0.760406));
#520=AXIS2_PLACEMENT_3D('',#517,#518,#519);
#521=PLANE('',#520);
#522=CARTESIAN_POINT('',(5.343072,0.95,6.956928));
#523=CARTESIAN_POINT('',(5.745617,0.95,7.428248));
#524=CARTESIAN_POINT('',(5.745617,-2.15,7.428248));
#525=CARTESIAN_POINT('',(5.343072,-2.15,6.956928));
#526=POLY_LOOP('',(#522,#523,#524,#525));
#527=FACE_OUTER_BOUND('',#526,.T.);
#528=FACE_SURFACE('',(#527),#521,.T.);
#529=CARTESIAN_POINT('',(5.745617,0.95,7.428248));
#530=DIRECTION('',(0.85264,0.,-0.522499));
#531=DIRECTION('',(0.522499,0.,0.85264));
#532=AXIS2_PLACEMENT_3D('',#529,#530,#531);
#533=PLANE('',#532);
#534=CARTESIAN_POINT('',(5.745617,0.95,7.428248));
#535=CARTESIAN_POINT('',(6.069476,0.95,7.956738));
#536=CARTESIAN_POINT('',(6.069476,-2.15,7.956738));
#537=CARTESIAN_POINT('',(5.745617,-2.15,7.428248));
#538=POLY_LOOP('',(#534,#535,#536,#537));
#539=FACE_OUTER_BOUND('',#538,.T.);
#540=FACE_SURFACE('',(#539),#533,.T.);
#541=CARTESIAN_POINT('',(6.069476,0.95,7.956738));
#542=DIRECTION('',(0.92388,0.,-0.382683));
#543=DIRECTION('',(0.382683,0.,0.92388));
#544=AXIS2_PLACEMENT_3D('',#541,#542,#543);
#545=PLANE('',#544);
#546=CARTESIAN_POINT('',(6.069476,0.95,7.956738));
#547=CARTESIAN_POINT('',(6.306673,0.95,8.529383));
#548=CARTESIAN_POINT('',(6.306673,-2.15,8.529383));
#549=CARTESIAN_POINT('',(6.069476,-2.15,7.956738));
#550=POLY_LOOP('',(#546,#547,#548,#549));
#551=FACE_OUTER_BOUND('',#550,.T.);
#552=FACE_SURFACE('',(#551),#545,.T.);
#553=CARTESIAN_POINT('',(6.306673,0.95,8.529383));
#554=DIRECTION('',(0.97237,0.,-0.233445));
#555=DIRECTION('',(0.233445,0.,0.97237));
#556=AXIS2_PLACEMENT_3D('',#553,#554,#555);
#557=PLANE('',#556);
#558=CARTESIAN_POINT('',(6.306673,0.95,8.529383));
#559=CARTESIAN_POINT('',(6.451369,0.95,9.132084));
#560=CARTESIAN_POINT('',(6.451369,-2.15,9.132084));
#561=CARTESIAN_POINT('',(6.306673,-2.15,8.529383));
#562=POLY_LOOP('',(#558,#559,#560,#561));
#563=FACE_OUTER_BOUND('',#562,.T.);
#564=FACE_SURFACE('',(#563),#557,.T.);
#565=CARTESIAN_POINT('',(6.451369,0.95,9.132084));
#566=DIRECTION('',(0.996917,0.,-0.078459));
#567=DIRECTION('',(0.078459,0.,0.996917));
#568=AXIS2_PLACEMENT_3D('',#565,#566,#567);
#569=PLANE('',#568);
#570=CARTESIAN_POINT('',(6.451369,0.95,9.132084));
#571=CARTESIAN_POINT('',(6.5,0.95,9.75));
#572=CARTESIAN_POINT('',(6.5,-2.15,9.75));
#573=CARTESIAN_POINT('',(6.451369,-2.15,9.132084));
#574=POLY_LOOP('',(#570,#571,#572,#573));
#575=FACE_OUTER_BOUND('',#574,.T.);
#576=FACE_SURFACE('',(#575),#569,.T.);
#577=CLOSED_SHELL('',(#48,#96,#108,#120,#132,#144,#156,#168,#180,#192,#204,#216,#228,#240,#252,#264,#276,#288,#300,#312,#324,#336,#348,#360,#372,#384,#396,#408,#420,#432,#444,#456,#468,#480,#492,#504,#516,#528,#540,#552,#564,#576));
#578=FACETED_BREP('body',#577);
#579=CARTESIAN_POINT('',(0.255,0.105624,7.5));
#580=DIRECTION('',(-0.,0.,1.));
#581=DIRECTION('',(-0.707107,0.707107,0.));
#582=AXIS2_PLACEMENT_3D('',#579,#580,#581);
#583=PLANE('',#582);
#584=CARTESIAN_POINT('',(0.255,0.105624,7.5));
#585=CARTESIAN_POINT('',(0.105624,0.255,7.5));
#586=CARTESIAN_POINT('',(-0.105624,0.255,7.5));
#587=CARTESIAN_POINT('',(-0.255,0.105624,7.5));
#588=CARTESIAN_POINT('',(-0.255,-0.105624,7.5));
#589=CARTESIAN_POINT('',(-0.105624,-0.255,7.5));
#590=CARTESIAN_POINT('',(0.105624,-0.255,7.5));
#591=CARTESIAN_POINT('',(0.255,-0.105624,7.5));
#592=POLY_LOOP('',(#584,#585,#586,#587,#588,#589,#590,#591));
#593=FACE_OUTER_BOUND('',#592,.T.);
#594=FACE_SURFACE('',(#593),#583,.T.);
#595=CARTESIAN_POINT('',(0.255,-0.105624,-3.));
#596=DIRECTION('',(-0.,0.,-1.));
#597=DIRECTION('',(-0.707107,-0.707107,0.));
#598=AXIS2_PLACEMENT_3D('',#595,#596,#597);
#599=PLANE('',#598);
#600=CARTESIAN_POINT('',(0.255,-0.105624,-3.));
#601=CARTESIAN_POINT('',(0.105624,-0.255,-3.));
#602=CARTESIAN_POINT('',(-0.105624,-0.255,-3.));
#603=CARTESIAN_POINT('',(-0.255,-0.105624,-3.));
#604=CARTESIAN_POINT('',(-0.255,0.105624,-3.));
#605=CARTESIAN_POINT('',(-0.105624,0.255,-3.));
#606=CARTESIAN_POINT('',(0.105624,0.255,-3.));
#607=CARTESIAN_POINT('',(0.255,0.105624,-3.));
#608=POLY_LOOP('',(#600,#601,#602,#603,#604,#605,#606,#607));
#609=FACE_OUTER_BOUND('',#608,.T.);
#610=FACE_SURFACE('',(#609),#599,.T.);
#611=CARTESIAN_POINT('',(0.255,0.105624,-3.));
#612=DIRECTION('',(0.707107,0.707107,0.));
#613=DIRECTION('',(-0.707107,0.707107,0.));
#614=AXIS2_PLACEMENT_3D('',#611,#612,#613);
#615=PLANE('',#614);
#616=CARTESIAN_POINT('',(0.255,0.105624,-3.));
#617=CARTESIAN_POINT('',(0.105624,0.255,-3.));
#618=CARTESIAN_POINT('',(0.105624,0.255,7.5));
#619=CARTESIAN_POINT('',(0.255,0.105624,7.5));
#620=POLY_LOOP('',(#616,#617,#618,#619));
#621=FACE_OUTER_BOUND('',#620,.T.);
#622=FACE_SURFACE('',(#621),#615,.T.);
#623=CARTESIAN_POINT('',(0.105624,0.255,-3.));
#624=DIRECTION('',(0.,1.,0.));
#625=DIRECTION('',(-1.,0.,0.));
#626=AXIS2_PLACEMENT_3D('',#623,#624,#625);
#627=PLANE('',#626);
#628=CARTESIAN_POINT('',(0.105624,0.255,-3.));
#629=CARTESIAN_POINT('',(-0.105624,0.255,-3.));
#630=CARTESIAN_POINT('',(-0.105624,0.255,7.5));
#631=CARTESIAN_POINT('',(0.105624,0.255,7.5));
#632=POLY_LOOP('',(#628,#629,#630,#631));
#633=FACE_OUTER_BOUND('',#632,.T.);
#634=FACE_SURFACE('',(#633),#627,.T.);
#635=CARTESIAN_POINT('',(-0.105624,0.255,-3.));
#636=DIRECTION('',(-0.707107,0.707107,0.));
#637=DIRECTION('',(-0.707107,-0.707107,0.));
#638=AXIS2_PLACEMENT_3D('',#635,#636,#637);
#639=PLANE('',#638);
#640=CARTESIAN_POINT('',(-0.105624,0.255,-3.));
#641=CARTESIAN_POINT('',(-0.255,0.105624,-3.));
#642=CARTESIAN_POINT('',(-0.255,0.105624,7.5));
#643=CARTESIAN_POINT('',(-0.105624,0.255,7.5));
#644=POLY_LOOP('',(#640,#641,#642,#643));
#645=FACE_OUTER_BOUND('',#644,.T.);
#646=FACE_SURFACE('',(#645),#639,.T.);
#647=CARTESIAN_POINT('',(-0.255,0.105624,-3.));
#648=DIRECTION('',(-1.,0.,0.));
#649=DIRECTION('',(0.,-1.,0.));
#650=AXIS2_PLACEMENT_3D('',#647,#648,#649);
#651=PLANE('',#650);
#652=CARTESIAN_POINT('',(-0.255,0.105624,-3.));
#653=CARTESIAN_POINT('',(-0.255,-0.105624,-3.));
#654=CARTESIAN_POINT('',(-0.255,-0.105624,7.5));
#655=CARTESIAN_POINT('',(-0.255,0.105624,7.5));
#656=POLY_LOOP('',(#652,#653,#654,#655));
#657=FACE_OUTER_BOUND('',#656,.T.);
#658=FACE_SURFACE('',(#657),#651,.T.);
#659=CARTESIAN_POINT('',(-0.255,-0.105624,-3.));
#660=DIRECTION('',(-0.707107,-0.707107,0.));
#661=DIRECTION('',(0.707107,-0.707107,0.));
#662=AXIS2_PLACEMENT_3D('',#659,#660,#661);
#663=PLANE('',#662);
#664=CARTESIAN_POINT('',(-0.255,-0.105624,-3.));
#665=CARTESIAN_POINT('',(-0.105624,-0.255,-3.));
#666=CARTESIAN_POINT('',(-0.105624,-0.255,7.5));
#667=CARTESIAN_POINT('',(-0.255,-0.105624,7.5));
#668=POLY_LOOP('',(#664,#665,#666,#667));
#669=FACE_OUTER_BOUND('',#668,.T.);
#670=FACE_SURFACE('',(#669),#663,.T.);
#671=CARTESIAN_POINT('',(-0.105624,-0.255,-3.));
#672=DIRECTION('',(0.,-1.,0.));
#673=DIRECTION('',(1.,0.,0.));
#674=AXIS2_PLACEMENT_3D('',#671,#672,#673);
#675=PLANE('',#674);
#676=CARTESIAN_POINT('',(-0.105624,-0.255,-3.));
#677=CARTESIAN_POINT('',(0.105624,-0.255,-3.));
#678=CARTESIAN_POINT('',(0.105624,-0.255,7.5));
#679=CARTESIAN_POINT('',(-0.105624,-0.255,7.5));
#680=POLY_LOOP('',(#676,#677,#678,#679));
#681=FACE_OUTER_BOUND('',#680,.T.);
#682=FACE_SURFACE('',(#681),#675,.T.);
#683=CARTESIAN_POINT('',(0.105624,-0.255,-3.));
#684=DIRECTION('',(0.707107,-0.707107,0.));
#685=DIRECTION('',(0.707107,0.707107,0.));
#686=AXIS2_PLACEMENT_3D('',#683,#684,#685);
#687=PLANE('',#686);
#688=CARTESIAN_POINT('',(0.105624,-0.255,-3.));
#689=CARTESIAN_POINT('',(0.255,-0.105624,-3.));
#690=CARTESIAN_POINT('',(0.255,-0.105624,7.5));
#691=CARTESIAN_POINT('',(0.105624,-0.255,7.5));
#692=POLY_LOOP('',(#688,#689,#690,#691));
#693=FACE_OUTER_BOUND('',#692,.T.);
#694=FACE_SURFACE('',(#693),#687,.T.);
#695=CARTESIAN_POINT('',(0.255,-0.105624,-3.));
#696=DIRECTION('',(1.,-0.,0.));
#697=DIRECTION('',(0.,1.,0.));
#698=AXIS2_PLACEMENT_3D('',#695,#696,#697);
#699=PLANE('',#698);
#700=CARTESIAN_POINT('',(0.255,-0.105624,-3.));
#701=CARTESIAN_POINT('',(0.255,0.105624,-3.));
#702=CARTESIAN_POINT('',(0.255,0.105624,7.5));
#703=CARTESIAN_POINT('',(0.255,-0.105624,7.5));
#704=POLY_LOOP('',(#700,#701,#702,#703));
#705=FACE_OUTER_BOUND('',#704,.T.);
#706=FACE_SURFACE('',(#705),#699,.T.);
#707=CLOSED_SHELL('',(#594,#610,#622,#634,#646,#658,#670,#682,#694,#706));
#708=FACETED_BREP('lead1',#707);
#709=CARTESIAN_POINT('',(5.355,-1.094376,7.5));
#710=DIRECTION('',(0.,0.,1.));
#711=DIRECTION('',(-0.707107,0.707107,0.));
#712=AXIS2_PLACEMENT_3D('',#709,#710,#711);
#713=PLANE('',#712);
#714=CARTESIAN_POINT('',(5.355,-1.094376,7.5));
#715=CARTESIAN_POINT('',(5.205624,-0.945,7.5));
#716=CARTESIAN_POINT('',(4.994376,-0.945,7.5));
#717=CARTESIAN_POINT('',(4.845,-1.094376,7.5));
#718=CARTESIAN_POINT('',(4.845,-1.305624,7.5));
#719=CARTESIAN_POINT('',(4.994376,-1.455,7.5));
#720=CARTESIAN_POINT('',(5.205624,-1.455,7.5));
#721=CARTESIAN_POINT('',(5.355,-1.305624,7.5));
#722=POLY_LOOP('',(#714,#715,#716,#717,#718,#719,#720,#721));
#723=FACE_OUTER_BOUND('',#722,.T.);
#724=FACE_SURFACE('',(#723),#713,.T.);
#725=CARTESIAN_POINT('',(5.355,-1.305624,-3.));
#726=DIRECTION('',(0.,0.,-1.));
#727=DIRECTION('',(-0.707107,-0.707107,0.));
#728=AXIS2_PLACEMENT_3D('',#725,#726,#727);
#729=PLANE('',#728);
#730=CARTESIAN_POINT('',(5.355,-1.305624,-3.));
#731=CARTESIAN_POINT('',(5.205624,-1.455,-3.));
#732=CARTESIAN_POINT('',(4.994376,-1.455,-3.));
#733=CARTESIAN_POINT('',(4.845,-1.305624,-3.));
#734=CARTESIAN_POINT('',(4.845,-1.094376,-3.));
#735=CARTESIAN_POINT('',(4.994376,-0.945,-3.));
#736=CARTESIAN_POINT('',(5.205624,-0.945,-3.));
#737=CARTESIAN_POINT('',(5.355,-1.094376,-3.));
#738=POLY_LOOP('',(#730,#731,#732,#733,#734,#735,#736,#737));
#739=FACE_OUTER_BOUND('',#738,.T.);
#740=FACE_SURFACE('',(#739),#729,.T.);
#741=CARTESIAN_POINT('',(5.355,-1.094376,-3.));
#742=DIRECTION('',(0.707107,0.707107,0.));
#743=DIRECTION('',(-0.707107,0.707107,0.));
#744=AXIS2_PLACEMENT_3D('',#741,#742,#743);
#745=PLANE('',#744);
#746=CARTESIAN_POINT('',(5.355,-1.094376,-3.));
#747=CARTESIAN_POINT('',(5.205624,-0.945,-3.));
#748=CARTESIAN_POINT('',(5.205624,-0.945,7.5));
#749=CARTESIAN_POINT('',(5.355,-1.094376,7.5));
#750=POLY_LOOP('',(#746,#747,#748,#749));
#751=FACE_OUTER_BOUND('',#750,.T.);
#752=FACE_SURFACE('',(#751),#745,.T.);
#753=CARTESIAN_POINT('',(5.205624,-0.945,-3.));
#754=DIRECTION('',(0.,1.,0.));
#755=DIRECTION('',(-1.,0.,0.));
#756=AXIS2_PLACEMENT_3D('',#753,#754,#755);
#757=PLANE('',#756);
#758=CARTESIAN_POINT('',(5.205624,-0.945,-3.));
#759=CARTESIAN_POINT('',(4.994376,-0.945,-3.));
#760=CARTESIAN_POINT('',(4.994376,-0.945,7.5));
#761=CARTESIAN_POINT('',(5.205624,-0.945,7.5));
#762=POLY_LOOP('',(#758,#759,#760,#761));
#763=FACE_OUTER_BOUND('',#762,.T.);
#764=FACE_SURFACE('',(#763),#757,.T.);
#765=CARTESIAN_POINT('',(4.994376,-0.945,-3.));
#766=DIRECTION('',(-0.707107,0.707107,0.));
#767=DIRECTION('',(-0.707107,-0.707107,0.));
#768=AXIS2_PLACEMENT_3D('',#765,#766,#767);
#769=PLANE('',#768);
#770=CARTESIAN_POINT('',(4.994376,-0.945,-3.));
#771=CARTESIAN_POINT('',(4.845,-1.094376,-3.));
#772=CARTESIAN_POINT('',(4.845,-1.094376,7.5));
#773=CARTESIAN_POINT('',(4.994376,-0.945,7.5));
#774=POLY_LOOP('',(#770,#771,#772,#773));
#775=FACE_OUTER_BOUND('',#774,.T.);
#776=FACE_SURFACE('',(#775),#769,.T.);
#777=CARTESIAN_POINT('',(4.845,-1.094376,-3.));
#778=DIRECTION('',(-1.,0.,0.));
#779=DIRECTION('',(0.,-1.,0.));
#780=AXIS2_PLACEMENT_3D('',#777,#778,#779);
#781=PLANE('',#780);
#782=CARTESIAN_POINT('',(4.845,-1.094376,-3.));
#783=CARTESIAN_POINT('',(4.845,-1.305624,-3.));
#784=CARTESIAN_POINT('',(4.845,-1.305624,7.5));
#785=CARTESIAN_POINT('',(4.845,-1.094376,7.5));
#786=POLY_LOOP('',(#782,#783,#784,#785));
#787=FACE_OUTER_BOUND('',#786,.T.);
#788=FACE_SURFACE('',(#787),#781,.T.);
#789=CARTESIAN_POINT('',(4.845,-1.305624,-3.));
#790=DIRECTION('',(-0.707107,-0.707107,0.));
#791=DIRECTION('',(0.707107,-0.707107,0.));
#792=AXIS2_PLACEMENT_3D('',#789,#790,#791);
#793=PLANE('',#792);
#794=CARTESIAN_POINT('',(4.845,-1.305624,-3.));
#795=CARTESIAN_POINT('',(4.994376,-1.455,-3.));
#796=CARTESIAN_POINT('',(4.994376,-1.455,7.5));
#797=CARTESIAN_POINT('',(4.845,-1.305624,7.5));
#798=POLY_LOOP('',(#794,#795,#796,#797));
#799=FACE_OUTER_BOUND('',#798,.T.);
#800=FACE_SURFACE('',(#799),#793,.T.);
#801=CARTESIAN_POINT('',(4.994376,-1.455,-3.));
#802=DIRECTION('',(0.,-1.,0.));
#803=DIRECTION('',(1.,0.,0.));
#804=AXIS2_PLACEMENT_3D('',#801,#802,#803);
#805=PLANE('',#804);
#806=CARTESIAN_POINT('',(4.994376,-1.455,-3.));
#807=CARTESIAN_POINT('',(5.205624,-1.455,-3.));
#808=CARTESIAN_POINT('',(5.205624,-1.455,7.5));
#809=CARTESIAN_POINT('',(4.994376,-1.455,7.5));
#810=POLY_LOOP('',(#806,#807,#808,#809));
#811=FACE_OUTER_BOUND('',#810,.T.);
#812=FACE_SURFACE('',(#811),#805,.T.);
#813=CARTESIAN_POINT('',(5.205624,-1.455,-3.));
#814=DIRECTION('',(0.707107,-0.707107,0.));
#815=DIRECTION('',(0.707107,0.707107,0.));
#816=AXIS2_PLACEMENT_3D('',#813,#814,#815);
#817=PLANE('',#816);
#818=CARTESIAN_POINT('',(5.205624,-1.455,-3.));
#819=CARTESIAN_POINT('',(5.355,-1.305624,-3.));
#820=CARTESIAN_POINT('',(5.355,-1.305624,7.5));
#821=CARTESIAN_POINT('',(5.205624,-1.455,7.5));
#822=POLY_LOOP('',(#818,#819,#820,#821));
#823=FACE_OUTER_BOUND('',#822,.T.);
#824=FACE_SURFACE('',(#823),#817,.T.);
#825=CARTESIAN_POINT('',(5.355,-1.305624,-3.));
#826=DIRECTION('',(1.,0.,0.));
#827=DIRECTION('',(0.,1.,0.));
#828=AXIS2_PLACEMENT_3D('',#825,#826,#827);
#829=PLANE('',#828);
#830=CARTESIAN_POINT('',(5.355,-1.305624,-3.));
#831=CARTESIAN_POINT('',(5.355,-1.094376,-3.));
#832=CARTESIAN_POINT('',(5.355,-1.094376,7.5));
#833=CARTESIAN_POINT('',(5.355,-1.305624,7.5));
#834=POLY_LOOP('',(#830,#831,#832,#833));
#835=FACE_OUTER_BOUND('',#834,.T.);
#836=FACE_SURFACE('',(#835),#829,.T.);
#837=CLOSED_SHELL('',(#724,#740,#752,#764,#776,#788,#800,#812,#824,#836));
#838=FACETED_BREP('lead2',#837);
#839=( LENGTH_UNIT() NAMED_UNIT(*) SI_UNIT(.MILLI.,.METRE.) );
#840=( NAMED_UNIT(*) PLANE_ANGLE_UNIT() SI_UNIT($,.RADIAN.) );
#841=( NAMED_UNIT(*) SI_UNIT($,.STERADIAN.) SOLID_ANGLE_UNIT() );
#842=UNCERTAINTY_MEASURE_WITH_UNIT(LENGTH_MEASURE(1.E-07),#839,'distance_accuracy_value','confusion accuracy');
#843=( GEOMETRIC_REPRESENTATION_CONTEXT(3) GLOBAL_UNCERTAINTY_ASSIGNED_CONTEXT((#842)) GLOBAL_UNIT_ASSIGNED_CONTEXT((#839,#840,#841)) REPRESENTATION_CONTEXT('Context #1','3D Context with UNIT and UNCERTAINTY') );
#844=CARTESIAN_POINT('',(0.,0.,0.));
#845=DIRECTION('',(0.,0.,1.));
#846=DIRECTION('',(1.,0.,0.));
#847=AXIS2_PLACEMENT_3D('',#844,#845,#846);
#848=FACETED_BREP_SHAPE_REPRESENTATION('Fuse_Littelfuse_60R050XU',(#847,#578,#708,#838),#843);
#849=APPLICATION_CONTEXT('core data for automotive mechanical design processes');
#850=APPLICATION_PROTOCOL_DEFINITION('international standard','automotive_design',2000,#849);
#851=PRODUCT_CONTEXT('',#849,'mechanical');
#852=PRODUCT('Fuse_Littelfuse_60R050XU','Fuse_Littelfuse_60R050XU','',(#851));
#853=PRODUCT_RELATED_PRODUCT_CATEGORY('part',$,(#852));
#854=PRODUCT_DEFINITION_FORMATION('','',#852);
#855=PRODUCT_DEFINITION_CONTEXT('part definition',#849,'design');
#856=PRODUCT_DEFINITION('design','',#854,#855);
#857=PRODUCT_DEFINITION_SHAPE('','',#856);
#858=SHAPE_DEFINITION_REPRESENTATION(#857,#848);
#859=COLOUR_RGB('',0.88,0.62,0.12);
#860=FILL_AREA_STYLE_COLOUR('',#859);
#861=FILL_AREA_STYLE('',(#860));
#862=SURFACE_STYLE_FILL_AREA(#861);
#863=SURFACE_SIDE_STYLE('',(#862));
#864=SURFACE_STYLE_USAGE(.BOTH.,#863);
#865=PRESENTATION_STYLE_ASSIGNMENT((#864));
#866=COLOUR_RGB('',0.78,0.78,0.8);
#867=FILL_AREA_STYLE_COLOUR('',#866);
#868=FILL_AREA_STYLE('',(#867));
#869=SURFACE_STYLE_FILL_AREA(#868);
#870=SURFACE_SIDE_STYLE('',(#869));
#871=SURFACE_STYLE_USAGE(.BOTH.,#870);
#872=PRESENTATION_STYLE_ASSIGNMENT((#871));
#873=STYLED_ITEM('color',(#865),#578);
#874=STYLED_ITEM('color',(#872),#708);
#875=STYLED_ITEM('color',(#872),#838);
#876=MECHANICAL_DESIGN_GEOMETRIC_PRESENTATION_REPRESENTATION('',(#873,#874,#875),#843);
ENDSEC;
END-ISO-10303-21;
