%TF.GenerationSoftware,KiCad,Pcbnew,10.0.3*%
%TF.CreationDate,2026-09-13T22:30:30+02:00*%
%TF.ProjectId,DriverDasyChain,44726976-6572-4446-9173-79436861696e,rev?*%
%TF.SameCoordinates,Original*%
%TF.FileFunction,Legend,Top*%
%TF.FilePolarity,Positive*%
%FSLAX46Y46*%
G04 Gerber Fmt 4.6, Leading zero omitted, Abs format (unit mm)*
G04 Created by KiCad (PCBNEW 10.0.3) date 2026-09-13 22:30:30*
%MOMM*%
%LPD*%
G01*
G04 APERTURE LIST*
%ADD10C,0.200000*%
%ADD11C,0.300000*%
%ADD12C,0.150000*%
%ADD13C,0.120000*%
%ADD14C,0.400000*%
G04 APERTURE END LIST*
D10*
X136483958Y-91494977D02*
X136598244Y-91533072D01*
X136598244Y-91533072D02*
X136788720Y-91533072D01*
X136788720Y-91533072D02*
X136864911Y-91494977D01*
X136864911Y-91494977D02*
X136903006Y-91456881D01*
X136903006Y-91456881D02*
X136941101Y-91380691D01*
X136941101Y-91380691D02*
X136941101Y-91304500D01*
X136941101Y-91304500D02*
X136903006Y-91228310D01*
X136903006Y-91228310D02*
X136864911Y-91190215D01*
X136864911Y-91190215D02*
X136788720Y-91152119D01*
X136788720Y-91152119D02*
X136636339Y-91114024D01*
X136636339Y-91114024D02*
X136560149Y-91075929D01*
X136560149Y-91075929D02*
X136522054Y-91037834D01*
X136522054Y-91037834D02*
X136483958Y-90961643D01*
X136483958Y-90961643D02*
X136483958Y-90885453D01*
X136483958Y-90885453D02*
X136522054Y-90809262D01*
X136522054Y-90809262D02*
X136560149Y-90771167D01*
X136560149Y-90771167D02*
X136636339Y-90733072D01*
X136636339Y-90733072D02*
X136826816Y-90733072D01*
X136826816Y-90733072D02*
X136941101Y-90771167D01*
X137207768Y-90733072D02*
X137398244Y-91533072D01*
X137398244Y-91533072D02*
X137550625Y-90961643D01*
X137550625Y-90961643D02*
X137703006Y-91533072D01*
X137703006Y-91533072D02*
X137893483Y-90733072D01*
X138083959Y-90733072D02*
X138541102Y-90733072D01*
X138312530Y-91533072D02*
X138312530Y-90733072D01*
X135987716Y-91791378D02*
X139500000Y-91791378D01*
X139500000Y-94408623D01*
X135987716Y-94408623D01*
X135987716Y-91791378D01*
D11*
X162385912Y-119688346D02*
X161671626Y-120188346D01*
X162385912Y-120545489D02*
X160885912Y-120545489D01*
X160885912Y-120545489D02*
X160885912Y-119974060D01*
X160885912Y-119974060D02*
X160957341Y-119831203D01*
X160957341Y-119831203D02*
X161028769Y-119759774D01*
X161028769Y-119759774D02*
X161171626Y-119688346D01*
X161171626Y-119688346D02*
X161385912Y-119688346D01*
X161385912Y-119688346D02*
X161528769Y-119759774D01*
X161528769Y-119759774D02*
X161600198Y-119831203D01*
X161600198Y-119831203D02*
X161671626Y-119974060D01*
X161671626Y-119974060D02*
X161671626Y-120545489D01*
X160885912Y-118759774D02*
X160885912Y-118616917D01*
X160885912Y-118616917D02*
X160957341Y-118474060D01*
X160957341Y-118474060D02*
X161028769Y-118402632D01*
X161028769Y-118402632D02*
X161171626Y-118331203D01*
X161171626Y-118331203D02*
X161457341Y-118259774D01*
X161457341Y-118259774D02*
X161814484Y-118259774D01*
X161814484Y-118259774D02*
X162100198Y-118331203D01*
X162100198Y-118331203D02*
X162243055Y-118402632D01*
X162243055Y-118402632D02*
X162314484Y-118474060D01*
X162314484Y-118474060D02*
X162385912Y-118616917D01*
X162385912Y-118616917D02*
X162385912Y-118759774D01*
X162385912Y-118759774D02*
X162314484Y-118902632D01*
X162314484Y-118902632D02*
X162243055Y-118974060D01*
X162243055Y-118974060D02*
X162100198Y-119045489D01*
X162100198Y-119045489D02*
X161814484Y-119116917D01*
X161814484Y-119116917D02*
X161457341Y-119116917D01*
X161457341Y-119116917D02*
X161171626Y-119045489D01*
X161171626Y-119045489D02*
X161028769Y-118974060D01*
X161028769Y-118974060D02*
X160957341Y-118902632D01*
X160957341Y-118902632D02*
X160885912Y-118759774D01*
X162385912Y-116831203D02*
X162385912Y-117688346D01*
X162385912Y-117259775D02*
X160885912Y-117259775D01*
X160885912Y-117259775D02*
X161100198Y-117402632D01*
X161100198Y-117402632D02*
X161243055Y-117545489D01*
X161243055Y-117545489D02*
X161314484Y-117688346D01*
X162385912Y-116116918D02*
X162385912Y-115831204D01*
X162385912Y-115831204D02*
X162314484Y-115688347D01*
X162314484Y-115688347D02*
X162243055Y-115616918D01*
X162243055Y-115616918D02*
X162028769Y-115474061D01*
X162028769Y-115474061D02*
X161743055Y-115402632D01*
X161743055Y-115402632D02*
X161171626Y-115402632D01*
X161171626Y-115402632D02*
X161028769Y-115474061D01*
X161028769Y-115474061D02*
X160957341Y-115545490D01*
X160957341Y-115545490D02*
X160885912Y-115688347D01*
X160885912Y-115688347D02*
X160885912Y-115974061D01*
X160885912Y-115974061D02*
X160957341Y-116116918D01*
X160957341Y-116116918D02*
X161028769Y-116188347D01*
X161028769Y-116188347D02*
X161171626Y-116259775D01*
X161171626Y-116259775D02*
X161528769Y-116259775D01*
X161528769Y-116259775D02*
X161671626Y-116188347D01*
X161671626Y-116188347D02*
X161743055Y-116116918D01*
X161743055Y-116116918D02*
X161814484Y-115974061D01*
X161814484Y-115974061D02*
X161814484Y-115688347D01*
X161814484Y-115688347D02*
X161743055Y-115545490D01*
X161743055Y-115545490D02*
X161671626Y-115474061D01*
X161671626Y-115474061D02*
X161528769Y-115402632D01*
X161028769Y-114831204D02*
X160957341Y-114759776D01*
X160957341Y-114759776D02*
X160885912Y-114616919D01*
X160885912Y-114616919D02*
X160885912Y-114259776D01*
X160885912Y-114259776D02*
X160957341Y-114116919D01*
X160957341Y-114116919D02*
X161028769Y-114045490D01*
X161028769Y-114045490D02*
X161171626Y-113974061D01*
X161171626Y-113974061D02*
X161314484Y-113974061D01*
X161314484Y-113974061D02*
X161528769Y-114045490D01*
X161528769Y-114045490D02*
X162385912Y-114902633D01*
X162385912Y-114902633D02*
X162385912Y-113974061D01*
X160885912Y-112402633D02*
X162385912Y-111902633D01*
X162385912Y-111902633D02*
X160885912Y-111402633D01*
X162385912Y-110116919D02*
X162385912Y-110974062D01*
X162385912Y-110545491D02*
X160885912Y-110545491D01*
X160885912Y-110545491D02*
X161100198Y-110688348D01*
X161100198Y-110688348D02*
X161243055Y-110831205D01*
X161243055Y-110831205D02*
X161314484Y-110974062D01*
X162243055Y-109474063D02*
X162314484Y-109402634D01*
X162314484Y-109402634D02*
X162385912Y-109474063D01*
X162385912Y-109474063D02*
X162314484Y-109545491D01*
X162314484Y-109545491D02*
X162243055Y-109474063D01*
X162243055Y-109474063D02*
X162385912Y-109474063D01*
X160885912Y-108474062D02*
X160885912Y-108331205D01*
X160885912Y-108331205D02*
X160957341Y-108188348D01*
X160957341Y-108188348D02*
X161028769Y-108116920D01*
X161028769Y-108116920D02*
X161171626Y-108045491D01*
X161171626Y-108045491D02*
X161457341Y-107974062D01*
X161457341Y-107974062D02*
X161814484Y-107974062D01*
X161814484Y-107974062D02*
X162100198Y-108045491D01*
X162100198Y-108045491D02*
X162243055Y-108116920D01*
X162243055Y-108116920D02*
X162314484Y-108188348D01*
X162314484Y-108188348D02*
X162385912Y-108331205D01*
X162385912Y-108331205D02*
X162385912Y-108474062D01*
X162385912Y-108474062D02*
X162314484Y-108616920D01*
X162314484Y-108616920D02*
X162243055Y-108688348D01*
X162243055Y-108688348D02*
X162100198Y-108759777D01*
X162100198Y-108759777D02*
X161814484Y-108831205D01*
X161814484Y-108831205D02*
X161457341Y-108831205D01*
X161457341Y-108831205D02*
X161171626Y-108759777D01*
X161171626Y-108759777D02*
X161028769Y-108688348D01*
X161028769Y-108688348D02*
X160957341Y-108616920D01*
X160957341Y-108616920D02*
X160885912Y-108474062D01*
X164800828Y-120545489D02*
X163300828Y-120545489D01*
X163300828Y-120545489D02*
X163300828Y-120188346D01*
X163300828Y-120188346D02*
X163372257Y-119974060D01*
X163372257Y-119974060D02*
X163515114Y-119831203D01*
X163515114Y-119831203D02*
X163657971Y-119759774D01*
X163657971Y-119759774D02*
X163943685Y-119688346D01*
X163943685Y-119688346D02*
X164157971Y-119688346D01*
X164157971Y-119688346D02*
X164443685Y-119759774D01*
X164443685Y-119759774D02*
X164586542Y-119831203D01*
X164586542Y-119831203D02*
X164729400Y-119974060D01*
X164729400Y-119974060D02*
X164800828Y-120188346D01*
X164800828Y-120188346D02*
X164800828Y-120545489D01*
X164800828Y-118402632D02*
X164015114Y-118402632D01*
X164015114Y-118402632D02*
X163872257Y-118474060D01*
X163872257Y-118474060D02*
X163800828Y-118616917D01*
X163800828Y-118616917D02*
X163800828Y-118902632D01*
X163800828Y-118902632D02*
X163872257Y-119045489D01*
X164729400Y-118402632D02*
X164800828Y-118545489D01*
X164800828Y-118545489D02*
X164800828Y-118902632D01*
X164800828Y-118902632D02*
X164729400Y-119045489D01*
X164729400Y-119045489D02*
X164586542Y-119116917D01*
X164586542Y-119116917D02*
X164443685Y-119116917D01*
X164443685Y-119116917D02*
X164300828Y-119045489D01*
X164300828Y-119045489D02*
X164229400Y-118902632D01*
X164229400Y-118902632D02*
X164229400Y-118545489D01*
X164229400Y-118545489D02*
X164157971Y-118402632D01*
X164800828Y-117688346D02*
X163800828Y-117688346D01*
X163300828Y-117688346D02*
X163372257Y-117759774D01*
X163372257Y-117759774D02*
X163443685Y-117688346D01*
X163443685Y-117688346D02*
X163372257Y-117616917D01*
X163372257Y-117616917D02*
X163300828Y-117688346D01*
X163300828Y-117688346D02*
X163443685Y-117688346D01*
X164729400Y-117045488D02*
X164800828Y-116902631D01*
X164800828Y-116902631D02*
X164800828Y-116616917D01*
X164800828Y-116616917D02*
X164729400Y-116474060D01*
X164729400Y-116474060D02*
X164586542Y-116402631D01*
X164586542Y-116402631D02*
X164515114Y-116402631D01*
X164515114Y-116402631D02*
X164372257Y-116474060D01*
X164372257Y-116474060D02*
X164300828Y-116616917D01*
X164300828Y-116616917D02*
X164300828Y-116831203D01*
X164300828Y-116831203D02*
X164229400Y-116974060D01*
X164229400Y-116974060D02*
X164086542Y-117045488D01*
X164086542Y-117045488D02*
X164015114Y-117045488D01*
X164015114Y-117045488D02*
X163872257Y-116974060D01*
X163872257Y-116974060D02*
X163800828Y-116831203D01*
X163800828Y-116831203D02*
X163800828Y-116616917D01*
X163800828Y-116616917D02*
X163872257Y-116474060D01*
X163800828Y-115902631D02*
X164800828Y-115545488D01*
X163800828Y-115188345D02*
X164800828Y-115545488D01*
X164800828Y-115545488D02*
X165157971Y-115688345D01*
X165157971Y-115688345D02*
X165229400Y-115759774D01*
X165229400Y-115759774D02*
X165300828Y-115902631D01*
X164657971Y-112616917D02*
X164729400Y-112688345D01*
X164729400Y-112688345D02*
X164800828Y-112902631D01*
X164800828Y-112902631D02*
X164800828Y-113045488D01*
X164800828Y-113045488D02*
X164729400Y-113259774D01*
X164729400Y-113259774D02*
X164586542Y-113402631D01*
X164586542Y-113402631D02*
X164443685Y-113474060D01*
X164443685Y-113474060D02*
X164157971Y-113545488D01*
X164157971Y-113545488D02*
X163943685Y-113545488D01*
X163943685Y-113545488D02*
X163657971Y-113474060D01*
X163657971Y-113474060D02*
X163515114Y-113402631D01*
X163515114Y-113402631D02*
X163372257Y-113259774D01*
X163372257Y-113259774D02*
X163300828Y-113045488D01*
X163300828Y-113045488D02*
X163300828Y-112902631D01*
X163300828Y-112902631D02*
X163372257Y-112688345D01*
X163372257Y-112688345D02*
X163443685Y-112616917D01*
X164800828Y-111974060D02*
X163300828Y-111974060D01*
X164800828Y-111331203D02*
X164015114Y-111331203D01*
X164015114Y-111331203D02*
X163872257Y-111402631D01*
X163872257Y-111402631D02*
X163800828Y-111545488D01*
X163800828Y-111545488D02*
X163800828Y-111759774D01*
X163800828Y-111759774D02*
X163872257Y-111902631D01*
X163872257Y-111902631D02*
X163943685Y-111974060D01*
X164800828Y-109974060D02*
X164015114Y-109974060D01*
X164015114Y-109974060D02*
X163872257Y-110045488D01*
X163872257Y-110045488D02*
X163800828Y-110188345D01*
X163800828Y-110188345D02*
X163800828Y-110474060D01*
X163800828Y-110474060D02*
X163872257Y-110616917D01*
X164729400Y-109974060D02*
X164800828Y-110116917D01*
X164800828Y-110116917D02*
X164800828Y-110474060D01*
X164800828Y-110474060D02*
X164729400Y-110616917D01*
X164729400Y-110616917D02*
X164586542Y-110688345D01*
X164586542Y-110688345D02*
X164443685Y-110688345D01*
X164443685Y-110688345D02*
X164300828Y-110616917D01*
X164300828Y-110616917D02*
X164229400Y-110474060D01*
X164229400Y-110474060D02*
X164229400Y-110116917D01*
X164229400Y-110116917D02*
X164157971Y-109974060D01*
X164800828Y-109259774D02*
X163800828Y-109259774D01*
X163300828Y-109259774D02*
X163372257Y-109331202D01*
X163372257Y-109331202D02*
X163443685Y-109259774D01*
X163443685Y-109259774D02*
X163372257Y-109188345D01*
X163372257Y-109188345D02*
X163300828Y-109259774D01*
X163300828Y-109259774D02*
X163443685Y-109259774D01*
X163800828Y-108545488D02*
X164800828Y-108545488D01*
X163943685Y-108545488D02*
X163872257Y-108474059D01*
X163872257Y-108474059D02*
X163800828Y-108331202D01*
X163800828Y-108331202D02*
X163800828Y-108116916D01*
X163800828Y-108116916D02*
X163872257Y-107974059D01*
X163872257Y-107974059D02*
X164015114Y-107902631D01*
X164015114Y-107902631D02*
X164800828Y-107902631D01*
D10*
X168470720Y-77951755D02*
X169137387Y-77951755D01*
X168089768Y-78189850D02*
X168804053Y-78427945D01*
X168804053Y-78427945D02*
X168804053Y-77808898D01*
X168565958Y-77285088D02*
X168518339Y-77380326D01*
X168518339Y-77380326D02*
X168470720Y-77427945D01*
X168470720Y-77427945D02*
X168375482Y-77475564D01*
X168375482Y-77475564D02*
X168327863Y-77475564D01*
X168327863Y-77475564D02*
X168232625Y-77427945D01*
X168232625Y-77427945D02*
X168185006Y-77380326D01*
X168185006Y-77380326D02*
X168137387Y-77285088D01*
X168137387Y-77285088D02*
X168137387Y-77094612D01*
X168137387Y-77094612D02*
X168185006Y-76999374D01*
X168185006Y-76999374D02*
X168232625Y-76951755D01*
X168232625Y-76951755D02*
X168327863Y-76904136D01*
X168327863Y-76904136D02*
X168375482Y-76904136D01*
X168375482Y-76904136D02*
X168470720Y-76951755D01*
X168470720Y-76951755D02*
X168518339Y-76999374D01*
X168518339Y-76999374D02*
X168565958Y-77094612D01*
X168565958Y-77094612D02*
X168565958Y-77285088D01*
X168565958Y-77285088D02*
X168613577Y-77380326D01*
X168613577Y-77380326D02*
X168661196Y-77427945D01*
X168661196Y-77427945D02*
X168756434Y-77475564D01*
X168756434Y-77475564D02*
X168946910Y-77475564D01*
X168946910Y-77475564D02*
X169042148Y-77427945D01*
X169042148Y-77427945D02*
X169089768Y-77380326D01*
X169089768Y-77380326D02*
X169137387Y-77285088D01*
X169137387Y-77285088D02*
X169137387Y-77094612D01*
X169137387Y-77094612D02*
X169089768Y-76999374D01*
X169089768Y-76999374D02*
X169042148Y-76951755D01*
X169042148Y-76951755D02*
X168946910Y-76904136D01*
X168946910Y-76904136D02*
X168756434Y-76904136D01*
X168756434Y-76904136D02*
X168661196Y-76951755D01*
X168661196Y-76951755D02*
X168613577Y-76999374D01*
X168613577Y-76999374D02*
X168565958Y-77094612D01*
X168137387Y-76618421D02*
X169137387Y-76285088D01*
X169137387Y-76285088D02*
X168137387Y-75951755D01*
X169794950Y-77856517D02*
X169747331Y-77951755D01*
X169747331Y-77951755D02*
X169747331Y-78094612D01*
X169747331Y-78094612D02*
X169794950Y-78237469D01*
X169794950Y-78237469D02*
X169890188Y-78332707D01*
X169890188Y-78332707D02*
X169985426Y-78380326D01*
X169985426Y-78380326D02*
X170175902Y-78427945D01*
X170175902Y-78427945D02*
X170318759Y-78427945D01*
X170318759Y-78427945D02*
X170509235Y-78380326D01*
X170509235Y-78380326D02*
X170604473Y-78332707D01*
X170604473Y-78332707D02*
X170699712Y-78237469D01*
X170699712Y-78237469D02*
X170747331Y-78094612D01*
X170747331Y-78094612D02*
X170747331Y-77999374D01*
X170747331Y-77999374D02*
X170699712Y-77856517D01*
X170699712Y-77856517D02*
X170652092Y-77808898D01*
X170652092Y-77808898D02*
X170318759Y-77808898D01*
X170318759Y-77808898D02*
X170318759Y-77999374D01*
X170747331Y-77380326D02*
X169747331Y-77380326D01*
X169747331Y-77380326D02*
X170747331Y-76808898D01*
X170747331Y-76808898D02*
X169747331Y-76808898D01*
X170747331Y-76332707D02*
X169747331Y-76332707D01*
X169747331Y-76332707D02*
X169747331Y-76094612D01*
X169747331Y-76094612D02*
X169794950Y-75951755D01*
X169794950Y-75951755D02*
X169890188Y-75856517D01*
X169890188Y-75856517D02*
X169985426Y-75808898D01*
X169985426Y-75808898D02*
X170175902Y-75761279D01*
X170175902Y-75761279D02*
X170318759Y-75761279D01*
X170318759Y-75761279D02*
X170509235Y-75808898D01*
X170509235Y-75808898D02*
X170604473Y-75856517D01*
X170604473Y-75856517D02*
X170699712Y-75951755D01*
X170699712Y-75951755D02*
X170747331Y-76094612D01*
X170747331Y-76094612D02*
X170747331Y-76332707D01*
X171404894Y-77856517D02*
X171357275Y-77951755D01*
X171357275Y-77951755D02*
X171357275Y-78094612D01*
X171357275Y-78094612D02*
X171404894Y-78237469D01*
X171404894Y-78237469D02*
X171500132Y-78332707D01*
X171500132Y-78332707D02*
X171595370Y-78380326D01*
X171595370Y-78380326D02*
X171785846Y-78427945D01*
X171785846Y-78427945D02*
X171928703Y-78427945D01*
X171928703Y-78427945D02*
X172119179Y-78380326D01*
X172119179Y-78380326D02*
X172214417Y-78332707D01*
X172214417Y-78332707D02*
X172309656Y-78237469D01*
X172309656Y-78237469D02*
X172357275Y-78094612D01*
X172357275Y-78094612D02*
X172357275Y-77999374D01*
X172357275Y-77999374D02*
X172309656Y-77856517D01*
X172309656Y-77856517D02*
X172262036Y-77808898D01*
X172262036Y-77808898D02*
X171928703Y-77808898D01*
X171928703Y-77808898D02*
X171928703Y-77999374D01*
X172357275Y-77380326D02*
X171357275Y-77380326D01*
X171357275Y-77380326D02*
X172357275Y-76808898D01*
X172357275Y-76808898D02*
X171357275Y-76808898D01*
X172357275Y-76332707D02*
X171357275Y-76332707D01*
X171357275Y-76332707D02*
X171357275Y-76094612D01*
X171357275Y-76094612D02*
X171404894Y-75951755D01*
X171404894Y-75951755D02*
X171500132Y-75856517D01*
X171500132Y-75856517D02*
X171595370Y-75808898D01*
X171595370Y-75808898D02*
X171785846Y-75761279D01*
X171785846Y-75761279D02*
X171928703Y-75761279D01*
X171928703Y-75761279D02*
X172119179Y-75808898D01*
X172119179Y-75808898D02*
X172214417Y-75856517D01*
X172214417Y-75856517D02*
X172309656Y-75951755D01*
X172309656Y-75951755D02*
X172357275Y-76094612D01*
X172357275Y-76094612D02*
X172357275Y-76332707D01*
X172967219Y-77904136D02*
X172967219Y-78380326D01*
X172967219Y-78380326D02*
X173443409Y-78427945D01*
X173443409Y-78427945D02*
X173395790Y-78380326D01*
X173395790Y-78380326D02*
X173348171Y-78285088D01*
X173348171Y-78285088D02*
X173348171Y-78046993D01*
X173348171Y-78046993D02*
X173395790Y-77951755D01*
X173395790Y-77951755D02*
X173443409Y-77904136D01*
X173443409Y-77904136D02*
X173538647Y-77856517D01*
X173538647Y-77856517D02*
X173776742Y-77856517D01*
X173776742Y-77856517D02*
X173871980Y-77904136D01*
X173871980Y-77904136D02*
X173919600Y-77951755D01*
X173919600Y-77951755D02*
X173967219Y-78046993D01*
X173967219Y-78046993D02*
X173967219Y-78285088D01*
X173967219Y-78285088D02*
X173919600Y-78380326D01*
X173919600Y-78380326D02*
X173871980Y-78427945D01*
X172967219Y-77570802D02*
X173967219Y-77237469D01*
X173967219Y-77237469D02*
X172967219Y-76904136D01*
X167800000Y-75350000D02*
X174300000Y-75350000D01*
X174300000Y-78850000D01*
X167800000Y-78850000D01*
X167800000Y-75350000D01*
X167467219Y-78530326D02*
X166467219Y-78530326D01*
X166467219Y-78530326D02*
X166467219Y-78149374D01*
X166467219Y-78149374D02*
X166514838Y-78054136D01*
X166514838Y-78054136D02*
X166562457Y-78006517D01*
X166562457Y-78006517D02*
X166657695Y-77958898D01*
X166657695Y-77958898D02*
X166800552Y-77958898D01*
X166800552Y-77958898D02*
X166895790Y-78006517D01*
X166895790Y-78006517D02*
X166943409Y-78054136D01*
X166943409Y-78054136D02*
X166991028Y-78149374D01*
X166991028Y-78149374D02*
X166991028Y-78530326D01*
X166467219Y-77625564D02*
X167467219Y-77387469D01*
X167467219Y-77387469D02*
X166752933Y-77196993D01*
X166752933Y-77196993D02*
X167467219Y-77006517D01*
X167467219Y-77006517D02*
X166467219Y-76768422D01*
X167467219Y-75816041D02*
X166991028Y-76149374D01*
X167467219Y-76387469D02*
X166467219Y-76387469D01*
X166467219Y-76387469D02*
X166467219Y-76006517D01*
X166467219Y-76006517D02*
X166514838Y-75911279D01*
X166514838Y-75911279D02*
X166562457Y-75863660D01*
X166562457Y-75863660D02*
X166657695Y-75816041D01*
X166657695Y-75816041D02*
X166800552Y-75816041D01*
X166800552Y-75816041D02*
X166895790Y-75863660D01*
X166895790Y-75863660D02*
X166943409Y-75911279D01*
X166943409Y-75911279D02*
X166991028Y-76006517D01*
X166991028Y-76006517D02*
X166991028Y-76387469D01*
X144923083Y-105232575D02*
X144846893Y-105194480D01*
X144846893Y-105194480D02*
X144732607Y-105194480D01*
X144732607Y-105194480D02*
X144618321Y-105232575D01*
X144618321Y-105232575D02*
X144542131Y-105308765D01*
X144542131Y-105308765D02*
X144504036Y-105384956D01*
X144504036Y-105384956D02*
X144465940Y-105537337D01*
X144465940Y-105537337D02*
X144465940Y-105651623D01*
X144465940Y-105651623D02*
X144504036Y-105804004D01*
X144504036Y-105804004D02*
X144542131Y-105880194D01*
X144542131Y-105880194D02*
X144618321Y-105956385D01*
X144618321Y-105956385D02*
X144732607Y-105994480D01*
X144732607Y-105994480D02*
X144808798Y-105994480D01*
X144808798Y-105994480D02*
X144923083Y-105956385D01*
X144923083Y-105956385D02*
X144961179Y-105918289D01*
X144961179Y-105918289D02*
X144961179Y-105651623D01*
X144961179Y-105651623D02*
X144808798Y-105651623D01*
X145304036Y-105994480D02*
X145304036Y-105194480D01*
X145304036Y-105194480D02*
X145761179Y-105994480D01*
X145761179Y-105994480D02*
X145761179Y-105194480D01*
X146142131Y-105994480D02*
X146142131Y-105194480D01*
X146142131Y-105194480D02*
X146332607Y-105194480D01*
X146332607Y-105194480D02*
X146446893Y-105232575D01*
X146446893Y-105232575D02*
X146523083Y-105308765D01*
X146523083Y-105308765D02*
X146561178Y-105384956D01*
X146561178Y-105384956D02*
X146599274Y-105537337D01*
X146599274Y-105537337D02*
X146599274Y-105651623D01*
X146599274Y-105651623D02*
X146561178Y-105804004D01*
X146561178Y-105804004D02*
X146523083Y-105880194D01*
X146523083Y-105880194D02*
X146446893Y-105956385D01*
X146446893Y-105956385D02*
X146332607Y-105994480D01*
X146332607Y-105994480D02*
X146142131Y-105994480D01*
X144389750Y-106482435D02*
X144846893Y-106482435D01*
X144618321Y-107282435D02*
X144618321Y-106482435D01*
X145037369Y-106482435D02*
X145570703Y-107282435D01*
X145570703Y-106482435D02*
X145037369Y-107282435D01*
X144961179Y-108570390D02*
X144694512Y-108189437D01*
X144504036Y-108570390D02*
X144504036Y-107770390D01*
X144504036Y-107770390D02*
X144808798Y-107770390D01*
X144808798Y-107770390D02*
X144884988Y-107808485D01*
X144884988Y-107808485D02*
X144923083Y-107846580D01*
X144923083Y-107846580D02*
X144961179Y-107922771D01*
X144961179Y-107922771D02*
X144961179Y-108037056D01*
X144961179Y-108037056D02*
X144923083Y-108113247D01*
X144923083Y-108113247D02*
X144884988Y-108151342D01*
X144884988Y-108151342D02*
X144808798Y-108189437D01*
X144808798Y-108189437D02*
X144504036Y-108189437D01*
X145227845Y-107770390D02*
X145761179Y-108570390D01*
X145761179Y-107770390D02*
X145227845Y-108570390D01*
X144427845Y-109058345D02*
X144923083Y-109058345D01*
X144923083Y-109058345D02*
X144656417Y-109363107D01*
X144656417Y-109363107D02*
X144770702Y-109363107D01*
X144770702Y-109363107D02*
X144846893Y-109401202D01*
X144846893Y-109401202D02*
X144884988Y-109439297D01*
X144884988Y-109439297D02*
X144923083Y-109515488D01*
X144923083Y-109515488D02*
X144923083Y-109705964D01*
X144923083Y-109705964D02*
X144884988Y-109782154D01*
X144884988Y-109782154D02*
X144846893Y-109820250D01*
X144846893Y-109820250D02*
X144770702Y-109858345D01*
X144770702Y-109858345D02*
X144542131Y-109858345D01*
X144542131Y-109858345D02*
X144465940Y-109820250D01*
X144465940Y-109820250D02*
X144427845Y-109782154D01*
X145151655Y-109058345D02*
X145418322Y-109858345D01*
X145418322Y-109858345D02*
X145684988Y-109058345D01*
X145875464Y-109058345D02*
X146370702Y-109058345D01*
X146370702Y-109058345D02*
X146104036Y-109363107D01*
X146104036Y-109363107D02*
X146218321Y-109363107D01*
X146218321Y-109363107D02*
X146294512Y-109401202D01*
X146294512Y-109401202D02*
X146332607Y-109439297D01*
X146332607Y-109439297D02*
X146370702Y-109515488D01*
X146370702Y-109515488D02*
X146370702Y-109705964D01*
X146370702Y-109705964D02*
X146332607Y-109782154D01*
X146332607Y-109782154D02*
X146294512Y-109820250D01*
X146294512Y-109820250D02*
X146218321Y-109858345D01*
X146218321Y-109858345D02*
X145989750Y-109858345D01*
X145989750Y-109858345D02*
X145913559Y-109820250D01*
X145913559Y-109820250D02*
X145875464Y-109782154D01*
X144240073Y-103758345D02*
X144240073Y-104405964D01*
X144240073Y-104405964D02*
X144278168Y-104482154D01*
X144278168Y-104482154D02*
X144316263Y-104520250D01*
X144316263Y-104520250D02*
X144392454Y-104558345D01*
X144392454Y-104558345D02*
X144544835Y-104558345D01*
X144544835Y-104558345D02*
X144621025Y-104520250D01*
X144621025Y-104520250D02*
X144659120Y-104482154D01*
X144659120Y-104482154D02*
X144697216Y-104405964D01*
X144697216Y-104405964D02*
X144697216Y-103758345D01*
X145040072Y-104329773D02*
X145421025Y-104329773D01*
X144963882Y-104558345D02*
X145230549Y-103758345D01*
X145230549Y-103758345D02*
X145497215Y-104558345D01*
X146221025Y-104558345D02*
X145954358Y-104177392D01*
X145763882Y-104558345D02*
X145763882Y-103758345D01*
X145763882Y-103758345D02*
X146068644Y-103758345D01*
X146068644Y-103758345D02*
X146144834Y-103796440D01*
X146144834Y-103796440D02*
X146182929Y-103834535D01*
X146182929Y-103834535D02*
X146221025Y-103910726D01*
X146221025Y-103910726D02*
X146221025Y-104025011D01*
X146221025Y-104025011D02*
X146182929Y-104101202D01*
X146182929Y-104101202D02*
X146144834Y-104139297D01*
X146144834Y-104139297D02*
X146068644Y-104177392D01*
X146068644Y-104177392D02*
X145763882Y-104177392D01*
X146449596Y-103758345D02*
X146906739Y-103758345D01*
X146678167Y-104558345D02*
X146678167Y-103758345D01*
X144118019Y-104866650D02*
X146881982Y-104866650D01*
X146881982Y-110133351D01*
X144118019Y-110133351D01*
X144118019Y-104866650D01*
X126058938Y-93875559D02*
X126097034Y-93913655D01*
X126097034Y-93913655D02*
X126135129Y-94027940D01*
X126135129Y-94027940D02*
X126135129Y-94104131D01*
X126135129Y-94104131D02*
X126097034Y-94218417D01*
X126097034Y-94218417D02*
X126020843Y-94294607D01*
X126020843Y-94294607D02*
X125944653Y-94332702D01*
X125944653Y-94332702D02*
X125792272Y-94370798D01*
X125792272Y-94370798D02*
X125677986Y-94370798D01*
X125677986Y-94370798D02*
X125525605Y-94332702D01*
X125525605Y-94332702D02*
X125449414Y-94294607D01*
X125449414Y-94294607D02*
X125373224Y-94218417D01*
X125373224Y-94218417D02*
X125335129Y-94104131D01*
X125335129Y-94104131D02*
X125335129Y-94027940D01*
X125335129Y-94027940D02*
X125373224Y-93913655D01*
X125373224Y-93913655D02*
X125411319Y-93875559D01*
X125906557Y-93570798D02*
X125906557Y-93189845D01*
X126135129Y-93646988D02*
X125335129Y-93380321D01*
X125335129Y-93380321D02*
X126135129Y-93113655D01*
X126135129Y-92846988D02*
X125335129Y-92846988D01*
X125335129Y-92846988D02*
X126135129Y-92389845D01*
X126135129Y-92389845D02*
X125335129Y-92389845D01*
X126135129Y-92008893D02*
X125335129Y-92008893D01*
X125716081Y-92008893D02*
X125716081Y-91551750D01*
X126135129Y-91551750D02*
X125335129Y-91551750D01*
X127346893Y-93875559D02*
X127384989Y-93913655D01*
X127384989Y-93913655D02*
X127423084Y-94027940D01*
X127423084Y-94027940D02*
X127423084Y-94104131D01*
X127423084Y-94104131D02*
X127384989Y-94218417D01*
X127384989Y-94218417D02*
X127308798Y-94294607D01*
X127308798Y-94294607D02*
X127232608Y-94332702D01*
X127232608Y-94332702D02*
X127080227Y-94370798D01*
X127080227Y-94370798D02*
X126965941Y-94370798D01*
X126965941Y-94370798D02*
X126813560Y-94332702D01*
X126813560Y-94332702D02*
X126737369Y-94294607D01*
X126737369Y-94294607D02*
X126661179Y-94218417D01*
X126661179Y-94218417D02*
X126623084Y-94104131D01*
X126623084Y-94104131D02*
X126623084Y-94027940D01*
X126623084Y-94027940D02*
X126661179Y-93913655D01*
X126661179Y-93913655D02*
X126699274Y-93875559D01*
X127194512Y-93570798D02*
X127194512Y-93189845D01*
X127423084Y-93646988D02*
X126623084Y-93380321D01*
X126623084Y-93380321D02*
X127423084Y-93113655D01*
X127423084Y-92846988D02*
X126623084Y-92846988D01*
X126623084Y-92846988D02*
X127423084Y-92389845D01*
X127423084Y-92389845D02*
X126623084Y-92389845D01*
X127423084Y-91627941D02*
X127423084Y-92008893D01*
X127423084Y-92008893D02*
X126623084Y-92008893D01*
X128672944Y-94370798D02*
X128711039Y-94256512D01*
X128711039Y-94256512D02*
X128711039Y-94066036D01*
X128711039Y-94066036D02*
X128672944Y-93989845D01*
X128672944Y-93989845D02*
X128634848Y-93951750D01*
X128634848Y-93951750D02*
X128558658Y-93913655D01*
X128558658Y-93913655D02*
X128482467Y-93913655D01*
X128482467Y-93913655D02*
X128406277Y-93951750D01*
X128406277Y-93951750D02*
X128368182Y-93989845D01*
X128368182Y-93989845D02*
X128330086Y-94066036D01*
X128330086Y-94066036D02*
X128291991Y-94218417D01*
X128291991Y-94218417D02*
X128253896Y-94294607D01*
X128253896Y-94294607D02*
X128215801Y-94332702D01*
X128215801Y-94332702D02*
X128139610Y-94370798D01*
X128139610Y-94370798D02*
X128063420Y-94370798D01*
X128063420Y-94370798D02*
X127987229Y-94332702D01*
X127987229Y-94332702D02*
X127949134Y-94294607D01*
X127949134Y-94294607D02*
X127911039Y-94218417D01*
X127911039Y-94218417D02*
X127911039Y-94027940D01*
X127911039Y-94027940D02*
X127949134Y-93913655D01*
X128711039Y-93570797D02*
X127911039Y-93570797D01*
X128291991Y-93570797D02*
X128291991Y-93113654D01*
X128711039Y-93113654D02*
X127911039Y-93113654D01*
X128711039Y-92351750D02*
X128711039Y-92732702D01*
X128711039Y-92732702D02*
X127911039Y-92732702D01*
X128711039Y-92085083D02*
X127911039Y-92085083D01*
X127911039Y-92085083D02*
X127911039Y-91894607D01*
X127911039Y-91894607D02*
X127949134Y-91780321D01*
X127949134Y-91780321D02*
X128025324Y-91704131D01*
X128025324Y-91704131D02*
X128101515Y-91666036D01*
X128101515Y-91666036D02*
X128253896Y-91627940D01*
X128253896Y-91627940D02*
X128368182Y-91627940D01*
X128368182Y-91627940D02*
X128520563Y-91666036D01*
X128520563Y-91666036D02*
X128596753Y-91704131D01*
X128596753Y-91704131D02*
X128672944Y-91780321D01*
X128672944Y-91780321D02*
X128711039Y-91894607D01*
X128711039Y-91894607D02*
X128711039Y-92085083D01*
X125022509Y-91322718D02*
X128977491Y-91322718D01*
X128977491Y-94677283D01*
X125022509Y-94677283D01*
X125022509Y-91322718D01*
X124634848Y-93475559D02*
X124672944Y-93513655D01*
X124672944Y-93513655D02*
X124711039Y-93627940D01*
X124711039Y-93627940D02*
X124711039Y-93704131D01*
X124711039Y-93704131D02*
X124672944Y-93818417D01*
X124672944Y-93818417D02*
X124596753Y-93894607D01*
X124596753Y-93894607D02*
X124520563Y-93932702D01*
X124520563Y-93932702D02*
X124368182Y-93970798D01*
X124368182Y-93970798D02*
X124253896Y-93970798D01*
X124253896Y-93970798D02*
X124101515Y-93932702D01*
X124101515Y-93932702D02*
X124025324Y-93894607D01*
X124025324Y-93894607D02*
X123949134Y-93818417D01*
X123949134Y-93818417D02*
X123911039Y-93704131D01*
X123911039Y-93704131D02*
X123911039Y-93627940D01*
X123911039Y-93627940D02*
X123949134Y-93513655D01*
X123949134Y-93513655D02*
X123987229Y-93475559D01*
X124482467Y-93170798D02*
X124482467Y-92789845D01*
X124711039Y-93246988D02*
X123911039Y-92980321D01*
X123911039Y-92980321D02*
X124711039Y-92713655D01*
X124711039Y-92446988D02*
X123911039Y-92446988D01*
X123911039Y-92446988D02*
X124711039Y-91989845D01*
X124711039Y-91989845D02*
X123911039Y-91989845D01*
X126317219Y-78330326D02*
X125317219Y-78330326D01*
X125317219Y-78330326D02*
X125317219Y-77949374D01*
X125317219Y-77949374D02*
X125364838Y-77854136D01*
X125364838Y-77854136D02*
X125412457Y-77806517D01*
X125412457Y-77806517D02*
X125507695Y-77758898D01*
X125507695Y-77758898D02*
X125650552Y-77758898D01*
X125650552Y-77758898D02*
X125745790Y-77806517D01*
X125745790Y-77806517D02*
X125793409Y-77854136D01*
X125793409Y-77854136D02*
X125841028Y-77949374D01*
X125841028Y-77949374D02*
X125841028Y-78330326D01*
X125317219Y-77425564D02*
X126317219Y-77187469D01*
X126317219Y-77187469D02*
X125602933Y-76996993D01*
X125602933Y-76996993D02*
X126317219Y-76806517D01*
X126317219Y-76806517D02*
X125317219Y-76568422D01*
X126317219Y-75616041D02*
X125841028Y-75949374D01*
X126317219Y-76187469D02*
X125317219Y-76187469D01*
X125317219Y-76187469D02*
X125317219Y-75806517D01*
X125317219Y-75806517D02*
X125364838Y-75711279D01*
X125364838Y-75711279D02*
X125412457Y-75663660D01*
X125412457Y-75663660D02*
X125507695Y-75616041D01*
X125507695Y-75616041D02*
X125650552Y-75616041D01*
X125650552Y-75616041D02*
X125745790Y-75663660D01*
X125745790Y-75663660D02*
X125793409Y-75711279D01*
X125793409Y-75711279D02*
X125841028Y-75806517D01*
X125841028Y-75806517D02*
X125841028Y-76187469D01*
X126650000Y-75150000D02*
X133150000Y-75150000D01*
X133150000Y-78650000D01*
X126650000Y-78650000D01*
X126650000Y-75150000D01*
X127320720Y-77751755D02*
X127987387Y-77751755D01*
X126939768Y-77989850D02*
X127654053Y-78227945D01*
X127654053Y-78227945D02*
X127654053Y-77608898D01*
X127415958Y-77085088D02*
X127368339Y-77180326D01*
X127368339Y-77180326D02*
X127320720Y-77227945D01*
X127320720Y-77227945D02*
X127225482Y-77275564D01*
X127225482Y-77275564D02*
X127177863Y-77275564D01*
X127177863Y-77275564D02*
X127082625Y-77227945D01*
X127082625Y-77227945D02*
X127035006Y-77180326D01*
X127035006Y-77180326D02*
X126987387Y-77085088D01*
X126987387Y-77085088D02*
X126987387Y-76894612D01*
X126987387Y-76894612D02*
X127035006Y-76799374D01*
X127035006Y-76799374D02*
X127082625Y-76751755D01*
X127082625Y-76751755D02*
X127177863Y-76704136D01*
X127177863Y-76704136D02*
X127225482Y-76704136D01*
X127225482Y-76704136D02*
X127320720Y-76751755D01*
X127320720Y-76751755D02*
X127368339Y-76799374D01*
X127368339Y-76799374D02*
X127415958Y-76894612D01*
X127415958Y-76894612D02*
X127415958Y-77085088D01*
X127415958Y-77085088D02*
X127463577Y-77180326D01*
X127463577Y-77180326D02*
X127511196Y-77227945D01*
X127511196Y-77227945D02*
X127606434Y-77275564D01*
X127606434Y-77275564D02*
X127796910Y-77275564D01*
X127796910Y-77275564D02*
X127892148Y-77227945D01*
X127892148Y-77227945D02*
X127939768Y-77180326D01*
X127939768Y-77180326D02*
X127987387Y-77085088D01*
X127987387Y-77085088D02*
X127987387Y-76894612D01*
X127987387Y-76894612D02*
X127939768Y-76799374D01*
X127939768Y-76799374D02*
X127892148Y-76751755D01*
X127892148Y-76751755D02*
X127796910Y-76704136D01*
X127796910Y-76704136D02*
X127606434Y-76704136D01*
X127606434Y-76704136D02*
X127511196Y-76751755D01*
X127511196Y-76751755D02*
X127463577Y-76799374D01*
X127463577Y-76799374D02*
X127415958Y-76894612D01*
X126987387Y-76418421D02*
X127987387Y-76085088D01*
X127987387Y-76085088D02*
X126987387Y-75751755D01*
X128644950Y-77656517D02*
X128597331Y-77751755D01*
X128597331Y-77751755D02*
X128597331Y-77894612D01*
X128597331Y-77894612D02*
X128644950Y-78037469D01*
X128644950Y-78037469D02*
X128740188Y-78132707D01*
X128740188Y-78132707D02*
X128835426Y-78180326D01*
X128835426Y-78180326D02*
X129025902Y-78227945D01*
X129025902Y-78227945D02*
X129168759Y-78227945D01*
X129168759Y-78227945D02*
X129359235Y-78180326D01*
X129359235Y-78180326D02*
X129454473Y-78132707D01*
X129454473Y-78132707D02*
X129549712Y-78037469D01*
X129549712Y-78037469D02*
X129597331Y-77894612D01*
X129597331Y-77894612D02*
X129597331Y-77799374D01*
X129597331Y-77799374D02*
X129549712Y-77656517D01*
X129549712Y-77656517D02*
X129502092Y-77608898D01*
X129502092Y-77608898D02*
X129168759Y-77608898D01*
X129168759Y-77608898D02*
X129168759Y-77799374D01*
X129597331Y-77180326D02*
X128597331Y-77180326D01*
X128597331Y-77180326D02*
X129597331Y-76608898D01*
X129597331Y-76608898D02*
X128597331Y-76608898D01*
X129597331Y-76132707D02*
X128597331Y-76132707D01*
X128597331Y-76132707D02*
X128597331Y-75894612D01*
X128597331Y-75894612D02*
X128644950Y-75751755D01*
X128644950Y-75751755D02*
X128740188Y-75656517D01*
X128740188Y-75656517D02*
X128835426Y-75608898D01*
X128835426Y-75608898D02*
X129025902Y-75561279D01*
X129025902Y-75561279D02*
X129168759Y-75561279D01*
X129168759Y-75561279D02*
X129359235Y-75608898D01*
X129359235Y-75608898D02*
X129454473Y-75656517D01*
X129454473Y-75656517D02*
X129549712Y-75751755D01*
X129549712Y-75751755D02*
X129597331Y-75894612D01*
X129597331Y-75894612D02*
X129597331Y-76132707D01*
X130254894Y-77656517D02*
X130207275Y-77751755D01*
X130207275Y-77751755D02*
X130207275Y-77894612D01*
X130207275Y-77894612D02*
X130254894Y-78037469D01*
X130254894Y-78037469D02*
X130350132Y-78132707D01*
X130350132Y-78132707D02*
X130445370Y-78180326D01*
X130445370Y-78180326D02*
X130635846Y-78227945D01*
X130635846Y-78227945D02*
X130778703Y-78227945D01*
X130778703Y-78227945D02*
X130969179Y-78180326D01*
X130969179Y-78180326D02*
X131064417Y-78132707D01*
X131064417Y-78132707D02*
X131159656Y-78037469D01*
X131159656Y-78037469D02*
X131207275Y-77894612D01*
X131207275Y-77894612D02*
X131207275Y-77799374D01*
X131207275Y-77799374D02*
X131159656Y-77656517D01*
X131159656Y-77656517D02*
X131112036Y-77608898D01*
X131112036Y-77608898D02*
X130778703Y-77608898D01*
X130778703Y-77608898D02*
X130778703Y-77799374D01*
X131207275Y-77180326D02*
X130207275Y-77180326D01*
X130207275Y-77180326D02*
X131207275Y-76608898D01*
X131207275Y-76608898D02*
X130207275Y-76608898D01*
X131207275Y-76132707D02*
X130207275Y-76132707D01*
X130207275Y-76132707D02*
X130207275Y-75894612D01*
X130207275Y-75894612D02*
X130254894Y-75751755D01*
X130254894Y-75751755D02*
X130350132Y-75656517D01*
X130350132Y-75656517D02*
X130445370Y-75608898D01*
X130445370Y-75608898D02*
X130635846Y-75561279D01*
X130635846Y-75561279D02*
X130778703Y-75561279D01*
X130778703Y-75561279D02*
X130969179Y-75608898D01*
X130969179Y-75608898D02*
X131064417Y-75656517D01*
X131064417Y-75656517D02*
X131159656Y-75751755D01*
X131159656Y-75751755D02*
X131207275Y-75894612D01*
X131207275Y-75894612D02*
X131207275Y-76132707D01*
X131817219Y-77704136D02*
X131817219Y-78180326D01*
X131817219Y-78180326D02*
X132293409Y-78227945D01*
X132293409Y-78227945D02*
X132245790Y-78180326D01*
X132245790Y-78180326D02*
X132198171Y-78085088D01*
X132198171Y-78085088D02*
X132198171Y-77846993D01*
X132198171Y-77846993D02*
X132245790Y-77751755D01*
X132245790Y-77751755D02*
X132293409Y-77704136D01*
X132293409Y-77704136D02*
X132388647Y-77656517D01*
X132388647Y-77656517D02*
X132626742Y-77656517D01*
X132626742Y-77656517D02*
X132721980Y-77704136D01*
X132721980Y-77704136D02*
X132769600Y-77751755D01*
X132769600Y-77751755D02*
X132817219Y-77846993D01*
X132817219Y-77846993D02*
X132817219Y-78085088D01*
X132817219Y-78085088D02*
X132769600Y-78180326D01*
X132769600Y-78180326D02*
X132721980Y-78227945D01*
X131817219Y-77370802D02*
X132817219Y-77037469D01*
X132817219Y-77037469D02*
X131817219Y-76704136D01*
X178647147Y-107544166D02*
X178647147Y-106544166D01*
X179123337Y-107544166D02*
X179123337Y-106544166D01*
X179123337Y-106544166D02*
X179694765Y-107544166D01*
X179694765Y-107544166D02*
X179694765Y-106544166D01*
X178837623Y-108154110D02*
X179028099Y-108154110D01*
X179028099Y-108154110D02*
X179123337Y-108201729D01*
X179123337Y-108201729D02*
X179218575Y-108296967D01*
X179218575Y-108296967D02*
X179266194Y-108487443D01*
X179266194Y-108487443D02*
X179266194Y-108820776D01*
X179266194Y-108820776D02*
X179218575Y-109011252D01*
X179218575Y-109011252D02*
X179123337Y-109106491D01*
X179123337Y-109106491D02*
X179028099Y-109154110D01*
X179028099Y-109154110D02*
X178837623Y-109154110D01*
X178837623Y-109154110D02*
X178742385Y-109106491D01*
X178742385Y-109106491D02*
X178647147Y-109011252D01*
X178647147Y-109011252D02*
X178599528Y-108820776D01*
X178599528Y-108820776D02*
X178599528Y-108487443D01*
X178599528Y-108487443D02*
X178647147Y-108296967D01*
X178647147Y-108296967D02*
X178742385Y-108201729D01*
X178742385Y-108201729D02*
X178837623Y-108154110D01*
X179694766Y-108154110D02*
X179694766Y-108963633D01*
X179694766Y-108963633D02*
X179742385Y-109058871D01*
X179742385Y-109058871D02*
X179790004Y-109106491D01*
X179790004Y-109106491D02*
X179885242Y-109154110D01*
X179885242Y-109154110D02*
X180075718Y-109154110D01*
X180075718Y-109154110D02*
X180170956Y-109106491D01*
X180170956Y-109106491D02*
X180218575Y-109058871D01*
X180218575Y-109058871D02*
X180266194Y-108963633D01*
X180266194Y-108963633D02*
X180266194Y-108154110D01*
X180599528Y-108154110D02*
X181170956Y-108154110D01*
X180885242Y-109154110D02*
X180885242Y-108154110D01*
X178647147Y-110764054D02*
X178647147Y-109764054D01*
X178647147Y-109764054D02*
X179218575Y-110764054D01*
X179218575Y-110764054D02*
X179218575Y-109764054D01*
X180266194Y-110668815D02*
X180218575Y-110716435D01*
X180218575Y-110716435D02*
X180075718Y-110764054D01*
X180075718Y-110764054D02*
X179980480Y-110764054D01*
X179980480Y-110764054D02*
X179837623Y-110716435D01*
X179837623Y-110716435D02*
X179742385Y-110621196D01*
X179742385Y-110621196D02*
X179694766Y-110525958D01*
X179694766Y-110525958D02*
X179647147Y-110335482D01*
X179647147Y-110335482D02*
X179647147Y-110192625D01*
X179647147Y-110192625D02*
X179694766Y-110002149D01*
X179694766Y-110002149D02*
X179742385Y-109906911D01*
X179742385Y-109906911D02*
X179837623Y-109811673D01*
X179837623Y-109811673D02*
X179980480Y-109764054D01*
X179980480Y-109764054D02*
X180075718Y-109764054D01*
X180075718Y-109764054D02*
X180218575Y-109811673D01*
X180218575Y-109811673D02*
X180266194Y-109859292D01*
X177825532Y-105137079D02*
X177968389Y-105184698D01*
X177968389Y-105184698D02*
X178016008Y-105232317D01*
X178016008Y-105232317D02*
X178063627Y-105327555D01*
X178063627Y-105327555D02*
X178063627Y-105470412D01*
X178063627Y-105470412D02*
X178016008Y-105565650D01*
X178016008Y-105565650D02*
X177968389Y-105613270D01*
X177968389Y-105613270D02*
X177873151Y-105660889D01*
X177873151Y-105660889D02*
X177492199Y-105660889D01*
X177492199Y-105660889D02*
X177492199Y-104660889D01*
X177492199Y-104660889D02*
X177825532Y-104660889D01*
X177825532Y-104660889D02*
X177920770Y-104708508D01*
X177920770Y-104708508D02*
X177968389Y-104756127D01*
X177968389Y-104756127D02*
X178016008Y-104851365D01*
X178016008Y-104851365D02*
X178016008Y-104946603D01*
X178016008Y-104946603D02*
X177968389Y-105041841D01*
X177968389Y-105041841D02*
X177920770Y-105089460D01*
X177920770Y-105089460D02*
X177825532Y-105137079D01*
X177825532Y-105137079D02*
X177492199Y-105137079D01*
X179063627Y-105660889D02*
X178730294Y-105184698D01*
X178492199Y-105660889D02*
X178492199Y-104660889D01*
X178492199Y-104660889D02*
X178873151Y-104660889D01*
X178873151Y-104660889D02*
X178968389Y-104708508D01*
X178968389Y-104708508D02*
X179016008Y-104756127D01*
X179016008Y-104756127D02*
X179063627Y-104851365D01*
X179063627Y-104851365D02*
X179063627Y-104994222D01*
X179063627Y-104994222D02*
X179016008Y-105089460D01*
X179016008Y-105089460D02*
X178968389Y-105137079D01*
X178968389Y-105137079D02*
X178873151Y-105184698D01*
X178873151Y-105184698D02*
X178492199Y-105184698D01*
X179444580Y-105375174D02*
X179920770Y-105375174D01*
X179349342Y-105660889D02*
X179682675Y-104660889D01*
X179682675Y-104660889D02*
X180016008Y-105660889D01*
X180349342Y-105660889D02*
X180349342Y-104660889D01*
X180920770Y-105660889D02*
X180492199Y-105089460D01*
X180920770Y-104660889D02*
X180349342Y-105232317D01*
X181349342Y-105137079D02*
X181682675Y-105137079D01*
X181825532Y-105660889D02*
X181349342Y-105660889D01*
X181349342Y-105660889D02*
X181349342Y-104660889D01*
X181349342Y-104660889D02*
X181825532Y-104660889D01*
X178177474Y-106100000D02*
X181622526Y-106100000D01*
X181622526Y-111293670D01*
X178177474Y-111293670D01*
X178177474Y-106100000D01*
X167473337Y-110950496D02*
X166997147Y-110950496D01*
X166997147Y-110950496D02*
X166949528Y-111426686D01*
X166949528Y-111426686D02*
X166997147Y-111379067D01*
X166997147Y-111379067D02*
X167092385Y-111331448D01*
X167092385Y-111331448D02*
X167330480Y-111331448D01*
X167330480Y-111331448D02*
X167425718Y-111379067D01*
X167425718Y-111379067D02*
X167473337Y-111426686D01*
X167473337Y-111426686D02*
X167520956Y-111521924D01*
X167520956Y-111521924D02*
X167520956Y-111760019D01*
X167520956Y-111760019D02*
X167473337Y-111855257D01*
X167473337Y-111855257D02*
X167425718Y-111902877D01*
X167425718Y-111902877D02*
X167330480Y-111950496D01*
X167330480Y-111950496D02*
X167092385Y-111950496D01*
X167092385Y-111950496D02*
X166997147Y-111902877D01*
X166997147Y-111902877D02*
X166949528Y-111855257D01*
X167806671Y-110950496D02*
X168140004Y-111950496D01*
X168140004Y-111950496D02*
X168473337Y-110950496D01*
X167520956Y-112608059D02*
X167425718Y-112560440D01*
X167425718Y-112560440D02*
X167282861Y-112560440D01*
X167282861Y-112560440D02*
X167140004Y-112608059D01*
X167140004Y-112608059D02*
X167044766Y-112703297D01*
X167044766Y-112703297D02*
X166997147Y-112798535D01*
X166997147Y-112798535D02*
X166949528Y-112989011D01*
X166949528Y-112989011D02*
X166949528Y-113131868D01*
X166949528Y-113131868D02*
X166997147Y-113322344D01*
X166997147Y-113322344D02*
X167044766Y-113417582D01*
X167044766Y-113417582D02*
X167140004Y-113512821D01*
X167140004Y-113512821D02*
X167282861Y-113560440D01*
X167282861Y-113560440D02*
X167378099Y-113560440D01*
X167378099Y-113560440D02*
X167520956Y-113512821D01*
X167520956Y-113512821D02*
X167568575Y-113465201D01*
X167568575Y-113465201D02*
X167568575Y-113131868D01*
X167568575Y-113131868D02*
X167378099Y-113131868D01*
X167997147Y-113560440D02*
X167997147Y-112560440D01*
X167997147Y-112560440D02*
X168568575Y-113560440D01*
X168568575Y-113560440D02*
X168568575Y-112560440D01*
X169044766Y-113560440D02*
X169044766Y-112560440D01*
X169044766Y-112560440D02*
X169282861Y-112560440D01*
X169282861Y-112560440D02*
X169425718Y-112608059D01*
X169425718Y-112608059D02*
X169520956Y-112703297D01*
X169520956Y-112703297D02*
X169568575Y-112798535D01*
X169568575Y-112798535D02*
X169616194Y-112989011D01*
X169616194Y-112989011D02*
X169616194Y-113131868D01*
X169616194Y-113131868D02*
X169568575Y-113322344D01*
X169568575Y-113322344D02*
X169520956Y-113417582D01*
X169520956Y-113417582D02*
X169425718Y-113512821D01*
X169425718Y-113512821D02*
X169282861Y-113560440D01*
X169282861Y-113560440D02*
X169044766Y-113560440D01*
X167663813Y-115265622D02*
X167568575Y-115218003D01*
X167568575Y-115218003D02*
X167473337Y-115122765D01*
X167473337Y-115122765D02*
X167330480Y-114979907D01*
X167330480Y-114979907D02*
X167235242Y-114932288D01*
X167235242Y-114932288D02*
X167140004Y-114932288D01*
X167187623Y-115170384D02*
X167092385Y-115122765D01*
X167092385Y-115122765D02*
X166997147Y-115027526D01*
X166997147Y-115027526D02*
X166949528Y-114837050D01*
X166949528Y-114837050D02*
X166949528Y-114503717D01*
X166949528Y-114503717D02*
X166997147Y-114313241D01*
X166997147Y-114313241D02*
X167092385Y-114218003D01*
X167092385Y-114218003D02*
X167187623Y-114170384D01*
X167187623Y-114170384D02*
X167378099Y-114170384D01*
X167378099Y-114170384D02*
X167473337Y-114218003D01*
X167473337Y-114218003D02*
X167568575Y-114313241D01*
X167568575Y-114313241D02*
X167616194Y-114503717D01*
X167616194Y-114503717D02*
X167616194Y-114837050D01*
X167616194Y-114837050D02*
X167568575Y-115027526D01*
X167568575Y-115027526D02*
X167473337Y-115122765D01*
X167473337Y-115122765D02*
X167378099Y-115170384D01*
X167378099Y-115170384D02*
X167187623Y-115170384D01*
X166697147Y-110170384D02*
X166697147Y-109170384D01*
X166697147Y-109646574D02*
X167268575Y-109646574D01*
X167268575Y-110170384D02*
X167268575Y-109170384D01*
X167697147Y-109884669D02*
X168173337Y-109884669D01*
X167601909Y-110170384D02*
X167935242Y-109170384D01*
X167935242Y-109170384D02*
X168268575Y-110170384D01*
X169078099Y-110170384D02*
X168601909Y-110170384D01*
X168601909Y-110170384D02*
X168601909Y-109170384D01*
X169887623Y-110170384D02*
X169411433Y-110170384D01*
X169411433Y-110170384D02*
X169411433Y-109170384D01*
X166527474Y-110503165D02*
X170072526Y-110503165D01*
X170072526Y-115696835D01*
X166527474Y-115696835D01*
X166527474Y-110503165D01*
X124219673Y-115867219D02*
X124219673Y-114867219D01*
X124219673Y-114867219D02*
X124457768Y-114867219D01*
X124457768Y-114867219D02*
X124600625Y-114914838D01*
X124600625Y-114914838D02*
X124695863Y-115010076D01*
X124695863Y-115010076D02*
X124743482Y-115105314D01*
X124743482Y-115105314D02*
X124791101Y-115295790D01*
X124791101Y-115295790D02*
X124791101Y-115438647D01*
X124791101Y-115438647D02*
X124743482Y-115629123D01*
X124743482Y-115629123D02*
X124695863Y-115724361D01*
X124695863Y-115724361D02*
X124600625Y-115819600D01*
X124600625Y-115819600D02*
X124457768Y-115867219D01*
X124457768Y-115867219D02*
X124219673Y-115867219D01*
X125219673Y-115867219D02*
X125219673Y-115200552D01*
X125219673Y-115391028D02*
X125267292Y-115295790D01*
X125267292Y-115295790D02*
X125314911Y-115248171D01*
X125314911Y-115248171D02*
X125410149Y-115200552D01*
X125410149Y-115200552D02*
X125505387Y-115200552D01*
X125838721Y-115867219D02*
X125838721Y-115200552D01*
X125838721Y-114867219D02*
X125791102Y-114914838D01*
X125791102Y-114914838D02*
X125838721Y-114962457D01*
X125838721Y-114962457D02*
X125886340Y-114914838D01*
X125886340Y-114914838D02*
X125838721Y-114867219D01*
X125838721Y-114867219D02*
X125838721Y-114962457D01*
X126219673Y-115200552D02*
X126457768Y-115867219D01*
X126457768Y-115867219D02*
X126695863Y-115200552D01*
X127457768Y-115819600D02*
X127362530Y-115867219D01*
X127362530Y-115867219D02*
X127172054Y-115867219D01*
X127172054Y-115867219D02*
X127076816Y-115819600D01*
X127076816Y-115819600D02*
X127029197Y-115724361D01*
X127029197Y-115724361D02*
X127029197Y-115343409D01*
X127029197Y-115343409D02*
X127076816Y-115248171D01*
X127076816Y-115248171D02*
X127172054Y-115200552D01*
X127172054Y-115200552D02*
X127362530Y-115200552D01*
X127362530Y-115200552D02*
X127457768Y-115248171D01*
X127457768Y-115248171D02*
X127505387Y-115343409D01*
X127505387Y-115343409D02*
X127505387Y-115438647D01*
X127505387Y-115438647D02*
X127029197Y-115533885D01*
X127933959Y-115867219D02*
X127933959Y-115200552D01*
X127933959Y-115391028D02*
X127981578Y-115295790D01*
X127981578Y-115295790D02*
X128029197Y-115248171D01*
X128029197Y-115248171D02*
X128124435Y-115200552D01*
X128124435Y-115200552D02*
X128219673Y-115200552D01*
X124050000Y-116200000D02*
X128350000Y-116200000D01*
X128350000Y-122700000D01*
X124050000Y-122700000D01*
X124050000Y-116200000D01*
X125091101Y-117442148D02*
X125043482Y-117489768D01*
X125043482Y-117489768D02*
X124900625Y-117537387D01*
X124900625Y-117537387D02*
X124805387Y-117537387D01*
X124805387Y-117537387D02*
X124662530Y-117489768D01*
X124662530Y-117489768D02*
X124567292Y-117394529D01*
X124567292Y-117394529D02*
X124519673Y-117299291D01*
X124519673Y-117299291D02*
X124472054Y-117108815D01*
X124472054Y-117108815D02*
X124472054Y-116965958D01*
X124472054Y-116965958D02*
X124519673Y-116775482D01*
X124519673Y-116775482D02*
X124567292Y-116680244D01*
X124567292Y-116680244D02*
X124662530Y-116585006D01*
X124662530Y-116585006D02*
X124805387Y-116537387D01*
X124805387Y-116537387D02*
X124900625Y-116537387D01*
X124900625Y-116537387D02*
X125043482Y-116585006D01*
X125043482Y-116585006D02*
X125091101Y-116632625D01*
X125472054Y-117251672D02*
X125948244Y-117251672D01*
X125376816Y-117537387D02*
X125710149Y-116537387D01*
X125710149Y-116537387D02*
X126043482Y-117537387D01*
X126376816Y-117537387D02*
X126376816Y-116537387D01*
X126376816Y-116537387D02*
X126948244Y-117537387D01*
X126948244Y-117537387D02*
X126948244Y-116537387D01*
X127424435Y-117537387D02*
X127424435Y-116537387D01*
X127424435Y-117013577D02*
X127995863Y-117013577D01*
X127995863Y-117537387D02*
X127995863Y-116537387D01*
X125091101Y-119052092D02*
X125043482Y-119099712D01*
X125043482Y-119099712D02*
X124900625Y-119147331D01*
X124900625Y-119147331D02*
X124805387Y-119147331D01*
X124805387Y-119147331D02*
X124662530Y-119099712D01*
X124662530Y-119099712D02*
X124567292Y-119004473D01*
X124567292Y-119004473D02*
X124519673Y-118909235D01*
X124519673Y-118909235D02*
X124472054Y-118718759D01*
X124472054Y-118718759D02*
X124472054Y-118575902D01*
X124472054Y-118575902D02*
X124519673Y-118385426D01*
X124519673Y-118385426D02*
X124567292Y-118290188D01*
X124567292Y-118290188D02*
X124662530Y-118194950D01*
X124662530Y-118194950D02*
X124805387Y-118147331D01*
X124805387Y-118147331D02*
X124900625Y-118147331D01*
X124900625Y-118147331D02*
X125043482Y-118194950D01*
X125043482Y-118194950D02*
X125091101Y-118242569D01*
X125472054Y-118861616D02*
X125948244Y-118861616D01*
X125376816Y-119147331D02*
X125710149Y-118147331D01*
X125710149Y-118147331D02*
X126043482Y-119147331D01*
X126376816Y-119147331D02*
X126376816Y-118147331D01*
X126376816Y-118147331D02*
X126948244Y-119147331D01*
X126948244Y-119147331D02*
X126948244Y-118147331D01*
X127900625Y-119147331D02*
X127424435Y-119147331D01*
X127424435Y-119147331D02*
X127424435Y-118147331D01*
X125043482Y-119804894D02*
X124948244Y-119757275D01*
X124948244Y-119757275D02*
X124805387Y-119757275D01*
X124805387Y-119757275D02*
X124662530Y-119804894D01*
X124662530Y-119804894D02*
X124567292Y-119900132D01*
X124567292Y-119900132D02*
X124519673Y-119995370D01*
X124519673Y-119995370D02*
X124472054Y-120185846D01*
X124472054Y-120185846D02*
X124472054Y-120328703D01*
X124472054Y-120328703D02*
X124519673Y-120519179D01*
X124519673Y-120519179D02*
X124567292Y-120614417D01*
X124567292Y-120614417D02*
X124662530Y-120709656D01*
X124662530Y-120709656D02*
X124805387Y-120757275D01*
X124805387Y-120757275D02*
X124900625Y-120757275D01*
X124900625Y-120757275D02*
X125043482Y-120709656D01*
X125043482Y-120709656D02*
X125091101Y-120662036D01*
X125091101Y-120662036D02*
X125091101Y-120328703D01*
X125091101Y-120328703D02*
X124900625Y-120328703D01*
X125519673Y-120757275D02*
X125519673Y-119757275D01*
X125519673Y-119757275D02*
X126091101Y-120757275D01*
X126091101Y-120757275D02*
X126091101Y-119757275D01*
X126567292Y-120757275D02*
X126567292Y-119757275D01*
X126567292Y-119757275D02*
X126805387Y-119757275D01*
X126805387Y-119757275D02*
X126948244Y-119804894D01*
X126948244Y-119804894D02*
X127043482Y-119900132D01*
X127043482Y-119900132D02*
X127091101Y-119995370D01*
X127091101Y-119995370D02*
X127138720Y-120185846D01*
X127138720Y-120185846D02*
X127138720Y-120328703D01*
X127138720Y-120328703D02*
X127091101Y-120519179D01*
X127091101Y-120519179D02*
X127043482Y-120614417D01*
X127043482Y-120614417D02*
X126948244Y-120709656D01*
X126948244Y-120709656D02*
X126805387Y-120757275D01*
X126805387Y-120757275D02*
X126567292Y-120757275D01*
X124948244Y-121700552D02*
X124948244Y-122367219D01*
X124710149Y-121319600D02*
X124472054Y-122033885D01*
X124472054Y-122033885D02*
X125091101Y-122033885D01*
X125614911Y-121795790D02*
X125519673Y-121748171D01*
X125519673Y-121748171D02*
X125472054Y-121700552D01*
X125472054Y-121700552D02*
X125424435Y-121605314D01*
X125424435Y-121605314D02*
X125424435Y-121557695D01*
X125424435Y-121557695D02*
X125472054Y-121462457D01*
X125472054Y-121462457D02*
X125519673Y-121414838D01*
X125519673Y-121414838D02*
X125614911Y-121367219D01*
X125614911Y-121367219D02*
X125805387Y-121367219D01*
X125805387Y-121367219D02*
X125900625Y-121414838D01*
X125900625Y-121414838D02*
X125948244Y-121462457D01*
X125948244Y-121462457D02*
X125995863Y-121557695D01*
X125995863Y-121557695D02*
X125995863Y-121605314D01*
X125995863Y-121605314D02*
X125948244Y-121700552D01*
X125948244Y-121700552D02*
X125900625Y-121748171D01*
X125900625Y-121748171D02*
X125805387Y-121795790D01*
X125805387Y-121795790D02*
X125614911Y-121795790D01*
X125614911Y-121795790D02*
X125519673Y-121843409D01*
X125519673Y-121843409D02*
X125472054Y-121891028D01*
X125472054Y-121891028D02*
X125424435Y-121986266D01*
X125424435Y-121986266D02*
X125424435Y-122176742D01*
X125424435Y-122176742D02*
X125472054Y-122271980D01*
X125472054Y-122271980D02*
X125519673Y-122319600D01*
X125519673Y-122319600D02*
X125614911Y-122367219D01*
X125614911Y-122367219D02*
X125805387Y-122367219D01*
X125805387Y-122367219D02*
X125900625Y-122319600D01*
X125900625Y-122319600D02*
X125948244Y-122271980D01*
X125948244Y-122271980D02*
X125995863Y-122176742D01*
X125995863Y-122176742D02*
X125995863Y-121986266D01*
X125995863Y-121986266D02*
X125948244Y-121891028D01*
X125948244Y-121891028D02*
X125900625Y-121843409D01*
X125900625Y-121843409D02*
X125805387Y-121795790D01*
X126281578Y-121367219D02*
X126614911Y-122367219D01*
X126614911Y-122367219D02*
X126948244Y-121367219D01*
X132667219Y-129339850D02*
X132667219Y-129149374D01*
X132667219Y-129149374D02*
X132714838Y-129054136D01*
X132714838Y-129054136D02*
X132810076Y-128958898D01*
X132810076Y-128958898D02*
X133000552Y-128911279D01*
X133000552Y-128911279D02*
X133333885Y-128911279D01*
X133333885Y-128911279D02*
X133524361Y-128958898D01*
X133524361Y-128958898D02*
X133619600Y-129054136D01*
X133619600Y-129054136D02*
X133667219Y-129149374D01*
X133667219Y-129149374D02*
X133667219Y-129339850D01*
X133667219Y-129339850D02*
X133619600Y-129435088D01*
X133619600Y-129435088D02*
X133524361Y-129530326D01*
X133524361Y-129530326D02*
X133333885Y-129577945D01*
X133333885Y-129577945D02*
X133000552Y-129577945D01*
X133000552Y-129577945D02*
X132810076Y-129530326D01*
X132810076Y-129530326D02*
X132714838Y-129435088D01*
X132714838Y-129435088D02*
X132667219Y-129339850D01*
X133143409Y-128149374D02*
X133143409Y-128482707D01*
X133667219Y-128482707D02*
X132667219Y-128482707D01*
X132667219Y-128482707D02*
X132667219Y-128006517D01*
X133143409Y-127292231D02*
X133143409Y-127625564D01*
X133667219Y-127625564D02*
X132667219Y-127625564D01*
X132667219Y-127625564D02*
X132667219Y-127149374D01*
X132667219Y-124339850D02*
X132667219Y-123720803D01*
X132667219Y-123720803D02*
X133048171Y-124054136D01*
X133048171Y-124054136D02*
X133048171Y-123911279D01*
X133048171Y-123911279D02*
X133095790Y-123816041D01*
X133095790Y-123816041D02*
X133143409Y-123768422D01*
X133143409Y-123768422D02*
X133238647Y-123720803D01*
X133238647Y-123720803D02*
X133476742Y-123720803D01*
X133476742Y-123720803D02*
X133571980Y-123768422D01*
X133571980Y-123768422D02*
X133619600Y-123816041D01*
X133619600Y-123816041D02*
X133667219Y-123911279D01*
X133667219Y-123911279D02*
X133667219Y-124196993D01*
X133667219Y-124196993D02*
X133619600Y-124292231D01*
X133619600Y-124292231D02*
X133571980Y-124339850D01*
X133571980Y-123292231D02*
X133619600Y-123244612D01*
X133619600Y-123244612D02*
X133667219Y-123292231D01*
X133667219Y-123292231D02*
X133619600Y-123339850D01*
X133619600Y-123339850D02*
X133571980Y-123292231D01*
X133571980Y-123292231D02*
X133667219Y-123292231D01*
X132667219Y-122911279D02*
X132667219Y-122292232D01*
X132667219Y-122292232D02*
X133048171Y-122625565D01*
X133048171Y-122625565D02*
X133048171Y-122482708D01*
X133048171Y-122482708D02*
X133095790Y-122387470D01*
X133095790Y-122387470D02*
X133143409Y-122339851D01*
X133143409Y-122339851D02*
X133238647Y-122292232D01*
X133238647Y-122292232D02*
X133476742Y-122292232D01*
X133476742Y-122292232D02*
X133571980Y-122339851D01*
X133571980Y-122339851D02*
X133619600Y-122387470D01*
X133619600Y-122387470D02*
X133667219Y-122482708D01*
X133667219Y-122482708D02*
X133667219Y-122768422D01*
X133667219Y-122768422D02*
X133619600Y-122863660D01*
X133619600Y-122863660D02*
X133571980Y-122911279D01*
X132667219Y-122006517D02*
X133667219Y-121673184D01*
X133667219Y-121673184D02*
X132667219Y-121339851D01*
X136562152Y-92045117D02*
X136714533Y-92045117D01*
X136714533Y-92045117D02*
X136790723Y-92083212D01*
X136790723Y-92083212D02*
X136866914Y-92159402D01*
X136866914Y-92159402D02*
X136905009Y-92311783D01*
X136905009Y-92311783D02*
X136905009Y-92578450D01*
X136905009Y-92578450D02*
X136866914Y-92730831D01*
X136866914Y-92730831D02*
X136790723Y-92807022D01*
X136790723Y-92807022D02*
X136714533Y-92845117D01*
X136714533Y-92845117D02*
X136562152Y-92845117D01*
X136562152Y-92845117D02*
X136485961Y-92807022D01*
X136485961Y-92807022D02*
X136409771Y-92730831D01*
X136409771Y-92730831D02*
X136371675Y-92578450D01*
X136371675Y-92578450D02*
X136371675Y-92311783D01*
X136371675Y-92311783D02*
X136409771Y-92159402D01*
X136409771Y-92159402D02*
X136485961Y-92083212D01*
X136485961Y-92083212D02*
X136562152Y-92045117D01*
X137247866Y-92845117D02*
X137247866Y-92045117D01*
X137247866Y-92045117D02*
X137705009Y-92845117D01*
X137705009Y-92845117D02*
X137705009Y-92045117D01*
X138085961Y-92768926D02*
X138124056Y-92807022D01*
X138124056Y-92807022D02*
X138085961Y-92845117D01*
X138085961Y-92845117D02*
X138047865Y-92807022D01*
X138047865Y-92807022D02*
X138085961Y-92768926D01*
X138085961Y-92768926D02*
X138085961Y-92845117D01*
X138085961Y-92349879D02*
X138124056Y-92387974D01*
X138124056Y-92387974D02*
X138085961Y-92426069D01*
X138085961Y-92426069D02*
X138047865Y-92387974D01*
X138047865Y-92387974D02*
X138085961Y-92349879D01*
X138085961Y-92349879D02*
X138085961Y-92426069D01*
X136828818Y-94133072D02*
X136371675Y-94133072D01*
X136600247Y-94133072D02*
X136600247Y-93333072D01*
X136600247Y-93333072D02*
X136524056Y-93447357D01*
X136524056Y-93447357D02*
X136447866Y-93523548D01*
X136447866Y-93523548D02*
X136371675Y-93561643D01*
X137133580Y-93409262D02*
X137171676Y-93371167D01*
X137171676Y-93371167D02*
X137247866Y-93333072D01*
X137247866Y-93333072D02*
X137438342Y-93333072D01*
X137438342Y-93333072D02*
X137514533Y-93371167D01*
X137514533Y-93371167D02*
X137552628Y-93409262D01*
X137552628Y-93409262D02*
X137590723Y-93485453D01*
X137590723Y-93485453D02*
X137590723Y-93561643D01*
X137590723Y-93561643D02*
X137552628Y-93675929D01*
X137552628Y-93675929D02*
X137095485Y-94133072D01*
X137095485Y-94133072D02*
X137590723Y-94133072D01*
X138085962Y-93333072D02*
X138162152Y-93333072D01*
X138162152Y-93333072D02*
X138238343Y-93371167D01*
X138238343Y-93371167D02*
X138276438Y-93409262D01*
X138276438Y-93409262D02*
X138314533Y-93485453D01*
X138314533Y-93485453D02*
X138352628Y-93637834D01*
X138352628Y-93637834D02*
X138352628Y-93828310D01*
X138352628Y-93828310D02*
X138314533Y-93980691D01*
X138314533Y-93980691D02*
X138276438Y-94056881D01*
X138276438Y-94056881D02*
X138238343Y-94094977D01*
X138238343Y-94094977D02*
X138162152Y-94133072D01*
X138162152Y-94133072D02*
X138085962Y-94133072D01*
X138085962Y-94133072D02*
X138009771Y-94094977D01*
X138009771Y-94094977D02*
X137971676Y-94056881D01*
X137971676Y-94056881D02*
X137933581Y-93980691D01*
X137933581Y-93980691D02*
X137895485Y-93828310D01*
X137895485Y-93828310D02*
X137895485Y-93637834D01*
X137895485Y-93637834D02*
X137933581Y-93485453D01*
X137933581Y-93485453D02*
X137971676Y-93409262D01*
X137971676Y-93409262D02*
X138009771Y-93371167D01*
X138009771Y-93371167D02*
X138085962Y-93333072D01*
X139152629Y-94133072D02*
X138885962Y-93752119D01*
X138695486Y-94133072D02*
X138695486Y-93333072D01*
X138695486Y-93333072D02*
X139000248Y-93333072D01*
X139000248Y-93333072D02*
X139076438Y-93371167D01*
X139076438Y-93371167D02*
X139114533Y-93409262D01*
X139114533Y-93409262D02*
X139152629Y-93485453D01*
X139152629Y-93485453D02*
X139152629Y-93599738D01*
X139152629Y-93599738D02*
X139114533Y-93675929D01*
X139114533Y-93675929D02*
X139076438Y-93714024D01*
X139076438Y-93714024D02*
X139000248Y-93752119D01*
X139000248Y-93752119D02*
X138695486Y-93752119D01*
D12*
X177061905Y-84054819D02*
X177061905Y-83054819D01*
X177061905Y-83054819D02*
X177300000Y-83054819D01*
X177300000Y-83054819D02*
X177442857Y-83102438D01*
X177442857Y-83102438D02*
X177538095Y-83197676D01*
X177538095Y-83197676D02*
X177585714Y-83292914D01*
X177585714Y-83292914D02*
X177633333Y-83483390D01*
X177633333Y-83483390D02*
X177633333Y-83626247D01*
X177633333Y-83626247D02*
X177585714Y-83816723D01*
X177585714Y-83816723D02*
X177538095Y-83911961D01*
X177538095Y-83911961D02*
X177442857Y-84007200D01*
X177442857Y-84007200D02*
X177300000Y-84054819D01*
X177300000Y-84054819D02*
X177061905Y-84054819D01*
X178538095Y-83054819D02*
X178061905Y-83054819D01*
X178061905Y-83054819D02*
X178014286Y-83531009D01*
X178014286Y-83531009D02*
X178061905Y-83483390D01*
X178061905Y-83483390D02*
X178157143Y-83435771D01*
X178157143Y-83435771D02*
X178395238Y-83435771D01*
X178395238Y-83435771D02*
X178490476Y-83483390D01*
X178490476Y-83483390D02*
X178538095Y-83531009D01*
X178538095Y-83531009D02*
X178585714Y-83626247D01*
X178585714Y-83626247D02*
X178585714Y-83864342D01*
X178585714Y-83864342D02*
X178538095Y-83959580D01*
X178538095Y-83959580D02*
X178490476Y-84007200D01*
X178490476Y-84007200D02*
X178395238Y-84054819D01*
X178395238Y-84054819D02*
X178157143Y-84054819D01*
X178157143Y-84054819D02*
X178061905Y-84007200D01*
X178061905Y-84007200D02*
X178014286Y-83959580D01*
X125462295Y-81133332D02*
X125081342Y-81399999D01*
X125462295Y-81590475D02*
X124662295Y-81590475D01*
X124662295Y-81590475D02*
X124662295Y-81285713D01*
X124662295Y-81285713D02*
X124700390Y-81209523D01*
X124700390Y-81209523D02*
X124738485Y-81171428D01*
X124738485Y-81171428D02*
X124814676Y-81133332D01*
X124814676Y-81133332D02*
X124928961Y-81133332D01*
X124928961Y-81133332D02*
X125005152Y-81171428D01*
X125005152Y-81171428D02*
X125043247Y-81209523D01*
X125043247Y-81209523D02*
X125081342Y-81285713D01*
X125081342Y-81285713D02*
X125081342Y-81590475D01*
X124662295Y-80447618D02*
X124662295Y-80599999D01*
X124662295Y-80599999D02*
X124700390Y-80676190D01*
X124700390Y-80676190D02*
X124738485Y-80714285D01*
X124738485Y-80714285D02*
X124852771Y-80790475D01*
X124852771Y-80790475D02*
X125005152Y-80828571D01*
X125005152Y-80828571D02*
X125309914Y-80828571D01*
X125309914Y-80828571D02*
X125386104Y-80790475D01*
X125386104Y-80790475D02*
X125424200Y-80752380D01*
X125424200Y-80752380D02*
X125462295Y-80676190D01*
X125462295Y-80676190D02*
X125462295Y-80523809D01*
X125462295Y-80523809D02*
X125424200Y-80447618D01*
X125424200Y-80447618D02*
X125386104Y-80409523D01*
X125386104Y-80409523D02*
X125309914Y-80371428D01*
X125309914Y-80371428D02*
X125119438Y-80371428D01*
X125119438Y-80371428D02*
X125043247Y-80409523D01*
X125043247Y-80409523D02*
X125005152Y-80447618D01*
X125005152Y-80447618D02*
X124967057Y-80523809D01*
X124967057Y-80523809D02*
X124967057Y-80676190D01*
X124967057Y-80676190D02*
X125005152Y-80752380D01*
X125005152Y-80752380D02*
X125043247Y-80790475D01*
X125043247Y-80790475D02*
X125119438Y-80828571D01*
X165411905Y-85104819D02*
X165411905Y-84104819D01*
X165411905Y-84104819D02*
X165650000Y-84104819D01*
X165650000Y-84104819D02*
X165792857Y-84152438D01*
X165792857Y-84152438D02*
X165888095Y-84247676D01*
X165888095Y-84247676D02*
X165935714Y-84342914D01*
X165935714Y-84342914D02*
X165983333Y-84533390D01*
X165983333Y-84533390D02*
X165983333Y-84676247D01*
X165983333Y-84676247D02*
X165935714Y-84866723D01*
X165935714Y-84866723D02*
X165888095Y-84961961D01*
X165888095Y-84961961D02*
X165792857Y-85057200D01*
X165792857Y-85057200D02*
X165650000Y-85104819D01*
X165650000Y-85104819D02*
X165411905Y-85104819D01*
X166316667Y-84104819D02*
X166935714Y-84104819D01*
X166935714Y-84104819D02*
X166602381Y-84485771D01*
X166602381Y-84485771D02*
X166745238Y-84485771D01*
X166745238Y-84485771D02*
X166840476Y-84533390D01*
X166840476Y-84533390D02*
X166888095Y-84581009D01*
X166888095Y-84581009D02*
X166935714Y-84676247D01*
X166935714Y-84676247D02*
X166935714Y-84914342D01*
X166935714Y-84914342D02*
X166888095Y-85009580D01*
X166888095Y-85009580D02*
X166840476Y-85057200D01*
X166840476Y-85057200D02*
X166745238Y-85104819D01*
X166745238Y-85104819D02*
X166459524Y-85104819D01*
X166459524Y-85104819D02*
X166364286Y-85057200D01*
X166364286Y-85057200D02*
X166316667Y-85009580D01*
X121966666Y-114554819D02*
X121966666Y-115269104D01*
X121966666Y-115269104D02*
X121919047Y-115411961D01*
X121919047Y-115411961D02*
X121823809Y-115507200D01*
X121823809Y-115507200D02*
X121680952Y-115554819D01*
X121680952Y-115554819D02*
X121585714Y-115554819D01*
X122871428Y-114888152D02*
X122871428Y-115554819D01*
X122633333Y-114507200D02*
X122395238Y-115221485D01*
X122395238Y-115221485D02*
X123014285Y-115221485D01*
X156329819Y-104554166D02*
X155853628Y-104887499D01*
X156329819Y-105125594D02*
X155329819Y-105125594D01*
X155329819Y-105125594D02*
X155329819Y-104744642D01*
X155329819Y-104744642D02*
X155377438Y-104649404D01*
X155377438Y-104649404D02*
X155425057Y-104601785D01*
X155425057Y-104601785D02*
X155520295Y-104554166D01*
X155520295Y-104554166D02*
X155663152Y-104554166D01*
X155663152Y-104554166D02*
X155758390Y-104601785D01*
X155758390Y-104601785D02*
X155806009Y-104649404D01*
X155806009Y-104649404D02*
X155853628Y-104744642D01*
X155853628Y-104744642D02*
X155853628Y-105125594D01*
X155329819Y-104220832D02*
X155329819Y-103601785D01*
X155329819Y-103601785D02*
X155710771Y-103935118D01*
X155710771Y-103935118D02*
X155710771Y-103792261D01*
X155710771Y-103792261D02*
X155758390Y-103697023D01*
X155758390Y-103697023D02*
X155806009Y-103649404D01*
X155806009Y-103649404D02*
X155901247Y-103601785D01*
X155901247Y-103601785D02*
X156139342Y-103601785D01*
X156139342Y-103601785D02*
X156234580Y-103649404D01*
X156234580Y-103649404D02*
X156282200Y-103697023D01*
X156282200Y-103697023D02*
X156329819Y-103792261D01*
X156329819Y-103792261D02*
X156329819Y-104077975D01*
X156329819Y-104077975D02*
X156282200Y-104173213D01*
X156282200Y-104173213D02*
X156234580Y-104220832D01*
X164545833Y-105224819D02*
X164212500Y-104748628D01*
X163974405Y-105224819D02*
X163974405Y-104224819D01*
X163974405Y-104224819D02*
X164355357Y-104224819D01*
X164355357Y-104224819D02*
X164450595Y-104272438D01*
X164450595Y-104272438D02*
X164498214Y-104320057D01*
X164498214Y-104320057D02*
X164545833Y-104415295D01*
X164545833Y-104415295D02*
X164545833Y-104558152D01*
X164545833Y-104558152D02*
X164498214Y-104653390D01*
X164498214Y-104653390D02*
X164450595Y-104701009D01*
X164450595Y-104701009D02*
X164355357Y-104748628D01*
X164355357Y-104748628D02*
X163974405Y-104748628D01*
X164926786Y-104320057D02*
X164974405Y-104272438D01*
X164974405Y-104272438D02*
X165069643Y-104224819D01*
X165069643Y-104224819D02*
X165307738Y-104224819D01*
X165307738Y-104224819D02*
X165402976Y-104272438D01*
X165402976Y-104272438D02*
X165450595Y-104320057D01*
X165450595Y-104320057D02*
X165498214Y-104415295D01*
X165498214Y-104415295D02*
X165498214Y-104510533D01*
X165498214Y-104510533D02*
X165450595Y-104653390D01*
X165450595Y-104653390D02*
X164879167Y-105224819D01*
X164879167Y-105224819D02*
X165498214Y-105224819D01*
X161133333Y-90659580D02*
X161085714Y-90707200D01*
X161085714Y-90707200D02*
X160942857Y-90754819D01*
X160942857Y-90754819D02*
X160847619Y-90754819D01*
X160847619Y-90754819D02*
X160704762Y-90707200D01*
X160704762Y-90707200D02*
X160609524Y-90611961D01*
X160609524Y-90611961D02*
X160561905Y-90516723D01*
X160561905Y-90516723D02*
X160514286Y-90326247D01*
X160514286Y-90326247D02*
X160514286Y-90183390D01*
X160514286Y-90183390D02*
X160561905Y-89992914D01*
X160561905Y-89992914D02*
X160609524Y-89897676D01*
X160609524Y-89897676D02*
X160704762Y-89802438D01*
X160704762Y-89802438D02*
X160847619Y-89754819D01*
X160847619Y-89754819D02*
X160942857Y-89754819D01*
X160942857Y-89754819D02*
X161085714Y-89802438D01*
X161085714Y-89802438D02*
X161133333Y-89850057D01*
X162038095Y-89754819D02*
X161561905Y-89754819D01*
X161561905Y-89754819D02*
X161514286Y-90231009D01*
X161514286Y-90231009D02*
X161561905Y-90183390D01*
X161561905Y-90183390D02*
X161657143Y-90135771D01*
X161657143Y-90135771D02*
X161895238Y-90135771D01*
X161895238Y-90135771D02*
X161990476Y-90183390D01*
X161990476Y-90183390D02*
X162038095Y-90231009D01*
X162038095Y-90231009D02*
X162085714Y-90326247D01*
X162085714Y-90326247D02*
X162085714Y-90564342D01*
X162085714Y-90564342D02*
X162038095Y-90659580D01*
X162038095Y-90659580D02*
X161990476Y-90707200D01*
X161990476Y-90707200D02*
X161895238Y-90754819D01*
X161895238Y-90754819D02*
X161657143Y-90754819D01*
X161657143Y-90754819D02*
X161561905Y-90707200D01*
X161561905Y-90707200D02*
X161514286Y-90659580D01*
X157338095Y-107054819D02*
X157338095Y-107864342D01*
X157338095Y-107864342D02*
X157385714Y-107959580D01*
X157385714Y-107959580D02*
X157433333Y-108007200D01*
X157433333Y-108007200D02*
X157528571Y-108054819D01*
X157528571Y-108054819D02*
X157719047Y-108054819D01*
X157719047Y-108054819D02*
X157814285Y-108007200D01*
X157814285Y-108007200D02*
X157861904Y-107959580D01*
X157861904Y-107959580D02*
X157909523Y-107864342D01*
X157909523Y-107864342D02*
X157909523Y-107054819D01*
X158290476Y-107054819D02*
X158909523Y-107054819D01*
X158909523Y-107054819D02*
X158576190Y-107435771D01*
X158576190Y-107435771D02*
X158719047Y-107435771D01*
X158719047Y-107435771D02*
X158814285Y-107483390D01*
X158814285Y-107483390D02*
X158861904Y-107531009D01*
X158861904Y-107531009D02*
X158909523Y-107626247D01*
X158909523Y-107626247D02*
X158909523Y-107864342D01*
X158909523Y-107864342D02*
X158861904Y-107959580D01*
X158861904Y-107959580D02*
X158814285Y-108007200D01*
X158814285Y-108007200D02*
X158719047Y-108054819D01*
X158719047Y-108054819D02*
X158433333Y-108054819D01*
X158433333Y-108054819D02*
X158338095Y-108007200D01*
X158338095Y-108007200D02*
X158290476Y-107959580D01*
X169116667Y-108662295D02*
X168850000Y-108281342D01*
X168659524Y-108662295D02*
X168659524Y-107862295D01*
X168659524Y-107862295D02*
X168964286Y-107862295D01*
X168964286Y-107862295D02*
X169040476Y-107900390D01*
X169040476Y-107900390D02*
X169078571Y-107938485D01*
X169078571Y-107938485D02*
X169116667Y-108014676D01*
X169116667Y-108014676D02*
X169116667Y-108128961D01*
X169116667Y-108128961D02*
X169078571Y-108205152D01*
X169078571Y-108205152D02*
X169040476Y-108243247D01*
X169040476Y-108243247D02*
X168964286Y-108281342D01*
X168964286Y-108281342D02*
X168659524Y-108281342D01*
X169802381Y-108128961D02*
X169802381Y-108662295D01*
X169611905Y-107824200D02*
X169421428Y-108395628D01*
X169421428Y-108395628D02*
X169916667Y-108395628D01*
X171854819Y-93538094D02*
X170854819Y-93538094D01*
X170854819Y-93538094D02*
X170854819Y-93299999D01*
X170854819Y-93299999D02*
X170902438Y-93157142D01*
X170902438Y-93157142D02*
X170997676Y-93061904D01*
X170997676Y-93061904D02*
X171092914Y-93014285D01*
X171092914Y-93014285D02*
X171283390Y-92966666D01*
X171283390Y-92966666D02*
X171426247Y-92966666D01*
X171426247Y-92966666D02*
X171616723Y-93014285D01*
X171616723Y-93014285D02*
X171711961Y-93061904D01*
X171711961Y-93061904D02*
X171807200Y-93157142D01*
X171807200Y-93157142D02*
X171854819Y-93299999D01*
X171854819Y-93299999D02*
X171854819Y-93538094D01*
X171854819Y-92014285D02*
X171854819Y-92585713D01*
X171854819Y-92299999D02*
X170854819Y-92299999D01*
X170854819Y-92299999D02*
X170997676Y-92395237D01*
X170997676Y-92395237D02*
X171092914Y-92490475D01*
X171092914Y-92490475D02*
X171140533Y-92585713D01*
X134766667Y-121407200D02*
X134909524Y-121454819D01*
X134909524Y-121454819D02*
X135147619Y-121454819D01*
X135147619Y-121454819D02*
X135242857Y-121407200D01*
X135242857Y-121407200D02*
X135290476Y-121359580D01*
X135290476Y-121359580D02*
X135338095Y-121264342D01*
X135338095Y-121264342D02*
X135338095Y-121169104D01*
X135338095Y-121169104D02*
X135290476Y-121073866D01*
X135290476Y-121073866D02*
X135242857Y-121026247D01*
X135242857Y-121026247D02*
X135147619Y-120978628D01*
X135147619Y-120978628D02*
X134957143Y-120931009D01*
X134957143Y-120931009D02*
X134861905Y-120883390D01*
X134861905Y-120883390D02*
X134814286Y-120835771D01*
X134814286Y-120835771D02*
X134766667Y-120740533D01*
X134766667Y-120740533D02*
X134766667Y-120645295D01*
X134766667Y-120645295D02*
X134814286Y-120550057D01*
X134814286Y-120550057D02*
X134861905Y-120502438D01*
X134861905Y-120502438D02*
X134957143Y-120454819D01*
X134957143Y-120454819D02*
X135195238Y-120454819D01*
X135195238Y-120454819D02*
X135338095Y-120502438D01*
X135671429Y-120454819D02*
X135909524Y-121454819D01*
X135909524Y-121454819D02*
X136100000Y-120740533D01*
X136100000Y-120740533D02*
X136290476Y-121454819D01*
X136290476Y-121454819D02*
X136528572Y-120454819D01*
X136861905Y-120550057D02*
X136909524Y-120502438D01*
X136909524Y-120502438D02*
X137004762Y-120454819D01*
X137004762Y-120454819D02*
X137242857Y-120454819D01*
X137242857Y-120454819D02*
X137338095Y-120502438D01*
X137338095Y-120502438D02*
X137385714Y-120550057D01*
X137385714Y-120550057D02*
X137433333Y-120645295D01*
X137433333Y-120645295D02*
X137433333Y-120740533D01*
X137433333Y-120740533D02*
X137385714Y-120883390D01*
X137385714Y-120883390D02*
X136814286Y-121454819D01*
X136814286Y-121454819D02*
X137433333Y-121454819D01*
X135897142Y-106954819D02*
X135563809Y-106478628D01*
X135325714Y-106954819D02*
X135325714Y-105954819D01*
X135325714Y-105954819D02*
X135706666Y-105954819D01*
X135706666Y-105954819D02*
X135801904Y-106002438D01*
X135801904Y-106002438D02*
X135849523Y-106050057D01*
X135849523Y-106050057D02*
X135897142Y-106145295D01*
X135897142Y-106145295D02*
X135897142Y-106288152D01*
X135897142Y-106288152D02*
X135849523Y-106383390D01*
X135849523Y-106383390D02*
X135801904Y-106431009D01*
X135801904Y-106431009D02*
X135706666Y-106478628D01*
X135706666Y-106478628D02*
X135325714Y-106478628D01*
X136849523Y-106954819D02*
X136278095Y-106954819D01*
X136563809Y-106954819D02*
X136563809Y-105954819D01*
X136563809Y-105954819D02*
X136468571Y-106097676D01*
X136468571Y-106097676D02*
X136373333Y-106192914D01*
X136373333Y-106192914D02*
X136278095Y-106240533D01*
X137230476Y-106050057D02*
X137278095Y-106002438D01*
X137278095Y-106002438D02*
X137373333Y-105954819D01*
X137373333Y-105954819D02*
X137611428Y-105954819D01*
X137611428Y-105954819D02*
X137706666Y-106002438D01*
X137706666Y-106002438D02*
X137754285Y-106050057D01*
X137754285Y-106050057D02*
X137801904Y-106145295D01*
X137801904Y-106145295D02*
X137801904Y-106240533D01*
X137801904Y-106240533D02*
X137754285Y-106383390D01*
X137754285Y-106383390D02*
X137182857Y-106954819D01*
X137182857Y-106954819D02*
X137801904Y-106954819D01*
X163738095Y-90117319D02*
X163738095Y-90926842D01*
X163738095Y-90926842D02*
X163785714Y-91022080D01*
X163785714Y-91022080D02*
X163833333Y-91069700D01*
X163833333Y-91069700D02*
X163928571Y-91117319D01*
X163928571Y-91117319D02*
X164119047Y-91117319D01*
X164119047Y-91117319D02*
X164214285Y-91069700D01*
X164214285Y-91069700D02*
X164261904Y-91022080D01*
X164261904Y-91022080D02*
X164309523Y-90926842D01*
X164309523Y-90926842D02*
X164309523Y-90117319D01*
X165309523Y-91117319D02*
X164738095Y-91117319D01*
X165023809Y-91117319D02*
X165023809Y-90117319D01*
X165023809Y-90117319D02*
X164928571Y-90260176D01*
X164928571Y-90260176D02*
X164833333Y-90355414D01*
X164833333Y-90355414D02*
X164738095Y-90403033D01*
X129354819Y-93233333D02*
X130069104Y-93233333D01*
X130069104Y-93233333D02*
X130211961Y-93280952D01*
X130211961Y-93280952D02*
X130307200Y-93376190D01*
X130307200Y-93376190D02*
X130354819Y-93519047D01*
X130354819Y-93519047D02*
X130354819Y-93614285D01*
X130354819Y-92233333D02*
X130354819Y-92804761D01*
X130354819Y-92519047D02*
X129354819Y-92519047D01*
X129354819Y-92519047D02*
X129497676Y-92614285D01*
X129497676Y-92614285D02*
X129592914Y-92709523D01*
X129592914Y-92709523D02*
X129640533Y-92804761D01*
X131457142Y-108759580D02*
X131409523Y-108807200D01*
X131409523Y-108807200D02*
X131266666Y-108854819D01*
X131266666Y-108854819D02*
X131171428Y-108854819D01*
X131171428Y-108854819D02*
X131028571Y-108807200D01*
X131028571Y-108807200D02*
X130933333Y-108711961D01*
X130933333Y-108711961D02*
X130885714Y-108616723D01*
X130885714Y-108616723D02*
X130838095Y-108426247D01*
X130838095Y-108426247D02*
X130838095Y-108283390D01*
X130838095Y-108283390D02*
X130885714Y-108092914D01*
X130885714Y-108092914D02*
X130933333Y-107997676D01*
X130933333Y-107997676D02*
X131028571Y-107902438D01*
X131028571Y-107902438D02*
X131171428Y-107854819D01*
X131171428Y-107854819D02*
X131266666Y-107854819D01*
X131266666Y-107854819D02*
X131409523Y-107902438D01*
X131409523Y-107902438D02*
X131457142Y-107950057D01*
X132409523Y-108854819D02*
X131838095Y-108854819D01*
X132123809Y-108854819D02*
X132123809Y-107854819D01*
X132123809Y-107854819D02*
X132028571Y-107997676D01*
X132028571Y-107997676D02*
X131933333Y-108092914D01*
X131933333Y-108092914D02*
X131838095Y-108140533D01*
X132742857Y-107854819D02*
X133361904Y-107854819D01*
X133361904Y-107854819D02*
X133028571Y-108235771D01*
X133028571Y-108235771D02*
X133171428Y-108235771D01*
X133171428Y-108235771D02*
X133266666Y-108283390D01*
X133266666Y-108283390D02*
X133314285Y-108331009D01*
X133314285Y-108331009D02*
X133361904Y-108426247D01*
X133361904Y-108426247D02*
X133361904Y-108664342D01*
X133361904Y-108664342D02*
X133314285Y-108759580D01*
X133314285Y-108759580D02*
X133266666Y-108807200D01*
X133266666Y-108807200D02*
X133171428Y-108854819D01*
X133171428Y-108854819D02*
X132885714Y-108854819D01*
X132885714Y-108854819D02*
X132790476Y-108807200D01*
X132790476Y-108807200D02*
X132742857Y-108759580D01*
X161360714Y-122562295D02*
X161094047Y-122181342D01*
X160903571Y-122562295D02*
X160903571Y-121762295D01*
X160903571Y-121762295D02*
X161208333Y-121762295D01*
X161208333Y-121762295D02*
X161284523Y-121800390D01*
X161284523Y-121800390D02*
X161322618Y-121838485D01*
X161322618Y-121838485D02*
X161360714Y-121914676D01*
X161360714Y-121914676D02*
X161360714Y-122028961D01*
X161360714Y-122028961D02*
X161322618Y-122105152D01*
X161322618Y-122105152D02*
X161284523Y-122143247D01*
X161284523Y-122143247D02*
X161208333Y-122181342D01*
X161208333Y-122181342D02*
X160903571Y-122181342D01*
X162122618Y-122562295D02*
X161665475Y-122562295D01*
X161894047Y-122562295D02*
X161894047Y-121762295D01*
X161894047Y-121762295D02*
X161817856Y-121876580D01*
X161817856Y-121876580D02*
X161741666Y-121952771D01*
X161741666Y-121952771D02*
X161665475Y-121990866D01*
X162884523Y-122562295D02*
X162427380Y-122562295D01*
X162655952Y-122562295D02*
X162655952Y-121762295D01*
X162655952Y-121762295D02*
X162579761Y-121876580D01*
X162579761Y-121876580D02*
X162503571Y-121952771D01*
X162503571Y-121952771D02*
X162427380Y-121990866D01*
X140833333Y-104609580D02*
X140785714Y-104657200D01*
X140785714Y-104657200D02*
X140642857Y-104704819D01*
X140642857Y-104704819D02*
X140547619Y-104704819D01*
X140547619Y-104704819D02*
X140404762Y-104657200D01*
X140404762Y-104657200D02*
X140309524Y-104561961D01*
X140309524Y-104561961D02*
X140261905Y-104466723D01*
X140261905Y-104466723D02*
X140214286Y-104276247D01*
X140214286Y-104276247D02*
X140214286Y-104133390D01*
X140214286Y-104133390D02*
X140261905Y-103942914D01*
X140261905Y-103942914D02*
X140309524Y-103847676D01*
X140309524Y-103847676D02*
X140404762Y-103752438D01*
X140404762Y-103752438D02*
X140547619Y-103704819D01*
X140547619Y-103704819D02*
X140642857Y-103704819D01*
X140642857Y-103704819D02*
X140785714Y-103752438D01*
X140785714Y-103752438D02*
X140833333Y-103800057D01*
X141166667Y-103704819D02*
X141785714Y-103704819D01*
X141785714Y-103704819D02*
X141452381Y-104085771D01*
X141452381Y-104085771D02*
X141595238Y-104085771D01*
X141595238Y-104085771D02*
X141690476Y-104133390D01*
X141690476Y-104133390D02*
X141738095Y-104181009D01*
X141738095Y-104181009D02*
X141785714Y-104276247D01*
X141785714Y-104276247D02*
X141785714Y-104514342D01*
X141785714Y-104514342D02*
X141738095Y-104609580D01*
X141738095Y-104609580D02*
X141690476Y-104657200D01*
X141690476Y-104657200D02*
X141595238Y-104704819D01*
X141595238Y-104704819D02*
X141309524Y-104704819D01*
X141309524Y-104704819D02*
X141214286Y-104657200D01*
X141214286Y-104657200D02*
X141166667Y-104609580D01*
X153654819Y-101842857D02*
X153178628Y-102176190D01*
X153654819Y-102414285D02*
X152654819Y-102414285D01*
X152654819Y-102414285D02*
X152654819Y-102033333D01*
X152654819Y-102033333D02*
X152702438Y-101938095D01*
X152702438Y-101938095D02*
X152750057Y-101890476D01*
X152750057Y-101890476D02*
X152845295Y-101842857D01*
X152845295Y-101842857D02*
X152988152Y-101842857D01*
X152988152Y-101842857D02*
X153083390Y-101890476D01*
X153083390Y-101890476D02*
X153131009Y-101938095D01*
X153131009Y-101938095D02*
X153178628Y-102033333D01*
X153178628Y-102033333D02*
X153178628Y-102414285D01*
X153654819Y-100890476D02*
X153654819Y-101461904D01*
X153654819Y-101176190D02*
X152654819Y-101176190D01*
X152654819Y-101176190D02*
X152797676Y-101271428D01*
X152797676Y-101271428D02*
X152892914Y-101366666D01*
X152892914Y-101366666D02*
X152940533Y-101461904D01*
X152988152Y-100033333D02*
X153654819Y-100033333D01*
X152607200Y-100271428D02*
X153321485Y-100509523D01*
X153321485Y-100509523D02*
X153321485Y-99890476D01*
X176558333Y-118079819D02*
X176225000Y-117603628D01*
X175986905Y-118079819D02*
X175986905Y-117079819D01*
X175986905Y-117079819D02*
X176367857Y-117079819D01*
X176367857Y-117079819D02*
X176463095Y-117127438D01*
X176463095Y-117127438D02*
X176510714Y-117175057D01*
X176510714Y-117175057D02*
X176558333Y-117270295D01*
X176558333Y-117270295D02*
X176558333Y-117413152D01*
X176558333Y-117413152D02*
X176510714Y-117508390D01*
X176510714Y-117508390D02*
X176463095Y-117556009D01*
X176463095Y-117556009D02*
X176367857Y-117603628D01*
X176367857Y-117603628D02*
X175986905Y-117603628D01*
X177510714Y-118079819D02*
X176939286Y-118079819D01*
X177225000Y-118079819D02*
X177225000Y-117079819D01*
X177225000Y-117079819D02*
X177129762Y-117222676D01*
X177129762Y-117222676D02*
X177034524Y-117317914D01*
X177034524Y-117317914D02*
X176939286Y-117365533D01*
X169654819Y-93266666D02*
X169178628Y-93599999D01*
X169654819Y-93838094D02*
X168654819Y-93838094D01*
X168654819Y-93838094D02*
X168654819Y-93457142D01*
X168654819Y-93457142D02*
X168702438Y-93361904D01*
X168702438Y-93361904D02*
X168750057Y-93314285D01*
X168750057Y-93314285D02*
X168845295Y-93266666D01*
X168845295Y-93266666D02*
X168988152Y-93266666D01*
X168988152Y-93266666D02*
X169083390Y-93314285D01*
X169083390Y-93314285D02*
X169131009Y-93361904D01*
X169131009Y-93361904D02*
X169178628Y-93457142D01*
X169178628Y-93457142D02*
X169178628Y-93838094D01*
X168654819Y-92933332D02*
X168654819Y-92266666D01*
X168654819Y-92266666D02*
X169654819Y-92695237D01*
X167559580Y-97542857D02*
X167607200Y-97590476D01*
X167607200Y-97590476D02*
X167654819Y-97733333D01*
X167654819Y-97733333D02*
X167654819Y-97828571D01*
X167654819Y-97828571D02*
X167607200Y-97971428D01*
X167607200Y-97971428D02*
X167511961Y-98066666D01*
X167511961Y-98066666D02*
X167416723Y-98114285D01*
X167416723Y-98114285D02*
X167226247Y-98161904D01*
X167226247Y-98161904D02*
X167083390Y-98161904D01*
X167083390Y-98161904D02*
X166892914Y-98114285D01*
X166892914Y-98114285D02*
X166797676Y-98066666D01*
X166797676Y-98066666D02*
X166702438Y-97971428D01*
X166702438Y-97971428D02*
X166654819Y-97828571D01*
X166654819Y-97828571D02*
X166654819Y-97733333D01*
X166654819Y-97733333D02*
X166702438Y-97590476D01*
X166702438Y-97590476D02*
X166750057Y-97542857D01*
X167654819Y-96590476D02*
X167654819Y-97161904D01*
X167654819Y-96876190D02*
X166654819Y-96876190D01*
X166654819Y-96876190D02*
X166797676Y-96971428D01*
X166797676Y-96971428D02*
X166892914Y-97066666D01*
X166892914Y-97066666D02*
X166940533Y-97161904D01*
X166750057Y-96209523D02*
X166702438Y-96161904D01*
X166702438Y-96161904D02*
X166654819Y-96066666D01*
X166654819Y-96066666D02*
X166654819Y-95828571D01*
X166654819Y-95828571D02*
X166702438Y-95733333D01*
X166702438Y-95733333D02*
X166750057Y-95685714D01*
X166750057Y-95685714D02*
X166845295Y-95638095D01*
X166845295Y-95638095D02*
X166940533Y-95638095D01*
X166940533Y-95638095D02*
X167083390Y-95685714D01*
X167083390Y-95685714D02*
X167654819Y-96257142D01*
X167654819Y-96257142D02*
X167654819Y-95638095D01*
X159133333Y-90859580D02*
X159085714Y-90907200D01*
X159085714Y-90907200D02*
X158942857Y-90954819D01*
X158942857Y-90954819D02*
X158847619Y-90954819D01*
X158847619Y-90954819D02*
X158704762Y-90907200D01*
X158704762Y-90907200D02*
X158609524Y-90811961D01*
X158609524Y-90811961D02*
X158561905Y-90716723D01*
X158561905Y-90716723D02*
X158514286Y-90526247D01*
X158514286Y-90526247D02*
X158514286Y-90383390D01*
X158514286Y-90383390D02*
X158561905Y-90192914D01*
X158561905Y-90192914D02*
X158609524Y-90097676D01*
X158609524Y-90097676D02*
X158704762Y-90002438D01*
X158704762Y-90002438D02*
X158847619Y-89954819D01*
X158847619Y-89954819D02*
X158942857Y-89954819D01*
X158942857Y-89954819D02*
X159085714Y-90002438D01*
X159085714Y-90002438D02*
X159133333Y-90050057D01*
X159704762Y-90383390D02*
X159609524Y-90335771D01*
X159609524Y-90335771D02*
X159561905Y-90288152D01*
X159561905Y-90288152D02*
X159514286Y-90192914D01*
X159514286Y-90192914D02*
X159514286Y-90145295D01*
X159514286Y-90145295D02*
X159561905Y-90050057D01*
X159561905Y-90050057D02*
X159609524Y-90002438D01*
X159609524Y-90002438D02*
X159704762Y-89954819D01*
X159704762Y-89954819D02*
X159895238Y-89954819D01*
X159895238Y-89954819D02*
X159990476Y-90002438D01*
X159990476Y-90002438D02*
X160038095Y-90050057D01*
X160038095Y-90050057D02*
X160085714Y-90145295D01*
X160085714Y-90145295D02*
X160085714Y-90192914D01*
X160085714Y-90192914D02*
X160038095Y-90288152D01*
X160038095Y-90288152D02*
X159990476Y-90335771D01*
X159990476Y-90335771D02*
X159895238Y-90383390D01*
X159895238Y-90383390D02*
X159704762Y-90383390D01*
X159704762Y-90383390D02*
X159609524Y-90431009D01*
X159609524Y-90431009D02*
X159561905Y-90478628D01*
X159561905Y-90478628D02*
X159514286Y-90573866D01*
X159514286Y-90573866D02*
X159514286Y-90764342D01*
X159514286Y-90764342D02*
X159561905Y-90859580D01*
X159561905Y-90859580D02*
X159609524Y-90907200D01*
X159609524Y-90907200D02*
X159704762Y-90954819D01*
X159704762Y-90954819D02*
X159895238Y-90954819D01*
X159895238Y-90954819D02*
X159990476Y-90907200D01*
X159990476Y-90907200D02*
X160038095Y-90859580D01*
X160038095Y-90859580D02*
X160085714Y-90764342D01*
X160085714Y-90764342D02*
X160085714Y-90573866D01*
X160085714Y-90573866D02*
X160038095Y-90478628D01*
X160038095Y-90478628D02*
X159990476Y-90431009D01*
X159990476Y-90431009D02*
X159895238Y-90383390D01*
X171431009Y-86633333D02*
X171431009Y-86966666D01*
X171954819Y-86966666D02*
X170954819Y-86966666D01*
X170954819Y-86966666D02*
X170954819Y-86490476D01*
X171954819Y-85585714D02*
X171954819Y-86157142D01*
X171954819Y-85871428D02*
X170954819Y-85871428D01*
X170954819Y-85871428D02*
X171097676Y-85966666D01*
X171097676Y-85966666D02*
X171192914Y-86061904D01*
X171192914Y-86061904D02*
X171240533Y-86157142D01*
X169733333Y-89359580D02*
X169685714Y-89407200D01*
X169685714Y-89407200D02*
X169542857Y-89454819D01*
X169542857Y-89454819D02*
X169447619Y-89454819D01*
X169447619Y-89454819D02*
X169304762Y-89407200D01*
X169304762Y-89407200D02*
X169209524Y-89311961D01*
X169209524Y-89311961D02*
X169161905Y-89216723D01*
X169161905Y-89216723D02*
X169114286Y-89026247D01*
X169114286Y-89026247D02*
X169114286Y-88883390D01*
X169114286Y-88883390D02*
X169161905Y-88692914D01*
X169161905Y-88692914D02*
X169209524Y-88597676D01*
X169209524Y-88597676D02*
X169304762Y-88502438D01*
X169304762Y-88502438D02*
X169447619Y-88454819D01*
X169447619Y-88454819D02*
X169542857Y-88454819D01*
X169542857Y-88454819D02*
X169685714Y-88502438D01*
X169685714Y-88502438D02*
X169733333Y-88550057D01*
X170590476Y-88788152D02*
X170590476Y-89454819D01*
X170352381Y-88407200D02*
X170114286Y-89121485D01*
X170114286Y-89121485D02*
X170733333Y-89121485D01*
X139207200Y-104633332D02*
X139254819Y-104490475D01*
X139254819Y-104490475D02*
X139254819Y-104252380D01*
X139254819Y-104252380D02*
X139207200Y-104157142D01*
X139207200Y-104157142D02*
X139159580Y-104109523D01*
X139159580Y-104109523D02*
X139064342Y-104061904D01*
X139064342Y-104061904D02*
X138969104Y-104061904D01*
X138969104Y-104061904D02*
X138873866Y-104109523D01*
X138873866Y-104109523D02*
X138826247Y-104157142D01*
X138826247Y-104157142D02*
X138778628Y-104252380D01*
X138778628Y-104252380D02*
X138731009Y-104442856D01*
X138731009Y-104442856D02*
X138683390Y-104538094D01*
X138683390Y-104538094D02*
X138635771Y-104585713D01*
X138635771Y-104585713D02*
X138540533Y-104633332D01*
X138540533Y-104633332D02*
X138445295Y-104633332D01*
X138445295Y-104633332D02*
X138350057Y-104585713D01*
X138350057Y-104585713D02*
X138302438Y-104538094D01*
X138302438Y-104538094D02*
X138254819Y-104442856D01*
X138254819Y-104442856D02*
X138254819Y-104204761D01*
X138254819Y-104204761D02*
X138302438Y-104061904D01*
X138254819Y-103728570D02*
X139254819Y-103490475D01*
X139254819Y-103490475D02*
X138540533Y-103299999D01*
X138540533Y-103299999D02*
X139254819Y-103109523D01*
X139254819Y-103109523D02*
X138254819Y-102871428D01*
X139254819Y-101966666D02*
X139254819Y-102538094D01*
X139254819Y-102252380D02*
X138254819Y-102252380D01*
X138254819Y-102252380D02*
X138397676Y-102347618D01*
X138397676Y-102347618D02*
X138492914Y-102442856D01*
X138492914Y-102442856D02*
X138540533Y-102538094D01*
X165009524Y-122562295D02*
X165009524Y-121762295D01*
X165009524Y-121762295D02*
X165200000Y-121762295D01*
X165200000Y-121762295D02*
X165314286Y-121800390D01*
X165314286Y-121800390D02*
X165390476Y-121876580D01*
X165390476Y-121876580D02*
X165428571Y-121952771D01*
X165428571Y-121952771D02*
X165466667Y-122105152D01*
X165466667Y-122105152D02*
X165466667Y-122219438D01*
X165466667Y-122219438D02*
X165428571Y-122371819D01*
X165428571Y-122371819D02*
X165390476Y-122448009D01*
X165390476Y-122448009D02*
X165314286Y-122524200D01*
X165314286Y-122524200D02*
X165200000Y-122562295D01*
X165200000Y-122562295D02*
X165009524Y-122562295D01*
X166152381Y-122028961D02*
X166152381Y-122562295D01*
X165961905Y-121724200D02*
X165771428Y-122295628D01*
X165771428Y-122295628D02*
X166266667Y-122295628D01*
X168233333Y-86159580D02*
X168185714Y-86207200D01*
X168185714Y-86207200D02*
X168042857Y-86254819D01*
X168042857Y-86254819D02*
X167947619Y-86254819D01*
X167947619Y-86254819D02*
X167804762Y-86207200D01*
X167804762Y-86207200D02*
X167709524Y-86111961D01*
X167709524Y-86111961D02*
X167661905Y-86016723D01*
X167661905Y-86016723D02*
X167614286Y-85826247D01*
X167614286Y-85826247D02*
X167614286Y-85683390D01*
X167614286Y-85683390D02*
X167661905Y-85492914D01*
X167661905Y-85492914D02*
X167709524Y-85397676D01*
X167709524Y-85397676D02*
X167804762Y-85302438D01*
X167804762Y-85302438D02*
X167947619Y-85254819D01*
X167947619Y-85254819D02*
X168042857Y-85254819D01*
X168042857Y-85254819D02*
X168185714Y-85302438D01*
X168185714Y-85302438D02*
X168233333Y-85350057D01*
X169090476Y-85254819D02*
X168900000Y-85254819D01*
X168900000Y-85254819D02*
X168804762Y-85302438D01*
X168804762Y-85302438D02*
X168757143Y-85350057D01*
X168757143Y-85350057D02*
X168661905Y-85492914D01*
X168661905Y-85492914D02*
X168614286Y-85683390D01*
X168614286Y-85683390D02*
X168614286Y-86064342D01*
X168614286Y-86064342D02*
X168661905Y-86159580D01*
X168661905Y-86159580D02*
X168709524Y-86207200D01*
X168709524Y-86207200D02*
X168804762Y-86254819D01*
X168804762Y-86254819D02*
X168995238Y-86254819D01*
X168995238Y-86254819D02*
X169090476Y-86207200D01*
X169090476Y-86207200D02*
X169138095Y-86159580D01*
X169138095Y-86159580D02*
X169185714Y-86064342D01*
X169185714Y-86064342D02*
X169185714Y-85826247D01*
X169185714Y-85826247D02*
X169138095Y-85731009D01*
X169138095Y-85731009D02*
X169090476Y-85683390D01*
X169090476Y-85683390D02*
X168995238Y-85635771D01*
X168995238Y-85635771D02*
X168804762Y-85635771D01*
X168804762Y-85635771D02*
X168709524Y-85683390D01*
X168709524Y-85683390D02*
X168661905Y-85731009D01*
X168661905Y-85731009D02*
X168614286Y-85826247D01*
X166954819Y-73209523D02*
X167669104Y-73209523D01*
X167669104Y-73209523D02*
X167811961Y-73257142D01*
X167811961Y-73257142D02*
X167907200Y-73352380D01*
X167907200Y-73352380D02*
X167954819Y-73495237D01*
X167954819Y-73495237D02*
X167954819Y-73590475D01*
X167954819Y-72209523D02*
X167954819Y-72780951D01*
X167954819Y-72495237D02*
X166954819Y-72495237D01*
X166954819Y-72495237D02*
X167097676Y-72590475D01*
X167097676Y-72590475D02*
X167192914Y-72685713D01*
X167192914Y-72685713D02*
X167240533Y-72780951D01*
X167050057Y-71828570D02*
X167002438Y-71780951D01*
X167002438Y-71780951D02*
X166954819Y-71685713D01*
X166954819Y-71685713D02*
X166954819Y-71447618D01*
X166954819Y-71447618D02*
X167002438Y-71352380D01*
X167002438Y-71352380D02*
X167050057Y-71304761D01*
X167050057Y-71304761D02*
X167145295Y-71257142D01*
X167145295Y-71257142D02*
X167240533Y-71257142D01*
X167240533Y-71257142D02*
X167383390Y-71304761D01*
X167383390Y-71304761D02*
X167954819Y-71876189D01*
X167954819Y-71876189D02*
X167954819Y-71257142D01*
X148454819Y-104366666D02*
X147978628Y-104699999D01*
X148454819Y-104938094D02*
X147454819Y-104938094D01*
X147454819Y-104938094D02*
X147454819Y-104557142D01*
X147454819Y-104557142D02*
X147502438Y-104461904D01*
X147502438Y-104461904D02*
X147550057Y-104414285D01*
X147550057Y-104414285D02*
X147645295Y-104366666D01*
X147645295Y-104366666D02*
X147788152Y-104366666D01*
X147788152Y-104366666D02*
X147883390Y-104414285D01*
X147883390Y-104414285D02*
X147931009Y-104461904D01*
X147931009Y-104461904D02*
X147978628Y-104557142D01*
X147978628Y-104557142D02*
X147978628Y-104938094D01*
X147454819Y-103461904D02*
X147454819Y-103938094D01*
X147454819Y-103938094D02*
X147931009Y-103985713D01*
X147931009Y-103985713D02*
X147883390Y-103938094D01*
X147883390Y-103938094D02*
X147835771Y-103842856D01*
X147835771Y-103842856D02*
X147835771Y-103604761D01*
X147835771Y-103604761D02*
X147883390Y-103509523D01*
X147883390Y-103509523D02*
X147931009Y-103461904D01*
X147931009Y-103461904D02*
X148026247Y-103414285D01*
X148026247Y-103414285D02*
X148264342Y-103414285D01*
X148264342Y-103414285D02*
X148359580Y-103461904D01*
X148359580Y-103461904D02*
X148407200Y-103509523D01*
X148407200Y-103509523D02*
X148454819Y-103604761D01*
X148454819Y-103604761D02*
X148454819Y-103842856D01*
X148454819Y-103842856D02*
X148407200Y-103938094D01*
X148407200Y-103938094D02*
X148359580Y-103985713D01*
X168140057Y-101285238D02*
X168092438Y-101380476D01*
X168092438Y-101380476D02*
X167997200Y-101475714D01*
X167997200Y-101475714D02*
X167854342Y-101618571D01*
X167854342Y-101618571D02*
X167806723Y-101713809D01*
X167806723Y-101713809D02*
X167806723Y-101809047D01*
X168044819Y-101761428D02*
X167997200Y-101856666D01*
X167997200Y-101856666D02*
X167901961Y-101951904D01*
X167901961Y-101951904D02*
X167711485Y-101999523D01*
X167711485Y-101999523D02*
X167378152Y-101999523D01*
X167378152Y-101999523D02*
X167187676Y-101951904D01*
X167187676Y-101951904D02*
X167092438Y-101856666D01*
X167092438Y-101856666D02*
X167044819Y-101761428D01*
X167044819Y-101761428D02*
X167044819Y-101570952D01*
X167044819Y-101570952D02*
X167092438Y-101475714D01*
X167092438Y-101475714D02*
X167187676Y-101380476D01*
X167187676Y-101380476D02*
X167378152Y-101332857D01*
X167378152Y-101332857D02*
X167711485Y-101332857D01*
X167711485Y-101332857D02*
X167901961Y-101380476D01*
X167901961Y-101380476D02*
X167997200Y-101475714D01*
X167997200Y-101475714D02*
X168044819Y-101570952D01*
X168044819Y-101570952D02*
X168044819Y-101761428D01*
X167140057Y-100951904D02*
X167092438Y-100904285D01*
X167092438Y-100904285D02*
X167044819Y-100809047D01*
X167044819Y-100809047D02*
X167044819Y-100570952D01*
X167044819Y-100570952D02*
X167092438Y-100475714D01*
X167092438Y-100475714D02*
X167140057Y-100428095D01*
X167140057Y-100428095D02*
X167235295Y-100380476D01*
X167235295Y-100380476D02*
X167330533Y-100380476D01*
X167330533Y-100380476D02*
X167473390Y-100428095D01*
X167473390Y-100428095D02*
X168044819Y-100999523D01*
X168044819Y-100999523D02*
X168044819Y-100380476D01*
X137333333Y-84859580D02*
X137285714Y-84907200D01*
X137285714Y-84907200D02*
X137142857Y-84954819D01*
X137142857Y-84954819D02*
X137047619Y-84954819D01*
X137047619Y-84954819D02*
X136904762Y-84907200D01*
X136904762Y-84907200D02*
X136809524Y-84811961D01*
X136809524Y-84811961D02*
X136761905Y-84716723D01*
X136761905Y-84716723D02*
X136714286Y-84526247D01*
X136714286Y-84526247D02*
X136714286Y-84383390D01*
X136714286Y-84383390D02*
X136761905Y-84192914D01*
X136761905Y-84192914D02*
X136809524Y-84097676D01*
X136809524Y-84097676D02*
X136904762Y-84002438D01*
X136904762Y-84002438D02*
X137047619Y-83954819D01*
X137047619Y-83954819D02*
X137142857Y-83954819D01*
X137142857Y-83954819D02*
X137285714Y-84002438D01*
X137285714Y-84002438D02*
X137333333Y-84050057D01*
X137714286Y-84050057D02*
X137761905Y-84002438D01*
X137761905Y-84002438D02*
X137857143Y-83954819D01*
X137857143Y-83954819D02*
X138095238Y-83954819D01*
X138095238Y-83954819D02*
X138190476Y-84002438D01*
X138190476Y-84002438D02*
X138238095Y-84050057D01*
X138238095Y-84050057D02*
X138285714Y-84145295D01*
X138285714Y-84145295D02*
X138285714Y-84240533D01*
X138285714Y-84240533D02*
X138238095Y-84383390D01*
X138238095Y-84383390D02*
X137666667Y-84954819D01*
X137666667Y-84954819D02*
X138285714Y-84954819D01*
X131497142Y-106954819D02*
X131163809Y-106478628D01*
X130925714Y-106954819D02*
X130925714Y-105954819D01*
X130925714Y-105954819D02*
X131306666Y-105954819D01*
X131306666Y-105954819D02*
X131401904Y-106002438D01*
X131401904Y-106002438D02*
X131449523Y-106050057D01*
X131449523Y-106050057D02*
X131497142Y-106145295D01*
X131497142Y-106145295D02*
X131497142Y-106288152D01*
X131497142Y-106288152D02*
X131449523Y-106383390D01*
X131449523Y-106383390D02*
X131401904Y-106431009D01*
X131401904Y-106431009D02*
X131306666Y-106478628D01*
X131306666Y-106478628D02*
X130925714Y-106478628D01*
X132449523Y-106954819D02*
X131878095Y-106954819D01*
X132163809Y-106954819D02*
X132163809Y-105954819D01*
X132163809Y-105954819D02*
X132068571Y-106097676D01*
X132068571Y-106097676D02*
X131973333Y-106192914D01*
X131973333Y-106192914D02*
X131878095Y-106240533D01*
X132782857Y-105954819D02*
X133401904Y-105954819D01*
X133401904Y-105954819D02*
X133068571Y-106335771D01*
X133068571Y-106335771D02*
X133211428Y-106335771D01*
X133211428Y-106335771D02*
X133306666Y-106383390D01*
X133306666Y-106383390D02*
X133354285Y-106431009D01*
X133354285Y-106431009D02*
X133401904Y-106526247D01*
X133401904Y-106526247D02*
X133401904Y-106764342D01*
X133401904Y-106764342D02*
X133354285Y-106859580D01*
X133354285Y-106859580D02*
X133306666Y-106907200D01*
X133306666Y-106907200D02*
X133211428Y-106954819D01*
X133211428Y-106954819D02*
X132925714Y-106954819D01*
X132925714Y-106954819D02*
X132830476Y-106907200D01*
X132830476Y-106907200D02*
X132782857Y-106859580D01*
X126986104Y-81214285D02*
X127024200Y-81252381D01*
X127024200Y-81252381D02*
X127062295Y-81366666D01*
X127062295Y-81366666D02*
X127062295Y-81442857D01*
X127062295Y-81442857D02*
X127024200Y-81557143D01*
X127024200Y-81557143D02*
X126948009Y-81633333D01*
X126948009Y-81633333D02*
X126871819Y-81671428D01*
X126871819Y-81671428D02*
X126719438Y-81709524D01*
X126719438Y-81709524D02*
X126605152Y-81709524D01*
X126605152Y-81709524D02*
X126452771Y-81671428D01*
X126452771Y-81671428D02*
X126376580Y-81633333D01*
X126376580Y-81633333D02*
X126300390Y-81557143D01*
X126300390Y-81557143D02*
X126262295Y-81442857D01*
X126262295Y-81442857D02*
X126262295Y-81366666D01*
X126262295Y-81366666D02*
X126300390Y-81252381D01*
X126300390Y-81252381D02*
X126338485Y-81214285D01*
X127062295Y-80452381D02*
X127062295Y-80909524D01*
X127062295Y-80680952D02*
X126262295Y-80680952D01*
X126262295Y-80680952D02*
X126376580Y-80757143D01*
X126376580Y-80757143D02*
X126452771Y-80833333D01*
X126452771Y-80833333D02*
X126490866Y-80909524D01*
X127062295Y-79690476D02*
X127062295Y-80147619D01*
X127062295Y-79919047D02*
X126262295Y-79919047D01*
X126262295Y-79919047D02*
X126376580Y-79995238D01*
X126376580Y-79995238D02*
X126452771Y-80071428D01*
X126452771Y-80071428D02*
X126490866Y-80147619D01*
X133988095Y-115954819D02*
X133988095Y-116764342D01*
X133988095Y-116764342D02*
X134035714Y-116859580D01*
X134035714Y-116859580D02*
X134083333Y-116907200D01*
X134083333Y-116907200D02*
X134178571Y-116954819D01*
X134178571Y-116954819D02*
X134369047Y-116954819D01*
X134369047Y-116954819D02*
X134464285Y-116907200D01*
X134464285Y-116907200D02*
X134511904Y-116859580D01*
X134511904Y-116859580D02*
X134559523Y-116764342D01*
X134559523Y-116764342D02*
X134559523Y-115954819D01*
X135464285Y-116288152D02*
X135464285Y-116954819D01*
X135226190Y-115907200D02*
X134988095Y-116621485D01*
X134988095Y-116621485D02*
X135607142Y-116621485D01*
X155357142Y-87859580D02*
X155309523Y-87907200D01*
X155309523Y-87907200D02*
X155166666Y-87954819D01*
X155166666Y-87954819D02*
X155071428Y-87954819D01*
X155071428Y-87954819D02*
X154928571Y-87907200D01*
X154928571Y-87907200D02*
X154833333Y-87811961D01*
X154833333Y-87811961D02*
X154785714Y-87716723D01*
X154785714Y-87716723D02*
X154738095Y-87526247D01*
X154738095Y-87526247D02*
X154738095Y-87383390D01*
X154738095Y-87383390D02*
X154785714Y-87192914D01*
X154785714Y-87192914D02*
X154833333Y-87097676D01*
X154833333Y-87097676D02*
X154928571Y-87002438D01*
X154928571Y-87002438D02*
X155071428Y-86954819D01*
X155071428Y-86954819D02*
X155166666Y-86954819D01*
X155166666Y-86954819D02*
X155309523Y-87002438D01*
X155309523Y-87002438D02*
X155357142Y-87050057D01*
X156309523Y-87954819D02*
X155738095Y-87954819D01*
X156023809Y-87954819D02*
X156023809Y-86954819D01*
X156023809Y-86954819D02*
X155928571Y-87097676D01*
X155928571Y-87097676D02*
X155833333Y-87192914D01*
X155833333Y-87192914D02*
X155738095Y-87240533D01*
X157166666Y-87288152D02*
X157166666Y-87954819D01*
X156928571Y-86907200D02*
X156690476Y-87621485D01*
X156690476Y-87621485D02*
X157309523Y-87621485D01*
X131954819Y-73309523D02*
X132669104Y-73309523D01*
X132669104Y-73309523D02*
X132811961Y-73357142D01*
X132811961Y-73357142D02*
X132907200Y-73452380D01*
X132907200Y-73452380D02*
X132954819Y-73595237D01*
X132954819Y-73595237D02*
X132954819Y-73690475D01*
X132954819Y-72309523D02*
X132954819Y-72880951D01*
X132954819Y-72595237D02*
X131954819Y-72595237D01*
X131954819Y-72595237D02*
X132097676Y-72690475D01*
X132097676Y-72690475D02*
X132192914Y-72785713D01*
X132192914Y-72785713D02*
X132240533Y-72880951D01*
X131954819Y-71690475D02*
X131954819Y-71595237D01*
X131954819Y-71595237D02*
X132002438Y-71499999D01*
X132002438Y-71499999D02*
X132050057Y-71452380D01*
X132050057Y-71452380D02*
X132145295Y-71404761D01*
X132145295Y-71404761D02*
X132335771Y-71357142D01*
X132335771Y-71357142D02*
X132573866Y-71357142D01*
X132573866Y-71357142D02*
X132764342Y-71404761D01*
X132764342Y-71404761D02*
X132859580Y-71452380D01*
X132859580Y-71452380D02*
X132907200Y-71499999D01*
X132907200Y-71499999D02*
X132954819Y-71595237D01*
X132954819Y-71595237D02*
X132954819Y-71690475D01*
X132954819Y-71690475D02*
X132907200Y-71785713D01*
X132907200Y-71785713D02*
X132859580Y-71833332D01*
X132859580Y-71833332D02*
X132764342Y-71880951D01*
X132764342Y-71880951D02*
X132573866Y-71928570D01*
X132573866Y-71928570D02*
X132335771Y-71928570D01*
X132335771Y-71928570D02*
X132145295Y-71880951D01*
X132145295Y-71880951D02*
X132050057Y-71833332D01*
X132050057Y-71833332D02*
X132002438Y-71785713D01*
X132002438Y-71785713D02*
X131954819Y-71690475D01*
X120154819Y-93433333D02*
X120869104Y-93433333D01*
X120869104Y-93433333D02*
X121011961Y-93480952D01*
X121011961Y-93480952D02*
X121107200Y-93576190D01*
X121107200Y-93576190D02*
X121154819Y-93719047D01*
X121154819Y-93719047D02*
X121154819Y-93814285D01*
X120250057Y-93004761D02*
X120202438Y-92957142D01*
X120202438Y-92957142D02*
X120154819Y-92861904D01*
X120154819Y-92861904D02*
X120154819Y-92623809D01*
X120154819Y-92623809D02*
X120202438Y-92528571D01*
X120202438Y-92528571D02*
X120250057Y-92480952D01*
X120250057Y-92480952D02*
X120345295Y-92433333D01*
X120345295Y-92433333D02*
X120440533Y-92433333D01*
X120440533Y-92433333D02*
X120583390Y-92480952D01*
X120583390Y-92480952D02*
X121154819Y-93052380D01*
X121154819Y-93052380D02*
X121154819Y-92433333D01*
X139084580Y-109916666D02*
X139132200Y-109964285D01*
X139132200Y-109964285D02*
X139179819Y-110107142D01*
X139179819Y-110107142D02*
X139179819Y-110202380D01*
X139179819Y-110202380D02*
X139132200Y-110345237D01*
X139132200Y-110345237D02*
X139036961Y-110440475D01*
X139036961Y-110440475D02*
X138941723Y-110488094D01*
X138941723Y-110488094D02*
X138751247Y-110535713D01*
X138751247Y-110535713D02*
X138608390Y-110535713D01*
X138608390Y-110535713D02*
X138417914Y-110488094D01*
X138417914Y-110488094D02*
X138322676Y-110440475D01*
X138322676Y-110440475D02*
X138227438Y-110345237D01*
X138227438Y-110345237D02*
X138179819Y-110202380D01*
X138179819Y-110202380D02*
X138179819Y-110107142D01*
X138179819Y-110107142D02*
X138227438Y-109964285D01*
X138227438Y-109964285D02*
X138275057Y-109916666D01*
X138179819Y-109583332D02*
X138179819Y-108916666D01*
X138179819Y-108916666D02*
X139179819Y-109345237D01*
X129009524Y-115562295D02*
X129009524Y-114762295D01*
X129009524Y-114762295D02*
X129200000Y-114762295D01*
X129200000Y-114762295D02*
X129314286Y-114800390D01*
X129314286Y-114800390D02*
X129390476Y-114876580D01*
X129390476Y-114876580D02*
X129428571Y-114952771D01*
X129428571Y-114952771D02*
X129466667Y-115105152D01*
X129466667Y-115105152D02*
X129466667Y-115219438D01*
X129466667Y-115219438D02*
X129428571Y-115371819D01*
X129428571Y-115371819D02*
X129390476Y-115448009D01*
X129390476Y-115448009D02*
X129314286Y-115524200D01*
X129314286Y-115524200D02*
X129200000Y-115562295D01*
X129200000Y-115562295D02*
X129009524Y-115562295D01*
X129771428Y-114838485D02*
X129809524Y-114800390D01*
X129809524Y-114800390D02*
X129885714Y-114762295D01*
X129885714Y-114762295D02*
X130076190Y-114762295D01*
X130076190Y-114762295D02*
X130152381Y-114800390D01*
X130152381Y-114800390D02*
X130190476Y-114838485D01*
X130190476Y-114838485D02*
X130228571Y-114914676D01*
X130228571Y-114914676D02*
X130228571Y-114990866D01*
X130228571Y-114990866D02*
X130190476Y-115105152D01*
X130190476Y-115105152D02*
X129733333Y-115562295D01*
X129733333Y-115562295D02*
X130228571Y-115562295D01*
X161633333Y-128254819D02*
X161300000Y-127778628D01*
X161061905Y-128254819D02*
X161061905Y-127254819D01*
X161061905Y-127254819D02*
X161442857Y-127254819D01*
X161442857Y-127254819D02*
X161538095Y-127302438D01*
X161538095Y-127302438D02*
X161585714Y-127350057D01*
X161585714Y-127350057D02*
X161633333Y-127445295D01*
X161633333Y-127445295D02*
X161633333Y-127588152D01*
X161633333Y-127588152D02*
X161585714Y-127683390D01*
X161585714Y-127683390D02*
X161538095Y-127731009D01*
X161538095Y-127731009D02*
X161442857Y-127778628D01*
X161442857Y-127778628D02*
X161061905Y-127778628D01*
X162109524Y-128254819D02*
X162300000Y-128254819D01*
X162300000Y-128254819D02*
X162395238Y-128207200D01*
X162395238Y-128207200D02*
X162442857Y-128159580D01*
X162442857Y-128159580D02*
X162538095Y-128016723D01*
X162538095Y-128016723D02*
X162585714Y-127826247D01*
X162585714Y-127826247D02*
X162585714Y-127445295D01*
X162585714Y-127445295D02*
X162538095Y-127350057D01*
X162538095Y-127350057D02*
X162490476Y-127302438D01*
X162490476Y-127302438D02*
X162395238Y-127254819D01*
X162395238Y-127254819D02*
X162204762Y-127254819D01*
X162204762Y-127254819D02*
X162109524Y-127302438D01*
X162109524Y-127302438D02*
X162061905Y-127350057D01*
X162061905Y-127350057D02*
X162014286Y-127445295D01*
X162014286Y-127445295D02*
X162014286Y-127683390D01*
X162014286Y-127683390D02*
X162061905Y-127778628D01*
X162061905Y-127778628D02*
X162109524Y-127826247D01*
X162109524Y-127826247D02*
X162204762Y-127873866D01*
X162204762Y-127873866D02*
X162395238Y-127873866D01*
X162395238Y-127873866D02*
X162490476Y-127826247D01*
X162490476Y-127826247D02*
X162538095Y-127778628D01*
X162538095Y-127778628D02*
X162585714Y-127683390D01*
X167582142Y-127659580D02*
X167534523Y-127707200D01*
X167534523Y-127707200D02*
X167391666Y-127754819D01*
X167391666Y-127754819D02*
X167296428Y-127754819D01*
X167296428Y-127754819D02*
X167153571Y-127707200D01*
X167153571Y-127707200D02*
X167058333Y-127611961D01*
X167058333Y-127611961D02*
X167010714Y-127516723D01*
X167010714Y-127516723D02*
X166963095Y-127326247D01*
X166963095Y-127326247D02*
X166963095Y-127183390D01*
X166963095Y-127183390D02*
X167010714Y-126992914D01*
X167010714Y-126992914D02*
X167058333Y-126897676D01*
X167058333Y-126897676D02*
X167153571Y-126802438D01*
X167153571Y-126802438D02*
X167296428Y-126754819D01*
X167296428Y-126754819D02*
X167391666Y-126754819D01*
X167391666Y-126754819D02*
X167534523Y-126802438D01*
X167534523Y-126802438D02*
X167582142Y-126850057D01*
X168534523Y-127754819D02*
X167963095Y-127754819D01*
X168248809Y-127754819D02*
X168248809Y-126754819D01*
X168248809Y-126754819D02*
X168153571Y-126897676D01*
X168153571Y-126897676D02*
X168058333Y-126992914D01*
X168058333Y-126992914D02*
X167963095Y-127040533D01*
X169153571Y-126754819D02*
X169248809Y-126754819D01*
X169248809Y-126754819D02*
X169344047Y-126802438D01*
X169344047Y-126802438D02*
X169391666Y-126850057D01*
X169391666Y-126850057D02*
X169439285Y-126945295D01*
X169439285Y-126945295D02*
X169486904Y-127135771D01*
X169486904Y-127135771D02*
X169486904Y-127373866D01*
X169486904Y-127373866D02*
X169439285Y-127564342D01*
X169439285Y-127564342D02*
X169391666Y-127659580D01*
X169391666Y-127659580D02*
X169344047Y-127707200D01*
X169344047Y-127707200D02*
X169248809Y-127754819D01*
X169248809Y-127754819D02*
X169153571Y-127754819D01*
X169153571Y-127754819D02*
X169058333Y-127707200D01*
X169058333Y-127707200D02*
X169010714Y-127659580D01*
X169010714Y-127659580D02*
X168963095Y-127564342D01*
X168963095Y-127564342D02*
X168915476Y-127373866D01*
X168915476Y-127373866D02*
X168915476Y-127135771D01*
X168915476Y-127135771D02*
X168963095Y-126945295D01*
X168963095Y-126945295D02*
X169010714Y-126850057D01*
X169010714Y-126850057D02*
X169058333Y-126802438D01*
X169058333Y-126802438D02*
X169153571Y-126754819D01*
X172554819Y-107333333D02*
X173269104Y-107333333D01*
X173269104Y-107333333D02*
X173411961Y-107380952D01*
X173411961Y-107380952D02*
X173507200Y-107476190D01*
X173507200Y-107476190D02*
X173554819Y-107619047D01*
X173554819Y-107619047D02*
X173554819Y-107714285D01*
X172554819Y-106380952D02*
X172554819Y-106857142D01*
X172554819Y-106857142D02*
X173031009Y-106904761D01*
X173031009Y-106904761D02*
X172983390Y-106857142D01*
X172983390Y-106857142D02*
X172935771Y-106761904D01*
X172935771Y-106761904D02*
X172935771Y-106523809D01*
X172935771Y-106523809D02*
X172983390Y-106428571D01*
X172983390Y-106428571D02*
X173031009Y-106380952D01*
X173031009Y-106380952D02*
X173126247Y-106333333D01*
X173126247Y-106333333D02*
X173364342Y-106333333D01*
X173364342Y-106333333D02*
X173459580Y-106380952D01*
X173459580Y-106380952D02*
X173507200Y-106428571D01*
X173507200Y-106428571D02*
X173554819Y-106523809D01*
X173554819Y-106523809D02*
X173554819Y-106761904D01*
X173554819Y-106761904D02*
X173507200Y-106857142D01*
X173507200Y-106857142D02*
X173459580Y-106904761D01*
X160433333Y-101629580D02*
X160385714Y-101677200D01*
X160385714Y-101677200D02*
X160242857Y-101724819D01*
X160242857Y-101724819D02*
X160147619Y-101724819D01*
X160147619Y-101724819D02*
X160004762Y-101677200D01*
X160004762Y-101677200D02*
X159909524Y-101581961D01*
X159909524Y-101581961D02*
X159861905Y-101486723D01*
X159861905Y-101486723D02*
X159814286Y-101296247D01*
X159814286Y-101296247D02*
X159814286Y-101153390D01*
X159814286Y-101153390D02*
X159861905Y-100962914D01*
X159861905Y-100962914D02*
X159909524Y-100867676D01*
X159909524Y-100867676D02*
X160004762Y-100772438D01*
X160004762Y-100772438D02*
X160147619Y-100724819D01*
X160147619Y-100724819D02*
X160242857Y-100724819D01*
X160242857Y-100724819D02*
X160385714Y-100772438D01*
X160385714Y-100772438D02*
X160433333Y-100820057D01*
X160909524Y-101724819D02*
X161100000Y-101724819D01*
X161100000Y-101724819D02*
X161195238Y-101677200D01*
X161195238Y-101677200D02*
X161242857Y-101629580D01*
X161242857Y-101629580D02*
X161338095Y-101486723D01*
X161338095Y-101486723D02*
X161385714Y-101296247D01*
X161385714Y-101296247D02*
X161385714Y-100915295D01*
X161385714Y-100915295D02*
X161338095Y-100820057D01*
X161338095Y-100820057D02*
X161290476Y-100772438D01*
X161290476Y-100772438D02*
X161195238Y-100724819D01*
X161195238Y-100724819D02*
X161004762Y-100724819D01*
X161004762Y-100724819D02*
X160909524Y-100772438D01*
X160909524Y-100772438D02*
X160861905Y-100820057D01*
X160861905Y-100820057D02*
X160814286Y-100915295D01*
X160814286Y-100915295D02*
X160814286Y-101153390D01*
X160814286Y-101153390D02*
X160861905Y-101248628D01*
X160861905Y-101248628D02*
X160909524Y-101296247D01*
X160909524Y-101296247D02*
X161004762Y-101343866D01*
X161004762Y-101343866D02*
X161195238Y-101343866D01*
X161195238Y-101343866D02*
X161290476Y-101296247D01*
X161290476Y-101296247D02*
X161338095Y-101248628D01*
X161338095Y-101248628D02*
X161385714Y-101153390D01*
X128662295Y-81214285D02*
X128281342Y-81480952D01*
X128662295Y-81671428D02*
X127862295Y-81671428D01*
X127862295Y-81671428D02*
X127862295Y-81366666D01*
X127862295Y-81366666D02*
X127900390Y-81290476D01*
X127900390Y-81290476D02*
X127938485Y-81252381D01*
X127938485Y-81252381D02*
X128014676Y-81214285D01*
X128014676Y-81214285D02*
X128128961Y-81214285D01*
X128128961Y-81214285D02*
X128205152Y-81252381D01*
X128205152Y-81252381D02*
X128243247Y-81290476D01*
X128243247Y-81290476D02*
X128281342Y-81366666D01*
X128281342Y-81366666D02*
X128281342Y-81671428D01*
X128662295Y-80452381D02*
X128662295Y-80909524D01*
X128662295Y-80680952D02*
X127862295Y-80680952D01*
X127862295Y-80680952D02*
X127976580Y-80757143D01*
X127976580Y-80757143D02*
X128052771Y-80833333D01*
X128052771Y-80833333D02*
X128090866Y-80909524D01*
X127862295Y-79957142D02*
X127862295Y-79880952D01*
X127862295Y-79880952D02*
X127900390Y-79804761D01*
X127900390Y-79804761D02*
X127938485Y-79766666D01*
X127938485Y-79766666D02*
X128014676Y-79728571D01*
X128014676Y-79728571D02*
X128167057Y-79690476D01*
X128167057Y-79690476D02*
X128357533Y-79690476D01*
X128357533Y-79690476D02*
X128509914Y-79728571D01*
X128509914Y-79728571D02*
X128586104Y-79766666D01*
X128586104Y-79766666D02*
X128624200Y-79804761D01*
X128624200Y-79804761D02*
X128662295Y-79880952D01*
X128662295Y-79880952D02*
X128662295Y-79957142D01*
X128662295Y-79957142D02*
X128624200Y-80033333D01*
X128624200Y-80033333D02*
X128586104Y-80071428D01*
X128586104Y-80071428D02*
X128509914Y-80109523D01*
X128509914Y-80109523D02*
X128357533Y-80147619D01*
X128357533Y-80147619D02*
X128167057Y-80147619D01*
X128167057Y-80147619D02*
X128014676Y-80109523D01*
X128014676Y-80109523D02*
X127938485Y-80071428D01*
X127938485Y-80071428D02*
X127900390Y-80033333D01*
X127900390Y-80033333D02*
X127862295Y-79957142D01*
X153066666Y-98604819D02*
X153066666Y-99319104D01*
X153066666Y-99319104D02*
X153019047Y-99461961D01*
X153019047Y-99461961D02*
X152923809Y-99557200D01*
X152923809Y-99557200D02*
X152780952Y-99604819D01*
X152780952Y-99604819D02*
X152685714Y-99604819D01*
X153971428Y-98604819D02*
X153780952Y-98604819D01*
X153780952Y-98604819D02*
X153685714Y-98652438D01*
X153685714Y-98652438D02*
X153638095Y-98700057D01*
X153638095Y-98700057D02*
X153542857Y-98842914D01*
X153542857Y-98842914D02*
X153495238Y-99033390D01*
X153495238Y-99033390D02*
X153495238Y-99414342D01*
X153495238Y-99414342D02*
X153542857Y-99509580D01*
X153542857Y-99509580D02*
X153590476Y-99557200D01*
X153590476Y-99557200D02*
X153685714Y-99604819D01*
X153685714Y-99604819D02*
X153876190Y-99604819D01*
X153876190Y-99604819D02*
X153971428Y-99557200D01*
X153971428Y-99557200D02*
X154019047Y-99509580D01*
X154019047Y-99509580D02*
X154066666Y-99414342D01*
X154066666Y-99414342D02*
X154066666Y-99176247D01*
X154066666Y-99176247D02*
X154019047Y-99081009D01*
X154019047Y-99081009D02*
X153971428Y-99033390D01*
X153971428Y-99033390D02*
X153876190Y-98985771D01*
X153876190Y-98985771D02*
X153685714Y-98985771D01*
X153685714Y-98985771D02*
X153590476Y-99033390D01*
X153590476Y-99033390D02*
X153542857Y-99081009D01*
X153542857Y-99081009D02*
X153495238Y-99176247D01*
X165754819Y-96566666D02*
X165278628Y-96899999D01*
X165754819Y-97138094D02*
X164754819Y-97138094D01*
X164754819Y-97138094D02*
X164754819Y-96757142D01*
X164754819Y-96757142D02*
X164802438Y-96661904D01*
X164802438Y-96661904D02*
X164850057Y-96614285D01*
X164850057Y-96614285D02*
X164945295Y-96566666D01*
X164945295Y-96566666D02*
X165088152Y-96566666D01*
X165088152Y-96566666D02*
X165183390Y-96614285D01*
X165183390Y-96614285D02*
X165231009Y-96661904D01*
X165231009Y-96661904D02*
X165278628Y-96757142D01*
X165278628Y-96757142D02*
X165278628Y-97138094D01*
X165183390Y-95995237D02*
X165135771Y-96090475D01*
X165135771Y-96090475D02*
X165088152Y-96138094D01*
X165088152Y-96138094D02*
X164992914Y-96185713D01*
X164992914Y-96185713D02*
X164945295Y-96185713D01*
X164945295Y-96185713D02*
X164850057Y-96138094D01*
X164850057Y-96138094D02*
X164802438Y-96090475D01*
X164802438Y-96090475D02*
X164754819Y-95995237D01*
X164754819Y-95995237D02*
X164754819Y-95804761D01*
X164754819Y-95804761D02*
X164802438Y-95709523D01*
X164802438Y-95709523D02*
X164850057Y-95661904D01*
X164850057Y-95661904D02*
X164945295Y-95614285D01*
X164945295Y-95614285D02*
X164992914Y-95614285D01*
X164992914Y-95614285D02*
X165088152Y-95661904D01*
X165088152Y-95661904D02*
X165135771Y-95709523D01*
X165135771Y-95709523D02*
X165183390Y-95804761D01*
X165183390Y-95804761D02*
X165183390Y-95995237D01*
X165183390Y-95995237D02*
X165231009Y-96090475D01*
X165231009Y-96090475D02*
X165278628Y-96138094D01*
X165278628Y-96138094D02*
X165373866Y-96185713D01*
X165373866Y-96185713D02*
X165564342Y-96185713D01*
X165564342Y-96185713D02*
X165659580Y-96138094D01*
X165659580Y-96138094D02*
X165707200Y-96090475D01*
X165707200Y-96090475D02*
X165754819Y-95995237D01*
X165754819Y-95995237D02*
X165754819Y-95804761D01*
X165754819Y-95804761D02*
X165707200Y-95709523D01*
X165707200Y-95709523D02*
X165659580Y-95661904D01*
X165659580Y-95661904D02*
X165564342Y-95614285D01*
X165564342Y-95614285D02*
X165373866Y-95614285D01*
X165373866Y-95614285D02*
X165278628Y-95661904D01*
X165278628Y-95661904D02*
X165231009Y-95709523D01*
X165231009Y-95709523D02*
X165183390Y-95804761D01*
X141538095Y-109054819D02*
X141538095Y-109864342D01*
X141538095Y-109864342D02*
X141585714Y-109959580D01*
X141585714Y-109959580D02*
X141633333Y-110007200D01*
X141633333Y-110007200D02*
X141728571Y-110054819D01*
X141728571Y-110054819D02*
X141919047Y-110054819D01*
X141919047Y-110054819D02*
X142014285Y-110007200D01*
X142014285Y-110007200D02*
X142061904Y-109959580D01*
X142061904Y-109959580D02*
X142109523Y-109864342D01*
X142109523Y-109864342D02*
X142109523Y-109054819D01*
X142538095Y-109150057D02*
X142585714Y-109102438D01*
X142585714Y-109102438D02*
X142680952Y-109054819D01*
X142680952Y-109054819D02*
X142919047Y-109054819D01*
X142919047Y-109054819D02*
X143014285Y-109102438D01*
X143014285Y-109102438D02*
X143061904Y-109150057D01*
X143061904Y-109150057D02*
X143109523Y-109245295D01*
X143109523Y-109245295D02*
X143109523Y-109340533D01*
X143109523Y-109340533D02*
X143061904Y-109483390D01*
X143061904Y-109483390D02*
X142490476Y-110054819D01*
X142490476Y-110054819D02*
X143109523Y-110054819D01*
D13*
X148213333Y-132047593D02*
X148213333Y-132614260D01*
X148213333Y-132614260D02*
X148246667Y-132680926D01*
X148246667Y-132680926D02*
X148280000Y-132714260D01*
X148280000Y-132714260D02*
X148346667Y-132747593D01*
X148346667Y-132747593D02*
X148480000Y-132747593D01*
X148480000Y-132747593D02*
X148546667Y-132714260D01*
X148546667Y-132714260D02*
X148580000Y-132680926D01*
X148580000Y-132680926D02*
X148613333Y-132614260D01*
X148613333Y-132614260D02*
X148613333Y-132047593D01*
X148913333Y-132714260D02*
X149013333Y-132747593D01*
X149013333Y-132747593D02*
X149180000Y-132747593D01*
X149180000Y-132747593D02*
X149246666Y-132714260D01*
X149246666Y-132714260D02*
X149280000Y-132680926D01*
X149280000Y-132680926D02*
X149313333Y-132614260D01*
X149313333Y-132614260D02*
X149313333Y-132547593D01*
X149313333Y-132547593D02*
X149280000Y-132480926D01*
X149280000Y-132480926D02*
X149246666Y-132447593D01*
X149246666Y-132447593D02*
X149180000Y-132414260D01*
X149180000Y-132414260D02*
X149046666Y-132380926D01*
X149046666Y-132380926D02*
X148980000Y-132347593D01*
X148980000Y-132347593D02*
X148946666Y-132314260D01*
X148946666Y-132314260D02*
X148913333Y-132247593D01*
X148913333Y-132247593D02*
X148913333Y-132180926D01*
X148913333Y-132180926D02*
X148946666Y-132114260D01*
X148946666Y-132114260D02*
X148980000Y-132080926D01*
X148980000Y-132080926D02*
X149046666Y-132047593D01*
X149046666Y-132047593D02*
X149213333Y-132047593D01*
X149213333Y-132047593D02*
X149313333Y-132080926D01*
X149846667Y-132380926D02*
X149946667Y-132414260D01*
X149946667Y-132414260D02*
X149980000Y-132447593D01*
X149980000Y-132447593D02*
X150013333Y-132514260D01*
X150013333Y-132514260D02*
X150013333Y-132614260D01*
X150013333Y-132614260D02*
X149980000Y-132680926D01*
X149980000Y-132680926D02*
X149946667Y-132714260D01*
X149946667Y-132714260D02*
X149880000Y-132747593D01*
X149880000Y-132747593D02*
X149613333Y-132747593D01*
X149613333Y-132747593D02*
X149613333Y-132047593D01*
X149613333Y-132047593D02*
X149846667Y-132047593D01*
X149846667Y-132047593D02*
X149913333Y-132080926D01*
X149913333Y-132080926D02*
X149946667Y-132114260D01*
X149946667Y-132114260D02*
X149980000Y-132180926D01*
X149980000Y-132180926D02*
X149980000Y-132247593D01*
X149980000Y-132247593D02*
X149946667Y-132314260D01*
X149946667Y-132314260D02*
X149913333Y-132347593D01*
X149913333Y-132347593D02*
X149846667Y-132380926D01*
X149846667Y-132380926D02*
X149613333Y-132380926D01*
X150313333Y-132480926D02*
X150846667Y-132480926D01*
X151580000Y-132680926D02*
X151546667Y-132714260D01*
X151546667Y-132714260D02*
X151446667Y-132747593D01*
X151446667Y-132747593D02*
X151380000Y-132747593D01*
X151380000Y-132747593D02*
X151280000Y-132714260D01*
X151280000Y-132714260D02*
X151213334Y-132647593D01*
X151213334Y-132647593D02*
X151180000Y-132580926D01*
X151180000Y-132580926D02*
X151146667Y-132447593D01*
X151146667Y-132447593D02*
X151146667Y-132347593D01*
X151146667Y-132347593D02*
X151180000Y-132214260D01*
X151180000Y-132214260D02*
X151213334Y-132147593D01*
X151213334Y-132147593D02*
X151280000Y-132080926D01*
X151280000Y-132080926D02*
X151380000Y-132047593D01*
X151380000Y-132047593D02*
X151446667Y-132047593D01*
X151446667Y-132047593D02*
X151546667Y-132080926D01*
X151546667Y-132080926D02*
X151580000Y-132114260D01*
%TO.C,D5*%
X176050000Y-95110000D02*
X179350000Y-95110000D01*
X176050000Y-95110000D02*
X176050000Y-89600000D01*
X179350000Y-95110000D02*
X179350000Y-89600000D01*
%TO.C,R6*%
X126177500Y-83854724D02*
X126177500Y-83345276D01*
X127222500Y-83854724D02*
X127222500Y-83345276D01*
%TO.C,D3*%
X157790000Y-82350000D02*
X157790000Y-85650000D01*
X157790000Y-82350000D02*
X163300000Y-82350000D01*
X157790000Y-85650000D02*
X163300000Y-85650000D01*
%TO.C,J4*%
X117030000Y-95020000D02*
X130020000Y-95020000D01*
X117030000Y-97400000D02*
X117030000Y-95020000D01*
X117030000Y-110760000D02*
X117030000Y-98000000D01*
X130020000Y-95020000D02*
X130020000Y-110760000D01*
X130020000Y-110760000D02*
X117030000Y-110760000D01*
X117030000Y-97700000D02*
X116420000Y-98140000D01*
X116420000Y-97260000D01*
X117030000Y-97700000D01*
G36*
X117030000Y-97700000D02*
G01*
X116420000Y-98140000D01*
X116420000Y-97260000D01*
X117030000Y-97700000D01*
G37*
%TO.C,R3*%
X156877500Y-104642224D02*
X156877500Y-104132776D01*
X157922500Y-104642224D02*
X157922500Y-104132776D01*
%TO.C,R2*%
X164457776Y-105677500D02*
X164967224Y-105677500D01*
X164457776Y-106722500D02*
X164967224Y-106722500D01*
%TO.C,C5*%
X160790000Y-87946267D02*
X160790000Y-87653733D01*
X161810000Y-87946267D02*
X161810000Y-87653733D01*
%TO.C,U3*%
X159752500Y-103690000D02*
X161572500Y-103690000D01*
X159752500Y-103740000D02*
X159752500Y-103690000D01*
X159752500Y-106810000D02*
X159752500Y-106760000D01*
X161572500Y-103690000D02*
X161572500Y-103740000D01*
X161572500Y-104860000D02*
X161572500Y-105640000D01*
X161572500Y-106760000D02*
X161572500Y-106810000D01*
X161572500Y-106810000D02*
X159752500Y-106810000D01*
X159212500Y-103740000D02*
X158972500Y-103410000D01*
X159452500Y-103410000D01*
X159212500Y-103740000D01*
G36*
X159212500Y-103740000D02*
G01*
X158972500Y-103410000D01*
X159452500Y-103410000D01*
X159212500Y-103740000D01*
G37*
%TO.C,R4*%
X166977500Y-106857776D02*
X166977500Y-107367224D01*
X168022500Y-106857776D02*
X168022500Y-107367224D01*
%TO.C,C1*%
X176240000Y-111291233D02*
X176240000Y-111583767D01*
X177260000Y-111291233D02*
X177260000Y-111583767D01*
%TO.C,D1*%
X172250000Y-89190000D02*
X172250000Y-94700000D01*
X175550000Y-89190000D02*
X172250000Y-89190000D01*
X175550000Y-89190000D02*
X175550000Y-94700000D01*
%TO.C,SW2*%
X132900000Y-124900000D02*
X132900000Y-125800000D01*
X133110000Y-124700000D02*
X132900000Y-124900000D01*
X133110000Y-126000000D02*
X132900000Y-125800000D01*
X133110000Y-126000000D02*
X134400000Y-126000000D01*
X134400000Y-123250000D02*
X134400000Y-128950000D01*
X134400000Y-124700000D02*
X133110000Y-124700000D01*
X135410000Y-129550000D02*
X136200000Y-129550000D01*
X136200000Y-122650000D02*
X135410000Y-122650000D01*
X137250000Y-124500000D02*
X137250000Y-126200000D01*
X137250000Y-127500000D02*
X137250000Y-127700000D01*
%TO.C,R12*%
X135797776Y-104377500D02*
X136307224Y-104377500D01*
X135797776Y-105422500D02*
X136307224Y-105422500D01*
%TO.C,U1*%
X163552500Y-86627500D02*
X165372500Y-86627500D01*
X163552500Y-86677500D02*
X163552500Y-86627500D01*
X163552500Y-89747500D02*
X163552500Y-89697500D01*
X165372500Y-86627500D02*
X165372500Y-86677500D01*
X165372500Y-87797500D02*
X165372500Y-88577500D01*
X165372500Y-89697500D02*
X165372500Y-89747500D01*
X165372500Y-89747500D02*
X163552500Y-89747500D01*
X163012500Y-86677500D02*
X162772500Y-86347500D01*
X163252500Y-86347500D01*
X163012500Y-86677500D01*
G36*
X163012500Y-86677500D02*
G01*
X162772500Y-86347500D01*
X163252500Y-86347500D01*
X163012500Y-86677500D01*
G37*
%TO.C,J1*%
X127280000Y-85780000D02*
X128270000Y-85780000D01*
X127280000Y-91020000D02*
X127280000Y-85780000D01*
X127750000Y-86900000D02*
X128270000Y-86900000D01*
X127750000Y-87900000D02*
X127750000Y-86900000D01*
X128270000Y-87900000D02*
X127750000Y-87900000D01*
X128270000Y-91020000D02*
X127280000Y-91020000D01*
X133217000Y-85780000D02*
X133783000Y-85780000D01*
X133659000Y-87900000D02*
X133341000Y-87900000D01*
X133678000Y-91020000D02*
X133322000Y-91020000D01*
X135520000Y-88164000D02*
X135520000Y-88736000D01*
X128270000Y-90377000D02*
G75*
G02*
X128270000Y-88623000I479547J877000D01*
G01*
X128551000Y-88520000D02*
G75*
G02*
X128949000Y-88520000I199000J-980025D01*
G01*
X131051000Y-88520000D02*
G75*
G02*
X131721002Y-88617997I199990J-972060D01*
G01*
X133069000Y-88767000D02*
G75*
G02*
X134221000Y-88617999I680350J-732280D01*
G01*
X129750000Y-91480000D02*
X130190000Y-92090000D01*
X129310000Y-92090000D01*
X129750000Y-91480000D01*
G36*
X130190000Y-92090000D02*
G01*
X129310000Y-92090000D01*
X129750000Y-91480000D01*
X130190000Y-92090000D01*
G37*
%TO.C,C13*%
X133830000Y-107353733D02*
X133830000Y-107646267D01*
X134850000Y-107353733D02*
X134850000Y-107646267D01*
%TO.C,R11*%
X161632776Y-123077500D02*
X162142224Y-123077500D01*
X161632776Y-124122500D02*
X162142224Y-124122500D01*
%TO.C,C3*%
X138320000Y-98999000D02*
X138320000Y-97801000D01*
X138360000Y-99262000D02*
X138360000Y-97538000D01*
X138400000Y-99462000D02*
X138400000Y-97338000D01*
X138440000Y-99630000D02*
X138440000Y-97170000D01*
X138480000Y-99777000D02*
X138480000Y-97023000D01*
X138520000Y-99909000D02*
X138520000Y-96891000D01*
X138560000Y-100030000D02*
X138560000Y-96770000D01*
X138600000Y-100142000D02*
X138600000Y-96658000D01*
X138640000Y-100246000D02*
X138640000Y-96554000D01*
X138680000Y-100344000D02*
X138680000Y-96456000D01*
X138720000Y-100437000D02*
X138720000Y-96363000D01*
X138760000Y-100524000D02*
X138760000Y-96276000D01*
X138800000Y-100608000D02*
X138800000Y-96192000D01*
X138840000Y-100688000D02*
X138840000Y-96112000D01*
X138880000Y-100765000D02*
X138880000Y-96035000D01*
X138920000Y-100839000D02*
X138920000Y-95961000D01*
X138960000Y-100910000D02*
X138960000Y-95890000D01*
X139000000Y-100978000D02*
X139000000Y-95822000D01*
X139040000Y-101044000D02*
X139040000Y-95756000D01*
X139080000Y-101108000D02*
X139080000Y-95692000D01*
X139120000Y-101170000D02*
X139120000Y-95630000D01*
X139160000Y-101230000D02*
X139160000Y-95570000D01*
X139200000Y-101288000D02*
X139200000Y-95512000D01*
X139240000Y-101345000D02*
X139240000Y-95455000D01*
X139280000Y-101400000D02*
X139280000Y-95400000D01*
X139320000Y-101453000D02*
X139320000Y-95347000D01*
X139360000Y-101505000D02*
X139360000Y-95295000D01*
X139400000Y-101556000D02*
X139400000Y-95244000D01*
X139440000Y-101605000D02*
X139440000Y-95195000D01*
X139480000Y-101654000D02*
X139480000Y-95146000D01*
X139520000Y-101701000D02*
X139520000Y-95099000D01*
X139560000Y-101747000D02*
X139560000Y-95053000D01*
X139600000Y-101791000D02*
X139600000Y-95009000D01*
X139640000Y-101835000D02*
X139640000Y-94965000D01*
X139680000Y-97160000D02*
X139680000Y-94922000D01*
X139680000Y-101878000D02*
X139680000Y-99640000D01*
X139720000Y-97160000D02*
X139720000Y-94880000D01*
X139720000Y-101920000D02*
X139720000Y-99640000D01*
X139760000Y-97160000D02*
X139760000Y-94839000D01*
X139760000Y-101961000D02*
X139760000Y-99640000D01*
X139800000Y-97160000D02*
X139800000Y-94799000D01*
X139800000Y-102001000D02*
X139800000Y-99640000D01*
X139840000Y-97160000D02*
X139840000Y-94760000D01*
X139840000Y-102040000D02*
X139840000Y-99640000D01*
X139880000Y-97160000D02*
X139880000Y-94722000D01*
X139880000Y-102078000D02*
X139880000Y-99640000D01*
X139920000Y-97160000D02*
X139920000Y-94684000D01*
X139920000Y-102116000D02*
X139920000Y-99640000D01*
X139960000Y-97160000D02*
X139960000Y-94648000D01*
X139960000Y-102152000D02*
X139960000Y-99640000D01*
X140000000Y-97160000D02*
X140000000Y-94612000D01*
X140000000Y-102188000D02*
X140000000Y-99640000D01*
X140040000Y-97160000D02*
X140040000Y-94577000D01*
X140040000Y-102223000D02*
X140040000Y-99640000D01*
X140080000Y-97160000D02*
X140080000Y-94542000D01*
X140080000Y-102258000D02*
X140080000Y-99640000D01*
X140120000Y-97160000D02*
X140120000Y-94509000D01*
X140120000Y-102291000D02*
X140120000Y-99640000D01*
X140160000Y-97160000D02*
X140160000Y-94476000D01*
X140160000Y-102324000D02*
X140160000Y-99640000D01*
X140200000Y-97160000D02*
X140200000Y-94443000D01*
X140200000Y-102357000D02*
X140200000Y-99640000D01*
X140240000Y-97160000D02*
X140240000Y-94412000D01*
X140240000Y-102388000D02*
X140240000Y-99640000D01*
X140280000Y-97160000D02*
X140280000Y-94380000D01*
X140280000Y-102420000D02*
X140280000Y-99640000D01*
X140320000Y-97160000D02*
X140320000Y-94350000D01*
X140320000Y-102450000D02*
X140320000Y-99640000D01*
X140360000Y-97160000D02*
X140360000Y-94320000D01*
X140360000Y-102480000D02*
X140360000Y-99640000D01*
X140400000Y-97160000D02*
X140400000Y-94291000D01*
X140400000Y-102509000D02*
X140400000Y-99640000D01*
X140440000Y-97160000D02*
X140440000Y-94262000D01*
X140440000Y-102538000D02*
X140440000Y-99640000D01*
X140480000Y-97160000D02*
X140480000Y-94234000D01*
X140480000Y-102566000D02*
X140480000Y-99640000D01*
X140520000Y-97160000D02*
X140520000Y-94207000D01*
X140520000Y-102593000D02*
X140520000Y-99640000D01*
X140560000Y-97160000D02*
X140560000Y-94180000D01*
X140560000Y-102620000D02*
X140560000Y-99640000D01*
X140600000Y-97160000D02*
X140600000Y-94153000D01*
X140600000Y-102647000D02*
X140600000Y-99640000D01*
X140640000Y-97160000D02*
X140640000Y-94128000D01*
X140640000Y-102672000D02*
X140640000Y-99640000D01*
X140680000Y-97160000D02*
X140680000Y-94102000D01*
X140680000Y-102698000D02*
X140680000Y-99640000D01*
X140720000Y-97160000D02*
X140720000Y-94077000D01*
X140720000Y-102723000D02*
X140720000Y-99640000D01*
X140760000Y-97160000D02*
X140760000Y-94053000D01*
X140760000Y-102747000D02*
X140760000Y-99640000D01*
X140800000Y-97160000D02*
X140800000Y-94029000D01*
X140800000Y-102771000D02*
X140800000Y-99640000D01*
X140840000Y-97160000D02*
X140840000Y-94006000D01*
X140840000Y-102794000D02*
X140840000Y-99640000D01*
X140880000Y-97160000D02*
X140880000Y-93983000D01*
X140880000Y-102817000D02*
X140880000Y-99640000D01*
X140920000Y-97160000D02*
X140920000Y-93961000D01*
X140920000Y-102839000D02*
X140920000Y-99640000D01*
X140960000Y-97160000D02*
X140960000Y-93939000D01*
X140960000Y-102861000D02*
X140960000Y-99640000D01*
X141000000Y-97160000D02*
X141000000Y-93917000D01*
X141000000Y-102883000D02*
X141000000Y-99640000D01*
X141040000Y-97160000D02*
X141040000Y-93896000D01*
X141040000Y-102904000D02*
X141040000Y-99640000D01*
X141080000Y-97160000D02*
X141080000Y-93876000D01*
X141080000Y-102924000D02*
X141080000Y-99640000D01*
X141120000Y-97160000D02*
X141120000Y-93856000D01*
X141120000Y-102944000D02*
X141120000Y-99640000D01*
X141160000Y-97160000D02*
X141160000Y-93836000D01*
X141160000Y-102964000D02*
X141160000Y-99640000D01*
X141200000Y-97160000D02*
X141200000Y-93817000D01*
X141200000Y-102983000D02*
X141200000Y-99640000D01*
X141240000Y-97160000D02*
X141240000Y-93798000D01*
X141240000Y-103002000D02*
X141240000Y-99640000D01*
X141280000Y-97160000D02*
X141280000Y-93780000D01*
X141280000Y-103020000D02*
X141280000Y-99640000D01*
X141320000Y-97160000D02*
X141320000Y-93762000D01*
X141320000Y-103038000D02*
X141320000Y-99640000D01*
X141360000Y-97160000D02*
X141360000Y-93744000D01*
X141360000Y-103056000D02*
X141360000Y-99640000D01*
X141400000Y-97160000D02*
X141400000Y-93727000D01*
X141400000Y-103073000D02*
X141400000Y-99640000D01*
X141440000Y-97160000D02*
X141440000Y-93710000D01*
X141440000Y-103090000D02*
X141440000Y-99640000D01*
X141480000Y-97160000D02*
X141480000Y-93694000D01*
X141480000Y-103106000D02*
X141480000Y-99640000D01*
X141520000Y-97160000D02*
X141520000Y-93678000D01*
X141520000Y-103122000D02*
X141520000Y-99640000D01*
X141560000Y-97160000D02*
X141560000Y-93662000D01*
X141560000Y-103138000D02*
X141560000Y-99640000D01*
X141600000Y-97160000D02*
X141600000Y-93647000D01*
X141600000Y-103153000D02*
X141600000Y-99640000D01*
X141640000Y-97160000D02*
X141640000Y-93632000D01*
X141640000Y-103168000D02*
X141640000Y-99640000D01*
X141680000Y-97160000D02*
X141680000Y-93618000D01*
X141680000Y-103182000D02*
X141680000Y-99640000D01*
X141720000Y-97160000D02*
X141720000Y-93603000D01*
X141720000Y-103197000D02*
X141720000Y-99640000D01*
X141760000Y-97160000D02*
X141760000Y-93590000D01*
X141760000Y-103210000D02*
X141760000Y-99640000D01*
X141800000Y-97160000D02*
X141800000Y-93576000D01*
X141800000Y-103224000D02*
X141800000Y-99640000D01*
X141840000Y-97160000D02*
X141840000Y-93563000D01*
X141840000Y-103237000D02*
X141840000Y-99640000D01*
X141880000Y-97160000D02*
X141880000Y-93551000D01*
X141880000Y-103249000D02*
X141880000Y-99640000D01*
X141920000Y-97160000D02*
X141920000Y-93539000D01*
X141920000Y-103261000D02*
X141920000Y-99640000D01*
X141960000Y-97160000D02*
X141960000Y-93527000D01*
X141960000Y-103273000D02*
X141960000Y-99640000D01*
X142000000Y-97160000D02*
X142000000Y-93515000D01*
X142000000Y-103285000D02*
X142000000Y-99640000D01*
X142040000Y-97160000D02*
X142040000Y-93504000D01*
X142040000Y-103296000D02*
X142040000Y-99640000D01*
X142080000Y-97160000D02*
X142080000Y-93493000D01*
X142080000Y-103307000D02*
X142080000Y-99640000D01*
X142120000Y-97160000D02*
X142120000Y-93483000D01*
X142120000Y-103317000D02*
X142120000Y-99640000D01*
X142160000Y-103328000D02*
X142160000Y-93472000D01*
X142200000Y-103337000D02*
X142200000Y-93463000D01*
X142240000Y-103347000D02*
X142240000Y-93453000D01*
X142280000Y-103356000D02*
X142280000Y-93444000D01*
X142320000Y-103365000D02*
X142320000Y-93435000D01*
X142360000Y-103373000D02*
X142360000Y-93427000D01*
X142400000Y-103381000D02*
X142400000Y-93419000D01*
X142440000Y-103389000D02*
X142440000Y-93411000D01*
X142480000Y-103397000D02*
X142480000Y-93403000D01*
X142520000Y-103404000D02*
X142520000Y-93396000D01*
X142560000Y-103411000D02*
X142560000Y-93389000D01*
X142600000Y-103417000D02*
X142600000Y-93383000D01*
X142640000Y-103423000D02*
X142640000Y-93377000D01*
X142680000Y-103429000D02*
X142680000Y-93371000D01*
X142720000Y-103435000D02*
X142720000Y-93365000D01*
X142760000Y-103440000D02*
X142760000Y-93360000D01*
X142800000Y-103445000D02*
X142800000Y-93355000D01*
X142840000Y-103449000D02*
X142840000Y-93351000D01*
X142880000Y-103454000D02*
X142880000Y-93346000D01*
X142920000Y-103457000D02*
X142920000Y-93343000D01*
X142960000Y-103461000D02*
X142960000Y-93339000D01*
X143000000Y-103464000D02*
X143000000Y-93336000D01*
X143040000Y-103467000D02*
X143040000Y-93333000D01*
X143080000Y-103470000D02*
X143080000Y-93330000D01*
X143120000Y-103472000D02*
X143120000Y-93328000D01*
X143160000Y-103474000D02*
X143160000Y-93326000D01*
X143200000Y-103476000D02*
X143200000Y-93324000D01*
X143240000Y-103477000D02*
X143240000Y-93323000D01*
X143280000Y-103479000D02*
X143280000Y-93321000D01*
X143320000Y-103479000D02*
X143320000Y-93321000D01*
X143360000Y-103480000D02*
X143360000Y-93320000D01*
X143400000Y-103480000D02*
X143400000Y-93320000D01*
X148379646Y-101775000D02*
X148379646Y-100775000D01*
X148879646Y-101275000D02*
X147879646Y-101275000D01*
X148520000Y-98400000D02*
G75*
G02*
X138280000Y-98400000I-5120000J0D01*
G01*
X138280000Y-98400000D02*
G75*
G02*
X148520000Y-98400000I5120000J0D01*
G01*
%TO.C,R14*%
X152677500Y-104032776D02*
X152677500Y-104542224D01*
X153722500Y-104032776D02*
X153722500Y-104542224D01*
%TO.C,R1*%
X176227500Y-114857776D02*
X176227500Y-115367224D01*
X177272500Y-114857776D02*
X177272500Y-115367224D01*
%TO.C,R7*%
X170367224Y-94177500D02*
X169857776Y-94177500D01*
X170367224Y-95222500D02*
X169857776Y-95222500D01*
%TO.C,C12*%
X166690000Y-93908767D02*
X166690000Y-93616233D01*
X167710000Y-93908767D02*
X167710000Y-93616233D01*
%TO.C,C8*%
X158665000Y-88123752D02*
X158665000Y-87601248D01*
X160135000Y-88123752D02*
X160135000Y-87601248D01*
%TO.C,F1*%
X172440000Y-84540000D02*
X180560000Y-84540000D01*
X180560000Y-87860000D01*
X172440000Y-87860000D01*
X172440000Y-84540000D01*
%TO.C,C4*%
X169701248Y-89965000D02*
X170223752Y-89965000D01*
X169701248Y-91435000D02*
X170223752Y-91435000D01*
%TO.C,SW1*%
X130890000Y-95925000D02*
X130890000Y-102745000D01*
X132200000Y-95925000D02*
X130890000Y-95925000D01*
X132200000Y-102745000D02*
X130890000Y-102745000D01*
X133635000Y-98731667D02*
X132365000Y-98731667D01*
X134740000Y-95925000D02*
X133800000Y-95925000D01*
X134740000Y-102745000D02*
X133800000Y-102745000D01*
X136175000Y-98731667D02*
X134905000Y-98731667D01*
X137650000Y-95925000D02*
X136340000Y-95925000D01*
X137650000Y-95925000D02*
X137650000Y-102745000D01*
X137650000Y-102745000D02*
X136340000Y-102745000D01*
X137890000Y-95685000D02*
X136507000Y-95685000D01*
X137890000Y-95685000D02*
X137890000Y-97068000D01*
X132365000Y-97525000D02*
X133635000Y-97525000D01*
X133635000Y-98731667D01*
X132365000Y-98731667D01*
X132365000Y-97525000D01*
G36*
X132365000Y-97525000D02*
G01*
X133635000Y-97525000D01*
X133635000Y-98731667D01*
X132365000Y-98731667D01*
X132365000Y-97525000D01*
G37*
X132365000Y-97525000D02*
X133635000Y-97525000D01*
X133635000Y-101145000D01*
X132365000Y-101145000D01*
X132365000Y-97525000D01*
X134905000Y-97525000D02*
X136175000Y-97525000D01*
X136175000Y-98731667D01*
X134905000Y-98731667D01*
X134905000Y-97525000D01*
G36*
X134905000Y-97525000D02*
G01*
X136175000Y-97525000D01*
X136175000Y-98731667D01*
X134905000Y-98731667D01*
X134905000Y-97525000D01*
G37*
X134905000Y-97525000D02*
X136175000Y-97525000D01*
X136175000Y-101145000D01*
X134905000Y-101145000D01*
X134905000Y-97525000D01*
%TO.C,D4*%
X164725000Y-124335000D02*
X167185000Y-124335000D01*
X167185000Y-122865000D02*
X164725000Y-122865000D01*
X167185000Y-124335000D02*
X167185000Y-122865000D01*
%TO.C,J3*%
X177100000Y-96350000D02*
X177100000Y-103250000D01*
X177100000Y-98700000D02*
X177600000Y-98700000D01*
X177100000Y-98800000D02*
X177600000Y-98800000D01*
X177100000Y-100700000D02*
X177600000Y-100700000D01*
X177100000Y-100800000D02*
X177600000Y-100800000D01*
X177100000Y-103250000D02*
X180600000Y-103250000D01*
X177600000Y-98700000D02*
X177600000Y-98900000D01*
X177600000Y-98900000D02*
X177100000Y-98900000D01*
X177600000Y-100700000D02*
X177600000Y-100900000D01*
X177600000Y-100900000D02*
X177100000Y-100900000D01*
X178600000Y-95740000D02*
X178600000Y-96350000D01*
X178600000Y-103860000D02*
X178600000Y-103250000D01*
X179900000Y-95740000D02*
X179900000Y-96350000D01*
X179900000Y-103860000D02*
X179900000Y-103250000D01*
X180600000Y-96350000D02*
X177100000Y-96350000D01*
X180600000Y-98300000D02*
X180600000Y-96350000D01*
X180600000Y-101300000D02*
X181210000Y-101300000D01*
X180600000Y-103250000D02*
X180600000Y-101300000D01*
X181210000Y-97500000D02*
X181410000Y-97500000D01*
X181210000Y-98300000D02*
X180600000Y-98300000D01*
X181310000Y-97500000D02*
X181310000Y-97200000D01*
X181410000Y-97200000D02*
X181210000Y-97200000D01*
X181410000Y-97500000D02*
X181410000Y-97200000D01*
X181510000Y-95440000D02*
X180260000Y-95440000D01*
X181510000Y-96690000D02*
X181510000Y-95440000D01*
X176490000Y-95740000D02*
X181210000Y-95740000D01*
X181210000Y-103860000D01*
X176490000Y-103860000D01*
X176490000Y-95740000D01*
%TO.C,C6*%
X168253733Y-86727500D02*
X168546267Y-86727500D01*
X168253733Y-87747500D02*
X168546267Y-87747500D01*
%TO.C,J12*%
X150340000Y-68730000D02*
X163100000Y-68730000D01*
X150340000Y-81720000D02*
X150340000Y-68730000D01*
X163700000Y-68730000D02*
X166080000Y-68730000D01*
X166080000Y-68730000D02*
X166080000Y-81720000D01*
X166080000Y-81720000D02*
X150340000Y-81720000D01*
X163400000Y-68730000D02*
X162960000Y-68120000D01*
X163840000Y-68120000D01*
X163400000Y-68730000D01*
G36*
X163400000Y-68730000D02*
G01*
X162960000Y-68120000D01*
X163840000Y-68120000D01*
X163400000Y-68730000D01*
G37*
%TO.C,R5*%
X147477500Y-107054724D02*
X147477500Y-106545276D01*
X148522500Y-107054724D02*
X148522500Y-106545276D01*
%TO.C,Q2*%
X168670000Y-98050000D02*
X168670000Y-104470000D01*
X168670000Y-104470000D02*
X168940000Y-104470000D01*
X175570000Y-98050000D02*
X175570000Y-104470000D01*
X175570000Y-104470000D02*
X175300000Y-104470000D01*
X168980000Y-106200000D02*
X168510000Y-106540000D01*
X168510000Y-105860000D01*
X168980000Y-106200000D01*
G36*
X168980000Y-106200000D02*
G01*
X168510000Y-106540000D01*
X168510000Y-105860000D01*
X168980000Y-106200000D01*
G37*
%TO.C,C2*%
X138220000Y-88199000D02*
X138220000Y-87001000D01*
X138260000Y-88462000D02*
X138260000Y-86738000D01*
X138300000Y-88662000D02*
X138300000Y-86538000D01*
X138340000Y-88830000D02*
X138340000Y-86370000D01*
X138380000Y-88977000D02*
X138380000Y-86223000D01*
X138420000Y-89109000D02*
X138420000Y-86091000D01*
X138460000Y-89230000D02*
X138460000Y-85970000D01*
X138500000Y-89342000D02*
X138500000Y-85858000D01*
X138540000Y-89446000D02*
X138540000Y-85754000D01*
X138580000Y-89544000D02*
X138580000Y-85656000D01*
X138620000Y-89637000D02*
X138620000Y-85563000D01*
X138660000Y-89724000D02*
X138660000Y-85476000D01*
X138700000Y-89808000D02*
X138700000Y-85392000D01*
X138740000Y-89888000D02*
X138740000Y-85312000D01*
X138780000Y-89965000D02*
X138780000Y-85235000D01*
X138820000Y-90039000D02*
X138820000Y-85161000D01*
X138860000Y-90110000D02*
X138860000Y-85090000D01*
X138900000Y-90178000D02*
X138900000Y-85022000D01*
X138940000Y-90244000D02*
X138940000Y-84956000D01*
X138980000Y-90308000D02*
X138980000Y-84892000D01*
X139020000Y-90370000D02*
X139020000Y-84830000D01*
X139060000Y-90430000D02*
X139060000Y-84770000D01*
X139100000Y-90488000D02*
X139100000Y-84712000D01*
X139140000Y-90545000D02*
X139140000Y-84655000D01*
X139180000Y-90600000D02*
X139180000Y-84600000D01*
X139220000Y-90653000D02*
X139220000Y-84547000D01*
X139260000Y-90705000D02*
X139260000Y-84495000D01*
X139300000Y-90756000D02*
X139300000Y-84444000D01*
X139340000Y-90805000D02*
X139340000Y-84395000D01*
X139380000Y-90854000D02*
X139380000Y-84346000D01*
X139420000Y-90901000D02*
X139420000Y-84299000D01*
X139460000Y-90947000D02*
X139460000Y-84253000D01*
X139500000Y-90991000D02*
X139500000Y-84209000D01*
X139540000Y-91035000D02*
X139540000Y-84165000D01*
X139580000Y-86360000D02*
X139580000Y-84122000D01*
X139580000Y-91078000D02*
X139580000Y-88840000D01*
X139620000Y-86360000D02*
X139620000Y-84080000D01*
X139620000Y-91120000D02*
X139620000Y-88840000D01*
X139660000Y-86360000D02*
X139660000Y-84039000D01*
X139660000Y-91161000D02*
X139660000Y-88840000D01*
X139700000Y-86360000D02*
X139700000Y-83999000D01*
X139700000Y-91201000D02*
X139700000Y-88840000D01*
X139740000Y-86360000D02*
X139740000Y-83960000D01*
X139740000Y-91240000D02*
X139740000Y-88840000D01*
X139780000Y-86360000D02*
X139780000Y-83922000D01*
X139780000Y-91278000D02*
X139780000Y-88840000D01*
X139820000Y-86360000D02*
X139820000Y-83884000D01*
X139820000Y-91316000D02*
X139820000Y-88840000D01*
X139860000Y-86360000D02*
X139860000Y-83848000D01*
X139860000Y-91352000D02*
X139860000Y-88840000D01*
X139900000Y-86360000D02*
X139900000Y-83812000D01*
X139900000Y-91388000D02*
X139900000Y-88840000D01*
X139940000Y-86360000D02*
X139940000Y-83777000D01*
X139940000Y-91423000D02*
X139940000Y-88840000D01*
X139980000Y-86360000D02*
X139980000Y-83742000D01*
X139980000Y-91458000D02*
X139980000Y-88840000D01*
X140020000Y-86360000D02*
X140020000Y-83709000D01*
X140020000Y-91491000D02*
X140020000Y-88840000D01*
X140060000Y-86360000D02*
X140060000Y-83676000D01*
X140060000Y-91524000D02*
X140060000Y-88840000D01*
X140100000Y-86360000D02*
X140100000Y-83643000D01*
X140100000Y-91557000D02*
X140100000Y-88840000D01*
X140140000Y-86360000D02*
X140140000Y-83612000D01*
X140140000Y-91588000D02*
X140140000Y-88840000D01*
X140180000Y-86360000D02*
X140180000Y-83580000D01*
X140180000Y-91620000D02*
X140180000Y-88840000D01*
X140220000Y-86360000D02*
X140220000Y-83550000D01*
X140220000Y-91650000D02*
X140220000Y-88840000D01*
X140260000Y-86360000D02*
X140260000Y-83520000D01*
X140260000Y-91680000D02*
X140260000Y-88840000D01*
X140300000Y-86360000D02*
X140300000Y-83491000D01*
X140300000Y-91709000D02*
X140300000Y-88840000D01*
X140340000Y-86360000D02*
X140340000Y-83462000D01*
X140340000Y-91738000D02*
X140340000Y-88840000D01*
X140380000Y-86360000D02*
X140380000Y-83434000D01*
X140380000Y-91766000D02*
X140380000Y-88840000D01*
X140420000Y-86360000D02*
X140420000Y-83407000D01*
X140420000Y-91793000D02*
X140420000Y-88840000D01*
X140460000Y-86360000D02*
X140460000Y-83380000D01*
X140460000Y-91820000D02*
X140460000Y-88840000D01*
X140500000Y-86360000D02*
X140500000Y-83353000D01*
X140500000Y-91847000D02*
X140500000Y-88840000D01*
X140540000Y-86360000D02*
X140540000Y-83328000D01*
X140540000Y-91872000D02*
X140540000Y-88840000D01*
X140580000Y-86360000D02*
X140580000Y-83302000D01*
X140580000Y-91898000D02*
X140580000Y-88840000D01*
X140620000Y-86360000D02*
X140620000Y-83277000D01*
X140620000Y-91923000D02*
X140620000Y-88840000D01*
X140660000Y-86360000D02*
X140660000Y-83253000D01*
X140660000Y-91947000D02*
X140660000Y-88840000D01*
X140700000Y-86360000D02*
X140700000Y-83229000D01*
X140700000Y-91971000D02*
X140700000Y-88840000D01*
X140740000Y-86360000D02*
X140740000Y-83206000D01*
X140740000Y-91994000D02*
X140740000Y-88840000D01*
X140780000Y-86360000D02*
X140780000Y-83183000D01*
X140780000Y-92017000D02*
X140780000Y-88840000D01*
X140820000Y-86360000D02*
X140820000Y-83161000D01*
X140820000Y-92039000D02*
X140820000Y-88840000D01*
X140860000Y-86360000D02*
X140860000Y-83139000D01*
X140860000Y-92061000D02*
X140860000Y-88840000D01*
X140900000Y-86360000D02*
X140900000Y-83117000D01*
X140900000Y-92083000D02*
X140900000Y-88840000D01*
X140940000Y-86360000D02*
X140940000Y-83096000D01*
X140940000Y-92104000D02*
X140940000Y-88840000D01*
X140980000Y-86360000D02*
X140980000Y-83076000D01*
X140980000Y-92124000D02*
X140980000Y-88840000D01*
X141020000Y-86360000D02*
X141020000Y-83056000D01*
X141020000Y-92144000D02*
X141020000Y-88840000D01*
X141060000Y-86360000D02*
X141060000Y-83036000D01*
X141060000Y-92164000D02*
X141060000Y-88840000D01*
X141100000Y-86360000D02*
X141100000Y-83017000D01*
X141100000Y-92183000D02*
X141100000Y-88840000D01*
X141140000Y-86360000D02*
X141140000Y-82998000D01*
X141140000Y-92202000D02*
X141140000Y-88840000D01*
X141180000Y-86360000D02*
X141180000Y-82980000D01*
X141180000Y-92220000D02*
X141180000Y-88840000D01*
X141220000Y-86360000D02*
X141220000Y-82962000D01*
X141220000Y-92238000D02*
X141220000Y-88840000D01*
X141260000Y-86360000D02*
X141260000Y-82944000D01*
X141260000Y-92256000D02*
X141260000Y-88840000D01*
X141300000Y-86360000D02*
X141300000Y-82927000D01*
X141300000Y-92273000D02*
X141300000Y-88840000D01*
X141340000Y-86360000D02*
X141340000Y-82910000D01*
X141340000Y-92290000D02*
X141340000Y-88840000D01*
X141380000Y-86360000D02*
X141380000Y-82894000D01*
X141380000Y-92306000D02*
X141380000Y-88840000D01*
X141420000Y-86360000D02*
X141420000Y-82878000D01*
X141420000Y-92322000D02*
X141420000Y-88840000D01*
X141460000Y-86360000D02*
X141460000Y-82862000D01*
X141460000Y-92338000D02*
X141460000Y-88840000D01*
X141500000Y-86360000D02*
X141500000Y-82847000D01*
X141500000Y-92353000D02*
X141500000Y-88840000D01*
X141540000Y-86360000D02*
X141540000Y-82832000D01*
X141540000Y-92368000D02*
X141540000Y-88840000D01*
X141580000Y-86360000D02*
X141580000Y-82818000D01*
X141580000Y-92382000D02*
X141580000Y-88840000D01*
X141620000Y-86360000D02*
X141620000Y-82803000D01*
X141620000Y-92397000D02*
X141620000Y-88840000D01*
X141660000Y-86360000D02*
X141660000Y-82790000D01*
X141660000Y-92410000D02*
X141660000Y-88840000D01*
X141700000Y-86360000D02*
X141700000Y-82776000D01*
X141700000Y-92424000D02*
X141700000Y-88840000D01*
X141740000Y-86360000D02*
X141740000Y-82763000D01*
X141740000Y-92437000D02*
X141740000Y-88840000D01*
X141780000Y-86360000D02*
X141780000Y-82751000D01*
X141780000Y-92449000D02*
X141780000Y-88840000D01*
X141820000Y-86360000D02*
X141820000Y-82739000D01*
X141820000Y-92461000D02*
X141820000Y-88840000D01*
X141860000Y-86360000D02*
X141860000Y-82727000D01*
X141860000Y-92473000D02*
X141860000Y-88840000D01*
X141900000Y-86360000D02*
X141900000Y-82715000D01*
X141900000Y-92485000D02*
X141900000Y-88840000D01*
X141940000Y-86360000D02*
X141940000Y-82704000D01*
X141940000Y-92496000D02*
X141940000Y-88840000D01*
X141980000Y-86360000D02*
X141980000Y-82693000D01*
X141980000Y-92507000D02*
X141980000Y-88840000D01*
X142020000Y-86360000D02*
X142020000Y-82683000D01*
X142020000Y-92517000D02*
X142020000Y-88840000D01*
X142060000Y-92528000D02*
X142060000Y-82672000D01*
X142100000Y-92537000D02*
X142100000Y-82663000D01*
X142140000Y-92547000D02*
X142140000Y-82653000D01*
X142180000Y-92556000D02*
X142180000Y-82644000D01*
X142220000Y-92565000D02*
X142220000Y-82635000D01*
X142260000Y-92573000D02*
X142260000Y-82627000D01*
X142300000Y-92581000D02*
X142300000Y-82619000D01*
X142340000Y-92589000D02*
X142340000Y-82611000D01*
X142380000Y-92597000D02*
X142380000Y-82603000D01*
X142420000Y-92604000D02*
X142420000Y-82596000D01*
X142460000Y-92611000D02*
X142460000Y-82589000D01*
X142500000Y-92617000D02*
X142500000Y-82583000D01*
X142540000Y-92623000D02*
X142540000Y-82577000D01*
X142580000Y-92629000D02*
X142580000Y-82571000D01*
X142620000Y-92635000D02*
X142620000Y-82565000D01*
X142660000Y-92640000D02*
X142660000Y-82560000D01*
X142700000Y-92645000D02*
X142700000Y-82555000D01*
X142740000Y-92649000D02*
X142740000Y-82551000D01*
X142780000Y-92654000D02*
X142780000Y-82546000D01*
X142820000Y-92657000D02*
X142820000Y-82543000D01*
X142860000Y-92661000D02*
X142860000Y-82539000D01*
X142900000Y-92664000D02*
X142900000Y-82536000D01*
X142940000Y-92667000D02*
X142940000Y-82533000D01*
X142980000Y-92670000D02*
X142980000Y-82530000D01*
X143020000Y-92672000D02*
X143020000Y-82528000D01*
X143060000Y-92674000D02*
X143060000Y-82526000D01*
X143100000Y-92676000D02*
X143100000Y-82524000D01*
X143140000Y-92677000D02*
X143140000Y-82523000D01*
X143180000Y-92679000D02*
X143180000Y-82521000D01*
X143220000Y-92679000D02*
X143220000Y-82521000D01*
X143260000Y-92680000D02*
X143260000Y-82520000D01*
X143300000Y-92680000D02*
X143300000Y-82520000D01*
X148279646Y-90975000D02*
X148279646Y-89975000D01*
X148779646Y-90475000D02*
X147779646Y-90475000D01*
X148420000Y-87600000D02*
G75*
G02*
X138180000Y-87600000I-5120000J0D01*
G01*
X138180000Y-87600000D02*
G75*
G02*
X148420000Y-87600000I5120000J0D01*
G01*
%TO.C,R13*%
X132285276Y-104377500D02*
X132794724Y-104377500D01*
X132285276Y-105422500D02*
X132794724Y-105422500D01*
%TO.C,C11*%
X124590000Y-83428733D02*
X124590000Y-83721267D01*
X125610000Y-83428733D02*
X125610000Y-83721267D01*
%TO.C,U4*%
X132140000Y-110440000D02*
X136260000Y-110440000D01*
X132140000Y-110535000D02*
X132140000Y-110440000D01*
X132140000Y-115560000D02*
X132140000Y-115465000D01*
X136260000Y-110440000D02*
X136260000Y-110535000D01*
X136260000Y-115465000D02*
X136260000Y-115560000D01*
X136260000Y-115560000D02*
X132140000Y-115560000D01*
X136800000Y-115470000D02*
X137040000Y-115800000D01*
X136560000Y-115800000D01*
X136800000Y-115470000D01*
G36*
X137040000Y-115800000D02*
G01*
X136560000Y-115800000D01*
X136800000Y-115470000D01*
X137040000Y-115800000D01*
G37*
%TO.C,C14*%
X147460000Y-90200000D02*
X148460000Y-90200000D01*
X147960000Y-89700000D02*
X147960000Y-90700000D01*
X152939646Y-87995000D02*
X152939646Y-98155000D01*
X152979646Y-87995000D02*
X152979646Y-98155000D01*
X153019646Y-87996000D02*
X153019646Y-98154000D01*
X153059646Y-87996000D02*
X153059646Y-98154000D01*
X153099646Y-87998000D02*
X153099646Y-98152000D01*
X153139646Y-87999000D02*
X153139646Y-98151000D01*
X153179646Y-88001000D02*
X153179646Y-98149000D01*
X153219646Y-88003000D02*
X153219646Y-98147000D01*
X153259646Y-88005000D02*
X153259646Y-98145000D01*
X153299646Y-88008000D02*
X153299646Y-98142000D01*
X153339646Y-88011000D02*
X153339646Y-98139000D01*
X153379646Y-88014000D02*
X153379646Y-98136000D01*
X153419646Y-88018000D02*
X153419646Y-98132000D01*
X153459646Y-88021000D02*
X153459646Y-98129000D01*
X153499646Y-88026000D02*
X153499646Y-98124000D01*
X153539646Y-88030000D02*
X153539646Y-98120000D01*
X153579646Y-88035000D02*
X153579646Y-98115000D01*
X153619646Y-88040000D02*
X153619646Y-98110000D01*
X153659646Y-88046000D02*
X153659646Y-98104000D01*
X153699646Y-88052000D02*
X153699646Y-98098000D01*
X153739646Y-88058000D02*
X153739646Y-98092000D01*
X153779646Y-88064000D02*
X153779646Y-98086000D01*
X153819646Y-88071000D02*
X153819646Y-98079000D01*
X153859646Y-88078000D02*
X153859646Y-98072000D01*
X153899646Y-88086000D02*
X153899646Y-98064000D01*
X153939646Y-88094000D02*
X153939646Y-98056000D01*
X153979646Y-88102000D02*
X153979646Y-98048000D01*
X154019646Y-88110000D02*
X154019646Y-98040000D01*
X154059646Y-88119000D02*
X154059646Y-98031000D01*
X154099646Y-88128000D02*
X154099646Y-98022000D01*
X154139646Y-88138000D02*
X154139646Y-98012000D01*
X154179646Y-88147000D02*
X154179646Y-98003000D01*
X154219646Y-88158000D02*
X154219646Y-91835000D01*
X154219646Y-94315000D02*
X154219646Y-97992000D01*
X154259646Y-88168000D02*
X154259646Y-91835000D01*
X154259646Y-94315000D02*
X154259646Y-97982000D01*
X154299646Y-88179000D02*
X154299646Y-91835000D01*
X154299646Y-94315000D02*
X154299646Y-97971000D01*
X154339646Y-88190000D02*
X154339646Y-91835000D01*
X154339646Y-94315000D02*
X154339646Y-97960000D01*
X154379646Y-88202000D02*
X154379646Y-91835000D01*
X154379646Y-94315000D02*
X154379646Y-97948000D01*
X154419646Y-88214000D02*
X154419646Y-91835000D01*
X154419646Y-94315000D02*
X154419646Y-97936000D01*
X154459646Y-88226000D02*
X154459646Y-91835000D01*
X154459646Y-94315000D02*
X154459646Y-97924000D01*
X154499646Y-88238000D02*
X154499646Y-91835000D01*
X154499646Y-94315000D02*
X154499646Y-97912000D01*
X154539646Y-88251000D02*
X154539646Y-91835000D01*
X154539646Y-94315000D02*
X154539646Y-97899000D01*
X154579646Y-88265000D02*
X154579646Y-91835000D01*
X154579646Y-94315000D02*
X154579646Y-97885000D01*
X154619646Y-88278000D02*
X154619646Y-91835000D01*
X154619646Y-94315000D02*
X154619646Y-97872000D01*
X154659646Y-88293000D02*
X154659646Y-91835000D01*
X154659646Y-94315000D02*
X154659646Y-97857000D01*
X154699646Y-88307000D02*
X154699646Y-91835000D01*
X154699646Y-94315000D02*
X154699646Y-97843000D01*
X154739646Y-88322000D02*
X154739646Y-91835000D01*
X154739646Y-94315000D02*
X154739646Y-97828000D01*
X154779646Y-88337000D02*
X154779646Y-91835000D01*
X154779646Y-94315000D02*
X154779646Y-97813000D01*
X154819646Y-88353000D02*
X154819646Y-91835000D01*
X154819646Y-94315000D02*
X154819646Y-97797000D01*
X154859646Y-88369000D02*
X154859646Y-91835000D01*
X154859646Y-94315000D02*
X154859646Y-97781000D01*
X154899646Y-88385000D02*
X154899646Y-91835000D01*
X154899646Y-94315000D02*
X154899646Y-97765000D01*
X154939646Y-88402000D02*
X154939646Y-91835000D01*
X154939646Y-94315000D02*
X154939646Y-97748000D01*
X154979646Y-88419000D02*
X154979646Y-91835000D01*
X154979646Y-94315000D02*
X154979646Y-97731000D01*
X155019646Y-88437000D02*
X155019646Y-91835000D01*
X155019646Y-94315000D02*
X155019646Y-97713000D01*
X155059646Y-88455000D02*
X155059646Y-91835000D01*
X155059646Y-94315000D02*
X155059646Y-97695000D01*
X155099646Y-88473000D02*
X155099646Y-91835000D01*
X155099646Y-94315000D02*
X155099646Y-97677000D01*
X155139646Y-88492000D02*
X155139646Y-91835000D01*
X155139646Y-94315000D02*
X155139646Y-97658000D01*
X155179646Y-88511000D02*
X155179646Y-91835000D01*
X155179646Y-94315000D02*
X155179646Y-97639000D01*
X155219646Y-88531000D02*
X155219646Y-91835000D01*
X155219646Y-94315000D02*
X155219646Y-97619000D01*
X155259646Y-88551000D02*
X155259646Y-91835000D01*
X155259646Y-94315000D02*
X155259646Y-97599000D01*
X155299646Y-88571000D02*
X155299646Y-91835000D01*
X155299646Y-94315000D02*
X155299646Y-97579000D01*
X155339646Y-88592000D02*
X155339646Y-91835000D01*
X155339646Y-94315000D02*
X155339646Y-97558000D01*
X155379646Y-88614000D02*
X155379646Y-91835000D01*
X155379646Y-94315000D02*
X155379646Y-97536000D01*
X155419646Y-88636000D02*
X155419646Y-91835000D01*
X155419646Y-94315000D02*
X155419646Y-97514000D01*
X155459646Y-88658000D02*
X155459646Y-91835000D01*
X155459646Y-94315000D02*
X155459646Y-97492000D01*
X155499646Y-88681000D02*
X155499646Y-91835000D01*
X155499646Y-94315000D02*
X155499646Y-97469000D01*
X155539646Y-88704000D02*
X155539646Y-91835000D01*
X155539646Y-94315000D02*
X155539646Y-97446000D01*
X155579646Y-88728000D02*
X155579646Y-91835000D01*
X155579646Y-94315000D02*
X155579646Y-97422000D01*
X155619646Y-88752000D02*
X155619646Y-91835000D01*
X155619646Y-94315000D02*
X155619646Y-97398000D01*
X155659646Y-88777000D02*
X155659646Y-91835000D01*
X155659646Y-94315000D02*
X155659646Y-97373000D01*
X155699646Y-88803000D02*
X155699646Y-91835000D01*
X155699646Y-94315000D02*
X155699646Y-97347000D01*
X155739646Y-88828000D02*
X155739646Y-91835000D01*
X155739646Y-94315000D02*
X155739646Y-97322000D01*
X155779646Y-88855000D02*
X155779646Y-91835000D01*
X155779646Y-94315000D02*
X155779646Y-97295000D01*
X155819646Y-88882000D02*
X155819646Y-91835000D01*
X155819646Y-94315000D02*
X155819646Y-97268000D01*
X155859646Y-88909000D02*
X155859646Y-91835000D01*
X155859646Y-94315000D02*
X155859646Y-97241000D01*
X155899646Y-88937000D02*
X155899646Y-91835000D01*
X155899646Y-94315000D02*
X155899646Y-97213000D01*
X155939646Y-88966000D02*
X155939646Y-91835000D01*
X155939646Y-94315000D02*
X155939646Y-97184000D01*
X155979646Y-88995000D02*
X155979646Y-91835000D01*
X155979646Y-94315000D02*
X155979646Y-97155000D01*
X156019646Y-89025000D02*
X156019646Y-91835000D01*
X156019646Y-94315000D02*
X156019646Y-97125000D01*
X156059646Y-89055000D02*
X156059646Y-91835000D01*
X156059646Y-94315000D02*
X156059646Y-97095000D01*
X156099646Y-89087000D02*
X156099646Y-91835000D01*
X156099646Y-94315000D02*
X156099646Y-97063000D01*
X156139646Y-89118000D02*
X156139646Y-91835000D01*
X156139646Y-94315000D02*
X156139646Y-97032000D01*
X156179646Y-89151000D02*
X156179646Y-91835000D01*
X156179646Y-94315000D02*
X156179646Y-96999000D01*
X156219646Y-89184000D02*
X156219646Y-91835000D01*
X156219646Y-94315000D02*
X156219646Y-96966000D01*
X156259646Y-89217000D02*
X156259646Y-91835000D01*
X156259646Y-94315000D02*
X156259646Y-96933000D01*
X156299646Y-89252000D02*
X156299646Y-91835000D01*
X156299646Y-94315000D02*
X156299646Y-96898000D01*
X156339646Y-89287000D02*
X156339646Y-91835000D01*
X156339646Y-94315000D02*
X156339646Y-96863000D01*
X156379646Y-89323000D02*
X156379646Y-91835000D01*
X156379646Y-94315000D02*
X156379646Y-96827000D01*
X156419646Y-89359000D02*
X156419646Y-91835000D01*
X156419646Y-94315000D02*
X156419646Y-96791000D01*
X156459646Y-89397000D02*
X156459646Y-91835000D01*
X156459646Y-94315000D02*
X156459646Y-96753000D01*
X156499646Y-89435000D02*
X156499646Y-91835000D01*
X156499646Y-94315000D02*
X156499646Y-96715000D01*
X156539646Y-89474000D02*
X156539646Y-91835000D01*
X156539646Y-94315000D02*
X156539646Y-96676000D01*
X156579646Y-89514000D02*
X156579646Y-91835000D01*
X156579646Y-94315000D02*
X156579646Y-96636000D01*
X156619646Y-89555000D02*
X156619646Y-91835000D01*
X156619646Y-94315000D02*
X156619646Y-96595000D01*
X156659646Y-89597000D02*
X156659646Y-91835000D01*
X156659646Y-94315000D02*
X156659646Y-96553000D01*
X156699646Y-89640000D02*
X156699646Y-96510000D01*
X156739646Y-89684000D02*
X156739646Y-96466000D01*
X156779646Y-89728000D02*
X156779646Y-96422000D01*
X156819646Y-89774000D02*
X156819646Y-96376000D01*
X156859646Y-89821000D02*
X156859646Y-96329000D01*
X156899646Y-89870000D02*
X156899646Y-96280000D01*
X156939646Y-89919000D02*
X156939646Y-96231000D01*
X156979646Y-89970000D02*
X156979646Y-96180000D01*
X157019646Y-90022000D02*
X157019646Y-96128000D01*
X157059646Y-90075000D02*
X157059646Y-96075000D01*
X157099646Y-90130000D02*
X157099646Y-96020000D01*
X157139646Y-90187000D02*
X157139646Y-95963000D01*
X157179646Y-90245000D02*
X157179646Y-95905000D01*
X157219646Y-90305000D02*
X157219646Y-95845000D01*
X157259646Y-90367000D02*
X157259646Y-95783000D01*
X157299646Y-90431000D02*
X157299646Y-95719000D01*
X157339646Y-90497000D02*
X157339646Y-95653000D01*
X157379646Y-90565000D02*
X157379646Y-95585000D01*
X157419646Y-90636000D02*
X157419646Y-95514000D01*
X157459646Y-90710000D02*
X157459646Y-95440000D01*
X157499646Y-90787000D02*
X157499646Y-95363000D01*
X157539646Y-90867000D02*
X157539646Y-95283000D01*
X157579646Y-90951000D02*
X157579646Y-95199000D01*
X157619646Y-91038000D02*
X157619646Y-95112000D01*
X157659646Y-91131000D02*
X157659646Y-95019000D01*
X157699646Y-91229000D02*
X157699646Y-94921000D01*
X157739646Y-91333000D02*
X157739646Y-94817000D01*
X157779646Y-91445000D02*
X157779646Y-94705000D01*
X157819646Y-91566000D02*
X157819646Y-94584000D01*
X157859646Y-91698000D02*
X157859646Y-94452000D01*
X157899646Y-91845000D02*
X157899646Y-94305000D01*
X157939646Y-92013000D02*
X157939646Y-94137000D01*
X157979646Y-92213000D02*
X157979646Y-93937000D01*
X158019646Y-92476000D02*
X158019646Y-93674000D01*
X158059646Y-93075000D02*
G75*
G02*
X147819646Y-93075000I-5120000J0D01*
G01*
X147819646Y-93075000D02*
G75*
G02*
X158059646Y-93075000I5120000J0D01*
G01*
%TO.C,J10*%
X133840000Y-68730000D02*
X146600000Y-68730000D01*
X133840000Y-81720000D02*
X133840000Y-68730000D01*
X147200000Y-68730000D02*
X149580000Y-68730000D01*
X149580000Y-68730000D02*
X149580000Y-81720000D01*
X149580000Y-81720000D02*
X133840000Y-81720000D01*
X146900000Y-68730000D02*
X146460000Y-68120000D01*
X147340000Y-68120000D01*
X146900000Y-68730000D01*
G36*
X146900000Y-68730000D02*
G01*
X146460000Y-68120000D01*
X147340000Y-68120000D01*
X146900000Y-68730000D01*
G37*
%TO.C,J2*%
X118280000Y-85780000D02*
X119270000Y-85780000D01*
X118280000Y-91020000D02*
X118280000Y-85780000D01*
X118750000Y-86900000D02*
X119270000Y-86900000D01*
X118750000Y-87900000D02*
X118750000Y-86900000D01*
X119270000Y-87900000D02*
X118750000Y-87900000D01*
X119270000Y-91020000D02*
X118280000Y-91020000D01*
X124217000Y-85780000D02*
X124783000Y-85780000D01*
X124659000Y-87900000D02*
X124341000Y-87900000D01*
X124678000Y-91020000D02*
X124322000Y-91020000D01*
X126520000Y-88164000D02*
X126520000Y-88736000D01*
X119270000Y-90377000D02*
G75*
G02*
X119270000Y-88623000I479547J877000D01*
G01*
X119551000Y-88520000D02*
G75*
G02*
X119949000Y-88520000I199000J-980025D01*
G01*
X122051000Y-88520000D02*
G75*
G02*
X122721002Y-88617997I199990J-972060D01*
G01*
X124069000Y-88767000D02*
G75*
G02*
X125221000Y-88617999I680350J-732280D01*
G01*
X120750000Y-91480000D02*
X121190000Y-92090000D01*
X120310000Y-92090000D01*
X120750000Y-91480000D01*
G36*
X121190000Y-92090000D02*
G01*
X120310000Y-92090000D01*
X120750000Y-91480000D01*
X121190000Y-92090000D01*
G37*
%TO.C,C7*%
X138190000Y-113208767D02*
X138190000Y-112916233D01*
X139210000Y-113208767D02*
X139210000Y-112916233D01*
%TO.C,D2*%
X127040000Y-111490000D02*
X128560000Y-111490000D01*
X127040000Y-112490000D02*
X127040000Y-111490000D01*
X127040000Y-114610000D02*
X127040000Y-113610000D01*
X128560000Y-111490000D02*
X128560000Y-111540000D01*
X128560000Y-112660000D02*
X128560000Y-113440000D01*
X128560000Y-114560000D02*
X128560000Y-114610000D01*
X128560000Y-114610000D02*
X127040000Y-114610000D01*
X129100000Y-113430000D02*
X128860000Y-113100000D01*
X129340000Y-113100000D01*
X129100000Y-113430000D01*
G36*
X129100000Y-113430000D02*
G01*
X128860000Y-113100000D01*
X129340000Y-113100000D01*
X129100000Y-113430000D01*
G37*
%TO.C,R9*%
X161632776Y-125677500D02*
X162142224Y-125677500D01*
X161632776Y-126722500D02*
X162142224Y-126722500D01*
%TO.C,C10*%
X167690000Y-124808767D02*
X167690000Y-124516233D01*
X168710000Y-124808767D02*
X168710000Y-124516233D01*
%TO.C,J5*%
X171400000Y-108850000D02*
X171400000Y-115750000D01*
X171400000Y-111200000D02*
X171900000Y-111200000D01*
X171400000Y-111300000D02*
X171900000Y-111300000D01*
X171400000Y-113200000D02*
X171900000Y-113200000D01*
X171400000Y-113300000D02*
X171900000Y-113300000D01*
X171400000Y-115750000D02*
X174900000Y-115750000D01*
X171900000Y-111200000D02*
X171900000Y-111400000D01*
X171900000Y-111400000D02*
X171400000Y-111400000D01*
X171900000Y-113200000D02*
X171900000Y-113400000D01*
X171900000Y-113400000D02*
X171400000Y-113400000D01*
X172900000Y-108240000D02*
X172900000Y-108850000D01*
X172900000Y-116360000D02*
X172900000Y-115750000D01*
X174200000Y-108240000D02*
X174200000Y-108850000D01*
X174200000Y-116360000D02*
X174200000Y-115750000D01*
X174900000Y-108850000D02*
X171400000Y-108850000D01*
X174900000Y-110800000D02*
X174900000Y-108850000D01*
X174900000Y-113800000D02*
X175510000Y-113800000D01*
X174900000Y-115750000D02*
X174900000Y-113800000D01*
X175510000Y-110000000D02*
X175710000Y-110000000D01*
X175510000Y-110800000D02*
X174900000Y-110800000D01*
X175610000Y-110000000D02*
X175610000Y-109700000D01*
X175710000Y-109700000D02*
X175510000Y-109700000D01*
X175710000Y-110000000D02*
X175710000Y-109700000D01*
X175810000Y-107940000D02*
X174560000Y-107940000D01*
X175810000Y-109190000D02*
X175810000Y-107940000D01*
X170790000Y-108240000D02*
X175510000Y-108240000D01*
X175510000Y-116360000D01*
X170790000Y-116360000D01*
X170790000Y-108240000D01*
%TO.C,C9*%
X160453733Y-102190000D02*
X160746267Y-102190000D01*
X160453733Y-103210000D02*
X160746267Y-103210000D01*
%TO.C,R10*%
X127777500Y-83345276D02*
X127777500Y-83854724D01*
X128822500Y-83345276D02*
X128822500Y-83854724D01*
%TO.C,J6*%
X149220000Y-99410000D02*
X150600000Y-99410000D01*
X149220000Y-100790000D02*
X149220000Y-99410000D01*
X149220000Y-102060000D02*
X149220000Y-109790000D01*
X149220000Y-102060000D02*
X151980000Y-102060000D01*
X149220000Y-109790000D02*
X151980000Y-109790000D01*
X151980000Y-102060000D02*
X151980000Y-109790000D01*
%TO.C,R8*%
X164777500Y-93967224D02*
X164777500Y-93457776D01*
X165822500Y-93967224D02*
X165822500Y-93457776D01*
%TO.C,U2*%
X140990000Y-110590000D02*
X158770000Y-110590000D01*
X140990000Y-131670000D02*
X140990000Y-110590000D01*
X158770000Y-110590000D02*
X158770000Y-131670000D01*
X158770000Y-131670000D02*
X140990000Y-131670000D01*
X145380000Y-131670000D02*
X154380000Y-131670000D01*
X154380000Y-133190000D01*
X145380000Y-133190000D01*
X145380000Y-131670000D01*
D14*
X159680000Y-128750000D02*
G75*
G02*
X159280000Y-128750000I-200000J0D01*
G01*
X159280000Y-128750000D02*
G75*
G02*
X159680000Y-128750000I200000J0D01*
G01*
%TD*%
M02*
