M48
; DRILL file KiCad 10.0.3 date 2026-09-13T22:31:27
; FORMAT={-:-/ absolute / metric / decimal}
; #@! TF.CreationDate,2026-09-13T22:31:27+02:00
; #@! TF.GenerationSoftware,Kicad,Pcbnew,10.0.3
; #@! TF.FileFunction,Plated,1,4,PTH
FMAT,2
METRIC
; #@! TA.AperFunction,Plated,PTH,ViaDrill
T1C0.300
; #@! TA.AperFunction,Plated,PTH,ViaDrill
T2C0.400
; #@! TA.AperFunction,Plated,PTH,ViaDrill
T3C0.600
; #@! TA.AperFunction,Plated,PTH,ComponentDrill
T4C0.750
; #@! TA.AperFunction,Plated,PTH,ComponentDrill
T5C0.800
; #@! TA.AperFunction,Plated,PTH,ComponentDrill
T6C1.000
; #@! TA.AperFunction,Plated,PTH,ComponentDrill
T7C1.200
; #@! TA.AperFunction,Plated,PTH,ComponentDrill
T8C2.200
%
G90
G05
T1
X118.15Y-100.2
X119.5Y-91.75
X120.05Y-101.8
X121.95Y-91.75
X124.0Y-82.7
X124.9Y-113.1
X134.417Y-114.218
X135.0Y-112.365
X135.463Y-108.362
X150.6Y-98.7
X153.2Y-113.5
X153.8Y-121.1
X155.4Y-113.5
X155.6Y-121.13
X158.0Y-88.8
X158.5Y-102.8
X159.5Y-107.2
X163.3Y-90.2
X166.2Y-92.9
X166.4Y-108.0
X167.3Y-123.6
X167.7Y-90.7
X170.5Y-87.2
X177.9Y-112.3
T2
X139.1Y-123.8
X150.6Y-110.4
X162.7Y-102.7
X166.6Y-88.2
X171.2Y-116.0
X171.3Y-110.3
T3
X144.4Y-126.2
X157.0Y-84.0
X173.9Y-88.2
X176.4Y-106.1
X176.5Y-87.1
T4
X173.7Y-110.3
X173.7Y-112.3
X173.7Y-114.3
X179.4Y-97.8
X179.4Y-99.8
X179.4Y-101.8
T5
X173.95Y-85.6
X179.05Y-86.8
T6
X140.8Y-87.6
X140.9Y-98.4
X142.26Y-113.51
X142.26Y-116.05
X142.26Y-118.59
X142.26Y-121.13
X142.26Y-123.67
X142.26Y-126.21
X142.26Y-128.75
X145.8Y-87.6
X145.9Y-98.4
X150.44Y-93.075
X150.6Y-100.79
X150.6Y-103.33
X150.6Y-105.87
X150.6Y-108.41
X155.44Y-93.075
X157.5Y-113.51
X157.5Y-116.05
X157.5Y-118.59
X157.5Y-121.13
X157.5Y-123.67
X157.5Y-126.21
X157.5Y-128.75
T7
X120.75Y-86.9
X120.75Y-90.0
X122.6Y-97.7
X122.6Y-101.2
X122.6Y-104.7
X122.6Y-108.2
X123.25Y-86.9
X123.25Y-90.0
X125.75Y-86.9
X125.75Y-90.0
X127.6Y-97.7
X127.6Y-101.2
X127.6Y-104.7
X127.6Y-108.2
X129.75Y-86.9
X129.75Y-90.0
X132.25Y-86.9
X132.25Y-90.0
X134.75Y-86.9
X134.75Y-90.0
X136.4Y-74.3
X136.4Y-79.3
X139.9Y-74.3
X139.9Y-79.3
X143.4Y-74.3
X143.4Y-79.3
X146.9Y-74.3
X146.9Y-79.3
X152.9Y-74.3
X152.9Y-79.3
X156.4Y-74.3
X156.4Y-79.3
X159.9Y-74.3
X159.9Y-79.3
X163.4Y-74.3
X163.4Y-79.3
T8
X131.615Y-81.615
X131.615Y-118.385
X168.385Y-81.615
X168.385Y-118.385
M30
