%TF.GenerationSoftware,KiCad,Pcbnew,10.0.3*%
%TF.CreationDate,2026-09-13T22:30:30+02:00*%
%TF.ProjectId,DriverDasyChain,44726976-6572-4446-9173-79436861696e,rev?*%
%TF.SameCoordinates,Original*%
%TF.FileFunction,Soldermask,Bot*%
%TF.FilePolarity,Negative*%
%FSLAX46Y46*%
G04 Gerber Fmt 4.6, Leading zero omitted, Abs format (unit mm)*
G04 Created by KiCad (PCBNEW 10.0.3) date 2026-09-13 22:30:30*
%MOMM*%
%LPD*%
G01*
G04 APERTURE LIST*
G04 Aperture macros list*
%AMRoundRect*
0 Rectangle with rounded corners*
0 $1 Rounding radius*
0 $2 $3 $4 $5 $6 $7 $8 $9 X,Y pos of 4 corners*
0 Add a 4 corners polygon primitive as box body*
4,1,4,$2,$3,$4,$5,$6,$7,$8,$9,$2,$3,0*
0 Add four circle primitives for the rounded corners*
1,1,$1+$1,$2,$3*
1,1,$1+$1,$4,$5*
1,1,$1+$1,$6,$7*
1,1,$1+$1,$8,$9*
0 Add four rect primitives between the rounded corners*
20,1,$1+$1,$2,$3,$4,$5,0*
20,1,$1+$1,$4,$5,$6,$7,0*
20,1,$1+$1,$6,$7,$8,$9,0*
20,1,$1+$1,$8,$9,$2,$3,0*%
G04 Aperture macros list end*
%ADD10R,2.300000X1.500000*%
%ADD11RoundRect,0.250001X-0.899999X0.499999X-0.899999X-0.499999X0.899999X-0.499999X0.899999X0.499999X0*%
%ADD12O,2.300000X1.500000*%
%ADD13C,2.600000*%
%ADD14C,4.400000*%
%ADD15C,0.900000*%
%ADD16R,2.000000X2.000000*%
%ADD17RoundRect,0.250000X-0.750000X-0.750000X0.750000X-0.750000X0.750000X0.750000X-0.750000X0.750000X0*%
%ADD18C,2.000000*%
%ADD19RoundRect,0.250000X0.750000X0.750000X-0.750000X0.750000X-0.750000X-0.750000X0.750000X-0.750000X0*%
%ADD20C,1.600000*%
%ADD21RoundRect,0.250000X-0.625000X0.350000X-0.625000X-0.350000X0.625000X-0.350000X0.625000X0.350000X0*%
%ADD22O,1.750000X1.200000*%
%ADD23R,1.500000X2.300000*%
%ADD24RoundRect,0.250001X0.499999X0.899999X-0.499999X0.899999X-0.499999X-0.899999X0.499999X-0.899999X0*%
%ADD25O,1.500000X2.300000*%
%ADD26R,1.700000X1.700000*%
%ADD27C,1.700000*%
G04 APERTURE END LIST*
D10*
%TO.C,J4*%
X127600000Y-97700000D03*
D11*
X122600000Y-97700000D03*
D12*
X127600000Y-101200000D03*
X122600000Y-101200000D03*
X127600000Y-104700000D03*
X122600000Y-104700000D03*
X127600000Y-108200000D03*
X122600000Y-108200000D03*
%TD*%
D13*
%TO.C,H4*%
X131615000Y-81615000D03*
D14*
X131615000Y-81615000D03*
%TD*%
D15*
%TO.C,SW2*%
X135800000Y-124600000D03*
X135800000Y-127600000D03*
%TD*%
D16*
%TO.C,J1*%
X129750000Y-86900000D03*
D17*
X129750000Y-90000000D03*
D18*
X132250000Y-86900000D03*
X132250000Y-90000000D03*
X134750000Y-86900000D03*
X134750000Y-90000000D03*
%TD*%
D19*
%TO.C,C3*%
X145900000Y-98400000D03*
D18*
X140900000Y-98400000D03*
%TD*%
D20*
%TO.C,F1*%
X179050000Y-86800000D03*
X173950000Y-85600000D03*
%TD*%
D13*
%TO.C,H1*%
X168385000Y-118385000D03*
D14*
X168385000Y-118385000D03*
%TD*%
D13*
%TO.C,H3*%
X168385000Y-81615000D03*
D14*
X168385000Y-81615000D03*
%TD*%
D21*
%TO.C,J3*%
X179400000Y-97800000D03*
D22*
X179400000Y-99800000D03*
X179400000Y-101800000D03*
%TD*%
D23*
%TO.C,J12*%
X163400000Y-79300000D03*
D24*
X163400000Y-74300000D03*
D25*
X159900000Y-79300000D03*
X159900000Y-74300000D03*
X156400000Y-79300000D03*
X156400000Y-74300000D03*
X152900000Y-79300000D03*
X152900000Y-74300000D03*
%TD*%
D19*
%TO.C,C2*%
X145800000Y-87600000D03*
D18*
X140800000Y-87600000D03*
%TD*%
D13*
%TO.C,H2*%
X131615000Y-118385000D03*
D14*
X131615000Y-118385000D03*
%TD*%
D17*
%TO.C,C14*%
X150439646Y-93075000D03*
D18*
X155439646Y-93075000D03*
%TD*%
D23*
%TO.C,J10*%
X146900000Y-79300000D03*
D24*
X146900000Y-74300000D03*
D25*
X143400000Y-79300000D03*
X143400000Y-74300000D03*
X139900000Y-79300000D03*
X139900000Y-74300000D03*
X136400000Y-79300000D03*
X136400000Y-74300000D03*
%TD*%
D16*
%TO.C,J2*%
X120750000Y-86900000D03*
D17*
X120750000Y-90000000D03*
D18*
X123250000Y-86900000D03*
X123250000Y-90000000D03*
X125750000Y-86900000D03*
X125750000Y-90000000D03*
%TD*%
D21*
%TO.C,J5*%
X173700000Y-110300000D03*
D22*
X173700000Y-112300000D03*
X173700000Y-114300000D03*
%TD*%
D26*
%TO.C,J6*%
X150600000Y-100790000D03*
D27*
X150600000Y-103330000D03*
X150600000Y-105870000D03*
X150600000Y-108410000D03*
%TD*%
D26*
%TO.C,U2*%
X157500000Y-128750000D03*
D27*
X157500000Y-126210000D03*
X157500000Y-123670000D03*
X157500000Y-121130000D03*
X157500000Y-118590000D03*
X157500000Y-116050000D03*
X157500000Y-113510000D03*
X142260000Y-113510000D03*
X142260000Y-116050000D03*
X142260000Y-118590000D03*
X142260000Y-121130000D03*
X142260000Y-123670000D03*
X142260000Y-126210000D03*
X142260000Y-128750000D03*
%TD*%
M02*
