%TF.GenerationSoftware,KiCad,Pcbnew,10.0.3*%
%TF.CreationDate,2026-09-13T22:30:29+02:00*%
%TF.ProjectId,DriverDasyChain,44726976-6572-4446-9173-79436861696e,rev?*%
%TF.SameCoordinates,Original*%
%TF.FileFunction,Copper,L2,Inr*%
%TF.FilePolarity,Positive*%
%FSLAX46Y46*%
G04 Gerber Fmt 4.6, Leading zero omitted, Abs format (unit mm)*
G04 Created by KiCad (PCBNEW 10.0.3) date 2026-09-13 22:30:29*
%MOMM*%
%LPD*%
G01*
G04 APERTURE LIST*
G04 Aperture macros list*
%AMRoundRect*
0 Rectangle with rounded corners*
0 $1 Rounding radius*
0 $2 $3 $4 $5 $6 $7 $8 $9 X,Y pos of 4 corners*
0 Add a 4 corners polygon primitive as box body*
4,1,4,$2,$3,$4,$5,$6,$7,$8,$9,$2,$3,0*
0 Add four circle primitives for the rounded corners*
1,1,$1+$1,$2,$3*
1,1,$1+$1,$4,$5*
1,1,$1+$1,$6,$7*
1,1,$1+$1,$8,$9*
0 Add four rect primitives between the rounded corners*
20,1,$1+$1,$2,$3,$4,$5,0*
20,1,$1+$1,$4,$5,$6,$7,0*
20,1,$1+$1,$6,$7,$8,$9,0*
20,1,$1+$1,$8,$9,$2,$3,0*%
G04 Aperture macros list end*
%TA.AperFunction,ComponentPad*%
%ADD10R,2.300000X1.500000*%
%TD*%
%TA.AperFunction,ComponentPad*%
%ADD11RoundRect,0.250001X-0.899999X0.499999X-0.899999X-0.499999X0.899999X-0.499999X0.899999X0.499999X0*%
%TD*%
%TA.AperFunction,ComponentPad*%
%ADD12O,2.300000X1.500000*%
%TD*%
%TA.AperFunction,ComponentPad*%
%ADD13C,2.600000*%
%TD*%
%TA.AperFunction,ComponentPad*%
%ADD14R,2.000000X2.000000*%
%TD*%
%TA.AperFunction,ComponentPad*%
%ADD15RoundRect,0.250000X-0.750000X-0.750000X0.750000X-0.750000X0.750000X0.750000X-0.750000X0.750000X0*%
%TD*%
%TA.AperFunction,ComponentPad*%
%ADD16C,2.000000*%
%TD*%
%TA.AperFunction,ComponentPad*%
%ADD17RoundRect,0.250000X0.750000X0.750000X-0.750000X0.750000X-0.750000X-0.750000X0.750000X-0.750000X0*%
%TD*%
%TA.AperFunction,ComponentPad*%
%ADD18C,1.600000*%
%TD*%
%TA.AperFunction,ComponentPad*%
%ADD19RoundRect,0.250000X-0.625000X0.350000X-0.625000X-0.350000X0.625000X-0.350000X0.625000X0.350000X0*%
%TD*%
%TA.AperFunction,ComponentPad*%
%ADD20O,1.750000X1.200000*%
%TD*%
%TA.AperFunction,ComponentPad*%
%ADD21R,1.500000X2.300000*%
%TD*%
%TA.AperFunction,ComponentPad*%
%ADD22RoundRect,0.250001X0.499999X0.899999X-0.499999X0.899999X-0.499999X-0.899999X0.499999X-0.899999X0*%
%TD*%
%TA.AperFunction,ComponentPad*%
%ADD23O,1.500000X2.300000*%
%TD*%
%TA.AperFunction,ComponentPad*%
%ADD24R,1.700000X1.700000*%
%TD*%
%TA.AperFunction,ComponentPad*%
%ADD25C,1.700000*%
%TD*%
%TA.AperFunction,ViaPad*%
%ADD26C,1.000000*%
%TD*%
%TA.AperFunction,ViaPad*%
%ADD27C,0.600000*%
%TD*%
%TA.AperFunction,ViaPad*%
%ADD28C,0.800000*%
%TD*%
G04 APERTURE END LIST*
D10*
%TO.N,/CANH*%
%TO.C,J4*%
X127600000Y-97700000D03*
D11*
X122600000Y-97700000D03*
D12*
%TO.N,/CANL*%
X127600000Y-101200000D03*
X122600000Y-101200000D03*
%TO.N,GND*%
X127600000Y-104700000D03*
X122600000Y-104700000D03*
%TO.N,+48V*%
X127600000Y-108200000D03*
X122600000Y-108200000D03*
%TD*%
D13*
%TO.N,N/C*%
%TO.C,H4*%
X131615000Y-81615000D03*
%TD*%
D14*
%TO.N,/CANH*%
%TO.C,J1*%
X129750000Y-86900000D03*
D15*
X129750000Y-90000000D03*
D16*
%TO.N,/CANL*%
X132250000Y-86900000D03*
X132250000Y-90000000D03*
%TO.N,/CAN_SHLD*%
X134750000Y-86900000D03*
X134750000Y-90000000D03*
%TD*%
D17*
%TO.N,+48V*%
%TO.C,C3*%
X145900000Y-98400000D03*
D16*
%TO.N,GND*%
X140900000Y-98400000D03*
%TD*%
D18*
%TO.N,/BRAKE +48V*%
%TO.C,F1*%
X179050000Y-86800000D03*
%TO.N,+48V*%
X173950000Y-85600000D03*
%TD*%
D13*
%TO.N,N/C*%
%TO.C,H1*%
X168385000Y-118385000D03*
%TD*%
%TO.N,N/C*%
%TO.C,H3*%
X168385000Y-81615000D03*
%TD*%
D19*
%TO.N,/BRAKE +48V*%
%TO.C,J3*%
X179400000Y-97800000D03*
D20*
%TO.N,/BRAKE Out*%
X179400000Y-99800000D03*
%TO.N,unconnected-(J3-Pin_3-Pad3)*%
X179400000Y-101800000D03*
%TD*%
D21*
%TO.N,+5V*%
%TO.C,J12*%
X163400000Y-79300000D03*
D22*
X163400000Y-74300000D03*
D23*
%TO.N,GND*%
X159900000Y-79300000D03*
X159900000Y-74300000D03*
X156400000Y-79300000D03*
X156400000Y-74300000D03*
%TO.N,+48V*%
X152900000Y-79300000D03*
X152900000Y-74300000D03*
%TD*%
D17*
%TO.N,+48V*%
%TO.C,C2*%
X145800000Y-87600000D03*
D16*
%TO.N,GND*%
X140800000Y-87600000D03*
%TD*%
D13*
%TO.N,N/C*%
%TO.C,H2*%
X131615000Y-118385000D03*
%TD*%
D15*
%TO.N,+48V*%
%TO.C,C14*%
X150439646Y-93075000D03*
D16*
%TO.N,GND*%
X155439646Y-93075000D03*
%TD*%
D21*
%TO.N,+5V*%
%TO.C,J10*%
X146900000Y-79300000D03*
D22*
X146900000Y-74300000D03*
D23*
%TO.N,GND*%
X143400000Y-79300000D03*
X143400000Y-74300000D03*
X139900000Y-79300000D03*
X139900000Y-74300000D03*
%TO.N,+48V*%
X136400000Y-79300000D03*
X136400000Y-74300000D03*
%TD*%
D14*
%TO.N,/CANH*%
%TO.C,J2*%
X120750000Y-86900000D03*
D15*
X120750000Y-90000000D03*
D16*
%TO.N,/CANL*%
X123250000Y-86900000D03*
X123250000Y-90000000D03*
%TO.N,/CAN_SHLD*%
X125750000Y-86900000D03*
X125750000Y-90000000D03*
%TD*%
D19*
%TO.N,+5V*%
%TO.C,J5*%
X173700000Y-110300000D03*
D20*
%TO.N,GND*%
X173700000Y-112300000D03*
%TO.N,/TLE4905L Out*%
X173700000Y-114300000D03*
%TD*%
D24*
%TO.N,GND*%
%TO.C,J6*%
X150600000Y-100790000D03*
D25*
%TO.N,Net-(J6-Pin_2)*%
X150600000Y-103330000D03*
%TO.N,Net-(J6-Pin_3)*%
X150600000Y-105870000D03*
%TO.N,+3.3V*%
X150600000Y-108410000D03*
%TD*%
D24*
%TO.N,/GPIO D0 (XIAO-ESP32-S3)*%
%TO.C,U2*%
X157500000Y-128750000D03*
D25*
%TO.N,/GPIO D1 (XIAO-ESP32-S3)*%
X157500000Y-126210000D03*
%TO.N,/GPIO D2 (XIAO-ESP32-S3)*%
X157500000Y-123670000D03*
%TO.N,/GPIO D3 (XIAO-ESP32-S3)*%
X157500000Y-121130000D03*
%TO.N,unconnected-(U2-GPIO5_A4_D4_SDA-Pad5)*%
X157500000Y-118590000D03*
%TO.N,unconnected-(U2-GPIO6_A5_D5_SCL-Pad6)*%
X157500000Y-116050000D03*
%TO.N,/GPIO D6 (XIAO-ESP32-S3)*%
X157500000Y-113510000D03*
%TO.N,/GPIO D7 (XIAO-ESP32-S3)*%
X142260000Y-113510000D03*
%TO.N,unconnected-(U2-GPIO7_A8_D8_SCK-Pad9)*%
X142260000Y-116050000D03*
%TO.N,/CAN RX*%
X142260000Y-118590000D03*
%TO.N,/CAN TX*%
X142260000Y-121130000D03*
%TO.N,Net-(SW2-B)*%
X142260000Y-123670000D03*
%TO.N,GND*%
X142260000Y-126210000D03*
%TO.N,unconnected-(U2-VBUS-Pad14)*%
X142260000Y-128750000D03*
%TD*%
D26*
%TO.N,+48V*%
X173900000Y-88200000D03*
%TO.N,GND*%
X176500000Y-87100000D03*
X176400000Y-106100000D03*
D27*
X134417500Y-114217500D03*
X158500000Y-102800000D03*
D26*
X144400000Y-126200000D03*
D27*
X166200000Y-92900000D03*
X167300000Y-123600000D03*
X170500000Y-87200000D03*
X150600000Y-98700000D03*
X166400000Y-108000000D03*
D26*
X157000000Y-84000000D03*
D27*
X124000000Y-82700000D03*
X177900000Y-112300000D03*
X124900000Y-113100000D03*
X159500000Y-107200000D03*
X167700000Y-90700000D03*
X158000000Y-88800000D03*
X135462500Y-108362500D03*
%TO.N,+5V*%
X163300000Y-90200000D03*
D28*
X171300000Y-110300000D03*
X162700000Y-102700000D03*
D27*
%TO.N,/CANH*%
X118150000Y-100200000D03*
X119500000Y-91750000D03*
%TO.N,/CANL*%
X120050000Y-101800000D03*
X121950000Y-91750000D03*
D28*
%TO.N,+3.3V*%
X166600000Y-88200000D03*
X139100000Y-123800000D03*
D27*
X135000000Y-112365000D03*
D28*
X150600000Y-110400000D03*
X171200000Y-116000000D03*
D27*
%TO.N,/GPIO D6 (XIAO-ESP32-S3)*%
X153200000Y-113500000D03*
X155400000Y-113500000D03*
%TO.N,/GPIO D3 (XIAO-ESP32-S3)*%
X155600000Y-121130000D03*
X153800000Y-121100000D03*
%TD*%
%TA.AperFunction,Conductor*%
%TO.N,GND*%
G36*
X164092164Y-68511972D02*
G01*
X165005109Y-68934588D01*
X165008788Y-68936365D01*
X166021114Y-69446161D01*
X166024694Y-69448038D01*
X167019674Y-69990937D01*
X167023208Y-69992943D01*
X167999724Y-70568333D01*
X168003212Y-70570466D01*
X168938338Y-71163846D01*
X168960208Y-71177723D01*
X168963583Y-71179943D01*
X169900088Y-71818452D01*
X169903406Y-71820795D01*
X170278037Y-72094736D01*
X170786102Y-72466249D01*
X170818340Y-72489822D01*
X170821592Y-72492284D01*
X171677846Y-73162820D01*
X171713930Y-73191077D01*
X171717094Y-73193640D01*
X172096203Y-73511229D01*
X172585956Y-73921508D01*
X172589046Y-73924185D01*
X173433408Y-74680273D01*
X173436372Y-74683016D01*
X174255407Y-75466586D01*
X174258280Y-75469427D01*
X174574625Y-75792710D01*
X175050990Y-76279523D01*
X175053801Y-76282492D01*
X175819360Y-77118266D01*
X175822071Y-77121326D01*
X176559668Y-77981892D01*
X176562275Y-77985036D01*
X177271141Y-78869499D01*
X177273604Y-78872680D01*
X177808929Y-79587699D01*
X177952890Y-79779984D01*
X177955283Y-79783292D01*
X178101633Y-79992826D01*
X178604305Y-80712520D01*
X178606590Y-80715910D01*
X179224597Y-81665987D01*
X179226770Y-81669451D01*
X179813132Y-82639406D01*
X179815189Y-82642939D01*
X180369261Y-83631704D01*
X180371200Y-83635303D01*
X180892358Y-84641768D01*
X180894178Y-84645429D01*
X181381885Y-85668553D01*
X181383583Y-85672272D01*
X181789131Y-86600658D01*
X181799500Y-86650296D01*
X181799500Y-113349699D01*
X181789131Y-113399337D01*
X181383583Y-114327724D01*
X181381885Y-114331443D01*
X180894178Y-115354567D01*
X180892358Y-115358228D01*
X180371199Y-116364694D01*
X180369260Y-116368293D01*
X179815189Y-117357057D01*
X179813132Y-117360590D01*
X179226769Y-118330545D01*
X179224596Y-118334009D01*
X178606589Y-119284086D01*
X178604304Y-119287476D01*
X177955285Y-120216701D01*
X177952891Y-120220010D01*
X177802706Y-120420609D01*
X177273612Y-121127306D01*
X177271108Y-121130537D01*
X176562275Y-122014961D01*
X176559665Y-122018109D01*
X175822085Y-122878654D01*
X175819374Y-122881714D01*
X175053800Y-123717505D01*
X175050989Y-123720474D01*
X174258296Y-124530553D01*
X174255389Y-124533428D01*
X173436389Y-125316964D01*
X173433388Y-125319741D01*
X172589045Y-126075812D01*
X172585955Y-126078489D01*
X171717106Y-126806348D01*
X171713929Y-126808921D01*
X170821598Y-127507708D01*
X170818338Y-127510176D01*
X169903404Y-128179203D01*
X169900065Y-128181561D01*
X168963622Y-128820028D01*
X168960206Y-128822275D01*
X168003211Y-129429533D01*
X167999723Y-129431667D01*
X167023206Y-130007057D01*
X167019650Y-130009074D01*
X166024688Y-130551962D01*
X166021067Y-130553860D01*
X165008813Y-131063621D01*
X165005132Y-131065400D01*
X164092161Y-131488028D01*
X164040070Y-131499500D01*
X135959906Y-131499500D01*
X135907825Y-131488032D01*
X135000183Y-131067965D01*
X134996520Y-131066197D01*
X133989296Y-130559291D01*
X133985693Y-130557403D01*
X132995656Y-130017749D01*
X132992117Y-130015744D01*
X132366938Y-129647873D01*
X132020286Y-129443894D01*
X132016855Y-129441798D01*
X131092566Y-128856287D01*
X131064306Y-128838385D01*
X131060906Y-128836152D01*
X130921593Y-128741359D01*
X130128672Y-128201831D01*
X130125348Y-128199488D01*
X129398181Y-127668995D01*
X135099499Y-127668995D01*
X135126418Y-127804322D01*
X135126421Y-127804332D01*
X135179221Y-127931804D01*
X135179228Y-127931817D01*
X135255885Y-128046541D01*
X135255888Y-128046545D01*
X135353454Y-128144111D01*
X135353458Y-128144114D01*
X135468182Y-128220771D01*
X135468195Y-128220778D01*
X135595667Y-128273578D01*
X135595672Y-128273580D01*
X135595676Y-128273580D01*
X135595677Y-128273581D01*
X135731004Y-128300500D01*
X135731007Y-128300500D01*
X135868995Y-128300500D01*
X135960041Y-128282389D01*
X136004328Y-128273580D01*
X136131811Y-128220775D01*
X136246542Y-128144114D01*
X136344114Y-128046542D01*
X136420775Y-127931811D01*
X136473580Y-127804328D01*
X136500500Y-127668993D01*
X136500500Y-127531007D01*
X136500500Y-127531004D01*
X136473581Y-127395677D01*
X136473580Y-127395676D01*
X136473580Y-127395672D01*
X136461007Y-127365318D01*
X136420778Y-127268195D01*
X136420771Y-127268182D01*
X136344114Y-127153458D01*
X136344111Y-127153454D01*
X136246545Y-127055888D01*
X136246541Y-127055885D01*
X136131817Y-126979228D01*
X136131804Y-126979221D01*
X136004332Y-126926421D01*
X136004322Y-126926418D01*
X135868995Y-126899500D01*
X135868993Y-126899500D01*
X135731007Y-126899500D01*
X135731005Y-126899500D01*
X135595677Y-126926418D01*
X135595667Y-126926421D01*
X135468195Y-126979221D01*
X135468182Y-126979228D01*
X135353458Y-127055885D01*
X135353454Y-127055888D01*
X135255888Y-127153454D01*
X135255885Y-127153458D01*
X135179228Y-127268182D01*
X135179221Y-127268195D01*
X135126421Y-127395667D01*
X135126418Y-127395677D01*
X135099500Y-127531004D01*
X135099500Y-127531007D01*
X135099500Y-127668993D01*
X135099500Y-127668995D01*
X135099499Y-127668995D01*
X129398181Y-127668995D01*
X129338021Y-127625106D01*
X129338007Y-127625096D01*
X129214438Y-127534948D01*
X129211218Y-127532518D01*
X128600973Y-127055888D01*
X128322540Y-126838419D01*
X128319389Y-126835873D01*
X128285603Y-126807653D01*
X127453977Y-126113021D01*
X127450923Y-126110384D01*
X126609713Y-125359563D01*
X126606725Y-125356808D01*
X126578821Y-125330208D01*
X126285679Y-125050760D01*
X125885205Y-124668995D01*
X135099499Y-124668995D01*
X135126418Y-124804322D01*
X135126421Y-124804332D01*
X135179221Y-124931804D01*
X135179228Y-124931817D01*
X135255885Y-125046541D01*
X135255888Y-125046545D01*
X135353454Y-125144111D01*
X135353458Y-125144114D01*
X135468182Y-125220771D01*
X135468195Y-125220778D01*
X135595667Y-125273578D01*
X135595672Y-125273580D01*
X135595676Y-125273580D01*
X135595677Y-125273581D01*
X135731004Y-125300500D01*
X135731007Y-125300500D01*
X135868995Y-125300500D01*
X135960041Y-125282389D01*
X136004328Y-125273580D01*
X136131811Y-125220775D01*
X136246542Y-125144114D01*
X136344114Y-125046542D01*
X136420775Y-124931811D01*
X136473580Y-124804328D01*
X136500500Y-124668993D01*
X136500500Y-124531007D01*
X136500500Y-124531004D01*
X136473581Y-124395677D01*
X136473580Y-124395676D01*
X136473580Y-124395672D01*
X136473578Y-124395667D01*
X136420778Y-124268195D01*
X136420771Y-124268182D01*
X136344114Y-124153458D01*
X136344111Y-124153454D01*
X136246545Y-124055888D01*
X136246541Y-124055885D01*
X136131817Y-123979228D01*
X136131804Y-123979221D01*
X136004332Y-123926421D01*
X136004322Y-123926418D01*
X135868995Y-123899500D01*
X135868993Y-123899500D01*
X135731007Y-123899500D01*
X135731005Y-123899500D01*
X135595677Y-123926418D01*
X135595667Y-123926421D01*
X135468195Y-123979221D01*
X135468182Y-123979228D01*
X135353458Y-124055885D01*
X135353454Y-124055888D01*
X135255888Y-124153454D01*
X135255885Y-124153458D01*
X135179228Y-124268182D01*
X135179221Y-124268195D01*
X135126421Y-124395667D01*
X135126418Y-124395677D01*
X135099500Y-124531004D01*
X135099500Y-124531007D01*
X135099500Y-124668993D01*
X135099500Y-124668995D01*
X135099499Y-124668995D01*
X125885205Y-124668995D01*
X125828216Y-124614668D01*
X125790543Y-124578755D01*
X125787646Y-124575900D01*
X125017679Y-123792119D01*
X125017678Y-123792118D01*
X124997443Y-123771520D01*
X124994679Y-123768612D01*
X124947665Y-123717505D01*
X124941961Y-123711304D01*
X138199500Y-123711304D01*
X138199500Y-123888695D01*
X138234103Y-124062658D01*
X138234106Y-124062667D01*
X138301983Y-124226540D01*
X138301990Y-124226553D01*
X138400535Y-124374034D01*
X138400538Y-124374038D01*
X138525961Y-124499461D01*
X138525965Y-124499464D01*
X138673446Y-124598009D01*
X138673459Y-124598016D01*
X138796363Y-124648923D01*
X138837334Y-124665894D01*
X138837336Y-124665894D01*
X138837341Y-124665896D01*
X139011304Y-124700499D01*
X139011307Y-124700500D01*
X139011309Y-124700500D01*
X139188693Y-124700500D01*
X139188694Y-124700499D01*
X139246682Y-124688964D01*
X139362658Y-124665896D01*
X139362661Y-124665894D01*
X139362666Y-124665894D01*
X139526547Y-124598013D01*
X139674035Y-124499464D01*
X139799464Y-124374035D01*
X139898013Y-124226547D01*
X139965894Y-124062666D01*
X139967243Y-124055888D01*
X140000499Y-123888695D01*
X140000500Y-123888693D01*
X140000500Y-123711306D01*
X140000499Y-123711304D01*
X139965896Y-123537341D01*
X139965893Y-123537332D01*
X139898016Y-123373459D01*
X139898009Y-123373446D01*
X139799464Y-123225965D01*
X139799461Y-123225961D01*
X139674038Y-123100538D01*
X139674034Y-123100535D01*
X139526553Y-123001990D01*
X139526540Y-123001983D01*
X139362667Y-122934106D01*
X139362658Y-122934103D01*
X139188694Y-122899500D01*
X139188691Y-122899500D01*
X139011309Y-122899500D01*
X139011306Y-122899500D01*
X138837341Y-122934103D01*
X138837332Y-122934106D01*
X138673459Y-123001983D01*
X138673446Y-123001990D01*
X138525965Y-123100535D01*
X138525961Y-123100538D01*
X138400538Y-123225961D01*
X138400535Y-123225965D01*
X138301990Y-123373446D01*
X138301983Y-123373459D01*
X138234106Y-123537332D01*
X138234103Y-123537341D01*
X138199500Y-123711304D01*
X124941961Y-123711304D01*
X124231283Y-122938749D01*
X124228585Y-122935717D01*
X123492830Y-122081280D01*
X123490227Y-122078155D01*
X123322342Y-121869738D01*
X122782857Y-121200004D01*
X122780412Y-121196865D01*
X122102237Y-120296004D01*
X122099847Y-120292719D01*
X121451584Y-119370104D01*
X121449301Y-119366738D01*
X120831671Y-118423396D01*
X120829499Y-118419957D01*
X120773156Y-118327414D01*
X120736371Y-118266995D01*
X129814500Y-118266995D01*
X129814500Y-118503004D01*
X129814501Y-118503020D01*
X129845306Y-118737010D01*
X129906394Y-118964993D01*
X129996714Y-119183045D01*
X129996719Y-119183056D01*
X130055050Y-119284086D01*
X130114727Y-119387450D01*
X130114729Y-119387453D01*
X130114730Y-119387454D01*
X130258406Y-119574697D01*
X130258412Y-119574704D01*
X130425295Y-119741587D01*
X130425302Y-119741593D01*
X130486506Y-119788556D01*
X130612550Y-119885273D01*
X130692526Y-119931447D01*
X130816943Y-120003280D01*
X130816948Y-120003282D01*
X130816951Y-120003284D01*
X131035007Y-120093606D01*
X131262986Y-120154693D01*
X131496989Y-120185500D01*
X131496996Y-120185500D01*
X131733004Y-120185500D01*
X131733011Y-120185500D01*
X131967014Y-120154693D01*
X132194993Y-120093606D01*
X132413049Y-120003284D01*
X132617450Y-119885273D01*
X132804699Y-119741592D01*
X132971592Y-119574699D01*
X133115273Y-119387450D01*
X133233284Y-119183049D01*
X133323606Y-118964993D01*
X133384693Y-118737014D01*
X133415500Y-118503011D01*
X133415500Y-118266989D01*
X133384693Y-118032986D01*
X133323606Y-117805007D01*
X133233284Y-117586951D01*
X133233282Y-117586948D01*
X133233280Y-117586943D01*
X133191118Y-117513918D01*
X133115273Y-117382550D01*
X132980826Y-117207335D01*
X132971593Y-117195302D01*
X132971587Y-117195295D01*
X132804704Y-117028412D01*
X132804697Y-117028406D01*
X132617454Y-116884730D01*
X132617453Y-116884729D01*
X132617450Y-116884727D01*
X132535957Y-116837677D01*
X132413056Y-116766719D01*
X132413045Y-116766714D01*
X132194993Y-116676394D01*
X131967010Y-116615306D01*
X131733020Y-116584501D01*
X131733017Y-116584500D01*
X131733011Y-116584500D01*
X131496989Y-116584500D01*
X131496983Y-116584500D01*
X131496979Y-116584501D01*
X131262989Y-116615306D01*
X131035006Y-116676394D01*
X130816954Y-116766714D01*
X130816943Y-116766719D01*
X130612545Y-116884730D01*
X130425302Y-117028406D01*
X130425295Y-117028412D01*
X130258412Y-117195295D01*
X130258406Y-117195302D01*
X130114730Y-117382545D01*
X129996719Y-117586943D01*
X129996714Y-117586954D01*
X129906394Y-117805006D01*
X129845306Y-118032989D01*
X129814501Y-118266979D01*
X129814500Y-118266995D01*
X120736371Y-118266995D01*
X120591004Y-118028232D01*
X120243109Y-117456819D01*
X120241073Y-117453346D01*
X120201089Y-117382545D01*
X120001099Y-117028412D01*
X119686599Y-116471512D01*
X119684657Y-116467938D01*
X119663037Y-116426540D01*
X119162692Y-115468465D01*
X119160870Y-115464832D01*
X119109574Y-115358228D01*
X118671952Y-114448753D01*
X118670283Y-114445134D01*
X118259042Y-113513452D01*
X118230555Y-113448913D01*
X118230555Y-113448912D01*
X118214941Y-113413538D01*
X118213359Y-113409790D01*
X118210912Y-113403713D01*
X140909500Y-113403713D01*
X140909500Y-113616286D01*
X140923139Y-113702403D01*
X140942754Y-113826243D01*
X141008442Y-114028410D01*
X141008444Y-114028414D01*
X141104951Y-114217820D01*
X141229890Y-114389786D01*
X141380213Y-114540109D01*
X141552182Y-114665050D01*
X141560946Y-114669516D01*
X141611742Y-114717491D01*
X141628536Y-114785312D01*
X141605998Y-114851447D01*
X141560946Y-114890484D01*
X141552182Y-114894949D01*
X141380213Y-115019890D01*
X141229890Y-115170213D01*
X141104951Y-115342179D01*
X141008444Y-115531585D01*
X140942753Y-115733760D01*
X140909500Y-115943713D01*
X140909500Y-116156286D01*
X140942508Y-116364694D01*
X140942754Y-116366243D01*
X140976385Y-116469749D01*
X141008444Y-116568414D01*
X141104951Y-116757820D01*
X141229890Y-116929786D01*
X141380213Y-117080109D01*
X141552182Y-117205050D01*
X141560946Y-117209516D01*
X141611742Y-117257491D01*
X141628536Y-117325312D01*
X141605998Y-117391447D01*
X141560946Y-117430484D01*
X141552182Y-117434949D01*
X141380213Y-117559890D01*
X141229890Y-117710213D01*
X141104951Y-117882179D01*
X141008444Y-118071585D01*
X140942753Y-118273760D01*
X140909500Y-118483713D01*
X140909500Y-118696286D01*
X140942753Y-118906239D01*
X141008444Y-119108414D01*
X141104951Y-119297820D01*
X141229890Y-119469786D01*
X141380213Y-119620109D01*
X141552182Y-119745050D01*
X141560946Y-119749516D01*
X141611742Y-119797491D01*
X141628536Y-119865312D01*
X141605998Y-119931447D01*
X141560946Y-119970484D01*
X141552182Y-119974949D01*
X141380213Y-120099890D01*
X141229890Y-120250213D01*
X141104951Y-120422179D01*
X141008444Y-120611585D01*
X140942753Y-120813760D01*
X140915623Y-120985056D01*
X140909500Y-121023713D01*
X140909500Y-121236287D01*
X140942754Y-121446243D01*
X141005803Y-121640288D01*
X141008444Y-121648414D01*
X141104951Y-121837820D01*
X141229890Y-122009786D01*
X141380213Y-122160109D01*
X141552182Y-122285050D01*
X141560946Y-122289516D01*
X141611742Y-122337491D01*
X141628536Y-122405312D01*
X141605998Y-122471447D01*
X141560946Y-122510484D01*
X141552182Y-122514949D01*
X141380213Y-122639890D01*
X141229890Y-122790213D01*
X141104951Y-122962179D01*
X141008444Y-123151585D01*
X140942753Y-123353760D01*
X140909500Y-123563713D01*
X140909500Y-123776286D01*
X140941641Y-123979221D01*
X140942754Y-123986243D01*
X140997084Y-124153454D01*
X141008444Y-124188414D01*
X141104951Y-124377820D01*
X141229890Y-124549786D01*
X141380213Y-124700109D01*
X141552179Y-124825048D01*
X141552181Y-124825049D01*
X141552184Y-124825051D01*
X141561493Y-124829794D01*
X141612290Y-124877766D01*
X141629087Y-124945587D01*
X141606552Y-125011722D01*
X141561505Y-125050760D01*
X141552446Y-125055376D01*
X141552440Y-125055380D01*
X141498282Y-125094727D01*
X141498282Y-125094728D01*
X142130591Y-125727037D01*
X142067007Y-125744075D01*
X141952993Y-125809901D01*
X141859901Y-125902993D01*
X141794075Y-126017007D01*
X141777037Y-126080591D01*
X141144728Y-125448282D01*
X141144727Y-125448282D01*
X141105380Y-125502439D01*
X141008904Y-125691782D01*
X140943242Y-125893869D01*
X140943242Y-125893872D01*
X140910000Y-126103753D01*
X140910000Y-126316246D01*
X140943242Y-126526127D01*
X140943242Y-126526130D01*
X141008904Y-126728217D01*
X141105375Y-126917550D01*
X141144728Y-126971716D01*
X141777036Y-126339407D01*
X141794075Y-126402993D01*
X141859901Y-126517007D01*
X141952993Y-126610099D01*
X142067007Y-126675925D01*
X142130590Y-126692962D01*
X141498282Y-127325269D01*
X141498282Y-127325270D01*
X141552452Y-127364626D01*
X141552451Y-127364626D01*
X141561495Y-127369234D01*
X141612292Y-127417208D01*
X141629087Y-127485029D01*
X141606550Y-127551164D01*
X141561499Y-127590202D01*
X141552182Y-127594949D01*
X141380213Y-127719890D01*
X141229890Y-127870213D01*
X141104951Y-128042179D01*
X141008444Y-128231585D01*
X140942753Y-128433760D01*
X140909500Y-128643713D01*
X140909500Y-128856286D01*
X140942753Y-129066239D01*
X141008444Y-129268414D01*
X141104951Y-129457820D01*
X141229890Y-129629786D01*
X141380213Y-129780109D01*
X141552179Y-129905048D01*
X141552181Y-129905049D01*
X141552184Y-129905051D01*
X141741588Y-130001557D01*
X141943757Y-130067246D01*
X142153713Y-130100500D01*
X142153714Y-130100500D01*
X142366286Y-130100500D01*
X142366287Y-130100500D01*
X142576243Y-130067246D01*
X142778412Y-130001557D01*
X142967816Y-129905051D01*
X143054138Y-129842335D01*
X143139786Y-129780109D01*
X143139788Y-129780106D01*
X143139792Y-129780104D01*
X143290104Y-129629792D01*
X143290106Y-129629788D01*
X143290109Y-129629786D01*
X143415048Y-129457820D01*
X143415047Y-129457820D01*
X143415051Y-129457816D01*
X143511557Y-129268412D01*
X143577246Y-129066243D01*
X143610500Y-128856287D01*
X143610500Y-128643713D01*
X143577246Y-128433757D01*
X143511557Y-128231588D01*
X143415051Y-128042184D01*
X143415049Y-128042181D01*
X143415048Y-128042179D01*
X143290109Y-127870213D01*
X143139786Y-127719890D01*
X142967817Y-127594949D01*
X142958504Y-127590204D01*
X142907707Y-127542230D01*
X142890912Y-127474409D01*
X142913449Y-127408274D01*
X142958507Y-127369232D01*
X142967555Y-127364622D01*
X143021716Y-127325270D01*
X143021717Y-127325270D01*
X142389408Y-126692962D01*
X142452993Y-126675925D01*
X142567007Y-126610099D01*
X142660099Y-126517007D01*
X142725925Y-126402993D01*
X142742962Y-126339409D01*
X143375270Y-126971717D01*
X143375270Y-126971716D01*
X143414622Y-126917554D01*
X143511095Y-126728217D01*
X143576757Y-126526130D01*
X143576757Y-126526127D01*
X143610000Y-126316246D01*
X143610000Y-126103753D01*
X143576757Y-125893872D01*
X143576757Y-125893869D01*
X143511095Y-125691782D01*
X143414624Y-125502449D01*
X143375270Y-125448282D01*
X143375269Y-125448282D01*
X142742962Y-126080590D01*
X142725925Y-126017007D01*
X142660099Y-125902993D01*
X142567007Y-125809901D01*
X142452993Y-125744075D01*
X142389409Y-125727037D01*
X143021716Y-125094728D01*
X142967547Y-125055373D01*
X142967547Y-125055372D01*
X142958500Y-125050763D01*
X142907706Y-125002788D01*
X142890912Y-124934966D01*
X142913451Y-124868832D01*
X142958508Y-124829793D01*
X142967816Y-124825051D01*
X143047007Y-124767515D01*
X143139786Y-124700109D01*
X143139788Y-124700106D01*
X143139792Y-124700104D01*
X143290104Y-124549792D01*
X143290106Y-124549788D01*
X143290109Y-124549786D01*
X143415048Y-124377820D01*
X143415047Y-124377820D01*
X143415051Y-124377816D01*
X143511557Y-124188412D01*
X143577246Y-123986243D01*
X143610500Y-123776287D01*
X143610500Y-123563713D01*
X143577246Y-123353757D01*
X143511557Y-123151588D01*
X143415051Y-122962184D01*
X143415049Y-122962181D01*
X143415048Y-122962179D01*
X143290109Y-122790213D01*
X143139786Y-122639890D01*
X142967820Y-122514951D01*
X142967115Y-122514591D01*
X142959054Y-122510485D01*
X142908259Y-122462512D01*
X142891463Y-122394692D01*
X142913999Y-122328556D01*
X142959054Y-122289515D01*
X142967816Y-122285051D01*
X142989789Y-122269086D01*
X143139786Y-122160109D01*
X143139788Y-122160106D01*
X143139792Y-122160104D01*
X143290104Y-122009792D01*
X143290106Y-122009788D01*
X143290109Y-122009786D01*
X143413902Y-121839397D01*
X143415051Y-121837816D01*
X143511557Y-121648412D01*
X143577246Y-121446243D01*
X143610500Y-121236287D01*
X143610500Y-121023713D01*
X143610095Y-121021153D01*
X152999500Y-121021153D01*
X152999500Y-121178846D01*
X153030261Y-121333489D01*
X153030264Y-121333501D01*
X153090602Y-121479172D01*
X153090609Y-121479185D01*
X153178210Y-121610288D01*
X153178213Y-121610292D01*
X153289707Y-121721786D01*
X153289711Y-121721789D01*
X153420814Y-121809390D01*
X153420827Y-121809397D01*
X153566498Y-121869735D01*
X153566503Y-121869737D01*
X153717312Y-121899735D01*
X153721153Y-121900499D01*
X153721156Y-121900500D01*
X153721158Y-121900500D01*
X153878844Y-121900500D01*
X153878845Y-121900499D01*
X154033497Y-121869737D01*
X154179179Y-121809394D01*
X154310289Y-121721789D01*
X154421789Y-121610289D01*
X154509394Y-121479179D01*
X154569737Y-121333497D01*
X154575399Y-121305031D01*
X154607783Y-121243123D01*
X154668498Y-121208548D01*
X154738268Y-121212287D01*
X154794940Y-121253153D01*
X154818633Y-121305032D01*
X154830261Y-121363491D01*
X154830264Y-121363501D01*
X154890602Y-121509172D01*
X154890609Y-121509185D01*
X154978210Y-121640288D01*
X154978213Y-121640292D01*
X155089707Y-121751786D01*
X155089711Y-121751789D01*
X155220814Y-121839390D01*
X155220827Y-121839397D01*
X155294078Y-121869738D01*
X155366503Y-121899737D01*
X155521153Y-121930499D01*
X155521156Y-121930500D01*
X155521158Y-121930500D01*
X155678844Y-121930500D01*
X155678845Y-121930499D01*
X155833497Y-121899737D01*
X155979179Y-121839394D01*
X156110289Y-121751789D01*
X156116018Y-121746059D01*
X156177338Y-121712573D01*
X156247030Y-121717554D01*
X156302965Y-121759423D01*
X156314186Y-121777442D01*
X156344949Y-121837817D01*
X156469890Y-122009786D01*
X156620213Y-122160109D01*
X156792182Y-122285050D01*
X156800946Y-122289516D01*
X156851742Y-122337491D01*
X156868536Y-122405312D01*
X156845998Y-122471447D01*
X156800946Y-122510484D01*
X156792182Y-122514949D01*
X156620213Y-122639890D01*
X156469890Y-122790213D01*
X156344951Y-122962179D01*
X156248444Y-123151585D01*
X156182753Y-123353760D01*
X156149500Y-123563713D01*
X156149500Y-123776286D01*
X156181641Y-123979221D01*
X156182754Y-123986243D01*
X156237084Y-124153454D01*
X156248444Y-124188414D01*
X156344951Y-124377820D01*
X156469890Y-124549786D01*
X156620213Y-124700109D01*
X156792182Y-124825050D01*
X156800946Y-124829516D01*
X156851742Y-124877491D01*
X156868536Y-124945312D01*
X156845998Y-125011447D01*
X156800946Y-125050484D01*
X156792182Y-125054949D01*
X156620213Y-125179890D01*
X156469890Y-125330213D01*
X156344951Y-125502179D01*
X156248444Y-125691585D01*
X156182753Y-125893760D01*
X156149500Y-126103713D01*
X156149500Y-126316286D01*
X156182753Y-126526239D01*
X156248444Y-126728414D01*
X156344951Y-126917820D01*
X156469890Y-127089786D01*
X156583430Y-127203326D01*
X156616915Y-127264649D01*
X156611931Y-127334341D01*
X156570059Y-127390274D01*
X156539083Y-127407189D01*
X156407669Y-127456203D01*
X156407664Y-127456206D01*
X156292455Y-127542452D01*
X156292452Y-127542455D01*
X156206206Y-127657664D01*
X156206202Y-127657671D01*
X156155908Y-127792517D01*
X156149501Y-127852116D01*
X156149501Y-127852123D01*
X156149500Y-127852135D01*
X156149500Y-129647870D01*
X156149501Y-129647876D01*
X156155908Y-129707483D01*
X156206202Y-129842328D01*
X156206206Y-129842335D01*
X156292452Y-129957544D01*
X156292455Y-129957547D01*
X156407664Y-130043793D01*
X156407671Y-130043797D01*
X156542517Y-130094091D01*
X156542516Y-130094091D01*
X156549444Y-130094835D01*
X156602127Y-130100500D01*
X158397872Y-130100499D01*
X158457483Y-130094091D01*
X158592331Y-130043796D01*
X158707546Y-129957546D01*
X158793796Y-129842331D01*
X158844091Y-129707483D01*
X158850500Y-129647873D01*
X158850499Y-127852128D01*
X158844091Y-127792517D01*
X158798020Y-127668995D01*
X158793797Y-127657671D01*
X158793793Y-127657664D01*
X158707547Y-127542455D01*
X158707544Y-127542452D01*
X158592335Y-127456206D01*
X158592328Y-127456202D01*
X158460917Y-127407189D01*
X158404983Y-127365318D01*
X158380566Y-127299853D01*
X158395418Y-127231580D01*
X158416563Y-127203332D01*
X158530104Y-127089792D01*
X158655051Y-126917816D01*
X158751557Y-126728412D01*
X158817246Y-126526243D01*
X158850500Y-126316287D01*
X158850500Y-126103713D01*
X158817246Y-125893757D01*
X158751557Y-125691588D01*
X158655051Y-125502184D01*
X158655049Y-125502181D01*
X158655048Y-125502179D01*
X158530109Y-125330213D01*
X158379786Y-125179890D01*
X158207820Y-125054951D01*
X158199600Y-125050763D01*
X158199054Y-125050485D01*
X158148259Y-125002512D01*
X158131463Y-124934692D01*
X158153999Y-124868556D01*
X158199054Y-124829515D01*
X158207816Y-124825051D01*
X158236347Y-124804322D01*
X158379786Y-124700109D01*
X158379788Y-124700106D01*
X158379792Y-124700104D01*
X158530104Y-124549792D01*
X158530106Y-124549788D01*
X158530109Y-124549786D01*
X158655048Y-124377820D01*
X158655047Y-124377820D01*
X158655051Y-124377816D01*
X158751557Y-124188412D01*
X158817246Y-123986243D01*
X158850500Y-123776287D01*
X158850500Y-123563713D01*
X158817246Y-123353757D01*
X158751557Y-123151588D01*
X158655051Y-122962184D01*
X158655049Y-122962181D01*
X158655048Y-122962179D01*
X158530109Y-122790213D01*
X158379786Y-122639890D01*
X158207820Y-122514951D01*
X158207115Y-122514591D01*
X158199054Y-122510485D01*
X158148259Y-122462512D01*
X158131463Y-122394692D01*
X158153999Y-122328556D01*
X158199054Y-122289515D01*
X158207816Y-122285051D01*
X158229789Y-122269086D01*
X158379786Y-122160109D01*
X158379788Y-122160106D01*
X158379792Y-122160104D01*
X158530104Y-122009792D01*
X158530106Y-122009788D01*
X158530109Y-122009786D01*
X158653902Y-121839397D01*
X158655051Y-121837816D01*
X158751557Y-121648412D01*
X158817246Y-121446243D01*
X158850500Y-121236287D01*
X158850500Y-121023713D01*
X158817246Y-120813757D01*
X158751557Y-120611588D01*
X158655051Y-120422184D01*
X158655049Y-120422181D01*
X158655048Y-120422179D01*
X158530109Y-120250213D01*
X158379786Y-120099890D01*
X158207820Y-119974951D01*
X158207115Y-119974591D01*
X158199054Y-119970485D01*
X158148259Y-119922512D01*
X158131463Y-119854692D01*
X158153999Y-119788556D01*
X158199054Y-119749515D01*
X158207816Y-119745051D01*
X158229789Y-119729086D01*
X158379786Y-119620109D01*
X158379788Y-119620106D01*
X158379792Y-119620104D01*
X158530104Y-119469792D01*
X158530106Y-119469788D01*
X158530109Y-119469786D01*
X158655048Y-119297820D01*
X158655047Y-119297820D01*
X158655051Y-119297816D01*
X158751557Y-119108412D01*
X158817246Y-118906243D01*
X158850500Y-118696287D01*
X158850500Y-118483713D01*
X158826517Y-118332292D01*
X158818604Y-118282328D01*
X158818164Y-118279558D01*
X158817246Y-118273757D01*
X158815049Y-118266995D01*
X166584500Y-118266995D01*
X166584500Y-118503004D01*
X166584501Y-118503020D01*
X166615306Y-118737010D01*
X166676394Y-118964993D01*
X166766714Y-119183045D01*
X166766719Y-119183056D01*
X166825050Y-119284086D01*
X166884727Y-119387450D01*
X166884729Y-119387453D01*
X166884730Y-119387454D01*
X167028406Y-119574697D01*
X167028412Y-119574704D01*
X167195295Y-119741587D01*
X167195302Y-119741593D01*
X167256506Y-119788556D01*
X167382550Y-119885273D01*
X167462526Y-119931447D01*
X167586943Y-120003280D01*
X167586948Y-120003282D01*
X167586951Y-120003284D01*
X167805007Y-120093606D01*
X168032986Y-120154693D01*
X168266989Y-120185500D01*
X168266996Y-120185500D01*
X168503004Y-120185500D01*
X168503011Y-120185500D01*
X168737014Y-120154693D01*
X168964993Y-120093606D01*
X169183049Y-120003284D01*
X169387450Y-119885273D01*
X169574699Y-119741592D01*
X169741592Y-119574699D01*
X169885273Y-119387450D01*
X170003284Y-119183049D01*
X170093606Y-118964993D01*
X170154693Y-118737014D01*
X170185500Y-118503011D01*
X170185500Y-118266989D01*
X170154693Y-118032986D01*
X170093606Y-117805007D01*
X170003284Y-117586951D01*
X170003282Y-117586948D01*
X170003280Y-117586943D01*
X169961118Y-117513918D01*
X169885273Y-117382550D01*
X169750826Y-117207335D01*
X169741593Y-117195302D01*
X169741587Y-117195295D01*
X169574704Y-117028412D01*
X169574697Y-117028406D01*
X169387454Y-116884730D01*
X169387453Y-116884729D01*
X169387450Y-116884727D01*
X169305957Y-116837677D01*
X169183056Y-116766719D01*
X169183045Y-116766714D01*
X168964993Y-116676394D01*
X168737010Y-116615306D01*
X168503020Y-116584501D01*
X168503017Y-116584500D01*
X168503011Y-116584500D01*
X168266989Y-116584500D01*
X168266983Y-116584500D01*
X168266979Y-116584501D01*
X168032989Y-116615306D01*
X167805006Y-116676394D01*
X167586954Y-116766714D01*
X167586943Y-116766719D01*
X167382545Y-116884730D01*
X167195302Y-117028406D01*
X167195295Y-117028412D01*
X167028412Y-117195295D01*
X167028406Y-117195302D01*
X166884730Y-117382545D01*
X166766719Y-117586943D01*
X166766714Y-117586954D01*
X166676394Y-117805006D01*
X166615306Y-118032989D01*
X166584501Y-118266979D01*
X166584500Y-118266995D01*
X158815049Y-118266995D01*
X158751557Y-118071588D01*
X158655051Y-117882184D01*
X158655049Y-117882181D01*
X158655048Y-117882179D01*
X158530109Y-117710213D01*
X158379786Y-117559890D01*
X158207820Y-117434951D01*
X158207115Y-117434591D01*
X158199054Y-117430485D01*
X158148259Y-117382512D01*
X158131463Y-117314692D01*
X158153999Y-117248556D01*
X158199054Y-117209515D01*
X158207816Y-117205051D01*
X158229789Y-117189086D01*
X158379786Y-117080109D01*
X158379788Y-117080106D01*
X158379792Y-117080104D01*
X158530104Y-116929792D01*
X158530106Y-116929788D01*
X158530109Y-116929786D01*
X158655048Y-116757820D01*
X158655047Y-116757820D01*
X158655051Y-116757816D01*
X158751557Y-116568412D01*
X158817246Y-116366243D01*
X158850500Y-116156287D01*
X158850500Y-115943713D01*
X158845367Y-115911304D01*
X170299500Y-115911304D01*
X170299500Y-116088695D01*
X170334103Y-116262658D01*
X170334106Y-116262667D01*
X170401983Y-116426540D01*
X170401990Y-116426553D01*
X170500535Y-116574034D01*
X170500538Y-116574038D01*
X170625961Y-116699461D01*
X170625965Y-116699464D01*
X170773446Y-116798009D01*
X170773459Y-116798016D01*
X170896363Y-116848923D01*
X170937334Y-116865894D01*
X170937336Y-116865894D01*
X170937341Y-116865896D01*
X171111304Y-116900499D01*
X171111307Y-116900500D01*
X171111309Y-116900500D01*
X171288693Y-116900500D01*
X171288694Y-116900499D01*
X171367987Y-116884727D01*
X171462658Y-116865896D01*
X171462661Y-116865894D01*
X171462666Y-116865894D01*
X171626547Y-116798013D01*
X171774035Y-116699464D01*
X171899464Y-116574035D01*
X171998013Y-116426547D01*
X172065894Y-116262666D01*
X172074869Y-116217549D01*
X172100499Y-116088695D01*
X172100500Y-116088693D01*
X172100500Y-115911306D01*
X172100499Y-115911304D01*
X172065896Y-115737341D01*
X172065893Y-115737332D01*
X172064413Y-115733760D01*
X172048923Y-115696363D01*
X171998016Y-115573459D01*
X171998009Y-115573446D01*
X171899464Y-115425965D01*
X171899461Y-115425961D01*
X171774038Y-115300538D01*
X171774034Y-115300535D01*
X171626553Y-115201990D01*
X171626540Y-115201983D01*
X171462667Y-115134106D01*
X171462658Y-115134103D01*
X171288694Y-115099500D01*
X171288691Y-115099500D01*
X171111309Y-115099500D01*
X171111306Y-115099500D01*
X170937341Y-115134103D01*
X170937332Y-115134106D01*
X170773459Y-115201983D01*
X170773446Y-115201990D01*
X170625965Y-115300535D01*
X170625961Y-115300538D01*
X170500538Y-115425961D01*
X170500535Y-115425965D01*
X170401990Y-115573446D01*
X170401983Y-115573459D01*
X170334106Y-115737332D01*
X170334103Y-115737341D01*
X170299500Y-115911304D01*
X158845367Y-115911304D01*
X158817246Y-115733757D01*
X158751557Y-115531588D01*
X158655051Y-115342184D01*
X158655049Y-115342181D01*
X158655048Y-115342179D01*
X158530109Y-115170213D01*
X158379786Y-115019890D01*
X158207820Y-114894951D01*
X158207115Y-114894591D01*
X158199054Y-114890485D01*
X158148259Y-114842512D01*
X158131463Y-114774692D01*
X158153999Y-114708556D01*
X158199054Y-114669515D01*
X158207816Y-114665051D01*
X158355572Y-114557701D01*
X158379786Y-114540109D01*
X158379788Y-114540106D01*
X158379792Y-114540104D01*
X158530104Y-114389792D01*
X158530106Y-114389788D01*
X158530109Y-114389786D01*
X158594979Y-114300499D01*
X158655051Y-114217816D01*
X158751557Y-114028412D01*
X158817246Y-113826243D01*
X158850500Y-113616287D01*
X158850500Y-113403713D01*
X158817246Y-113193757D01*
X158751557Y-112991588D01*
X158655051Y-112802184D01*
X158655049Y-112802181D01*
X158655048Y-112802179D01*
X158530109Y-112630213D01*
X158379786Y-112479890D01*
X158207820Y-112354951D01*
X158018414Y-112258444D01*
X158018413Y-112258443D01*
X158018412Y-112258443D01*
X157816243Y-112192754D01*
X157816241Y-112192753D01*
X157816240Y-112192753D01*
X157654957Y-112167208D01*
X157606287Y-112159500D01*
X157393713Y-112159500D01*
X157345042Y-112167208D01*
X157183760Y-112192753D01*
X156981585Y-112258444D01*
X156792179Y-112354951D01*
X156620213Y-112479890D01*
X156469890Y-112630213D01*
X156344951Y-112802180D01*
X156246973Y-112994471D01*
X156198998Y-113045267D01*
X156131177Y-113062062D01*
X156065042Y-113039524D01*
X156033385Y-113007066D01*
X156024969Y-112994471D01*
X156021789Y-112989711D01*
X156021787Y-112989708D01*
X155910292Y-112878213D01*
X155910288Y-112878210D01*
X155779185Y-112790609D01*
X155779172Y-112790602D01*
X155633501Y-112730264D01*
X155633489Y-112730261D01*
X155478845Y-112699500D01*
X155478842Y-112699500D01*
X155321158Y-112699500D01*
X155321155Y-112699500D01*
X155166510Y-112730261D01*
X155166498Y-112730264D01*
X155020827Y-112790602D01*
X155020814Y-112790609D01*
X154889711Y-112878210D01*
X154889707Y-112878213D01*
X154778213Y-112989707D01*
X154778210Y-112989711D01*
X154690609Y-113120814D01*
X154690602Y-113120827D01*
X154630264Y-113266498D01*
X154630261Y-113266510D01*
X154599500Y-113421153D01*
X154599500Y-113578846D01*
X154630261Y-113733489D01*
X154630264Y-113733501D01*
X154690602Y-113879172D01*
X154690609Y-113879185D01*
X154778210Y-114010288D01*
X154778213Y-114010292D01*
X154889707Y-114121786D01*
X154889711Y-114121789D01*
X155020814Y-114209390D01*
X155020827Y-114209397D01*
X155166498Y-114269735D01*
X155166503Y-114269737D01*
X155321153Y-114300499D01*
X155321156Y-114300500D01*
X155321158Y-114300500D01*
X155478844Y-114300500D01*
X155478845Y-114300499D01*
X155633497Y-114269737D01*
X155779179Y-114209394D01*
X155910289Y-114121789D01*
X156021789Y-114010289D01*
X156028292Y-114000557D01*
X156081903Y-113955751D01*
X156151228Y-113947042D01*
X156214256Y-113977196D01*
X156245048Y-114024554D01*
X156246582Y-114023919D01*
X156248441Y-114028410D01*
X156344951Y-114217820D01*
X156469890Y-114389786D01*
X156620213Y-114540109D01*
X156792182Y-114665050D01*
X156800946Y-114669516D01*
X156851742Y-114717491D01*
X156868536Y-114785312D01*
X156845998Y-114851447D01*
X156800946Y-114890484D01*
X156792182Y-114894949D01*
X156620213Y-115019890D01*
X156469890Y-115170213D01*
X156344951Y-115342179D01*
X156248444Y-115531585D01*
X156182753Y-115733760D01*
X156149500Y-115943713D01*
X156149500Y-116156286D01*
X156182508Y-116364694D01*
X156182754Y-116366243D01*
X156216385Y-116469749D01*
X156248444Y-116568414D01*
X156344951Y-116757820D01*
X156469890Y-116929786D01*
X156620213Y-117080109D01*
X156792182Y-117205050D01*
X156800946Y-117209516D01*
X156851742Y-117257491D01*
X156868536Y-117325312D01*
X156845998Y-117391447D01*
X156800946Y-117430484D01*
X156792182Y-117434949D01*
X156620213Y-117559890D01*
X156469890Y-117710213D01*
X156344951Y-117882179D01*
X156248444Y-118071585D01*
X156182753Y-118273760D01*
X156149500Y-118483713D01*
X156149500Y-118696286D01*
X156182753Y-118906239D01*
X156248444Y-119108414D01*
X156344951Y-119297820D01*
X156469890Y-119469786D01*
X156620213Y-119620109D01*
X156792182Y-119745050D01*
X156800946Y-119749516D01*
X156851742Y-119797491D01*
X156868536Y-119865312D01*
X156845998Y-119931447D01*
X156800946Y-119970484D01*
X156792182Y-119974949D01*
X156620213Y-120099890D01*
X156469890Y-120250213D01*
X156344949Y-120422182D01*
X156314186Y-120482557D01*
X156266211Y-120533353D01*
X156198390Y-120550147D01*
X156132255Y-120527609D01*
X156116021Y-120513942D01*
X156110292Y-120508213D01*
X156110288Y-120508210D01*
X155979185Y-120420609D01*
X155979172Y-120420602D01*
X155833501Y-120360264D01*
X155833489Y-120360261D01*
X155678845Y-120329500D01*
X155678842Y-120329500D01*
X155521158Y-120329500D01*
X155521155Y-120329500D01*
X155366510Y-120360261D01*
X155366498Y-120360264D01*
X155220827Y-120420602D01*
X155220814Y-120420609D01*
X155089711Y-120508210D01*
X155089707Y-120508213D01*
X154978213Y-120619707D01*
X154978210Y-120619711D01*
X154890609Y-120750814D01*
X154890602Y-120750827D01*
X154830264Y-120896498D01*
X154830262Y-120896505D01*
X154824600Y-120924969D01*
X154792213Y-120986879D01*
X154731497Y-121021452D01*
X154661727Y-121017711D01*
X154605056Y-120976843D01*
X154581366Y-120924968D01*
X154569737Y-120866503D01*
X154569735Y-120866498D01*
X154509397Y-120720827D01*
X154509390Y-120720814D01*
X154421789Y-120589711D01*
X154421786Y-120589707D01*
X154310292Y-120478213D01*
X154310288Y-120478210D01*
X154179185Y-120390609D01*
X154179172Y-120390602D01*
X154033501Y-120330264D01*
X154033489Y-120330261D01*
X153878845Y-120299500D01*
X153878842Y-120299500D01*
X153721158Y-120299500D01*
X153721155Y-120299500D01*
X153566510Y-120330261D01*
X153566498Y-120330264D01*
X153420827Y-120390602D01*
X153420814Y-120390609D01*
X153289711Y-120478210D01*
X153289707Y-120478213D01*
X153178213Y-120589707D01*
X153178210Y-120589711D01*
X153090609Y-120720814D01*
X153090602Y-120720827D01*
X153030264Y-120866498D01*
X153030261Y-120866510D01*
X152999500Y-121021153D01*
X143610095Y-121021153D01*
X143577246Y-120813757D01*
X143511557Y-120611588D01*
X143415051Y-120422184D01*
X143415049Y-120422181D01*
X143415048Y-120422179D01*
X143290109Y-120250213D01*
X143139786Y-120099890D01*
X142967820Y-119974951D01*
X142967115Y-119974591D01*
X142959054Y-119970485D01*
X142908259Y-119922512D01*
X142891463Y-119854692D01*
X142913999Y-119788556D01*
X142959054Y-119749515D01*
X142967816Y-119745051D01*
X142989789Y-119729086D01*
X143139786Y-119620109D01*
X143139788Y-119620106D01*
X143139792Y-119620104D01*
X143290104Y-119469792D01*
X143290106Y-119469788D01*
X143290109Y-119469786D01*
X143415048Y-119297820D01*
X143415047Y-119297820D01*
X143415051Y-119297816D01*
X143511557Y-119108412D01*
X143577246Y-118906243D01*
X143610500Y-118696287D01*
X143610500Y-118483713D01*
X143577246Y-118273757D01*
X143511557Y-118071588D01*
X143415051Y-117882184D01*
X143415049Y-117882181D01*
X143415048Y-117882179D01*
X143290109Y-117710213D01*
X143139786Y-117559890D01*
X142967820Y-117434951D01*
X142967115Y-117434591D01*
X142959054Y-117430485D01*
X142908259Y-117382512D01*
X142891463Y-117314692D01*
X142913999Y-117248556D01*
X142959054Y-117209515D01*
X142967816Y-117205051D01*
X142989789Y-117189086D01*
X143139786Y-117080109D01*
X143139788Y-117080106D01*
X143139792Y-117080104D01*
X143290104Y-116929792D01*
X143290106Y-116929788D01*
X143290109Y-116929786D01*
X143415048Y-116757820D01*
X143415047Y-116757820D01*
X143415051Y-116757816D01*
X143511557Y-116568412D01*
X143577246Y-116366243D01*
X143610500Y-116156287D01*
X143610500Y-115943713D01*
X143577246Y-115733757D01*
X143511557Y-115531588D01*
X143415051Y-115342184D01*
X143415049Y-115342181D01*
X143415048Y-115342179D01*
X143290109Y-115170213D01*
X143139786Y-115019890D01*
X142967820Y-114894951D01*
X142967115Y-114894591D01*
X142959054Y-114890485D01*
X142908259Y-114842512D01*
X142891463Y-114774692D01*
X142913999Y-114708556D01*
X142959054Y-114669515D01*
X142967816Y-114665051D01*
X143115572Y-114557701D01*
X143139786Y-114540109D01*
X143139788Y-114540106D01*
X143139792Y-114540104D01*
X143290104Y-114389792D01*
X143290106Y-114389788D01*
X143290109Y-114389786D01*
X143415048Y-114217820D01*
X143415049Y-114217819D01*
X143415051Y-114217816D01*
X143511557Y-114028412D01*
X143577246Y-113826243D01*
X143610500Y-113616287D01*
X143610500Y-113421153D01*
X152399500Y-113421153D01*
X152399500Y-113578846D01*
X152430261Y-113733489D01*
X152430264Y-113733501D01*
X152490602Y-113879172D01*
X152490609Y-113879185D01*
X152578210Y-114010288D01*
X152578213Y-114010292D01*
X152689707Y-114121786D01*
X152689711Y-114121789D01*
X152820814Y-114209390D01*
X152820827Y-114209397D01*
X152966498Y-114269735D01*
X152966503Y-114269737D01*
X153121153Y-114300499D01*
X153121156Y-114300500D01*
X153121158Y-114300500D01*
X153278844Y-114300500D01*
X153278845Y-114300499D01*
X153433497Y-114269737D01*
X153579179Y-114209394D01*
X153710289Y-114121789D01*
X153821789Y-114010289D01*
X153909394Y-113879179D01*
X153969737Y-113733497D01*
X154000500Y-113578842D01*
X154000500Y-113421158D01*
X154000500Y-113421155D01*
X154000499Y-113421153D01*
X153996293Y-113400007D01*
X153969737Y-113266503D01*
X153968824Y-113264298D01*
X153909397Y-113120827D01*
X153909390Y-113120814D01*
X153821789Y-112989711D01*
X153821786Y-112989707D01*
X153710292Y-112878213D01*
X153710288Y-112878210D01*
X153579185Y-112790609D01*
X153579172Y-112790602D01*
X153433501Y-112730264D01*
X153433489Y-112730261D01*
X153278845Y-112699500D01*
X153278842Y-112699500D01*
X153121158Y-112699500D01*
X153121155Y-112699500D01*
X152966510Y-112730261D01*
X152966498Y-112730264D01*
X152820827Y-112790602D01*
X152820814Y-112790609D01*
X152689711Y-112878210D01*
X152689707Y-112878213D01*
X152578213Y-112989707D01*
X152578210Y-112989711D01*
X152490609Y-113120814D01*
X152490602Y-113120827D01*
X152430264Y-113266498D01*
X152430261Y-113266510D01*
X152399500Y-113421153D01*
X143610500Y-113421153D01*
X143610500Y-113403713D01*
X143577246Y-113193757D01*
X143511557Y-112991588D01*
X143415051Y-112802184D01*
X143415049Y-112802181D01*
X143415048Y-112802179D01*
X143290109Y-112630213D01*
X143139786Y-112479890D01*
X142967820Y-112354951D01*
X142778414Y-112258444D01*
X142778413Y-112258443D01*
X142778412Y-112258443D01*
X142576243Y-112192754D01*
X142576241Y-112192753D01*
X142576240Y-112192753D01*
X142414957Y-112167208D01*
X142366287Y-112159500D01*
X142153713Y-112159500D01*
X142105042Y-112167208D01*
X141943760Y-112192753D01*
X141741585Y-112258444D01*
X141552179Y-112354951D01*
X141380213Y-112479890D01*
X141229890Y-112630213D01*
X141104951Y-112802179D01*
X141008444Y-112991585D01*
X140942753Y-113193760D01*
X140909500Y-113403713D01*
X118210912Y-113403713D01*
X118192810Y-113358768D01*
X117792101Y-112363829D01*
X117790670Y-112360100D01*
X117763671Y-112286153D01*
X134199500Y-112286153D01*
X134199500Y-112443846D01*
X134230261Y-112598489D01*
X134230264Y-112598501D01*
X134290602Y-112744172D01*
X134290609Y-112744185D01*
X134378210Y-112875288D01*
X134378213Y-112875292D01*
X134489707Y-112986786D01*
X134489711Y-112986789D01*
X134620814Y-113074390D01*
X134620827Y-113074397D01*
X134732921Y-113120827D01*
X134766503Y-113134737D01*
X134921153Y-113165499D01*
X134921156Y-113165500D01*
X134921158Y-113165500D01*
X135078844Y-113165500D01*
X135078845Y-113165499D01*
X135233497Y-113134737D01*
X135379179Y-113074394D01*
X135510289Y-112986789D01*
X135621789Y-112875289D01*
X135709394Y-112744179D01*
X135769737Y-112598497D01*
X135800500Y-112443842D01*
X135800500Y-112286158D01*
X135800500Y-112286155D01*
X135800499Y-112286153D01*
X135793433Y-112250630D01*
X135769737Y-112131503D01*
X135735978Y-112050000D01*
X135709397Y-111985827D01*
X135709390Y-111985814D01*
X135621789Y-111854711D01*
X135621786Y-111854707D01*
X135510292Y-111743213D01*
X135510288Y-111743210D01*
X135379185Y-111655609D01*
X135379172Y-111655602D01*
X135233501Y-111595264D01*
X135233489Y-111595261D01*
X135078845Y-111564500D01*
X135078842Y-111564500D01*
X134921158Y-111564500D01*
X134921155Y-111564500D01*
X134766510Y-111595261D01*
X134766498Y-111595264D01*
X134620827Y-111655602D01*
X134620814Y-111655609D01*
X134489711Y-111743210D01*
X134489707Y-111743213D01*
X134378213Y-111854707D01*
X134378210Y-111854711D01*
X134290609Y-111985814D01*
X134290602Y-111985827D01*
X134230264Y-112131498D01*
X134230261Y-112131510D01*
X134199500Y-112286153D01*
X117763671Y-112286153D01*
X117403931Y-111300855D01*
X117402611Y-111297045D01*
X117399920Y-111288851D01*
X117050852Y-110225782D01*
X117049646Y-110221898D01*
X116755483Y-109215847D01*
X116750500Y-109181047D01*
X116750500Y-108101577D01*
X120949500Y-108101577D01*
X120949500Y-108298422D01*
X120980290Y-108492826D01*
X121041117Y-108680029D01*
X121130476Y-108855405D01*
X121246172Y-109014646D01*
X121385354Y-109153828D01*
X121544595Y-109269524D01*
X121627455Y-109311743D01*
X121719970Y-109358882D01*
X121719972Y-109358882D01*
X121719975Y-109358884D01*
X121820317Y-109391487D01*
X121907173Y-109419709D01*
X122101578Y-109450500D01*
X122101583Y-109450500D01*
X123098422Y-109450500D01*
X123292826Y-109419709D01*
X123480025Y-109358884D01*
X123655405Y-109269524D01*
X123814646Y-109153828D01*
X123953828Y-109014646D01*
X124069524Y-108855405D01*
X124158884Y-108680025D01*
X124219709Y-108492826D01*
X124250500Y-108298422D01*
X124250500Y-108101577D01*
X125949500Y-108101577D01*
X125949500Y-108298422D01*
X125980290Y-108492826D01*
X126041117Y-108680029D01*
X126130476Y-108855405D01*
X126246172Y-109014646D01*
X126385354Y-109153828D01*
X126544595Y-109269524D01*
X126627455Y-109311743D01*
X126719970Y-109358882D01*
X126719972Y-109358882D01*
X126719975Y-109358884D01*
X126820317Y-109391487D01*
X126907173Y-109419709D01*
X127101578Y-109450500D01*
X127101583Y-109450500D01*
X128098422Y-109450500D01*
X128292826Y-109419709D01*
X128480025Y-109358884D01*
X128655405Y-109269524D01*
X128814646Y-109153828D01*
X128953828Y-109014646D01*
X129069524Y-108855405D01*
X129158884Y-108680025D01*
X129219709Y-108492826D01*
X129250500Y-108298422D01*
X129250500Y-108101577D01*
X129219709Y-107907173D01*
X129158882Y-107719970D01*
X129069523Y-107544594D01*
X128953828Y-107385354D01*
X128814646Y-107246172D01*
X128655405Y-107130476D01*
X128480029Y-107041117D01*
X128292826Y-106980290D01*
X128098422Y-106949500D01*
X128098417Y-106949500D01*
X127101583Y-106949500D01*
X127101578Y-106949500D01*
X126907173Y-106980290D01*
X126719970Y-107041117D01*
X126544594Y-107130476D01*
X126453741Y-107196485D01*
X126385354Y-107246172D01*
X126385352Y-107246174D01*
X126385351Y-107246174D01*
X126246174Y-107385351D01*
X126246174Y-107385352D01*
X126246172Y-107385354D01*
X126196485Y-107453741D01*
X126130476Y-107544594D01*
X126041117Y-107719970D01*
X125980290Y-107907173D01*
X125949500Y-108101577D01*
X124250500Y-108101577D01*
X124219709Y-107907173D01*
X124158882Y-107719970D01*
X124069523Y-107544594D01*
X123953828Y-107385354D01*
X123814646Y-107246172D01*
X123655405Y-107130476D01*
X123480029Y-107041117D01*
X123292826Y-106980290D01*
X123098422Y-106949500D01*
X123098417Y-106949500D01*
X122101583Y-106949500D01*
X122101578Y-106949500D01*
X121907173Y-106980290D01*
X121719970Y-107041117D01*
X121544594Y-107130476D01*
X121453741Y-107196485D01*
X121385354Y-107246172D01*
X121385352Y-107246174D01*
X121385351Y-107246174D01*
X121246174Y-107385351D01*
X121246174Y-107385352D01*
X121246172Y-107385354D01*
X121196485Y-107453741D01*
X121130476Y-107544594D01*
X121041117Y-107719970D01*
X120980290Y-107907173D01*
X120949500Y-108101577D01*
X116750500Y-108101577D01*
X116750500Y-103223713D01*
X149249500Y-103223713D01*
X149249500Y-103436286D01*
X149282753Y-103646239D01*
X149348444Y-103848414D01*
X149444951Y-104037820D01*
X149569890Y-104209786D01*
X149720213Y-104360109D01*
X149892182Y-104485050D01*
X149900946Y-104489516D01*
X149951742Y-104537491D01*
X149968536Y-104605312D01*
X149945998Y-104671447D01*
X149900946Y-104710484D01*
X149892182Y-104714949D01*
X149720213Y-104839890D01*
X149569890Y-104990213D01*
X149444951Y-105162179D01*
X149348444Y-105351585D01*
X149282753Y-105553760D01*
X149249500Y-105763713D01*
X149249500Y-105976286D01*
X149282753Y-106186239D01*
X149348444Y-106388414D01*
X149444951Y-106577820D01*
X149569890Y-106749786D01*
X149720213Y-106900109D01*
X149892182Y-107025050D01*
X149900946Y-107029516D01*
X149951742Y-107077491D01*
X149968536Y-107145312D01*
X149945998Y-107211447D01*
X149900946Y-107250484D01*
X149892182Y-107254949D01*
X149720213Y-107379890D01*
X149569890Y-107530213D01*
X149444951Y-107702179D01*
X149348444Y-107891585D01*
X149282753Y-108093760D01*
X149249500Y-108303713D01*
X149249500Y-108516286D01*
X149275433Y-108680025D01*
X149282754Y-108726243D01*
X149324721Y-108855405D01*
X149348444Y-108928414D01*
X149444951Y-109117820D01*
X149569890Y-109289786D01*
X149720213Y-109440109D01*
X149892182Y-109565050D01*
X149918491Y-109578455D01*
X149969287Y-109626428D01*
X149986083Y-109694249D01*
X149963546Y-109760384D01*
X149949879Y-109776620D01*
X149900539Y-109825960D01*
X149900535Y-109825965D01*
X149801990Y-109973446D01*
X149801983Y-109973459D01*
X149734106Y-110137332D01*
X149734103Y-110137341D01*
X149699500Y-110311304D01*
X149699500Y-110488695D01*
X149734103Y-110662658D01*
X149734106Y-110662667D01*
X149801983Y-110826540D01*
X149801990Y-110826553D01*
X149900535Y-110974034D01*
X149900538Y-110974038D01*
X150025961Y-111099461D01*
X150025965Y-111099464D01*
X150173446Y-111198009D01*
X150173459Y-111198016D01*
X150281362Y-111242710D01*
X150337334Y-111265894D01*
X150337336Y-111265894D01*
X150337341Y-111265896D01*
X150511304Y-111300499D01*
X150511307Y-111300500D01*
X150511309Y-111300500D01*
X150688693Y-111300500D01*
X150688694Y-111300499D01*
X150747254Y-111288851D01*
X150862658Y-111265896D01*
X150862661Y-111265894D01*
X150862666Y-111265894D01*
X151026547Y-111198013D01*
X151174035Y-111099464D01*
X151299464Y-110974035D01*
X151398013Y-110826547D01*
X151465894Y-110662666D01*
X151500500Y-110488691D01*
X151500500Y-110311309D01*
X151500500Y-110311306D01*
X151484209Y-110229409D01*
X151484209Y-110229408D01*
X151480608Y-110211304D01*
X170399500Y-110211304D01*
X170399500Y-110388695D01*
X170434103Y-110562658D01*
X170434106Y-110562667D01*
X170501983Y-110726540D01*
X170501990Y-110726553D01*
X170600535Y-110874034D01*
X170600538Y-110874038D01*
X170725961Y-110999461D01*
X170725965Y-110999464D01*
X170873446Y-111098009D01*
X170873459Y-111098016D01*
X170996363Y-111148923D01*
X171037334Y-111165894D01*
X171037336Y-111165894D01*
X171037341Y-111165896D01*
X171211304Y-111200499D01*
X171211307Y-111200500D01*
X171211309Y-111200500D01*
X171388693Y-111200500D01*
X171388694Y-111200499D01*
X171446682Y-111188964D01*
X171562658Y-111165896D01*
X171562661Y-111165894D01*
X171562666Y-111165894D01*
X171726547Y-111098013D01*
X171874035Y-110999464D01*
X171999464Y-110874035D01*
X172098013Y-110726547D01*
X172098018Y-110726533D01*
X172098984Y-110724728D01*
X172099750Y-110723947D01*
X172101398Y-110721482D01*
X172101865Y-110721794D01*
X172147941Y-110674878D01*
X172216076Y-110659409D01*
X172281759Y-110683232D01*
X172324135Y-110738785D01*
X172331708Y-110770565D01*
X172335001Y-110802797D01*
X172335001Y-110802799D01*
X172390184Y-110969327D01*
X172390187Y-110969336D01*
X172393087Y-110974038D01*
X172482288Y-111118656D01*
X172606344Y-111242712D01*
X172670981Y-111282580D01*
X172717705Y-111334526D01*
X172728928Y-111403489D01*
X172701085Y-111467571D01*
X172693566Y-111475799D01*
X172585964Y-111583401D01*
X172484195Y-111723475D01*
X172405591Y-111877744D01*
X172352085Y-112042415D01*
X172350884Y-112049999D01*
X172350885Y-112050000D01*
X173419670Y-112050000D01*
X173399925Y-112069745D01*
X173350556Y-112155255D01*
X173325000Y-112250630D01*
X173325000Y-112349370D01*
X173350556Y-112444745D01*
X173399925Y-112530255D01*
X173419670Y-112550000D01*
X172350885Y-112550000D01*
X172352085Y-112557584D01*
X172405591Y-112722255D01*
X172484195Y-112876524D01*
X172585967Y-113016602D01*
X172708401Y-113139036D01*
X172791447Y-113199371D01*
X172834114Y-113254701D01*
X172840093Y-113324314D01*
X172807488Y-113386109D01*
X172791450Y-113400007D01*
X172708072Y-113460585D01*
X172585588Y-113583069D01*
X172585588Y-113583070D01*
X172585586Y-113583072D01*
X172561455Y-113616286D01*
X172483768Y-113723211D01*
X172405128Y-113877552D01*
X172351597Y-114042302D01*
X172324500Y-114213389D01*
X172324500Y-114386610D01*
X172348811Y-114540109D01*
X172351598Y-114557701D01*
X172405127Y-114722445D01*
X172483768Y-114876788D01*
X172585586Y-115016928D01*
X172708072Y-115139414D01*
X172848212Y-115241232D01*
X173002555Y-115319873D01*
X173167299Y-115373402D01*
X173338389Y-115400500D01*
X173338390Y-115400500D01*
X174061610Y-115400500D01*
X174061611Y-115400500D01*
X174232701Y-115373402D01*
X174397445Y-115319873D01*
X174551788Y-115241232D01*
X174691928Y-115139414D01*
X174814414Y-115016928D01*
X174916232Y-114876788D01*
X174994873Y-114722445D01*
X175048402Y-114557701D01*
X175075500Y-114386611D01*
X175075500Y-114213389D01*
X175048402Y-114042299D01*
X174994873Y-113877555D01*
X174916232Y-113723212D01*
X174814414Y-113583072D01*
X174691928Y-113460586D01*
X174608550Y-113400008D01*
X174565885Y-113344677D01*
X174559906Y-113275064D01*
X174592512Y-113213269D01*
X174608552Y-113199371D01*
X174691598Y-113139036D01*
X174814032Y-113016602D01*
X174915804Y-112876524D01*
X174994408Y-112722255D01*
X175047914Y-112557584D01*
X175049115Y-112550000D01*
X173980330Y-112550000D01*
X174000075Y-112530255D01*
X174049444Y-112444745D01*
X174075000Y-112349370D01*
X174075000Y-112250630D01*
X174049444Y-112155255D01*
X174000075Y-112069745D01*
X173980330Y-112050000D01*
X175049115Y-112050000D01*
X175049115Y-112049999D01*
X175047914Y-112042415D01*
X174994408Y-111877744D01*
X174915804Y-111723475D01*
X174814032Y-111583397D01*
X174706434Y-111475799D01*
X174672949Y-111414476D01*
X174677933Y-111344784D01*
X174719805Y-111288851D01*
X174728995Y-111282594D01*
X174793656Y-111242712D01*
X174917712Y-111118656D01*
X175009814Y-110969334D01*
X175064999Y-110802797D01*
X175075500Y-110700009D01*
X175075499Y-109899992D01*
X175064999Y-109797203D01*
X175009814Y-109630666D01*
X174917712Y-109481344D01*
X174793656Y-109357288D01*
X174651367Y-109269524D01*
X174644336Y-109265187D01*
X174644331Y-109265185D01*
X174642862Y-109264698D01*
X174477797Y-109210001D01*
X174477795Y-109210000D01*
X174375010Y-109199500D01*
X173024998Y-109199500D01*
X173024981Y-109199501D01*
X172922203Y-109210000D01*
X172922200Y-109210001D01*
X172755668Y-109265185D01*
X172755663Y-109265187D01*
X172606342Y-109357289D01*
X172482289Y-109481342D01*
X172390187Y-109630663D01*
X172390186Y-109630666D01*
X172335001Y-109797203D01*
X172335001Y-109797204D01*
X172335000Y-109797204D01*
X172331708Y-109829434D01*
X172305311Y-109894125D01*
X172248130Y-109934276D01*
X172178319Y-109937139D01*
X172118043Y-109901804D01*
X172098991Y-109875282D01*
X172098012Y-109873451D01*
X171999464Y-109725965D01*
X171999461Y-109725961D01*
X171874038Y-109600538D01*
X171874034Y-109600535D01*
X171726553Y-109501990D01*
X171726540Y-109501983D01*
X171562667Y-109434106D01*
X171562658Y-109434103D01*
X171388694Y-109399500D01*
X171388691Y-109399500D01*
X171211309Y-109399500D01*
X171211306Y-109399500D01*
X171037341Y-109434103D01*
X171037332Y-109434106D01*
X170873459Y-109501983D01*
X170873446Y-109501990D01*
X170725965Y-109600535D01*
X170725961Y-109600538D01*
X170600538Y-109725961D01*
X170600535Y-109725965D01*
X170501990Y-109873446D01*
X170501983Y-109873459D01*
X170434106Y-110037332D01*
X170434103Y-110037341D01*
X170399500Y-110211304D01*
X151480608Y-110211304D01*
X151465896Y-110137341D01*
X151465893Y-110137332D01*
X151398016Y-109973459D01*
X151398009Y-109973446D01*
X151299464Y-109825965D01*
X151299461Y-109825961D01*
X151250121Y-109776621D01*
X151216636Y-109715298D01*
X151221620Y-109645606D01*
X151263492Y-109589673D01*
X151281505Y-109578457D01*
X151307816Y-109565051D01*
X151307815Y-109565051D01*
X151307818Y-109565050D01*
X151479786Y-109440109D01*
X151479788Y-109440106D01*
X151479792Y-109440104D01*
X151630104Y-109289792D01*
X151630106Y-109289788D01*
X151630109Y-109289786D01*
X151755048Y-109117820D01*
X151755047Y-109117820D01*
X151755051Y-109117816D01*
X151851557Y-108928412D01*
X151917246Y-108726243D01*
X151950500Y-108516287D01*
X151950500Y-108303713D01*
X151917246Y-108093757D01*
X151851557Y-107891588D01*
X151755051Y-107702184D01*
X151755049Y-107702181D01*
X151755048Y-107702179D01*
X151630109Y-107530213D01*
X151479786Y-107379890D01*
X151307820Y-107254951D01*
X151307115Y-107254591D01*
X151299054Y-107250485D01*
X151248259Y-107202512D01*
X151231463Y-107134692D01*
X151253999Y-107068556D01*
X151299054Y-107029515D01*
X151307816Y-107025051D01*
X151329789Y-107009086D01*
X151479786Y-106900109D01*
X151479788Y-106900106D01*
X151479792Y-106900104D01*
X151630104Y-106749792D01*
X151630106Y-106749788D01*
X151630109Y-106749786D01*
X151755048Y-106577820D01*
X151755047Y-106577820D01*
X151755051Y-106577816D01*
X151851557Y-106388412D01*
X151917246Y-106186243D01*
X151950500Y-105976287D01*
X151950500Y-105763713D01*
X151917246Y-105553757D01*
X151851557Y-105351588D01*
X151755051Y-105162184D01*
X151755049Y-105162181D01*
X151755048Y-105162179D01*
X151630109Y-104990213D01*
X151479786Y-104839890D01*
X151307820Y-104714951D01*
X151307115Y-104714591D01*
X151299054Y-104710485D01*
X151248259Y-104662512D01*
X151231463Y-104594692D01*
X151253999Y-104528556D01*
X151299054Y-104489515D01*
X151307816Y-104485051D01*
X151329789Y-104469086D01*
X151479786Y-104360109D01*
X151479788Y-104360106D01*
X151479792Y-104360104D01*
X151630104Y-104209792D01*
X151630106Y-104209788D01*
X151630109Y-104209786D01*
X151755048Y-104037820D01*
X151755047Y-104037820D01*
X151755051Y-104037816D01*
X151851557Y-103848412D01*
X151917246Y-103646243D01*
X151950500Y-103436287D01*
X151950500Y-103223713D01*
X151917246Y-103013757D01*
X151851557Y-102811588D01*
X151755051Y-102622184D01*
X151755050Y-102622182D01*
X151747147Y-102611304D01*
X161799500Y-102611304D01*
X161799500Y-102788695D01*
X161834103Y-102962658D01*
X161834106Y-102962667D01*
X161901983Y-103126540D01*
X161901990Y-103126553D01*
X162000535Y-103274034D01*
X162000538Y-103274038D01*
X162125961Y-103399461D01*
X162125965Y-103399464D01*
X162273446Y-103498009D01*
X162273459Y-103498016D01*
X162396363Y-103548923D01*
X162437334Y-103565894D01*
X162437336Y-103565894D01*
X162437341Y-103565896D01*
X162611304Y-103600499D01*
X162611307Y-103600500D01*
X162611309Y-103600500D01*
X162788693Y-103600500D01*
X162788694Y-103600499D01*
X162846682Y-103588964D01*
X162962658Y-103565896D01*
X162962661Y-103565894D01*
X162962666Y-103565894D01*
X163126547Y-103498013D01*
X163274035Y-103399464D01*
X163399464Y-103274035D01*
X163498013Y-103126547D01*
X163565894Y-102962666D01*
X163600500Y-102788691D01*
X163600500Y-102611309D01*
X163600500Y-102611306D01*
X163600499Y-102611304D01*
X163565896Y-102437341D01*
X163565893Y-102437332D01*
X163558593Y-102419709D01*
X163533399Y-102358884D01*
X163498016Y-102273459D01*
X163498009Y-102273446D01*
X163399464Y-102125965D01*
X163399461Y-102125961D01*
X163274038Y-102000538D01*
X163274034Y-102000535D01*
X163126553Y-101901990D01*
X163126540Y-101901983D01*
X162962667Y-101834106D01*
X162962658Y-101834103D01*
X162788694Y-101799500D01*
X162788691Y-101799500D01*
X162611309Y-101799500D01*
X162611306Y-101799500D01*
X162437341Y-101834103D01*
X162437332Y-101834106D01*
X162273459Y-101901983D01*
X162273446Y-101901990D01*
X162125965Y-102000535D01*
X162125961Y-102000538D01*
X162000538Y-102125961D01*
X162000535Y-102125965D01*
X161901990Y-102273446D01*
X161901983Y-102273459D01*
X161834106Y-102437332D01*
X161834103Y-102437341D01*
X161799500Y-102611304D01*
X151747147Y-102611304D01*
X151630109Y-102450213D01*
X151516181Y-102336285D01*
X151482696Y-102274962D01*
X151487680Y-102205270D01*
X151529552Y-102149337D01*
X151560529Y-102132422D01*
X151692086Y-102083354D01*
X151692093Y-102083350D01*
X151807187Y-101997190D01*
X151807190Y-101997187D01*
X151893350Y-101882093D01*
X151893354Y-101882086D01*
X151943596Y-101747379D01*
X151943598Y-101747372D01*
X151949999Y-101687844D01*
X151950000Y-101687827D01*
X151950000Y-101040000D01*
X151033012Y-101040000D01*
X151065925Y-100982993D01*
X151100000Y-100855826D01*
X151100000Y-100724174D01*
X151065925Y-100597007D01*
X151033012Y-100540000D01*
X151950000Y-100540000D01*
X151950000Y-99892172D01*
X151949999Y-99892155D01*
X151943598Y-99832627D01*
X151943596Y-99832620D01*
X151893354Y-99697913D01*
X151893350Y-99697906D01*
X151807190Y-99582812D01*
X151807187Y-99582809D01*
X151692093Y-99496649D01*
X151692086Y-99496645D01*
X151557379Y-99446403D01*
X151557372Y-99446401D01*
X151497844Y-99440000D01*
X150850000Y-99440000D01*
X150850000Y-100356988D01*
X150792993Y-100324075D01*
X150665826Y-100290000D01*
X150534174Y-100290000D01*
X150407007Y-100324075D01*
X150350000Y-100356988D01*
X150350000Y-99440000D01*
X149702155Y-99440000D01*
X149642627Y-99446401D01*
X149642620Y-99446403D01*
X149507913Y-99496645D01*
X149507906Y-99496649D01*
X149392812Y-99582809D01*
X149392809Y-99582812D01*
X149306649Y-99697906D01*
X149306645Y-99697913D01*
X149256403Y-99832620D01*
X149256401Y-99832627D01*
X149250000Y-99892155D01*
X149250000Y-100540000D01*
X150166988Y-100540000D01*
X150134075Y-100597007D01*
X150100000Y-100724174D01*
X150100000Y-100855826D01*
X150134075Y-100982993D01*
X150166988Y-101040000D01*
X149250000Y-101040000D01*
X149250000Y-101687844D01*
X149256401Y-101747372D01*
X149256403Y-101747379D01*
X149306645Y-101882086D01*
X149306649Y-101882093D01*
X149392809Y-101997187D01*
X149392812Y-101997190D01*
X149507906Y-102083350D01*
X149507913Y-102083354D01*
X149639470Y-102132422D01*
X149695404Y-102174293D01*
X149719821Y-102239758D01*
X149704969Y-102308031D01*
X149683819Y-102336285D01*
X149569889Y-102450215D01*
X149444951Y-102622179D01*
X149348444Y-102811585D01*
X149282753Y-103013760D01*
X149249500Y-103223713D01*
X116750500Y-103223713D01*
X116750500Y-101721153D01*
X119249500Y-101721153D01*
X119249500Y-101878846D01*
X119280261Y-102033489D01*
X119280264Y-102033501D01*
X119340602Y-102179172D01*
X119340609Y-102179185D01*
X119428210Y-102310288D01*
X119428213Y-102310292D01*
X119539707Y-102421786D01*
X119539711Y-102421789D01*
X119670814Y-102509390D01*
X119670827Y-102509397D01*
X119816498Y-102569735D01*
X119816503Y-102569737D01*
X119971153Y-102600499D01*
X119971156Y-102600500D01*
X119971158Y-102600500D01*
X120128844Y-102600500D01*
X120128845Y-102600499D01*
X120283497Y-102569737D01*
X120429179Y-102509394D01*
X120560289Y-102421789D01*
X120671789Y-102310289D01*
X120759394Y-102179179D01*
X120819737Y-102033497D01*
X120850500Y-101878842D01*
X120850500Y-101822418D01*
X120870185Y-101755379D01*
X120922989Y-101709624D01*
X120992147Y-101699680D01*
X121055703Y-101728705D01*
X121084984Y-101766122D01*
X121130476Y-101855405D01*
X121246172Y-102014646D01*
X121385354Y-102153828D01*
X121544595Y-102269524D01*
X121604204Y-102299896D01*
X121719970Y-102358882D01*
X121719972Y-102358882D01*
X121719975Y-102358884D01*
X121775078Y-102376788D01*
X121907173Y-102419709D01*
X122101578Y-102450500D01*
X122101583Y-102450500D01*
X123098422Y-102450500D01*
X123292826Y-102419709D01*
X123480025Y-102358884D01*
X123655405Y-102269524D01*
X123814646Y-102153828D01*
X123953828Y-102014646D01*
X124069524Y-101855405D01*
X124158884Y-101680025D01*
X124219709Y-101492826D01*
X124250500Y-101298422D01*
X124250500Y-101101577D01*
X125949500Y-101101577D01*
X125949500Y-101298422D01*
X125980290Y-101492826D01*
X126041117Y-101680029D01*
X126101991Y-101799500D01*
X126130476Y-101855405D01*
X126246172Y-102014646D01*
X126385354Y-102153828D01*
X126544595Y-102269524D01*
X126604204Y-102299896D01*
X126719970Y-102358882D01*
X126719972Y-102358882D01*
X126719975Y-102358884D01*
X126775078Y-102376788D01*
X126907173Y-102419709D01*
X127101578Y-102450500D01*
X127101583Y-102450500D01*
X128098422Y-102450500D01*
X128292826Y-102419709D01*
X128480025Y-102358884D01*
X128655405Y-102269524D01*
X128814646Y-102153828D01*
X128953828Y-102014646D01*
X129069524Y-101855405D01*
X129158884Y-101680025D01*
X129219709Y-101492826D01*
X129250500Y-101298422D01*
X129250500Y-101101577D01*
X129219709Y-100907173D01*
X129176884Y-100775374D01*
X129158884Y-100719975D01*
X129158882Y-100719972D01*
X129158882Y-100719970D01*
X129087145Y-100579179D01*
X129069524Y-100544595D01*
X128953828Y-100385354D01*
X128814646Y-100246172D01*
X128655405Y-100130476D01*
X128637117Y-100121158D01*
X128480029Y-100041117D01*
X128292826Y-99980290D01*
X128098422Y-99949500D01*
X128098417Y-99949500D01*
X127101583Y-99949500D01*
X127101578Y-99949500D01*
X126907173Y-99980290D01*
X126719970Y-100041117D01*
X126544594Y-100130476D01*
X126453741Y-100196485D01*
X126385354Y-100246172D01*
X126385352Y-100246174D01*
X126385351Y-100246174D01*
X126246174Y-100385351D01*
X126246174Y-100385352D01*
X126246172Y-100385354D01*
X126211200Y-100433489D01*
X126130476Y-100544594D01*
X126041117Y-100719970D01*
X125980290Y-100907173D01*
X125949500Y-101101577D01*
X124250500Y-101101577D01*
X124219709Y-100907173D01*
X124176884Y-100775374D01*
X124158884Y-100719975D01*
X124158882Y-100719972D01*
X124158882Y-100719970D01*
X124087145Y-100579179D01*
X124069524Y-100544595D01*
X123953828Y-100385354D01*
X123814646Y-100246172D01*
X123655405Y-100130476D01*
X123637117Y-100121158D01*
X123480029Y-100041117D01*
X123292826Y-99980290D01*
X123098422Y-99949500D01*
X123098417Y-99949500D01*
X122101583Y-99949500D01*
X122101578Y-99949500D01*
X121907173Y-99980290D01*
X121719970Y-100041117D01*
X121544594Y-100130476D01*
X121453741Y-100196485D01*
X121385354Y-100246172D01*
X121385352Y-100246174D01*
X121385351Y-100246174D01*
X121246174Y-100385351D01*
X121246174Y-100385352D01*
X121246172Y-100385354D01*
X121211200Y-100433489D01*
X121130476Y-100544594D01*
X121041117Y-100719970D01*
X120980290Y-100907173D01*
X120949500Y-101101577D01*
X120949500Y-101296560D01*
X120929815Y-101363599D01*
X120877011Y-101409354D01*
X120807853Y-101419298D01*
X120744297Y-101390273D01*
X120722398Y-101365451D01*
X120671789Y-101289711D01*
X120671786Y-101289707D01*
X120560292Y-101178213D01*
X120560288Y-101178210D01*
X120429185Y-101090609D01*
X120429172Y-101090602D01*
X120283501Y-101030264D01*
X120283489Y-101030261D01*
X120128845Y-100999500D01*
X120128842Y-100999500D01*
X119971158Y-100999500D01*
X119971155Y-100999500D01*
X119816510Y-101030261D01*
X119816498Y-101030264D01*
X119670827Y-101090602D01*
X119670814Y-101090609D01*
X119539711Y-101178210D01*
X119539707Y-101178213D01*
X119428213Y-101289707D01*
X119428210Y-101289711D01*
X119340609Y-101420814D01*
X119340602Y-101420827D01*
X119280264Y-101566498D01*
X119280261Y-101566510D01*
X119249500Y-101721153D01*
X116750500Y-101721153D01*
X116750500Y-100121153D01*
X117349500Y-100121153D01*
X117349500Y-100278846D01*
X117380261Y-100433489D01*
X117380264Y-100433501D01*
X117440602Y-100579172D01*
X117440609Y-100579185D01*
X117528210Y-100710288D01*
X117528213Y-100710292D01*
X117639707Y-100821786D01*
X117639711Y-100821789D01*
X117770814Y-100909390D01*
X117770827Y-100909397D01*
X117894398Y-100960581D01*
X117916503Y-100969737D01*
X118066131Y-100999500D01*
X118071153Y-101000499D01*
X118071156Y-101000500D01*
X118071158Y-101000500D01*
X118228844Y-101000500D01*
X118228845Y-101000499D01*
X118383497Y-100969737D01*
X118529179Y-100909394D01*
X118660289Y-100821789D01*
X118771789Y-100710289D01*
X118859394Y-100579179D01*
X118919737Y-100433497D01*
X118950500Y-100278842D01*
X118950500Y-100121158D01*
X118950500Y-100121155D01*
X118950499Y-100121153D01*
X118919737Y-99966503D01*
X118892398Y-99900500D01*
X118859397Y-99820827D01*
X118859390Y-99820814D01*
X118771789Y-99689711D01*
X118771786Y-99689707D01*
X118660292Y-99578213D01*
X118660288Y-99578210D01*
X118529185Y-99490609D01*
X118529172Y-99490602D01*
X118383501Y-99430264D01*
X118383489Y-99430261D01*
X118228845Y-99399500D01*
X118228842Y-99399500D01*
X118071158Y-99399500D01*
X118071155Y-99399500D01*
X117916510Y-99430261D01*
X117916498Y-99430264D01*
X117770827Y-99490602D01*
X117770814Y-99490609D01*
X117639711Y-99578210D01*
X117639707Y-99578213D01*
X117528213Y-99689707D01*
X117528210Y-99689711D01*
X117440609Y-99820814D01*
X117440602Y-99820827D01*
X117380264Y-99966498D01*
X117380261Y-99966510D01*
X117349500Y-100121153D01*
X116750500Y-100121153D01*
X116750500Y-97149984D01*
X120949500Y-97149984D01*
X120949500Y-98250015D01*
X120960000Y-98352795D01*
X120960001Y-98352796D01*
X121015186Y-98519335D01*
X121015187Y-98519337D01*
X121107286Y-98668651D01*
X121107289Y-98668655D01*
X121231344Y-98792710D01*
X121231348Y-98792713D01*
X121380662Y-98884812D01*
X121380664Y-98884813D01*
X121380666Y-98884814D01*
X121547203Y-98939999D01*
X121649992Y-98950500D01*
X121649997Y-98950500D01*
X123550003Y-98950500D01*
X123550008Y-98950500D01*
X123652797Y-98939999D01*
X123819334Y-98884814D01*
X123968655Y-98792711D01*
X124092711Y-98668655D01*
X124184814Y-98519334D01*
X124239999Y-98352797D01*
X124250500Y-98250008D01*
X124250500Y-97149992D01*
X124239999Y-97047203D01*
X124191928Y-96902135D01*
X125949500Y-96902135D01*
X125949500Y-98497870D01*
X125949501Y-98497876D01*
X125955908Y-98557483D01*
X126006202Y-98692328D01*
X126006206Y-98692335D01*
X126092452Y-98807544D01*
X126092455Y-98807547D01*
X126207664Y-98893793D01*
X126207671Y-98893797D01*
X126342517Y-98944091D01*
X126342516Y-98944091D01*
X126349444Y-98944835D01*
X126402127Y-98950500D01*
X128797872Y-98950499D01*
X128857483Y-98944091D01*
X128992331Y-98893796D01*
X129107546Y-98807546D01*
X129193796Y-98692331D01*
X129244091Y-98557483D01*
X129250500Y-98497873D01*
X129250500Y-98281947D01*
X139400000Y-98281947D01*
X139400000Y-98518052D01*
X139436934Y-98751247D01*
X139509897Y-98975802D01*
X139617087Y-99186174D01*
X139677338Y-99269104D01*
X139677340Y-99269105D01*
X140417037Y-98529408D01*
X140434075Y-98592993D01*
X140499901Y-98707007D01*
X140592993Y-98800099D01*
X140707007Y-98865925D01*
X140770590Y-98882962D01*
X140030893Y-99622658D01*
X140113828Y-99682914D01*
X140324197Y-99790102D01*
X140548752Y-99863065D01*
X140548751Y-99863065D01*
X140781948Y-99900000D01*
X141018052Y-99900000D01*
X141251247Y-99863065D01*
X141475802Y-99790102D01*
X141686163Y-99682918D01*
X141686169Y-99682914D01*
X141769104Y-99622658D01*
X141769105Y-99622658D01*
X141029408Y-98882962D01*
X141092993Y-98865925D01*
X141207007Y-98800099D01*
X141300099Y-98707007D01*
X141365925Y-98592993D01*
X141382962Y-98529409D01*
X142122658Y-99269105D01*
X142122658Y-99269104D01*
X142182914Y-99186169D01*
X142182918Y-99186163D01*
X142290102Y-98975802D01*
X142363065Y-98751247D01*
X142400000Y-98518052D01*
X142400000Y-98281947D01*
X142363065Y-98048752D01*
X142290102Y-97824197D01*
X142202939Y-97653129D01*
X142202938Y-97653127D01*
X142182916Y-97613830D01*
X142172855Y-97599983D01*
X144399500Y-97599983D01*
X144399500Y-99200001D01*
X144399501Y-99200018D01*
X144410000Y-99302796D01*
X144410001Y-99302799D01*
X144465185Y-99469331D01*
X144465187Y-99469336D01*
X144478308Y-99490609D01*
X144557288Y-99618656D01*
X144681344Y-99742712D01*
X144830666Y-99834814D01*
X144997203Y-99889999D01*
X145099991Y-99900500D01*
X146700008Y-99900499D01*
X146802797Y-99889999D01*
X146969334Y-99834814D01*
X147118656Y-99742712D01*
X147242712Y-99618656D01*
X147334814Y-99469334D01*
X147389999Y-99302797D01*
X147400500Y-99200009D01*
X147400499Y-97599992D01*
X147393440Y-97530893D01*
X147389999Y-97497203D01*
X147389998Y-97497200D01*
X147369665Y-97435838D01*
X147357783Y-97399983D01*
X178024500Y-97399983D01*
X178024500Y-98200001D01*
X178024501Y-98200019D01*
X178035000Y-98302796D01*
X178035001Y-98302799D01*
X178067211Y-98400000D01*
X178090186Y-98469334D01*
X178182288Y-98618656D01*
X178306344Y-98742712D01*
X178370543Y-98782310D01*
X178417268Y-98834258D01*
X178428489Y-98903221D01*
X178400646Y-98967303D01*
X178393128Y-98975530D01*
X178285585Y-99083073D01*
X178183768Y-99223211D01*
X178105128Y-99377552D01*
X178051597Y-99542302D01*
X178045181Y-99582812D01*
X178024500Y-99713389D01*
X178024500Y-99886611D01*
X178051598Y-100057701D01*
X178105127Y-100222445D01*
X178183768Y-100376788D01*
X178285586Y-100516928D01*
X178408072Y-100639414D01*
X178408078Y-100639418D01*
X178491023Y-100699683D01*
X178533689Y-100755013D01*
X178539667Y-100824626D01*
X178507061Y-100886421D01*
X178491023Y-100900317D01*
X178408078Y-100960581D01*
X178408069Y-100960588D01*
X178285588Y-101083069D01*
X178285588Y-101083070D01*
X178285586Y-101083072D01*
X178272137Y-101101583D01*
X178183768Y-101223211D01*
X178105128Y-101377552D01*
X178051597Y-101542302D01*
X178024500Y-101713389D01*
X178024500Y-101886610D01*
X178042013Y-101997187D01*
X178051598Y-102057701D01*
X178105127Y-102222445D01*
X178183768Y-102376788D01*
X178285586Y-102516928D01*
X178408072Y-102639414D01*
X178548212Y-102741232D01*
X178702555Y-102819873D01*
X178867299Y-102873402D01*
X179038389Y-102900500D01*
X179038390Y-102900500D01*
X179761610Y-102900500D01*
X179761611Y-102900500D01*
X179932701Y-102873402D01*
X180097445Y-102819873D01*
X180251788Y-102741232D01*
X180391928Y-102639414D01*
X180514414Y-102516928D01*
X180616232Y-102376788D01*
X180694873Y-102222445D01*
X180748402Y-102057701D01*
X180775500Y-101886611D01*
X180775500Y-101713389D01*
X180748402Y-101542299D01*
X180694873Y-101377555D01*
X180616232Y-101223212D01*
X180514414Y-101083072D01*
X180391928Y-100960586D01*
X180308975Y-100900317D01*
X180266311Y-100844988D01*
X180260332Y-100775374D01*
X180292938Y-100713579D01*
X180308976Y-100699682D01*
X180391928Y-100639414D01*
X180514414Y-100516928D01*
X180616232Y-100376788D01*
X180694873Y-100222445D01*
X180748402Y-100057701D01*
X180775500Y-99886611D01*
X180775500Y-99713389D01*
X180748402Y-99542299D01*
X180694873Y-99377555D01*
X180616232Y-99223212D01*
X180514414Y-99083072D01*
X180406872Y-98975530D01*
X180373387Y-98914207D01*
X180378371Y-98844515D01*
X180420243Y-98788582D01*
X180429457Y-98782310D01*
X180493656Y-98742712D01*
X180617712Y-98618656D01*
X180709814Y-98469334D01*
X180764999Y-98302797D01*
X180775500Y-98200009D01*
X180775499Y-97399992D01*
X180768417Y-97330668D01*
X180764999Y-97297203D01*
X180764998Y-97297200D01*
X180725280Y-97177340D01*
X180709814Y-97130666D01*
X180617712Y-96981344D01*
X180493656Y-96857288D01*
X180344334Y-96765186D01*
X180177797Y-96710001D01*
X180177795Y-96710000D01*
X180075010Y-96699500D01*
X178724998Y-96699500D01*
X178724981Y-96699501D01*
X178622203Y-96710000D01*
X178622200Y-96710001D01*
X178455668Y-96765185D01*
X178455663Y-96765187D01*
X178306342Y-96857289D01*
X178182289Y-96981342D01*
X178090187Y-97130663D01*
X178090185Y-97130668D01*
X178073393Y-97181344D01*
X178035001Y-97297203D01*
X178035001Y-97297204D01*
X178035000Y-97297204D01*
X178024500Y-97399983D01*
X147357783Y-97399983D01*
X147357782Y-97399980D01*
X147334814Y-97330666D01*
X147242712Y-97181344D01*
X147118656Y-97057288D01*
X147025888Y-97000069D01*
X146969336Y-96965187D01*
X146969331Y-96965185D01*
X146967862Y-96964698D01*
X146802797Y-96910001D01*
X146802795Y-96910000D01*
X146700010Y-96899500D01*
X145099998Y-96899500D01*
X145099981Y-96899501D01*
X144997203Y-96910000D01*
X144997200Y-96910001D01*
X144830668Y-96965185D01*
X144830663Y-96965187D01*
X144681342Y-97057289D01*
X144557289Y-97181342D01*
X144465187Y-97330663D01*
X144465186Y-97330666D01*
X144410001Y-97497203D01*
X144410001Y-97497204D01*
X144410000Y-97497204D01*
X144399500Y-97599983D01*
X142172855Y-97599983D01*
X142122658Y-97530894D01*
X142122658Y-97530893D01*
X141382962Y-98270590D01*
X141365925Y-98207007D01*
X141300099Y-98092993D01*
X141207007Y-97999901D01*
X141092993Y-97934075D01*
X141029409Y-97917037D01*
X141769105Y-97177340D01*
X141769104Y-97177338D01*
X141686174Y-97117087D01*
X141475802Y-97009897D01*
X141251247Y-96936934D01*
X141251248Y-96936934D01*
X141018052Y-96900000D01*
X140781948Y-96900000D01*
X140548752Y-96936934D01*
X140324197Y-97009897D01*
X140113830Y-97117084D01*
X140030894Y-97177340D01*
X140770591Y-97917037D01*
X140707007Y-97934075D01*
X140592993Y-97999901D01*
X140499901Y-98092993D01*
X140434075Y-98207007D01*
X140417037Y-98270590D01*
X139677340Y-97530894D01*
X139617084Y-97613830D01*
X139509897Y-97824197D01*
X139436934Y-98048752D01*
X139400000Y-98281947D01*
X129250500Y-98281947D01*
X129250499Y-96902128D01*
X129244091Y-96842517D01*
X129215248Y-96765186D01*
X129193797Y-96707671D01*
X129193793Y-96707664D01*
X129107547Y-96592455D01*
X129107544Y-96592452D01*
X128992335Y-96506206D01*
X128992328Y-96506202D01*
X128857482Y-96455908D01*
X128857483Y-96455908D01*
X128797883Y-96449501D01*
X128797881Y-96449500D01*
X128797873Y-96449500D01*
X128797864Y-96449500D01*
X126402129Y-96449500D01*
X126402123Y-96449501D01*
X126342516Y-96455908D01*
X126207671Y-96506202D01*
X126207664Y-96506206D01*
X126092455Y-96592452D01*
X126092452Y-96592455D01*
X126006206Y-96707664D01*
X126006202Y-96707671D01*
X125955908Y-96842517D01*
X125949501Y-96902116D01*
X125949501Y-96902123D01*
X125949500Y-96902135D01*
X124191928Y-96902135D01*
X124184814Y-96880666D01*
X124170394Y-96857288D01*
X124092713Y-96731348D01*
X124092710Y-96731344D01*
X123968655Y-96607289D01*
X123968651Y-96607286D01*
X123819337Y-96515187D01*
X123819335Y-96515186D01*
X123736065Y-96487593D01*
X123652797Y-96460001D01*
X123652795Y-96460000D01*
X123550015Y-96449500D01*
X123550008Y-96449500D01*
X121649992Y-96449500D01*
X121649984Y-96449500D01*
X121547204Y-96460000D01*
X121547203Y-96460001D01*
X121380664Y-96515186D01*
X121380662Y-96515187D01*
X121231348Y-96607286D01*
X121231344Y-96607289D01*
X121107289Y-96731344D01*
X121107286Y-96731348D01*
X121015187Y-96880662D01*
X121015186Y-96880664D01*
X120960001Y-97047203D01*
X120960000Y-97047204D01*
X120949500Y-97149984D01*
X116750500Y-97149984D01*
X116750500Y-91671153D01*
X118699500Y-91671153D01*
X118699500Y-91828846D01*
X118730261Y-91983489D01*
X118730264Y-91983501D01*
X118790602Y-92129172D01*
X118790609Y-92129185D01*
X118878210Y-92260288D01*
X118878213Y-92260292D01*
X118989707Y-92371786D01*
X118989711Y-92371789D01*
X119120814Y-92459390D01*
X119120827Y-92459397D01*
X119266498Y-92519735D01*
X119266503Y-92519737D01*
X119421153Y-92550499D01*
X119421156Y-92550500D01*
X119421158Y-92550500D01*
X119578844Y-92550500D01*
X119578845Y-92550499D01*
X119733497Y-92519737D01*
X119879179Y-92459394D01*
X120010289Y-92371789D01*
X120121789Y-92260289D01*
X120209394Y-92129179D01*
X120269737Y-91983497D01*
X120300500Y-91828842D01*
X120300500Y-91671158D01*
X120296031Y-91648691D01*
X120302257Y-91579101D01*
X120345119Y-91523923D01*
X120411009Y-91500677D01*
X120417648Y-91500499D01*
X121032352Y-91500499D01*
X121099391Y-91520184D01*
X121145146Y-91572988D01*
X121155090Y-91642146D01*
X121153969Y-91648692D01*
X121149500Y-91671157D01*
X121149500Y-91828846D01*
X121180261Y-91983489D01*
X121180264Y-91983501D01*
X121240602Y-92129172D01*
X121240609Y-92129185D01*
X121328210Y-92260288D01*
X121328213Y-92260292D01*
X121439707Y-92371786D01*
X121439711Y-92371789D01*
X121570814Y-92459390D01*
X121570827Y-92459397D01*
X121716498Y-92519735D01*
X121716503Y-92519737D01*
X121871153Y-92550499D01*
X121871156Y-92550500D01*
X121871158Y-92550500D01*
X122028844Y-92550500D01*
X122028845Y-92550499D01*
X122183497Y-92519737D01*
X122329179Y-92459394D01*
X122460289Y-92371789D01*
X122557095Y-92274983D01*
X148939146Y-92274983D01*
X148939146Y-93875001D01*
X148939147Y-93875018D01*
X148949646Y-93977796D01*
X148949647Y-93977799D01*
X149004831Y-94144331D01*
X149004832Y-94144334D01*
X149096934Y-94293656D01*
X149220990Y-94417712D01*
X149370312Y-94509814D01*
X149536849Y-94564999D01*
X149639637Y-94575500D01*
X151239654Y-94575499D01*
X151342443Y-94564999D01*
X151508980Y-94509814D01*
X151658302Y-94417712D01*
X151782358Y-94293656D01*
X151874460Y-94144334D01*
X151929645Y-93977797D01*
X151940146Y-93875009D01*
X151940145Y-92956947D01*
X153939646Y-92956947D01*
X153939646Y-93193052D01*
X153976580Y-93426247D01*
X154049543Y-93650802D01*
X154156733Y-93861174D01*
X154216984Y-93944104D01*
X154216986Y-93944105D01*
X154956683Y-93204408D01*
X154973721Y-93267993D01*
X155039547Y-93382007D01*
X155132639Y-93475099D01*
X155246653Y-93540925D01*
X155310236Y-93557962D01*
X154570539Y-94297658D01*
X154653474Y-94357914D01*
X154863843Y-94465102D01*
X155088398Y-94538065D01*
X155088397Y-94538065D01*
X155321594Y-94575000D01*
X155557698Y-94575000D01*
X155790893Y-94538065D01*
X156015448Y-94465102D01*
X156225809Y-94357918D01*
X156225815Y-94357914D01*
X156308750Y-94297658D01*
X156308751Y-94297658D01*
X155569054Y-93557962D01*
X155632639Y-93540925D01*
X155746653Y-93475099D01*
X155839745Y-93382007D01*
X155905571Y-93267993D01*
X155922608Y-93204408D01*
X156662304Y-93944105D01*
X156662304Y-93944104D01*
X156722560Y-93861169D01*
X156722564Y-93861163D01*
X156829748Y-93650802D01*
X156902711Y-93426247D01*
X156939646Y-93193052D01*
X156939646Y-92956947D01*
X156902711Y-92723752D01*
X156829748Y-92499197D01*
X156722560Y-92288828D01*
X156662304Y-92205894D01*
X156662304Y-92205893D01*
X155922608Y-92945590D01*
X155905571Y-92882007D01*
X155839745Y-92767993D01*
X155746653Y-92674901D01*
X155632639Y-92609075D01*
X155569055Y-92592037D01*
X156308751Y-91852340D01*
X156308750Y-91852338D01*
X156225820Y-91792087D01*
X156015448Y-91684897D01*
X155790893Y-91611934D01*
X155790894Y-91611934D01*
X155557698Y-91575000D01*
X155321594Y-91575000D01*
X155088398Y-91611934D01*
X154863843Y-91684897D01*
X154653476Y-91792084D01*
X154570540Y-91852340D01*
X155310237Y-92592037D01*
X155246653Y-92609075D01*
X155132639Y-92674901D01*
X155039547Y-92767993D01*
X154973721Y-92882007D01*
X154956683Y-92945591D01*
X154216986Y-92205894D01*
X154156730Y-92288830D01*
X154049543Y-92499197D01*
X153976580Y-92723752D01*
X153939646Y-92956947D01*
X151940145Y-92956947D01*
X151940145Y-92274992D01*
X151933086Y-92205893D01*
X151929645Y-92172203D01*
X151929644Y-92172200D01*
X151915386Y-92129172D01*
X151874460Y-92005666D01*
X151782358Y-91856344D01*
X151658302Y-91732288D01*
X151508980Y-91640186D01*
X151342443Y-91585001D01*
X151342441Y-91585000D01*
X151239656Y-91574500D01*
X149639644Y-91574500D01*
X149639627Y-91574501D01*
X149536849Y-91585000D01*
X149536846Y-91585001D01*
X149370314Y-91640185D01*
X149370309Y-91640187D01*
X149220988Y-91732289D01*
X149096935Y-91856342D01*
X149004833Y-92005663D01*
X149004832Y-92005666D01*
X148949647Y-92172203D01*
X148949647Y-92172204D01*
X148949646Y-92172204D01*
X148939146Y-92274983D01*
X122557095Y-92274983D01*
X122571789Y-92260289D01*
X122608135Y-92205894D01*
X122610107Y-92202943D01*
X122659390Y-92129185D01*
X122659390Y-92129184D01*
X122659394Y-92129179D01*
X122719737Y-91983497D01*
X122750500Y-91828842D01*
X122750500Y-91671158D01*
X122737390Y-91605250D01*
X122743617Y-91535661D01*
X122786479Y-91480483D01*
X122852368Y-91457238D01*
X122893823Y-91462670D01*
X122893885Y-91462414D01*
X122896309Y-91462995D01*
X122897325Y-91463129D01*
X122898628Y-91463552D01*
X122898629Y-91463552D01*
X122898632Y-91463553D01*
X122972427Y-91475240D01*
X123131903Y-91500500D01*
X123131908Y-91500500D01*
X123368097Y-91500500D01*
X123601368Y-91463553D01*
X123604873Y-91462414D01*
X123825992Y-91390568D01*
X124036433Y-91283343D01*
X124227510Y-91144517D01*
X124394517Y-90977510D01*
X124399682Y-90970401D01*
X124455012Y-90927735D01*
X124524625Y-90921756D01*
X124586420Y-90954362D01*
X124600318Y-90970401D01*
X124605483Y-90977510D01*
X124772490Y-91144517D01*
X124963567Y-91283343D01*
X125062991Y-91334002D01*
X125174003Y-91390566D01*
X125174005Y-91390566D01*
X125174008Y-91390568D01*
X125294412Y-91429689D01*
X125398631Y-91463553D01*
X125631903Y-91500500D01*
X125631908Y-91500500D01*
X125868097Y-91500500D01*
X126101368Y-91463553D01*
X126104873Y-91462414D01*
X126325992Y-91390568D01*
X126536433Y-91283343D01*
X126727510Y-91144517D01*
X126894517Y-90977510D01*
X127033343Y-90786433D01*
X127140568Y-90575992D01*
X127213553Y-90351368D01*
X127250500Y-90118097D01*
X127250500Y-89881902D01*
X127213553Y-89648631D01*
X127162206Y-89490602D01*
X127140568Y-89424008D01*
X127140566Y-89424005D01*
X127140566Y-89424003D01*
X127033342Y-89213566D01*
X127023479Y-89199991D01*
X126894517Y-89022490D01*
X126727510Y-88855483D01*
X126536433Y-88716657D01*
X126505728Y-88701012D01*
X126325996Y-88609433D01*
X126198265Y-88567931D01*
X126140590Y-88528493D01*
X126113392Y-88464134D01*
X126125307Y-88395288D01*
X126172551Y-88343812D01*
X126198265Y-88332069D01*
X126325992Y-88290568D01*
X126536433Y-88183343D01*
X126727510Y-88044517D01*
X126894517Y-87877510D01*
X127033343Y-87686433D01*
X127140568Y-87475992D01*
X127213553Y-87251368D01*
X127221768Y-87199500D01*
X127250500Y-87018097D01*
X127250500Y-86781902D01*
X127213553Y-86548631D01*
X127161381Y-86388063D01*
X127140568Y-86324008D01*
X127140566Y-86324005D01*
X127140566Y-86324003D01*
X127082426Y-86209897D01*
X127033343Y-86113567D01*
X126894517Y-85922490D01*
X126824162Y-85852135D01*
X128249500Y-85852135D01*
X128249500Y-87947870D01*
X128249501Y-87947876D01*
X128255908Y-88007483D01*
X128306202Y-88142328D01*
X128306206Y-88142335D01*
X128392452Y-88257544D01*
X128392455Y-88257547D01*
X128507664Y-88343793D01*
X128507671Y-88343797D01*
X128601578Y-88378822D01*
X128657512Y-88420693D01*
X128681929Y-88486157D01*
X128667078Y-88554430D01*
X128623342Y-88600542D01*
X128531347Y-88657285D01*
X128531343Y-88657288D01*
X128407289Y-88781342D01*
X128315187Y-88930663D01*
X128315185Y-88930668D01*
X128311195Y-88942710D01*
X128260001Y-89097203D01*
X128260001Y-89097204D01*
X128260000Y-89097204D01*
X128249500Y-89199983D01*
X128249500Y-90800001D01*
X128249501Y-90800018D01*
X128260000Y-90902796D01*
X128260001Y-90902799D01*
X128294677Y-91007443D01*
X128315186Y-91069334D01*
X128407288Y-91218656D01*
X128531344Y-91342712D01*
X128680666Y-91434814D01*
X128847203Y-91489999D01*
X128949991Y-91500500D01*
X130550008Y-91500499D01*
X130652797Y-91489999D01*
X130819334Y-91434814D01*
X130968656Y-91342712D01*
X131092712Y-91218656D01*
X131109707Y-91191101D01*
X131161650Y-91144378D01*
X131230613Y-91133154D01*
X131288128Y-91155878D01*
X131463567Y-91283343D01*
X131562991Y-91334002D01*
X131674003Y-91390566D01*
X131674005Y-91390566D01*
X131674008Y-91390568D01*
X131794412Y-91429689D01*
X131898631Y-91463553D01*
X132131903Y-91500500D01*
X132131908Y-91500500D01*
X132368097Y-91500500D01*
X132601368Y-91463553D01*
X132604873Y-91462414D01*
X132825992Y-91390568D01*
X133036433Y-91283343D01*
X133227510Y-91144517D01*
X133394517Y-90977510D01*
X133399682Y-90970401D01*
X133455012Y-90927735D01*
X133524625Y-90921756D01*
X133586420Y-90954362D01*
X133600318Y-90970401D01*
X133605483Y-90977510D01*
X133772490Y-91144517D01*
X133963567Y-91283343D01*
X134062991Y-91334002D01*
X134174003Y-91390566D01*
X134174005Y-91390566D01*
X134174008Y-91390568D01*
X134294412Y-91429689D01*
X134398631Y-91463553D01*
X134631903Y-91500500D01*
X134631908Y-91500500D01*
X134868097Y-91500500D01*
X135101368Y-91463553D01*
X135104873Y-91462414D01*
X135325992Y-91390568D01*
X135536433Y-91283343D01*
X135727510Y-91144517D01*
X135894517Y-90977510D01*
X136033343Y-90786433D01*
X136140568Y-90575992D01*
X136213553Y-90351368D01*
X136250016Y-90121153D01*
X162499500Y-90121153D01*
X162499500Y-90278846D01*
X162530261Y-90433489D01*
X162530264Y-90433501D01*
X162590602Y-90579172D01*
X162590609Y-90579185D01*
X162678210Y-90710288D01*
X162678213Y-90710292D01*
X162789707Y-90821786D01*
X162789711Y-90821789D01*
X162920814Y-90909390D01*
X162920827Y-90909397D01*
X162965100Y-90927735D01*
X163066503Y-90969737D01*
X163221153Y-91000499D01*
X163221156Y-91000500D01*
X163221158Y-91000500D01*
X163378844Y-91000500D01*
X163378845Y-91000499D01*
X163533497Y-90969737D01*
X163679179Y-90909394D01*
X163810289Y-90821789D01*
X163921789Y-90710289D01*
X164009394Y-90579179D01*
X164010713Y-90575996D01*
X164069735Y-90433501D01*
X164069737Y-90433497D01*
X164100500Y-90278842D01*
X164100500Y-90121158D01*
X164100500Y-90121155D01*
X164100499Y-90121153D01*
X164069738Y-89966510D01*
X164069737Y-89966503D01*
X164034697Y-89881908D01*
X164009397Y-89820827D01*
X164009390Y-89820814D01*
X163921789Y-89689711D01*
X163921786Y-89689707D01*
X163810292Y-89578213D01*
X163810288Y-89578210D01*
X163679185Y-89490609D01*
X163679172Y-89490602D01*
X163533501Y-89430264D01*
X163533489Y-89430261D01*
X163378845Y-89399500D01*
X163378842Y-89399500D01*
X163221158Y-89399500D01*
X163221155Y-89399500D01*
X163066510Y-89430261D01*
X163066498Y-89430264D01*
X162920827Y-89490602D01*
X162920814Y-89490609D01*
X162789711Y-89578210D01*
X162789707Y-89578213D01*
X162678213Y-89689707D01*
X162678210Y-89689711D01*
X162590609Y-89820814D01*
X162590602Y-89820827D01*
X162530264Y-89966498D01*
X162530261Y-89966510D01*
X162499500Y-90121153D01*
X136250016Y-90121153D01*
X136250500Y-90118097D01*
X136250500Y-89881902D01*
X136213553Y-89648631D01*
X136162206Y-89490602D01*
X136140568Y-89424008D01*
X136140566Y-89424005D01*
X136140566Y-89424003D01*
X136033342Y-89213566D01*
X136023479Y-89199991D01*
X135894517Y-89022490D01*
X135727510Y-88855483D01*
X135536433Y-88716657D01*
X135505728Y-88701012D01*
X135325996Y-88609433D01*
X135198265Y-88567931D01*
X135140590Y-88528493D01*
X135113392Y-88464134D01*
X135125307Y-88395288D01*
X135172551Y-88343812D01*
X135198265Y-88332069D01*
X135325992Y-88290568D01*
X135536433Y-88183343D01*
X135727510Y-88044517D01*
X135894517Y-87877510D01*
X136033343Y-87686433D01*
X136137534Y-87481947D01*
X139300000Y-87481947D01*
X139300000Y-87718052D01*
X139336934Y-87951247D01*
X139409897Y-88175802D01*
X139517087Y-88386174D01*
X139577338Y-88469104D01*
X139577340Y-88469105D01*
X140317037Y-87729408D01*
X140334075Y-87792993D01*
X140399901Y-87907007D01*
X140492993Y-88000099D01*
X140607007Y-88065925D01*
X140670590Y-88082962D01*
X139930893Y-88822658D01*
X140013828Y-88882914D01*
X140224197Y-88990102D01*
X140448752Y-89063065D01*
X140448751Y-89063065D01*
X140681948Y-89100000D01*
X140918052Y-89100000D01*
X141151247Y-89063065D01*
X141375802Y-88990102D01*
X141586163Y-88882918D01*
X141586169Y-88882914D01*
X141669104Y-88822658D01*
X141669105Y-88822658D01*
X140929408Y-88082962D01*
X140992993Y-88065925D01*
X141107007Y-88000099D01*
X141200099Y-87907007D01*
X141265925Y-87792993D01*
X141282962Y-87729409D01*
X142022658Y-88469105D01*
X142022658Y-88469104D01*
X142082914Y-88386169D01*
X142082918Y-88386163D01*
X142190102Y-88175802D01*
X142263065Y-87951247D01*
X142300000Y-87718052D01*
X142300000Y-87481947D01*
X142263065Y-87248752D01*
X142190102Y-87024197D01*
X142102939Y-86853129D01*
X142102938Y-86853127D01*
X142082916Y-86813830D01*
X142072855Y-86799983D01*
X144299500Y-86799983D01*
X144299500Y-88400001D01*
X144299501Y-88400018D01*
X144310000Y-88502796D01*
X144310001Y-88502799D01*
X144365185Y-88669331D01*
X144365187Y-88669336D01*
X144394375Y-88716657D01*
X144457288Y-88818656D01*
X144581344Y-88942712D01*
X144730666Y-89034814D01*
X144897203Y-89089999D01*
X144999991Y-89100500D01*
X146600008Y-89100499D01*
X146702797Y-89089999D01*
X146869334Y-89034814D01*
X147018656Y-88942712D01*
X147142712Y-88818656D01*
X147234814Y-88669334D01*
X147289999Y-88502797D01*
X147300500Y-88400009D01*
X147300500Y-88111304D01*
X165699500Y-88111304D01*
X165699500Y-88288695D01*
X165734103Y-88462658D01*
X165734106Y-88462667D01*
X165801983Y-88626540D01*
X165801990Y-88626553D01*
X165900535Y-88774034D01*
X165900538Y-88774038D01*
X166025961Y-88899461D01*
X166025965Y-88899464D01*
X166173446Y-88998009D01*
X166173459Y-88998016D01*
X166296363Y-89048923D01*
X166337334Y-89065894D01*
X166337336Y-89065894D01*
X166337341Y-89065896D01*
X166511304Y-89100499D01*
X166511307Y-89100500D01*
X166511309Y-89100500D01*
X166688693Y-89100500D01*
X166688694Y-89100499D01*
X166758430Y-89086628D01*
X166862658Y-89065896D01*
X166862661Y-89065894D01*
X166862666Y-89065894D01*
X167026547Y-88998013D01*
X167174035Y-88899464D01*
X167299464Y-88774035D01*
X167398013Y-88626547D01*
X167465894Y-88462666D01*
X167478358Y-88400009D01*
X167489539Y-88343793D01*
X167498540Y-88298543D01*
X172899499Y-88298543D01*
X172937947Y-88491829D01*
X172937950Y-88491839D01*
X173013364Y-88673907D01*
X173013371Y-88673920D01*
X173122860Y-88837781D01*
X173122863Y-88837785D01*
X173262214Y-88977136D01*
X173262218Y-88977139D01*
X173426079Y-89086628D01*
X173426092Y-89086635D01*
X173608160Y-89162049D01*
X173608165Y-89162051D01*
X173608169Y-89162051D01*
X173608170Y-89162052D01*
X173801456Y-89200500D01*
X173801459Y-89200500D01*
X173998543Y-89200500D01*
X174128582Y-89174632D01*
X174191835Y-89162051D01*
X174373914Y-89086632D01*
X174537782Y-88977139D01*
X174677139Y-88837782D01*
X174786632Y-88673914D01*
X174862051Y-88491835D01*
X174900500Y-88298541D01*
X174900500Y-88101459D01*
X174900500Y-88101456D01*
X174862052Y-87908170D01*
X174862051Y-87908169D01*
X174862051Y-87908165D01*
X174849354Y-87877511D01*
X174786635Y-87726092D01*
X174786628Y-87726079D01*
X174677139Y-87562218D01*
X174677136Y-87562214D01*
X174537785Y-87422863D01*
X174537781Y-87422860D01*
X174373920Y-87313371D01*
X174373907Y-87313364D01*
X174191839Y-87237950D01*
X174191829Y-87237947D01*
X173998543Y-87199500D01*
X173998541Y-87199500D01*
X173801459Y-87199500D01*
X173801457Y-87199500D01*
X173608170Y-87237947D01*
X173608160Y-87237950D01*
X173426092Y-87313364D01*
X173426079Y-87313371D01*
X173262218Y-87422860D01*
X173262214Y-87422863D01*
X173122863Y-87562214D01*
X173122860Y-87562218D01*
X173013371Y-87726079D01*
X173013364Y-87726092D01*
X172937950Y-87908160D01*
X172937947Y-87908170D01*
X172899500Y-88101456D01*
X172899500Y-88101459D01*
X172899500Y-88298541D01*
X172899500Y-88298543D01*
X172899499Y-88298543D01*
X167498540Y-88298543D01*
X167500500Y-88288691D01*
X167500500Y-88111309D01*
X167500500Y-88111306D01*
X167500499Y-88111304D01*
X167465896Y-87937341D01*
X167465893Y-87937332D01*
X167398016Y-87773459D01*
X167398009Y-87773446D01*
X167299464Y-87625965D01*
X167299461Y-87625961D01*
X167174038Y-87500538D01*
X167174034Y-87500535D01*
X167026553Y-87401990D01*
X167026540Y-87401983D01*
X166862667Y-87334106D01*
X166862658Y-87334103D01*
X166688694Y-87299500D01*
X166688691Y-87299500D01*
X166511309Y-87299500D01*
X166511306Y-87299500D01*
X166337341Y-87334103D01*
X166337332Y-87334106D01*
X166173459Y-87401983D01*
X166173446Y-87401990D01*
X166025965Y-87500535D01*
X166025961Y-87500538D01*
X165900538Y-87625961D01*
X165900535Y-87625965D01*
X165801990Y-87773446D01*
X165801983Y-87773459D01*
X165734106Y-87937332D01*
X165734103Y-87937341D01*
X165699500Y-88111304D01*
X147300500Y-88111304D01*
X147300499Y-87600000D01*
X147300499Y-86799998D01*
X147300498Y-86799981D01*
X147289999Y-86697203D01*
X147289998Y-86697200D01*
X147234814Y-86530666D01*
X147142712Y-86381344D01*
X147018656Y-86257288D01*
X146869334Y-86165186D01*
X146702797Y-86110001D01*
X146702795Y-86110000D01*
X146600010Y-86099500D01*
X144999998Y-86099500D01*
X144999981Y-86099501D01*
X144897203Y-86110000D01*
X144897200Y-86110001D01*
X144730668Y-86165185D01*
X144730663Y-86165187D01*
X144581342Y-86257289D01*
X144457289Y-86381342D01*
X144365187Y-86530663D01*
X144365185Y-86530668D01*
X144346699Y-86586456D01*
X144310001Y-86697203D01*
X144310001Y-86697204D01*
X144310000Y-86697204D01*
X144299500Y-86799983D01*
X142072855Y-86799983D01*
X142022658Y-86730894D01*
X142022658Y-86730893D01*
X141282962Y-87470590D01*
X141265925Y-87407007D01*
X141200099Y-87292993D01*
X141107007Y-87199901D01*
X140992993Y-87134075D01*
X140929409Y-87117037D01*
X141669105Y-86377340D01*
X141669104Y-86377338D01*
X141586174Y-86317087D01*
X141375802Y-86209897D01*
X141151247Y-86136934D01*
X141151248Y-86136934D01*
X140918052Y-86100000D01*
X140681948Y-86100000D01*
X140448752Y-86136934D01*
X140224197Y-86209897D01*
X140013830Y-86317084D01*
X139930894Y-86377340D01*
X140670591Y-87117037D01*
X140607007Y-87134075D01*
X140492993Y-87199901D01*
X140399901Y-87292993D01*
X140334075Y-87407007D01*
X140317037Y-87470591D01*
X139577340Y-86730894D01*
X139517084Y-86813830D01*
X139409897Y-87024197D01*
X139336934Y-87248752D01*
X139300000Y-87481947D01*
X136137534Y-87481947D01*
X136140568Y-87475992D01*
X136213553Y-87251368D01*
X136221768Y-87199500D01*
X136250500Y-87018097D01*
X136250500Y-86781902D01*
X136229005Y-86646197D01*
X136213553Y-86548632D01*
X136213552Y-86548628D01*
X136213552Y-86548627D01*
X136185703Y-86462917D01*
X136151660Y-86358146D01*
X136140568Y-86324008D01*
X136140566Y-86324005D01*
X136140566Y-86324003D01*
X136082426Y-86209897D01*
X136033343Y-86113567D01*
X135894517Y-85922490D01*
X135727510Y-85755483D01*
X135610398Y-85670396D01*
X135536428Y-85616653D01*
X135510145Y-85603261D01*
X135510142Y-85603261D01*
X135325996Y-85509433D01*
X135289726Y-85497648D01*
X172649500Y-85497648D01*
X172649500Y-85702352D01*
X172653878Y-85729995D01*
X172681522Y-85904534D01*
X172744781Y-86099223D01*
X172778392Y-86165187D01*
X172825320Y-86257288D01*
X172837715Y-86281613D01*
X172958028Y-86447213D01*
X173102786Y-86591971D01*
X173247624Y-86697200D01*
X173268390Y-86712287D01*
X173384607Y-86771503D01*
X173450776Y-86805218D01*
X173450778Y-86805218D01*
X173450781Y-86805220D01*
X173555137Y-86839127D01*
X173645465Y-86868477D01*
X173746557Y-86884488D01*
X173847648Y-86900500D01*
X173847649Y-86900500D01*
X174052351Y-86900500D01*
X174052352Y-86900500D01*
X174254534Y-86868477D01*
X174449219Y-86805220D01*
X174631610Y-86712287D01*
X174651759Y-86697648D01*
X177749500Y-86697648D01*
X177749500Y-86902351D01*
X177781522Y-87104534D01*
X177844781Y-87299223D01*
X177899701Y-87407007D01*
X177934850Y-87475992D01*
X177937715Y-87481613D01*
X178058028Y-87647213D01*
X178202786Y-87791971D01*
X178357749Y-87904556D01*
X178368390Y-87912287D01*
X178449381Y-87953554D01*
X178550776Y-88005218D01*
X178550778Y-88005218D01*
X178550781Y-88005220D01*
X178655137Y-88039127D01*
X178745465Y-88068477D01*
X178846557Y-88084488D01*
X178947648Y-88100500D01*
X178947649Y-88100500D01*
X179152351Y-88100500D01*
X179152352Y-88100500D01*
X179354534Y-88068477D01*
X179549219Y-88005220D01*
X179731610Y-87912287D01*
X179854526Y-87822984D01*
X179897213Y-87791971D01*
X179897215Y-87791968D01*
X179897219Y-87791966D01*
X180041966Y-87647219D01*
X180041968Y-87647215D01*
X180041971Y-87647213D01*
X180124097Y-87534174D01*
X180162287Y-87481610D01*
X180255220Y-87299219D01*
X180318477Y-87104534D01*
X180350500Y-86902352D01*
X180350500Y-86697648D01*
X180326898Y-86548631D01*
X180318477Y-86495465D01*
X180283580Y-86388063D01*
X180255220Y-86300781D01*
X180255218Y-86300778D01*
X180255218Y-86300776D01*
X180186131Y-86165187D01*
X180162287Y-86118390D01*
X180148926Y-86100000D01*
X180041971Y-85952786D01*
X179897213Y-85808028D01*
X179731613Y-85687715D01*
X179731612Y-85687714D01*
X179731610Y-85687713D01*
X179672636Y-85657664D01*
X179549223Y-85594781D01*
X179354534Y-85531522D01*
X179179995Y-85503878D01*
X179152352Y-85499500D01*
X178947648Y-85499500D01*
X178923329Y-85503351D01*
X178745465Y-85531522D01*
X178550776Y-85594781D01*
X178368386Y-85687715D01*
X178202786Y-85808028D01*
X178058028Y-85952786D01*
X177937715Y-86118386D01*
X177844781Y-86300776D01*
X177781522Y-86495465D01*
X177749500Y-86697648D01*
X174651759Y-86697648D01*
X174716934Y-86650296D01*
X174796543Y-86592458D01*
X174796545Y-86592456D01*
X174797212Y-86591971D01*
X174797219Y-86591966D01*
X174941966Y-86447219D01*
X174941968Y-86447215D01*
X174941971Y-86447213D01*
X175006681Y-86358146D01*
X175062287Y-86281610D01*
X175155220Y-86099219D01*
X175218477Y-85904534D01*
X175250500Y-85702352D01*
X175250500Y-85497648D01*
X175243936Y-85456204D01*
X175218477Y-85295465D01*
X175155218Y-85100776D01*
X175121503Y-85034607D01*
X175062287Y-84918390D01*
X175054556Y-84907749D01*
X174941971Y-84752786D01*
X174797213Y-84608028D01*
X174631613Y-84487715D01*
X174631612Y-84487714D01*
X174631610Y-84487713D01*
X174574653Y-84458691D01*
X174449223Y-84394781D01*
X174254534Y-84331522D01*
X174079995Y-84303878D01*
X174052352Y-84299500D01*
X173847648Y-84299500D01*
X173823329Y-84303351D01*
X173645465Y-84331522D01*
X173450776Y-84394781D01*
X173268386Y-84487715D01*
X173102786Y-84608028D01*
X172958028Y-84752786D01*
X172837715Y-84918386D01*
X172744781Y-85100776D01*
X172681522Y-85295465D01*
X172656064Y-85456204D01*
X172649500Y-85497648D01*
X135289726Y-85497648D01*
X135101368Y-85436446D01*
X134868097Y-85399500D01*
X134868092Y-85399500D01*
X134631908Y-85399500D01*
X134631903Y-85399500D01*
X134398631Y-85436446D01*
X134174003Y-85509433D01*
X133963566Y-85616657D01*
X133867843Y-85686205D01*
X133772490Y-85755483D01*
X133772488Y-85755485D01*
X133772487Y-85755485D01*
X133605482Y-85922490D01*
X133600315Y-85929603D01*
X133544983Y-85972266D01*
X133475370Y-85978242D01*
X133413576Y-85945634D01*
X133399685Y-85929603D01*
X133394517Y-85922490D01*
X133227512Y-85755485D01*
X133227510Y-85755483D01*
X133036433Y-85616657D01*
X132993497Y-85594780D01*
X132825996Y-85509433D01*
X132601368Y-85436446D01*
X132368097Y-85399500D01*
X132368092Y-85399500D01*
X132131908Y-85399500D01*
X132131903Y-85399500D01*
X131898631Y-85436446D01*
X131674003Y-85509433D01*
X131463563Y-85616659D01*
X131367841Y-85686205D01*
X131302035Y-85709685D01*
X131233981Y-85693859D01*
X131195690Y-85660198D01*
X131107547Y-85542455D01*
X131107544Y-85542452D01*
X130992335Y-85456206D01*
X130992328Y-85456202D01*
X130857482Y-85405908D01*
X130857483Y-85405908D01*
X130797883Y-85399501D01*
X130797881Y-85399500D01*
X130797873Y-85399500D01*
X130797864Y-85399500D01*
X128702129Y-85399500D01*
X128702123Y-85399501D01*
X128642516Y-85405908D01*
X128507671Y-85456202D01*
X128507664Y-85456206D01*
X128392455Y-85542452D01*
X128392452Y-85542455D01*
X128306206Y-85657664D01*
X128306202Y-85657671D01*
X128255908Y-85792517D01*
X128249501Y-85852116D01*
X128249500Y-85852135D01*
X126824162Y-85852135D01*
X126727510Y-85755483D01*
X126536433Y-85616657D01*
X126493497Y-85594780D01*
X126325996Y-85509433D01*
X126101368Y-85436446D01*
X125868097Y-85399500D01*
X125868092Y-85399500D01*
X125631908Y-85399500D01*
X125631903Y-85399500D01*
X125398631Y-85436446D01*
X125174003Y-85509433D01*
X124963566Y-85616657D01*
X124867843Y-85686205D01*
X124772490Y-85755483D01*
X124772488Y-85755485D01*
X124772487Y-85755485D01*
X124605482Y-85922490D01*
X124600315Y-85929603D01*
X124544983Y-85972266D01*
X124475370Y-85978242D01*
X124413576Y-85945634D01*
X124399685Y-85929603D01*
X124394517Y-85922490D01*
X124227512Y-85755485D01*
X124227510Y-85755483D01*
X124036433Y-85616657D01*
X123993497Y-85594780D01*
X123825996Y-85509433D01*
X123601368Y-85436446D01*
X123368097Y-85399500D01*
X123368092Y-85399500D01*
X123131908Y-85399500D01*
X123131903Y-85399500D01*
X122898631Y-85436446D01*
X122674003Y-85509433D01*
X122463563Y-85616659D01*
X122367841Y-85686205D01*
X122302035Y-85709685D01*
X122233981Y-85693859D01*
X122195690Y-85660198D01*
X122107547Y-85542455D01*
X122107544Y-85542452D01*
X121992335Y-85456206D01*
X121992328Y-85456202D01*
X121857482Y-85405908D01*
X121857483Y-85405908D01*
X121797883Y-85399501D01*
X121797881Y-85399500D01*
X121797873Y-85399500D01*
X121797864Y-85399500D01*
X119702129Y-85399500D01*
X119702123Y-85399501D01*
X119642516Y-85405908D01*
X119507671Y-85456202D01*
X119507664Y-85456206D01*
X119392455Y-85542452D01*
X119392452Y-85542455D01*
X119306206Y-85657664D01*
X119306202Y-85657671D01*
X119255908Y-85792517D01*
X119249501Y-85852116D01*
X119249500Y-85852135D01*
X119249500Y-87947870D01*
X119249501Y-87947876D01*
X119255908Y-88007483D01*
X119306202Y-88142328D01*
X119306206Y-88142335D01*
X119392452Y-88257544D01*
X119392455Y-88257547D01*
X119507664Y-88343793D01*
X119507671Y-88343797D01*
X119601578Y-88378822D01*
X119657512Y-88420693D01*
X119681929Y-88486157D01*
X119667078Y-88554430D01*
X119623342Y-88600542D01*
X119531347Y-88657285D01*
X119531343Y-88657288D01*
X119407289Y-88781342D01*
X119315187Y-88930663D01*
X119315185Y-88930668D01*
X119311195Y-88942710D01*
X119260001Y-89097203D01*
X119260001Y-89097204D01*
X119260000Y-89097204D01*
X119249500Y-89199983D01*
X119249500Y-90800001D01*
X119249502Y-90800021D01*
X119258475Y-90887867D01*
X119245705Y-90956559D01*
X119197824Y-91007443D01*
X119182571Y-91015028D01*
X119120820Y-91040606D01*
X119120814Y-91040609D01*
X118989711Y-91128210D01*
X118989707Y-91128213D01*
X118878213Y-91239707D01*
X118878210Y-91239711D01*
X118790609Y-91370814D01*
X118790602Y-91370827D01*
X118730264Y-91516498D01*
X118730261Y-91516510D01*
X118699500Y-91671153D01*
X116750500Y-91671153D01*
X116750500Y-90818943D01*
X116755483Y-90784143D01*
X116777078Y-90710289D01*
X117049650Y-89778079D01*
X117050852Y-89774210D01*
X117078598Y-89689711D01*
X117402622Y-88702912D01*
X117403931Y-88699137D01*
X117790665Y-87639904D01*
X117792093Y-87636183D01*
X118213369Y-86590181D01*
X118214941Y-86586456D01*
X118230082Y-86552154D01*
X118670293Y-85554837D01*
X118671941Y-85551264D01*
X119160894Y-84535112D01*
X119162655Y-84531600D01*
X119684693Y-83531989D01*
X119686577Y-83528522D01*
X120241093Y-82546613D01*
X120243124Y-82543153D01*
X120244608Y-82540717D01*
X120829506Y-81580025D01*
X120831671Y-81576599D01*
X120883790Y-81496995D01*
X129814500Y-81496995D01*
X129814500Y-81733004D01*
X129814501Y-81733020D01*
X129845306Y-81967010D01*
X129906394Y-82194993D01*
X129996714Y-82413045D01*
X129996719Y-82413056D01*
X130067677Y-82535957D01*
X130114727Y-82617450D01*
X130114729Y-82617453D01*
X130114730Y-82617454D01*
X130258406Y-82804697D01*
X130258412Y-82804704D01*
X130425295Y-82971587D01*
X130425301Y-82971592D01*
X130612550Y-83115273D01*
X130743918Y-83191118D01*
X130816943Y-83233280D01*
X130816948Y-83233282D01*
X130816951Y-83233284D01*
X131035007Y-83323606D01*
X131262986Y-83384693D01*
X131496989Y-83415500D01*
X131496996Y-83415500D01*
X131733004Y-83415500D01*
X131733011Y-83415500D01*
X131967014Y-83384693D01*
X132194993Y-83323606D01*
X132413049Y-83233284D01*
X132617450Y-83115273D01*
X132804699Y-82971592D01*
X132971592Y-82804699D01*
X133115273Y-82617450D01*
X133233284Y-82413049D01*
X133323606Y-82194993D01*
X133384693Y-81967014D01*
X133415500Y-81733011D01*
X133415500Y-81496995D01*
X166584500Y-81496995D01*
X166584500Y-81733004D01*
X166584501Y-81733020D01*
X166615306Y-81967010D01*
X166676394Y-82194993D01*
X166766714Y-82413045D01*
X166766719Y-82413056D01*
X166837677Y-82535957D01*
X166884727Y-82617450D01*
X166884729Y-82617453D01*
X166884730Y-82617454D01*
X167028406Y-82804697D01*
X167028412Y-82804704D01*
X167195295Y-82971587D01*
X167195301Y-82971592D01*
X167382550Y-83115273D01*
X167513918Y-83191118D01*
X167586943Y-83233280D01*
X167586948Y-83233282D01*
X167586951Y-83233284D01*
X167805007Y-83323606D01*
X168032986Y-83384693D01*
X168266989Y-83415500D01*
X168266996Y-83415500D01*
X168503004Y-83415500D01*
X168503011Y-83415500D01*
X168737014Y-83384693D01*
X168964993Y-83323606D01*
X169183049Y-83233284D01*
X169387450Y-83115273D01*
X169574699Y-82971592D01*
X169741592Y-82804699D01*
X169885273Y-82617450D01*
X170003284Y-82413049D01*
X170093606Y-82194993D01*
X170154693Y-81967014D01*
X170185500Y-81733011D01*
X170185500Y-81496989D01*
X170154693Y-81262986D01*
X170093606Y-81035007D01*
X170003284Y-80816951D01*
X170003282Y-80816948D01*
X170003280Y-80816943D01*
X169943952Y-80714185D01*
X169885273Y-80612550D01*
X169810150Y-80514648D01*
X169741593Y-80425302D01*
X169741587Y-80425295D01*
X169574704Y-80258412D01*
X169574697Y-80258406D01*
X169387454Y-80114730D01*
X169387453Y-80114729D01*
X169387450Y-80114727D01*
X169305957Y-80067677D01*
X169183056Y-79996719D01*
X169183045Y-79996714D01*
X168964993Y-79906394D01*
X168737010Y-79845306D01*
X168503020Y-79814501D01*
X168503017Y-79814500D01*
X168503011Y-79814500D01*
X168266989Y-79814500D01*
X168266983Y-79814500D01*
X168266979Y-79814501D01*
X168032989Y-79845306D01*
X167805006Y-79906394D01*
X167586954Y-79996714D01*
X167586943Y-79996719D01*
X167382545Y-80114730D01*
X167195302Y-80258406D01*
X167195295Y-80258412D01*
X167028412Y-80425295D01*
X167028406Y-80425302D01*
X166884730Y-80612545D01*
X166766719Y-80816943D01*
X166766714Y-80816954D01*
X166676394Y-81035006D01*
X166615306Y-81262989D01*
X166584501Y-81496979D01*
X166584500Y-81496995D01*
X133415500Y-81496995D01*
X133415500Y-81496989D01*
X133384693Y-81262986D01*
X133323606Y-81035007D01*
X133233284Y-80816951D01*
X133233282Y-80816948D01*
X133233280Y-80816943D01*
X133173952Y-80714185D01*
X133115273Y-80612550D01*
X133040150Y-80514648D01*
X132971593Y-80425302D01*
X132971587Y-80425295D01*
X132804704Y-80258412D01*
X132804697Y-80258406D01*
X132617454Y-80114730D01*
X132617453Y-80114729D01*
X132617450Y-80114727D01*
X132535957Y-80067677D01*
X132413056Y-79996719D01*
X132413045Y-79996714D01*
X132194993Y-79906394D01*
X131967010Y-79845306D01*
X131733020Y-79814501D01*
X131733017Y-79814500D01*
X131733011Y-79814500D01*
X131496989Y-79814500D01*
X131496983Y-79814500D01*
X131496979Y-79814501D01*
X131262989Y-79845306D01*
X131035006Y-79906394D01*
X130816954Y-79996714D01*
X130816943Y-79996719D01*
X130612545Y-80114730D01*
X130425302Y-80258406D01*
X130425295Y-80258412D01*
X130258412Y-80425295D01*
X130258406Y-80425302D01*
X130114730Y-80612545D01*
X129996719Y-80816943D01*
X129996714Y-80816954D01*
X129906394Y-81035006D01*
X129845306Y-81262989D01*
X129814501Y-81496979D01*
X129814500Y-81496995D01*
X120883790Y-81496995D01*
X120883794Y-81496989D01*
X121449314Y-80633237D01*
X121451584Y-80629891D01*
X122099871Y-79707243D01*
X122102215Y-79704021D01*
X122780435Y-78803101D01*
X122781622Y-78801577D01*
X135149500Y-78801577D01*
X135149500Y-79798422D01*
X135180290Y-79992826D01*
X135241117Y-80180029D01*
X135330476Y-80355405D01*
X135446172Y-80514646D01*
X135585354Y-80653828D01*
X135744595Y-80769524D01*
X135819214Y-80807544D01*
X135919970Y-80858882D01*
X135919972Y-80858882D01*
X135919975Y-80858884D01*
X136020317Y-80891487D01*
X136107173Y-80919709D01*
X136301578Y-80950500D01*
X136301583Y-80950500D01*
X136498422Y-80950500D01*
X136692826Y-80919709D01*
X136772574Y-80893797D01*
X136880025Y-80858884D01*
X137055405Y-80769524D01*
X137214646Y-80653828D01*
X137353828Y-80514646D01*
X137469524Y-80355405D01*
X137558884Y-80180025D01*
X137619709Y-79992826D01*
X137650500Y-79798422D01*
X137650500Y-78801577D01*
X137619709Y-78607173D01*
X137558882Y-78419970D01*
X137469523Y-78244594D01*
X137366020Y-78102135D01*
X145649500Y-78102135D01*
X145649500Y-80497870D01*
X145649501Y-80497876D01*
X145655908Y-80557483D01*
X145706202Y-80692328D01*
X145706206Y-80692335D01*
X145792452Y-80807544D01*
X145792455Y-80807547D01*
X145907664Y-80893793D01*
X145907671Y-80893797D01*
X146042517Y-80944091D01*
X146042516Y-80944091D01*
X146049444Y-80944835D01*
X146102127Y-80950500D01*
X147697872Y-80950499D01*
X147757483Y-80944091D01*
X147892331Y-80893796D01*
X148007546Y-80807546D01*
X148093796Y-80692331D01*
X148144091Y-80557483D01*
X148150500Y-80497873D01*
X148150499Y-78801577D01*
X151649500Y-78801577D01*
X151649500Y-79798422D01*
X151680290Y-79992826D01*
X151741117Y-80180029D01*
X151830476Y-80355405D01*
X151946172Y-80514646D01*
X152085354Y-80653828D01*
X152244595Y-80769524D01*
X152319214Y-80807544D01*
X152419970Y-80858882D01*
X152419972Y-80858882D01*
X152419975Y-80858884D01*
X152520317Y-80891487D01*
X152607173Y-80919709D01*
X152801578Y-80950500D01*
X152801583Y-80950500D01*
X152998422Y-80950500D01*
X153192826Y-80919709D01*
X153272574Y-80893797D01*
X153380025Y-80858884D01*
X153555405Y-80769524D01*
X153714646Y-80653828D01*
X153853828Y-80514646D01*
X153969524Y-80355405D01*
X154058884Y-80180025D01*
X154119709Y-79992826D01*
X154150500Y-79798422D01*
X154150500Y-78801577D01*
X154119709Y-78607173D01*
X154058882Y-78419970D01*
X153969523Y-78244594D01*
X153866020Y-78102135D01*
X162149500Y-78102135D01*
X162149500Y-80497870D01*
X162149501Y-80497876D01*
X162155908Y-80557483D01*
X162206202Y-80692328D01*
X162206206Y-80692335D01*
X162292452Y-80807544D01*
X162292455Y-80807547D01*
X162407664Y-80893793D01*
X162407671Y-80893797D01*
X162542517Y-80944091D01*
X162542516Y-80944091D01*
X162549444Y-80944835D01*
X162602127Y-80950500D01*
X164197872Y-80950499D01*
X164257483Y-80944091D01*
X164392331Y-80893796D01*
X164507546Y-80807546D01*
X164593796Y-80692331D01*
X164644091Y-80557483D01*
X164650500Y-80497873D01*
X164650499Y-78102128D01*
X164644091Y-78042517D01*
X164622061Y-77983452D01*
X164593797Y-77907671D01*
X164593793Y-77907664D01*
X164507547Y-77792455D01*
X164507544Y-77792452D01*
X164392335Y-77706206D01*
X164392328Y-77706202D01*
X164257482Y-77655908D01*
X164257483Y-77655908D01*
X164197883Y-77649501D01*
X164197881Y-77649500D01*
X164197873Y-77649500D01*
X164197864Y-77649500D01*
X162602129Y-77649500D01*
X162602123Y-77649501D01*
X162542516Y-77655908D01*
X162407671Y-77706202D01*
X162407664Y-77706206D01*
X162292455Y-77792452D01*
X162292452Y-77792455D01*
X162206206Y-77907664D01*
X162206202Y-77907671D01*
X162155908Y-78042517D01*
X162151303Y-78085354D01*
X162149501Y-78102123D01*
X162149500Y-78102135D01*
X153866020Y-78102135D01*
X153853828Y-78085354D01*
X153714646Y-77946172D01*
X153555405Y-77830476D01*
X153380029Y-77741117D01*
X153192826Y-77680290D01*
X152998422Y-77649500D01*
X152998417Y-77649500D01*
X152801583Y-77649500D01*
X152801578Y-77649500D01*
X152607173Y-77680290D01*
X152419970Y-77741117D01*
X152244594Y-77830476D01*
X152153741Y-77896485D01*
X152085354Y-77946172D01*
X152085352Y-77946174D01*
X152085351Y-77946174D01*
X151946174Y-78085351D01*
X151946174Y-78085352D01*
X151946172Y-78085354D01*
X151933980Y-78102135D01*
X151830476Y-78244594D01*
X151741117Y-78419970D01*
X151680290Y-78607173D01*
X151649500Y-78801577D01*
X148150499Y-78801577D01*
X148150499Y-78102128D01*
X148144091Y-78042517D01*
X148122061Y-77983452D01*
X148093797Y-77907671D01*
X148093793Y-77907664D01*
X148007547Y-77792455D01*
X148007544Y-77792452D01*
X147892335Y-77706206D01*
X147892328Y-77706202D01*
X147757482Y-77655908D01*
X147757483Y-77655908D01*
X147697883Y-77649501D01*
X147697881Y-77649500D01*
X147697873Y-77649500D01*
X147697864Y-77649500D01*
X146102129Y-77649500D01*
X146102123Y-77649501D01*
X146042516Y-77655908D01*
X145907671Y-77706202D01*
X145907664Y-77706206D01*
X145792455Y-77792452D01*
X145792452Y-77792455D01*
X145706206Y-77907664D01*
X145706202Y-77907671D01*
X145655908Y-78042517D01*
X145651303Y-78085354D01*
X145649501Y-78102123D01*
X145649500Y-78102135D01*
X137366020Y-78102135D01*
X137353828Y-78085354D01*
X137214646Y-77946172D01*
X137055405Y-77830476D01*
X136880029Y-77741117D01*
X136692826Y-77680290D01*
X136498422Y-77649500D01*
X136498417Y-77649500D01*
X136301583Y-77649500D01*
X136301578Y-77649500D01*
X136107173Y-77680290D01*
X135919970Y-77741117D01*
X135744594Y-77830476D01*
X135653741Y-77896485D01*
X135585354Y-77946172D01*
X135585352Y-77946174D01*
X135585351Y-77946174D01*
X135446174Y-78085351D01*
X135446174Y-78085352D01*
X135446172Y-78085354D01*
X135433980Y-78102135D01*
X135330476Y-78244594D01*
X135241117Y-78419970D01*
X135180290Y-78607173D01*
X135149500Y-78801577D01*
X122781622Y-78801577D01*
X122782833Y-78800021D01*
X123490247Y-77921816D01*
X123492810Y-77918739D01*
X124228616Y-77064242D01*
X124231255Y-77061277D01*
X124994716Y-76231344D01*
X124997442Y-76228477D01*
X125787672Y-75424070D01*
X125790514Y-75421269D01*
X126606758Y-74643158D01*
X126609678Y-74640465D01*
X127450956Y-73889584D01*
X127453944Y-73887002D01*
X127556217Y-73801577D01*
X135149500Y-73801577D01*
X135149500Y-74798422D01*
X135180290Y-74992826D01*
X135241117Y-75180029D01*
X135276777Y-75250015D01*
X135330476Y-75355405D01*
X135446172Y-75514646D01*
X135585354Y-75653828D01*
X135744595Y-75769524D01*
X135827455Y-75811743D01*
X135919970Y-75858882D01*
X135919972Y-75858882D01*
X135919975Y-75858884D01*
X135999773Y-75884812D01*
X136107173Y-75919709D01*
X136301578Y-75950500D01*
X136301583Y-75950500D01*
X136498422Y-75950500D01*
X136692826Y-75919709D01*
X136880025Y-75858884D01*
X137055405Y-75769524D01*
X137214646Y-75653828D01*
X137353828Y-75514646D01*
X137469524Y-75355405D01*
X137558884Y-75180025D01*
X137619709Y-74992826D01*
X137650500Y-74798422D01*
X137650500Y-73801577D01*
X137619709Y-73607173D01*
X137588534Y-73511229D01*
X137558884Y-73419975D01*
X137558881Y-73419971D01*
X137558881Y-73419968D01*
X137550302Y-73403131D01*
X137550301Y-73403130D01*
X137523222Y-73349984D01*
X145649500Y-73349984D01*
X145649500Y-75250015D01*
X145660000Y-75352795D01*
X145660001Y-75352797D01*
X145682682Y-75421243D01*
X145715186Y-75519335D01*
X145715187Y-75519337D01*
X145807286Y-75668651D01*
X145807289Y-75668655D01*
X145931344Y-75792710D01*
X145931348Y-75792713D01*
X146080662Y-75884812D01*
X146080664Y-75884813D01*
X146080666Y-75884814D01*
X146247203Y-75939999D01*
X146349992Y-75950500D01*
X146349997Y-75950500D01*
X147450003Y-75950500D01*
X147450008Y-75950500D01*
X147552797Y-75939999D01*
X147719334Y-75884814D01*
X147868655Y-75792711D01*
X147992711Y-75668655D01*
X148084814Y-75519334D01*
X148139999Y-75352797D01*
X148150500Y-75250008D01*
X148150500Y-73801577D01*
X151649500Y-73801577D01*
X151649500Y-74798422D01*
X151680290Y-74992826D01*
X151741117Y-75180029D01*
X151776777Y-75250015D01*
X151830476Y-75355405D01*
X151946172Y-75514646D01*
X152085354Y-75653828D01*
X152244595Y-75769524D01*
X152327455Y-75811743D01*
X152419970Y-75858882D01*
X152419972Y-75858882D01*
X152419975Y-75858884D01*
X152499773Y-75884812D01*
X152607173Y-75919709D01*
X152801578Y-75950500D01*
X152801583Y-75950500D01*
X152998422Y-75950500D01*
X153192826Y-75919709D01*
X153380025Y-75858884D01*
X153555405Y-75769524D01*
X153714646Y-75653828D01*
X153853828Y-75514646D01*
X153969524Y-75355405D01*
X154058884Y-75180025D01*
X154119709Y-74992826D01*
X154150500Y-74798422D01*
X154150500Y-73801577D01*
X154119709Y-73607173D01*
X154088534Y-73511229D01*
X154058884Y-73419975D01*
X154058881Y-73419971D01*
X154058881Y-73419968D01*
X154050302Y-73403131D01*
X154050301Y-73403130D01*
X154023222Y-73349984D01*
X162149500Y-73349984D01*
X162149500Y-75250015D01*
X162160000Y-75352795D01*
X162160001Y-75352797D01*
X162182682Y-75421243D01*
X162215186Y-75519335D01*
X162215187Y-75519337D01*
X162307286Y-75668651D01*
X162307289Y-75668655D01*
X162431344Y-75792710D01*
X162431348Y-75792713D01*
X162580662Y-75884812D01*
X162580664Y-75884813D01*
X162580666Y-75884814D01*
X162747203Y-75939999D01*
X162849992Y-75950500D01*
X162849997Y-75950500D01*
X163950003Y-75950500D01*
X163950008Y-75950500D01*
X164052797Y-75939999D01*
X164219334Y-75884814D01*
X164368655Y-75792711D01*
X164492711Y-75668655D01*
X164584814Y-75519334D01*
X164639999Y-75352797D01*
X164650500Y-75250008D01*
X164650500Y-73349992D01*
X164639999Y-73247203D01*
X164584814Y-73080666D01*
X164501856Y-72946172D01*
X164492713Y-72931348D01*
X164492710Y-72931344D01*
X164368655Y-72807289D01*
X164368651Y-72807286D01*
X164219337Y-72715187D01*
X164219335Y-72715186D01*
X164114025Y-72680290D01*
X164052797Y-72660001D01*
X164052795Y-72660000D01*
X163950015Y-72649500D01*
X163950008Y-72649500D01*
X162849992Y-72649500D01*
X162849984Y-72649500D01*
X162747204Y-72660000D01*
X162747203Y-72660001D01*
X162580664Y-72715186D01*
X162580662Y-72715187D01*
X162431348Y-72807286D01*
X162431344Y-72807289D01*
X162307289Y-72931344D01*
X162307286Y-72931348D01*
X162215187Y-73080662D01*
X162215186Y-73080664D01*
X162160001Y-73247203D01*
X162160000Y-73247204D01*
X162149500Y-73349984D01*
X154023222Y-73349984D01*
X153969524Y-73244595D01*
X153853828Y-73085354D01*
X153714646Y-72946172D01*
X153555405Y-72830476D01*
X153509892Y-72807286D01*
X153380029Y-72741117D01*
X153192826Y-72680290D01*
X152998422Y-72649500D01*
X152998417Y-72649500D01*
X152801583Y-72649500D01*
X152801578Y-72649500D01*
X152607173Y-72680290D01*
X152419970Y-72741117D01*
X152244594Y-72830476D01*
X152153741Y-72896485D01*
X152085354Y-72946172D01*
X152085352Y-72946174D01*
X152085351Y-72946174D01*
X151946174Y-73085351D01*
X151946174Y-73085352D01*
X151946172Y-73085354D01*
X151896485Y-73153741D01*
X151830476Y-73244594D01*
X151741117Y-73419970D01*
X151680290Y-73607173D01*
X151649500Y-73801577D01*
X148150500Y-73801577D01*
X148150500Y-73349992D01*
X148139999Y-73247203D01*
X148084814Y-73080666D01*
X148001856Y-72946172D01*
X147992713Y-72931348D01*
X147992710Y-72931344D01*
X147868655Y-72807289D01*
X147868651Y-72807286D01*
X147719337Y-72715187D01*
X147719335Y-72715186D01*
X147614025Y-72680290D01*
X147552797Y-72660001D01*
X147552795Y-72660000D01*
X147450015Y-72649500D01*
X147450008Y-72649500D01*
X146349992Y-72649500D01*
X146349984Y-72649500D01*
X146247204Y-72660000D01*
X146247203Y-72660001D01*
X146080664Y-72715186D01*
X146080662Y-72715187D01*
X145931348Y-72807286D01*
X145931344Y-72807289D01*
X145807289Y-72931344D01*
X145807286Y-72931348D01*
X145715187Y-73080662D01*
X145715186Y-73080664D01*
X145660001Y-73247203D01*
X145660000Y-73247204D01*
X145649500Y-73349984D01*
X137523222Y-73349984D01*
X137469524Y-73244595D01*
X137353828Y-73085354D01*
X137214646Y-72946172D01*
X137055405Y-72830476D01*
X137009892Y-72807286D01*
X136880029Y-72741117D01*
X136692826Y-72680290D01*
X136498422Y-72649500D01*
X136498417Y-72649500D01*
X136301583Y-72649500D01*
X136301578Y-72649500D01*
X136107173Y-72680290D01*
X135919970Y-72741117D01*
X135744594Y-72830476D01*
X135653741Y-72896485D01*
X135585354Y-72946172D01*
X135585352Y-72946174D01*
X135585351Y-72946174D01*
X135446174Y-73085351D01*
X135446174Y-73085352D01*
X135446172Y-73085354D01*
X135396485Y-73153741D01*
X135330476Y-73244594D01*
X135241117Y-73419970D01*
X135180290Y-73607173D01*
X135149500Y-73801577D01*
X127556217Y-73801577D01*
X128319436Y-73164084D01*
X128322501Y-73161608D01*
X129211242Y-72467459D01*
X129214435Y-72465050D01*
X130125360Y-71800499D01*
X130128654Y-71798177D01*
X131060940Y-71163821D01*
X131064265Y-71161637D01*
X132016896Y-70558172D01*
X132020238Y-70556131D01*
X132992136Y-69984241D01*
X132995629Y-69982262D01*
X133985739Y-69442568D01*
X133989240Y-69440733D01*
X134996557Y-68933781D01*
X135000134Y-68932054D01*
X135907820Y-68511968D01*
X135959901Y-68500500D01*
X164040073Y-68500500D01*
X164092164Y-68511972D01*
G37*
%TD.AperFunction*%
%TD*%
M02*
