%TF.GenerationSoftware,KiCad,Pcbnew,10.0.3*%
%TF.CreationDate,2026-09-13T22:30:30+02:00*%
%TF.ProjectId,DriverDasyChain,44726976-6572-4446-9173-79436861696e,rev?*%
%TF.SameCoordinates,Original*%
%TF.FileFunction,Soldermask,Top*%
%TF.FilePolarity,Negative*%
%FSLAX46Y46*%
G04 Gerber Fmt 4.6, Leading zero omitted, Abs format (unit mm)*
G04 Created by KiCad (PCBNEW 10.0.3) date 2026-09-13 22:30:30*
%MOMM*%
%LPD*%
G01*
G04 APERTURE LIST*
G04 Aperture macros list*
%AMRoundRect*
0 Rectangle with rounded corners*
0 $1 Rounding radius*
0 $2 $3 $4 $5 $6 $7 $8 $9 X,Y pos of 4 corners*
0 Add a 4 corners polygon primitive as box body*
4,1,4,$2,$3,$4,$5,$6,$7,$8,$9,$2,$3,0*
0 Add four circle primitives for the rounded corners*
1,1,$1+$1,$2,$3*
1,1,$1+$1,$4,$5*
1,1,$1+$1,$6,$7*
1,1,$1+$1,$8,$9*
0 Add four rect primitives between the rounded corners*
20,1,$1+$1,$2,$3,$4,$5,0*
20,1,$1+$1,$4,$5,$6,$7,0*
20,1,$1+$1,$6,$7,$8,$9,0*
20,1,$1+$1,$8,$9,$2,$3,0*%
G04 Aperture macros list end*
%ADD10RoundRect,0.250000X0.650000X-1.000000X0.650000X1.000000X-0.650000X1.000000X-0.650000X-1.000000X0*%
%ADD11RoundRect,0.237500X0.237500X-0.250000X0.237500X0.250000X-0.237500X0.250000X-0.237500X-0.250000X0*%
%ADD12RoundRect,0.250000X-1.000000X-0.650000X1.000000X-0.650000X1.000000X0.650000X-1.000000X0.650000X0*%
%ADD13R,2.300000X1.500000*%
%ADD14RoundRect,0.250001X-0.899999X0.499999X-0.899999X-0.499999X0.899999X-0.499999X0.899999X0.499999X0*%
%ADD15O,2.300000X1.500000*%
%ADD16RoundRect,0.237500X-0.250000X-0.237500X0.250000X-0.237500X0.250000X0.237500X-0.250000X0.237500X0*%
%ADD17C,2.600000*%
%ADD18C,4.400000*%
%ADD19RoundRect,0.237500X0.237500X-0.300000X0.237500X0.300000X-0.237500X0.300000X-0.237500X-0.300000X0*%
%ADD20RoundRect,0.150000X-0.512500X-0.150000X0.512500X-0.150000X0.512500X0.150000X-0.512500X0.150000X0*%
%ADD21RoundRect,0.237500X-0.237500X0.250000X-0.237500X-0.250000X0.237500X-0.250000X0.237500X0.250000X0*%
%ADD22RoundRect,0.237500X-0.237500X0.300000X-0.237500X-0.300000X0.237500X-0.300000X0.237500X0.300000X0*%
%ADD23RoundRect,0.250000X-0.650000X1.000000X-0.650000X-1.000000X0.650000X-1.000000X0.650000X1.000000X0*%
%ADD24R,0.800000X1.000000*%
%ADD25C,0.900000*%
%ADD26R,1.500000X0.700000*%
%ADD27R,2.000000X2.000000*%
%ADD28RoundRect,0.250000X-0.750000X-0.750000X0.750000X-0.750000X0.750000X0.750000X-0.750000X0.750000X0*%
%ADD29C,2.000000*%
%ADD30RoundRect,0.250000X0.750000X0.750000X-0.750000X0.750000X-0.750000X-0.750000X0.750000X-0.750000X0*%
%ADD31RoundRect,0.237500X0.250000X0.237500X-0.250000X0.237500X-0.250000X-0.237500X0.250000X-0.237500X0*%
%ADD32RoundRect,0.250000X0.475000X-0.337500X0.475000X0.337500X-0.475000X0.337500X-0.475000X-0.337500X0*%
%ADD33C,1.600000*%
%ADD34RoundRect,0.250000X-0.337500X-0.475000X0.337500X-0.475000X0.337500X0.475000X-0.337500X0.475000X0*%
%ADD35RoundRect,0.250000X-0.310000X0.830000X-0.310000X-0.830000X0.310000X-0.830000X0.310000X0.830000X0*%
%ADD36RoundRect,0.237500X0.287500X0.237500X-0.287500X0.237500X-0.287500X-0.237500X0.287500X-0.237500X0*%
%ADD37RoundRect,0.250000X-0.625000X0.350000X-0.625000X-0.350000X0.625000X-0.350000X0.625000X0.350000X0*%
%ADD38O,1.750000X1.200000*%
%ADD39RoundRect,0.237500X-0.300000X-0.237500X0.300000X-0.237500X0.300000X0.237500X-0.300000X0.237500X0*%
%ADD40R,1.500000X2.300000*%
%ADD41RoundRect,0.250001X0.499999X0.899999X-0.499999X0.899999X-0.499999X-0.899999X0.499999X-0.899999X0*%
%ADD42O,1.500000X2.300000*%
%ADD43RoundRect,0.250000X0.350000X-0.850000X0.350000X0.850000X-0.350000X0.850000X-0.350000X-0.850000X0*%
%ADD44RoundRect,0.249997X2.650003X-2.950003X2.650003X2.950003X-2.650003X2.950003X-2.650003X-2.950003X0*%
%ADD45RoundRect,0.150000X0.825000X0.150000X-0.825000X0.150000X-0.825000X-0.150000X0.825000X-0.150000X0*%
%ADD46RoundRect,0.150000X0.587500X0.150000X-0.587500X0.150000X-0.587500X-0.150000X0.587500X-0.150000X0*%
%ADD47R,1.700000X1.700000*%
%ADD48C,1.700000*%
G04 APERTURE END LIST*
D10*
%TO.C,D5*%
X177700000Y-93600000D03*
X177700000Y-89600000D03*
%TD*%
D11*
%TO.C,R6*%
X126700000Y-84512500D03*
X126700000Y-82687500D03*
%TD*%
D12*
%TO.C,D3*%
X159300000Y-84000000D03*
X163300000Y-84000000D03*
%TD*%
D13*
%TO.C,J4*%
X127600000Y-97700000D03*
D14*
X122600000Y-97700000D03*
D15*
X127600000Y-101200000D03*
X122600000Y-101200000D03*
X127600000Y-104700000D03*
X122600000Y-104700000D03*
X127600000Y-108200000D03*
X122600000Y-108200000D03*
%TD*%
D11*
%TO.C,R3*%
X157400000Y-105300000D03*
X157400000Y-103475000D03*
%TD*%
D16*
%TO.C,R2*%
X163800000Y-106200000D03*
X165625000Y-106200000D03*
%TD*%
D17*
%TO.C,H4*%
X131615000Y-81615000D03*
D18*
X131615000Y-81615000D03*
%TD*%
D19*
%TO.C,C5*%
X161300000Y-88662500D03*
X161300000Y-86937500D03*
%TD*%
D20*
%TO.C,U3*%
X159525000Y-104300000D03*
X159525000Y-105250000D03*
X159525000Y-106200000D03*
X161800000Y-106200000D03*
X161800000Y-104300000D03*
%TD*%
D21*
%TO.C,R4*%
X167500000Y-106200000D03*
X167500000Y-108025000D03*
%TD*%
D22*
%TO.C,C1*%
X176750000Y-110575000D03*
X176750000Y-112300000D03*
%TD*%
D23*
%TO.C,D1*%
X173900000Y-90700000D03*
X173900000Y-94700000D03*
%TD*%
D24*
%TO.C,SW2*%
X136910000Y-122450000D03*
X134700000Y-122450000D03*
D25*
X135800000Y-124600000D03*
X135800000Y-127600000D03*
D24*
X136910000Y-129750000D03*
X134700000Y-129750000D03*
D26*
X137560000Y-123850000D03*
X137560000Y-126850000D03*
X137560000Y-128350000D03*
%TD*%
D16*
%TO.C,R12*%
X135140000Y-104900000D03*
X136965000Y-104900000D03*
%TD*%
D20*
%TO.C,U1*%
X163325000Y-87237500D03*
X163325000Y-88187500D03*
X163325000Y-89137500D03*
X165600000Y-89137500D03*
X165600000Y-87237500D03*
%TD*%
D27*
%TO.C,J1*%
X129750000Y-86900000D03*
D28*
X129750000Y-90000000D03*
D29*
X132250000Y-86900000D03*
X132250000Y-90000000D03*
X134750000Y-86900000D03*
X134750000Y-90000000D03*
%TD*%
D22*
%TO.C,C13*%
X134340000Y-106637500D03*
X134340000Y-108362500D03*
%TD*%
D16*
%TO.C,R11*%
X160975000Y-123600000D03*
X162800000Y-123600000D03*
%TD*%
D30*
%TO.C,C3*%
X145900000Y-98400000D03*
D29*
X140900000Y-98400000D03*
%TD*%
D21*
%TO.C,R14*%
X153200000Y-103375000D03*
X153200000Y-105200000D03*
%TD*%
%TO.C,R1*%
X176750000Y-114200000D03*
X176750000Y-116025000D03*
%TD*%
D31*
%TO.C,R7*%
X171025000Y-94700000D03*
X169200000Y-94700000D03*
%TD*%
D19*
%TO.C,C12*%
X167200000Y-94625000D03*
X167200000Y-92900000D03*
%TD*%
D32*
%TO.C,C8*%
X159400000Y-88900000D03*
X159400000Y-86825000D03*
%TD*%
D33*
%TO.C,F1*%
X179050000Y-86800000D03*
X173950000Y-85600000D03*
%TD*%
D34*
%TO.C,C4*%
X168925000Y-90700000D03*
X171000000Y-90700000D03*
%TD*%
D17*
%TO.C,H1*%
X168385000Y-118385000D03*
D18*
X168385000Y-118385000D03*
%TD*%
D35*
%TO.C,SW1*%
X135540000Y-95970000D03*
X133000000Y-95970000D03*
X133000000Y-102700000D03*
X135540000Y-102700000D03*
%TD*%
D17*
%TO.C,H3*%
X168385000Y-81615000D03*
D18*
X168385000Y-81615000D03*
%TD*%
D36*
%TO.C,D4*%
X166400000Y-123600000D03*
X164650000Y-123600000D03*
%TD*%
D37*
%TO.C,J3*%
X179400000Y-97800000D03*
D38*
X179400000Y-99800000D03*
X179400000Y-101800000D03*
%TD*%
D39*
%TO.C,C6*%
X167537500Y-87237500D03*
X169262500Y-87237500D03*
%TD*%
D40*
%TO.C,J12*%
X163400000Y-79300000D03*
D41*
X163400000Y-74300000D03*
D42*
X159900000Y-79300000D03*
X159900000Y-74300000D03*
X156400000Y-79300000D03*
X156400000Y-74300000D03*
X152900000Y-79300000D03*
X152900000Y-74300000D03*
%TD*%
D11*
%TO.C,R5*%
X148000000Y-107712500D03*
X148000000Y-105887500D03*
%TD*%
D43*
%TO.C,Q2*%
X169840000Y-106200000D03*
D44*
X172120000Y-99900000D03*
D43*
X174400000Y-106200000D03*
%TD*%
D30*
%TO.C,C2*%
X145800000Y-87600000D03*
D29*
X140800000Y-87600000D03*
%TD*%
D16*
%TO.C,R13*%
X131627500Y-104900000D03*
X133452500Y-104900000D03*
%TD*%
D17*
%TO.C,H2*%
X131615000Y-118385000D03*
D18*
X131615000Y-118385000D03*
%TD*%
D22*
%TO.C,C11*%
X125100000Y-82712500D03*
X125100000Y-84437500D03*
%TD*%
D45*
%TO.C,U4*%
X136675000Y-114905000D03*
X136675000Y-113635000D03*
X136675000Y-112365000D03*
X136675000Y-111095000D03*
X131725000Y-111095000D03*
X131725000Y-112365000D03*
X131725000Y-113635000D03*
X131725000Y-114905000D03*
%TD*%
D28*
%TO.C,C14*%
X150439646Y-93075000D03*
D29*
X155439646Y-93075000D03*
%TD*%
D40*
%TO.C,J10*%
X146900000Y-79300000D03*
D41*
X146900000Y-74300000D03*
D42*
X143400000Y-79300000D03*
X143400000Y-74300000D03*
X139900000Y-79300000D03*
X139900000Y-74300000D03*
X136400000Y-79300000D03*
X136400000Y-74300000D03*
%TD*%
D27*
%TO.C,J2*%
X120750000Y-86900000D03*
D28*
X120750000Y-90000000D03*
D29*
X123250000Y-86900000D03*
X123250000Y-90000000D03*
X125750000Y-86900000D03*
X125750000Y-90000000D03*
%TD*%
D19*
%TO.C,C7*%
X138700000Y-113925000D03*
X138700000Y-112200000D03*
%TD*%
D46*
%TO.C,D2*%
X128737500Y-114000000D03*
X128737500Y-112100000D03*
X126862500Y-113050000D03*
%TD*%
D16*
%TO.C,R9*%
X160975000Y-126200000D03*
X162800000Y-126200000D03*
%TD*%
D19*
%TO.C,C10*%
X168200000Y-125525000D03*
X168200000Y-123800000D03*
%TD*%
D37*
%TO.C,J5*%
X173700000Y-110300000D03*
D38*
X173700000Y-112300000D03*
X173700000Y-114300000D03*
%TD*%
D39*
%TO.C,C9*%
X159737500Y-102700000D03*
X161462500Y-102700000D03*
%TD*%
D21*
%TO.C,R10*%
X128300000Y-82687500D03*
X128300000Y-84512500D03*
%TD*%
D47*
%TO.C,J6*%
X150600000Y-100790000D03*
D48*
X150600000Y-103330000D03*
X150600000Y-105870000D03*
X150600000Y-108410000D03*
%TD*%
D11*
%TO.C,R8*%
X165300000Y-94625000D03*
X165300000Y-92800000D03*
%TD*%
D47*
%TO.C,U2*%
X157500000Y-128750000D03*
D48*
X157500000Y-126210000D03*
X157500000Y-123670000D03*
X157500000Y-121130000D03*
X157500000Y-118590000D03*
X157500000Y-116050000D03*
X157500000Y-113510000D03*
X142260000Y-113510000D03*
X142260000Y-116050000D03*
X142260000Y-118590000D03*
X142260000Y-121130000D03*
X142260000Y-123670000D03*
X142260000Y-126210000D03*
X142260000Y-128750000D03*
%TD*%
M02*
