%TF.GenerationSoftware,KiCad,Pcbnew,10.0.3*%
%TF.CreationDate,2026-09-13T22:30:29+02:00*%
%TF.ProjectId,DriverDasyChain,44726976-6572-4446-9173-79436861696e,rev?*%
%TF.SameCoordinates,Original*%
%TF.FileFunction,Copper,L1,Top*%
%TF.FilePolarity,Positive*%
%FSLAX46Y46*%
G04 Gerber Fmt 4.6, Leading zero omitted, Abs format (unit mm)*
G04 Created by KiCad (PCBNEW 10.0.3) date 2026-09-13 22:30:29*
%MOMM*%
%LPD*%
G01*
G04 APERTURE LIST*
G04 Aperture macros list*
%AMRoundRect*
0 Rectangle with rounded corners*
0 $1 Rounding radius*
0 $2 $3 $4 $5 $6 $7 $8 $9 X,Y pos of 4 corners*
0 Add a 4 corners polygon primitive as box body*
4,1,4,$2,$3,$4,$5,$6,$7,$8,$9,$2,$3,0*
0 Add four circle primitives for the rounded corners*
1,1,$1+$1,$2,$3*
1,1,$1+$1,$4,$5*
1,1,$1+$1,$6,$7*
1,1,$1+$1,$8,$9*
0 Add four rect primitives between the rounded corners*
20,1,$1+$1,$2,$3,$4,$5,0*
20,1,$1+$1,$4,$5,$6,$7,0*
20,1,$1+$1,$6,$7,$8,$9,0*
20,1,$1+$1,$8,$9,$2,$3,0*%
G04 Aperture macros list end*
%TA.AperFunction,SMDPad,CuDef*%
%ADD10RoundRect,0.250000X0.650000X-1.000000X0.650000X1.000000X-0.650000X1.000000X-0.650000X-1.000000X0*%
%TD*%
%TA.AperFunction,SMDPad,CuDef*%
%ADD11RoundRect,0.237500X0.237500X-0.250000X0.237500X0.250000X-0.237500X0.250000X-0.237500X-0.250000X0*%
%TD*%
%TA.AperFunction,SMDPad,CuDef*%
%ADD12RoundRect,0.250000X-1.000000X-0.650000X1.000000X-0.650000X1.000000X0.650000X-1.000000X0.650000X0*%
%TD*%
%TA.AperFunction,ComponentPad*%
%ADD13R,2.300000X1.500000*%
%TD*%
%TA.AperFunction,ComponentPad*%
%ADD14RoundRect,0.250001X-0.899999X0.499999X-0.899999X-0.499999X0.899999X-0.499999X0.899999X0.499999X0*%
%TD*%
%TA.AperFunction,ComponentPad*%
%ADD15O,2.300000X1.500000*%
%TD*%
%TA.AperFunction,SMDPad,CuDef*%
%ADD16RoundRect,0.237500X-0.250000X-0.237500X0.250000X-0.237500X0.250000X0.237500X-0.250000X0.237500X0*%
%TD*%
%TA.AperFunction,ComponentPad*%
%ADD17C,2.600000*%
%TD*%
%TA.AperFunction,ConnectorPad*%
%ADD18C,4.400000*%
%TD*%
%TA.AperFunction,SMDPad,CuDef*%
%ADD19RoundRect,0.237500X0.237500X-0.300000X0.237500X0.300000X-0.237500X0.300000X-0.237500X-0.300000X0*%
%TD*%
%TA.AperFunction,SMDPad,CuDef*%
%ADD20RoundRect,0.150000X-0.512500X-0.150000X0.512500X-0.150000X0.512500X0.150000X-0.512500X0.150000X0*%
%TD*%
%TA.AperFunction,SMDPad,CuDef*%
%ADD21RoundRect,0.237500X-0.237500X0.250000X-0.237500X-0.250000X0.237500X-0.250000X0.237500X0.250000X0*%
%TD*%
%TA.AperFunction,SMDPad,CuDef*%
%ADD22RoundRect,0.237500X-0.237500X0.300000X-0.237500X-0.300000X0.237500X-0.300000X0.237500X0.300000X0*%
%TD*%
%TA.AperFunction,SMDPad,CuDef*%
%ADD23RoundRect,0.250000X-0.650000X1.000000X-0.650000X-1.000000X0.650000X-1.000000X0.650000X1.000000X0*%
%TD*%
%TA.AperFunction,SMDPad,CuDef*%
%ADD24R,0.800000X1.000000*%
%TD*%
%TA.AperFunction,SMDPad,CuDef*%
%ADD25R,1.500000X0.700000*%
%TD*%
%TA.AperFunction,ComponentPad*%
%ADD26R,2.000000X2.000000*%
%TD*%
%TA.AperFunction,ComponentPad*%
%ADD27RoundRect,0.250000X-0.750000X-0.750000X0.750000X-0.750000X0.750000X0.750000X-0.750000X0.750000X0*%
%TD*%
%TA.AperFunction,ComponentPad*%
%ADD28C,2.000000*%
%TD*%
%TA.AperFunction,ComponentPad*%
%ADD29RoundRect,0.250000X0.750000X0.750000X-0.750000X0.750000X-0.750000X-0.750000X0.750000X-0.750000X0*%
%TD*%
%TA.AperFunction,SMDPad,CuDef*%
%ADD30RoundRect,0.237500X0.250000X0.237500X-0.250000X0.237500X-0.250000X-0.237500X0.250000X-0.237500X0*%
%TD*%
%TA.AperFunction,SMDPad,CuDef*%
%ADD31RoundRect,0.250000X0.475000X-0.337500X0.475000X0.337500X-0.475000X0.337500X-0.475000X-0.337500X0*%
%TD*%
%TA.AperFunction,ComponentPad*%
%ADD32C,1.600000*%
%TD*%
%TA.AperFunction,SMDPad,CuDef*%
%ADD33RoundRect,0.250000X-0.337500X-0.475000X0.337500X-0.475000X0.337500X0.475000X-0.337500X0.475000X0*%
%TD*%
%TA.AperFunction,SMDPad,CuDef*%
%ADD34RoundRect,0.250000X-0.310000X0.830000X-0.310000X-0.830000X0.310000X-0.830000X0.310000X0.830000X0*%
%TD*%
%TA.AperFunction,SMDPad,CuDef*%
%ADD35RoundRect,0.237500X0.287500X0.237500X-0.287500X0.237500X-0.287500X-0.237500X0.287500X-0.237500X0*%
%TD*%
%TA.AperFunction,ComponentPad*%
%ADD36RoundRect,0.250000X-0.625000X0.350000X-0.625000X-0.350000X0.625000X-0.350000X0.625000X0.350000X0*%
%TD*%
%TA.AperFunction,ComponentPad*%
%ADD37O,1.750000X1.200000*%
%TD*%
%TA.AperFunction,SMDPad,CuDef*%
%ADD38RoundRect,0.237500X-0.300000X-0.237500X0.300000X-0.237500X0.300000X0.237500X-0.300000X0.237500X0*%
%TD*%
%TA.AperFunction,ComponentPad*%
%ADD39R,1.500000X2.300000*%
%TD*%
%TA.AperFunction,ComponentPad*%
%ADD40RoundRect,0.250001X0.499999X0.899999X-0.499999X0.899999X-0.499999X-0.899999X0.499999X-0.899999X0*%
%TD*%
%TA.AperFunction,ComponentPad*%
%ADD41O,1.500000X2.300000*%
%TD*%
%TA.AperFunction,SMDPad,CuDef*%
%ADD42RoundRect,0.250000X0.350000X-0.850000X0.350000X0.850000X-0.350000X0.850000X-0.350000X-0.850000X0*%
%TD*%
%TA.AperFunction,SMDPad,CuDef*%
%ADD43RoundRect,0.249997X2.650003X-2.950003X2.650003X2.950003X-2.650003X2.950003X-2.650003X-2.950003X0*%
%TD*%
%TA.AperFunction,SMDPad,CuDef*%
%ADD44RoundRect,0.150000X0.825000X0.150000X-0.825000X0.150000X-0.825000X-0.150000X0.825000X-0.150000X0*%
%TD*%
%TA.AperFunction,SMDPad,CuDef*%
%ADD45RoundRect,0.150000X0.587500X0.150000X-0.587500X0.150000X-0.587500X-0.150000X0.587500X-0.150000X0*%
%TD*%
%TA.AperFunction,ComponentPad*%
%ADD46R,1.700000X1.700000*%
%TD*%
%TA.AperFunction,ComponentPad*%
%ADD47C,1.700000*%
%TD*%
%TA.AperFunction,ViaPad*%
%ADD48C,1.000000*%
%TD*%
%TA.AperFunction,ViaPad*%
%ADD49C,0.600000*%
%TD*%
%TA.AperFunction,ViaPad*%
%ADD50C,0.800000*%
%TD*%
%TA.AperFunction,Conductor*%
%ADD51C,1.500000*%
%TD*%
%TA.AperFunction,Conductor*%
%ADD52C,0.600000*%
%TD*%
%TA.AperFunction,Conductor*%
%ADD53C,0.250000*%
%TD*%
%TA.AperFunction,Conductor*%
%ADD54C,1.000000*%
%TD*%
G04 APERTURE END LIST*
D10*
%TO.P,D5,1,A1_1*%
%TO.N,/BRAKE Out*%
X177700000Y-93600000D03*
%TO.P,D5,2,A2_2*%
%TO.N,GND*%
X177700000Y-89600000D03*
%TD*%
D11*
%TO.P,R6,1*%
%TO.N,/CAN_SHLD*%
X126700000Y-84512500D03*
%TO.P,R6,2*%
%TO.N,GND*%
X126700000Y-82687500D03*
%TD*%
D12*
%TO.P,D3,1,A1_1*%
%TO.N,GND*%
X159300000Y-84000000D03*
%TO.P,D3,2,A2_2*%
%TO.N,+5V*%
X163300000Y-84000000D03*
%TD*%
D13*
%TO.P,J4,1,Pin_1_1*%
%TO.N,/CANH*%
X127600000Y-97700000D03*
D14*
X122600000Y-97700000D03*
D15*
%TO.P,J4,2,Pin_2_2*%
%TO.N,/CANL*%
X127600000Y-101200000D03*
X122600000Y-101200000D03*
%TO.P,J4,3,Pin_3_3*%
%TO.N,GND*%
X127600000Y-104700000D03*
X122600000Y-104700000D03*
%TO.P,J4,4,Pin_4_4*%
%TO.N,+48V*%
X127600000Y-108200000D03*
X122600000Y-108200000D03*
%TD*%
D11*
%TO.P,R3,1*%
%TO.N,/GPIO D0 (XIAO-ESP32-S3)*%
X157400000Y-105300000D03*
%TO.P,R3,2*%
%TO.N,GND*%
X157400000Y-103475000D03*
%TD*%
D16*
%TO.P,R2,1*%
%TO.N,/Driver Out*%
X163800000Y-106200000D03*
%TO.P,R2,2*%
%TO.N,/BRAKE GATE*%
X165625000Y-106200000D03*
%TD*%
D17*
%TO.P,H4,1*%
%TO.N,N/C*%
X131615000Y-81615000D03*
D18*
X131615000Y-81615000D03*
%TD*%
D19*
%TO.P,C5,1*%
%TO.N,GND*%
X161300000Y-88662500D03*
%TO.P,C5,2*%
%TO.N,+5V*%
X161300000Y-86937500D03*
%TD*%
D20*
%TO.P,U3,1*%
%TO.N,GND*%
X159525000Y-104300000D03*
%TO.P,U3,2*%
%TO.N,/GPIO D0 (XIAO-ESP32-S3)*%
X159525000Y-105250000D03*
%TO.P,U3,3,GND_3*%
%TO.N,GND*%
X159525000Y-106200000D03*
%TO.P,U3,4*%
%TO.N,/Driver Out*%
X161800000Y-106200000D03*
%TO.P,U3,5,VCC_5*%
%TO.N,+5V*%
X161800000Y-104300000D03*
%TD*%
D21*
%TO.P,R4,1*%
%TO.N,/BRAKE GATE*%
X167500000Y-106200000D03*
%TO.P,R4,2*%
%TO.N,GND*%
X167500000Y-108025000D03*
%TD*%
D22*
%TO.P,C1,1*%
%TO.N,+5V*%
X176750000Y-110575000D03*
%TO.P,C1,2*%
%TO.N,GND*%
X176750000Y-112300000D03*
%TD*%
D23*
%TO.P,D1,1,K_1*%
%TO.N,+48V*%
X173900000Y-90700000D03*
%TO.P,D1,2,A_2*%
%TO.N,/BRAKE Out*%
X173900000Y-94700000D03*
%TD*%
D24*
%TO.P,SW2,*%
%TO.N,*%
X136910000Y-122450000D03*
X134700000Y-122450000D03*
X136910000Y-129750000D03*
X134700000Y-129750000D03*
D25*
%TO.P,SW2,1,A_1*%
%TO.N,+3.3V*%
X137560000Y-123850000D03*
%TO.P,SW2,2,B_2*%
%TO.N,Net-(SW2-B)*%
X137560000Y-126850000D03*
%TO.P,SW2,3,C_3*%
%TO.N,unconnected-(SW2-C-Pad3)*%
X137560000Y-128350000D03*
%TD*%
D16*
%TO.P,R12,1*%
%TO.N,/Endresistor*%
X135140000Y-104900000D03*
%TO.P,R12,2*%
%TO.N,/Endresistor CANL*%
X136965000Y-104900000D03*
%TD*%
D20*
%TO.P,U1,1,VIN_1*%
%TO.N,+5V*%
X163325000Y-87237500D03*
%TO.P,U1,2,GND_2*%
%TO.N,GND*%
X163325000Y-88187500D03*
%TO.P,U1,3,EN_3*%
%TO.N,+5V*%
X163325000Y-89137500D03*
%TO.P,U1,4,NC_4*%
%TO.N,unconnected-(U1-NC-Pad4)*%
X165600000Y-89137500D03*
%TO.P,U1,5,VOUT_5*%
%TO.N,+3.3V*%
X165600000Y-87237500D03*
%TD*%
D26*
%TO.P,J1,1,Pin_1_1*%
%TO.N,/CANH*%
X129750000Y-86900000D03*
D27*
X129750000Y-90000000D03*
D28*
%TO.P,J1,2,Pin_2_2*%
%TO.N,/CANL*%
X132250000Y-86900000D03*
X132250000Y-90000000D03*
%TO.P,J1,3,Pin_3_3*%
%TO.N,/CAN_SHLD*%
X134750000Y-86900000D03*
X134750000Y-90000000D03*
%TD*%
D22*
%TO.P,C13,1*%
%TO.N,/Endresistor*%
X134340000Y-106637500D03*
%TO.P,C13,2*%
%TO.N,GND*%
X134340000Y-108362500D03*
%TD*%
D16*
%TO.P,R11,1*%
%TO.N,/GPIO D2 (XIAO-ESP32-S3)*%
X160975000Y-123600000D03*
%TO.P,R11,2*%
%TO.N,Net-(D4-A)*%
X162800000Y-123600000D03*
%TD*%
D29*
%TO.P,C3,1*%
%TO.N,+48V*%
X145900000Y-98400000D03*
D28*
%TO.P,C3,2*%
%TO.N,GND*%
X140900000Y-98400000D03*
%TD*%
D21*
%TO.P,R14,1*%
%TO.N,Net-(J6-Pin_2)*%
X153200000Y-103375000D03*
%TO.P,R14,2*%
%TO.N,/GPIO D6 (XIAO-ESP32-S3)*%
X153200000Y-105200000D03*
%TD*%
%TO.P,R1,1*%
%TO.N,/TLE4905L Out*%
X176750000Y-114200000D03*
%TO.P,R1,2*%
%TO.N,+3.3V*%
X176750000Y-116025000D03*
%TD*%
D30*
%TO.P,R7,1*%
%TO.N,/BRAKE Out*%
X171025000Y-94700000D03*
%TO.P,R7,2*%
%TO.N,/GPIO D3 (XIAO-ESP32-S3)*%
X169200000Y-94700000D03*
%TD*%
D19*
%TO.P,C12,1*%
%TO.N,/GPIO D3 (XIAO-ESP32-S3)*%
X167200000Y-94625000D03*
%TO.P,C12,2*%
%TO.N,GND*%
X167200000Y-92900000D03*
%TD*%
D31*
%TO.P,C8,1*%
%TO.N,GND*%
X159400000Y-88900000D03*
%TO.P,C8,2*%
%TO.N,+5V*%
X159400000Y-86825000D03*
%TD*%
D32*
%TO.P,F1,1*%
%TO.N,/BRAKE +48V*%
X179050000Y-86800000D03*
%TO.P,F1,2*%
%TO.N,+48V*%
X173950000Y-85600000D03*
%TD*%
D33*
%TO.P,C4,1*%
%TO.N,GND*%
X168925000Y-90700000D03*
%TO.P,C4,2*%
%TO.N,+48V*%
X171000000Y-90700000D03*
%TD*%
D17*
%TO.P,H1,1*%
%TO.N,N/C*%
X168385000Y-118385000D03*
D18*
X168385000Y-118385000D03*
%TD*%
D34*
%TO.P,SW1,1*%
%TO.N,/CANL*%
X135540000Y-95970000D03*
%TO.P,SW1,2*%
%TO.N,/CANH*%
X133000000Y-95970000D03*
%TO.P,SW1,3*%
%TO.N,/Endresistor CANH*%
X133000000Y-102700000D03*
%TO.P,SW1,4*%
%TO.N,/Endresistor CANL*%
X135540000Y-102700000D03*
%TD*%
D17*
%TO.P,H3,1*%
%TO.N,N/C*%
X168385000Y-81615000D03*
D18*
X168385000Y-81615000D03*
%TD*%
D35*
%TO.P,D4,1,K_1*%
%TO.N,GND*%
X166400000Y-123600000D03*
%TO.P,D4,2,A_2*%
%TO.N,Net-(D4-A)*%
X164650000Y-123600000D03*
%TD*%
D36*
%TO.P,J3,1,Pin_1_1*%
%TO.N,/BRAKE +48V*%
X179400000Y-97800000D03*
D37*
%TO.P,J3,2,Pin_2_2*%
%TO.N,/BRAKE Out*%
X179400000Y-99800000D03*
%TO.P,J3,3,Pin_3_3*%
%TO.N,unconnected-(J3-Pin_3-Pad3)*%
X179400000Y-101800000D03*
%TD*%
D38*
%TO.P,C6,1*%
%TO.N,+3.3V*%
X167537500Y-87237500D03*
%TO.P,C6,2*%
%TO.N,GND*%
X169262500Y-87237500D03*
%TD*%
D39*
%TO.P,J12,1,Pin_1_1*%
%TO.N,+5V*%
X163400000Y-79300000D03*
D40*
X163400000Y-74300000D03*
D41*
%TO.P,J12,2,Pin_2_2*%
%TO.N,GND*%
X159900000Y-79300000D03*
X159900000Y-74300000D03*
%TO.P,J12,3,Pin_3_3*%
X156400000Y-79300000D03*
X156400000Y-74300000D03*
%TO.P,J12,4,Pin_4_4*%
%TO.N,+48V*%
X152900000Y-79300000D03*
X152900000Y-74300000D03*
%TD*%
D11*
%TO.P,R5,1*%
%TO.N,/GPIO D7 (XIAO-ESP32-S3)*%
X148000000Y-107712500D03*
%TO.P,R5,2*%
%TO.N,Net-(J6-Pin_3)*%
X148000000Y-105887500D03*
%TD*%
D42*
%TO.P,Q2,1,G_1*%
%TO.N,/BRAKE GATE*%
X169840000Y-106200000D03*
D43*
%TO.P,Q2,2,D_2*%
%TO.N,/BRAKE Out*%
X172120000Y-99900000D03*
D42*
%TO.P,Q2,3,S_3*%
%TO.N,GND*%
X174400000Y-106200000D03*
%TD*%
D29*
%TO.P,C2,1*%
%TO.N,+48V*%
X145800000Y-87600000D03*
D28*
%TO.P,C2,2*%
%TO.N,GND*%
X140800000Y-87600000D03*
%TD*%
D16*
%TO.P,R13,1*%
%TO.N,/Endresistor CANH*%
X131627500Y-104900000D03*
%TO.P,R13,2*%
%TO.N,/Endresistor*%
X133452500Y-104900000D03*
%TD*%
D17*
%TO.P,H2,1*%
%TO.N,N/C*%
X131615000Y-118385000D03*
D18*
X131615000Y-118385000D03*
%TD*%
D22*
%TO.P,C11,1*%
%TO.N,GND*%
X125100000Y-82712500D03*
%TO.P,C11,2*%
%TO.N,/CAN_SHLD*%
X125100000Y-84437500D03*
%TD*%
D44*
%TO.P,U4,1,D_1*%
%TO.N,/CAN TX*%
X136675000Y-114905000D03*
%TO.P,U4,2,GND_2*%
%TO.N,GND*%
X136675000Y-113635000D03*
%TO.P,U4,3,VCC_3*%
%TO.N,+3.3V*%
X136675000Y-112365000D03*
%TO.P,U4,4,R_4*%
%TO.N,/CAN RX*%
X136675000Y-111095000D03*
%TO.P,U4,5,Vref_5*%
%TO.N,unconnected-(U4-Vref-Pad5)*%
X131725000Y-111095000D03*
%TO.P,U4,6,CANL_6*%
%TO.N,/CANL*%
X131725000Y-112365000D03*
%TO.P,U4,7,CANH_7*%
%TO.N,/CANH*%
X131725000Y-113635000D03*
%TO.P,U4,8,Rs_8*%
%TO.N,GND*%
X131725000Y-114905000D03*
%TD*%
D27*
%TO.P,C14,1*%
%TO.N,+48V*%
X150439646Y-93075000D03*
D28*
%TO.P,C14,2*%
%TO.N,GND*%
X155439646Y-93075000D03*
%TD*%
D39*
%TO.P,J10,1,Pin_1_1*%
%TO.N,+5V*%
X146900000Y-79300000D03*
D40*
X146900000Y-74300000D03*
D41*
%TO.P,J10,2,Pin_2_2*%
%TO.N,GND*%
X143400000Y-79300000D03*
X143400000Y-74300000D03*
%TO.P,J10,3,Pin_3_3*%
X139900000Y-79300000D03*
X139900000Y-74300000D03*
%TO.P,J10,4,Pin_4_4*%
%TO.N,+48V*%
X136400000Y-79300000D03*
X136400000Y-74300000D03*
%TD*%
D26*
%TO.P,J2,1,Pin_1_1*%
%TO.N,/CANH*%
X120750000Y-86900000D03*
D27*
X120750000Y-90000000D03*
D28*
%TO.P,J2,2,Pin_2_2*%
%TO.N,/CANL*%
X123250000Y-86900000D03*
X123250000Y-90000000D03*
%TO.P,J2,3,Pin_3_3*%
%TO.N,/CAN_SHLD*%
X125750000Y-86900000D03*
X125750000Y-90000000D03*
%TD*%
D19*
%TO.P,C7,1*%
%TO.N,GND*%
X138700000Y-113925000D03*
%TO.P,C7,2*%
%TO.N,+3.3V*%
X138700000Y-112200000D03*
%TD*%
D45*
%TO.P,D2,1,K_1*%
%TO.N,/CANH*%
X128737500Y-114000000D03*
%TO.P,D2,2,K_2*%
%TO.N,/CANL*%
X128737500Y-112100000D03*
%TO.P,D2,3,A_3*%
%TO.N,GND*%
X126862500Y-113050000D03*
%TD*%
D16*
%TO.P,R9,1*%
%TO.N,/GPIO D1 (XIAO-ESP32-S3)*%
X160975000Y-126200000D03*
%TO.P,R9,2*%
%TO.N,/TLE4905L Out*%
X162800000Y-126200000D03*
%TD*%
D19*
%TO.P,C10,1*%
%TO.N,/TLE4905L Out*%
X168200000Y-125525000D03*
%TO.P,C10,2*%
%TO.N,GND*%
X168200000Y-123800000D03*
%TD*%
D36*
%TO.P,J5,1,Pin_1_1*%
%TO.N,+5V*%
X173700000Y-110300000D03*
D37*
%TO.P,J5,2,Pin_2_2*%
%TO.N,GND*%
X173700000Y-112300000D03*
%TO.P,J5,3,Pin_3_3*%
%TO.N,/TLE4905L Out*%
X173700000Y-114300000D03*
%TD*%
D38*
%TO.P,C9,1*%
%TO.N,GND*%
X159737500Y-102700000D03*
%TO.P,C9,2*%
%TO.N,+5V*%
X161462500Y-102700000D03*
%TD*%
D21*
%TO.P,R10,1*%
%TO.N,GND*%
X128300000Y-82687500D03*
%TO.P,R10,2*%
%TO.N,/CAN_SHLD*%
X128300000Y-84512500D03*
%TD*%
D46*
%TO.P,J6,1,Pin_1_1*%
%TO.N,GND*%
X150600000Y-100790000D03*
D47*
%TO.P,J6,2,Pin_2_2*%
%TO.N,Net-(J6-Pin_2)*%
X150600000Y-103330000D03*
%TO.P,J6,3,Pin_3_3*%
%TO.N,Net-(J6-Pin_3)*%
X150600000Y-105870000D03*
%TO.P,J6,4,Pin_4_4*%
%TO.N,+3.3V*%
X150600000Y-108410000D03*
%TD*%
D11*
%TO.P,R8,1*%
%TO.N,/GPIO D3 (XIAO-ESP32-S3)*%
X165300000Y-94625000D03*
%TO.P,R8,2*%
%TO.N,GND*%
X165300000Y-92800000D03*
%TD*%
D46*
%TO.P,U2,1,GPIO1_A0_D0_1*%
%TO.N,/GPIO D0 (XIAO-ESP32-S3)*%
X157500000Y-128750000D03*
D47*
%TO.P,U2,2,GPIO2_A1_D1_2*%
%TO.N,/GPIO D1 (XIAO-ESP32-S3)*%
X157500000Y-126210000D03*
%TO.P,U2,3,GPIO3_A2_D2_3*%
%TO.N,/GPIO D2 (XIAO-ESP32-S3)*%
X157500000Y-123670000D03*
%TO.P,U2,4,GPIO4_A3_D3_4*%
%TO.N,/GPIO D3 (XIAO-ESP32-S3)*%
X157500000Y-121130000D03*
%TO.P,U2,5,GPIO5_A4_D4_SDA_5*%
%TO.N,unconnected-(U2-GPIO5_A4_D4_SDA-Pad5)*%
X157500000Y-118590000D03*
%TO.P,U2,6,GPIO6_A5_D5_SCL_6*%
%TO.N,unconnected-(U2-GPIO6_A5_D5_SCL-Pad6)*%
X157500000Y-116050000D03*
%TO.P,U2,7,GPIO43_D6_TX_7*%
%TO.N,/GPIO D6 (XIAO-ESP32-S3)*%
X157500000Y-113510000D03*
%TO.P,U2,8,GPIO44_D7_RX_8*%
%TO.N,/GPIO D7 (XIAO-ESP32-S3)*%
X142260000Y-113510000D03*
%TO.P,U2,9,GPIO7_A8_D8_SCK_9*%
%TO.N,unconnected-(U2-GPIO7_A8_D8_SCK-Pad9)*%
X142260000Y-116050000D03*
%TO.P,U2,10,GPIO8_A9_D9_MISO_10*%
%TO.N,/CAN RX*%
X142260000Y-118590000D03*
%TO.P,U2,11,GPIO9_A10_D10_MOSI_11*%
%TO.N,/CAN TX*%
X142260000Y-121130000D03*
%TO.P,U2,12,3V3_12*%
%TO.N,Net-(SW2-B)*%
X142260000Y-123670000D03*
%TO.P,U2,13,GND_13*%
%TO.N,GND*%
X142260000Y-126210000D03*
%TO.P,U2,14,VBUS_14*%
%TO.N,unconnected-(U2-VBUS-Pad14)*%
X142260000Y-128750000D03*
%TD*%
D48*
%TO.N,+48V*%
X173900000Y-88200000D03*
%TO.N,GND*%
X176500000Y-87100000D03*
X176400000Y-106100000D03*
D49*
X134417500Y-114217500D03*
X158500000Y-102800000D03*
D48*
X144400000Y-126200000D03*
D49*
X166200000Y-92900000D03*
X167300000Y-123600000D03*
X170500000Y-87200000D03*
X150600000Y-98700000D03*
X166400000Y-108000000D03*
D48*
X157000000Y-84000000D03*
D49*
X124000000Y-82700000D03*
X177900000Y-112300000D03*
X124900000Y-113100000D03*
X159500000Y-107200000D03*
X167700000Y-90700000D03*
X158000000Y-88800000D03*
X135462500Y-108362500D03*
%TO.N,+5V*%
X163300000Y-90200000D03*
D50*
X171300000Y-110300000D03*
X162700000Y-102700000D03*
D49*
%TO.N,/CANH*%
X118150000Y-100200000D03*
X119500000Y-91750000D03*
%TO.N,/CANL*%
X120050000Y-101800000D03*
X121950000Y-91750000D03*
D50*
%TO.N,+3.3V*%
X166600000Y-88200000D03*
X139100000Y-123800000D03*
D49*
X135000000Y-112365000D03*
D50*
X150600000Y-110400000D03*
X171200000Y-116000000D03*
D49*
%TO.N,/GPIO D6 (XIAO-ESP32-S3)*%
X153200000Y-113500000D03*
X155400000Y-113500000D03*
%TO.N,/GPIO D3 (XIAO-ESP32-S3)*%
X155600000Y-121130000D03*
X153800000Y-121100000D03*
%TD*%
%TO.N,/BRAKE +48V*%
D51*
X179050000Y-86800000D02*
X180400000Y-88150000D01*
X180400000Y-88150000D02*
X180400000Y-96800000D01*
X180400000Y-96800000D02*
X179400000Y-97800000D01*
%TO.N,+48V*%
X173900000Y-88200000D02*
X173900000Y-85650000D01*
%TO.N,GND*%
X176500000Y-87100000D02*
X176500000Y-88400000D01*
X176500000Y-88400000D02*
X177700000Y-89600000D01*
%TO.N,/BRAKE Out*%
X173900000Y-94700000D02*
X174400000Y-94700000D01*
X174400000Y-94700000D02*
X175500000Y-93600000D01*
X175500000Y-93600000D02*
X177700000Y-93600000D01*
%TO.N,+48V*%
X173900000Y-90700000D02*
X173900000Y-88200000D01*
X173900000Y-85650000D02*
X173950000Y-85600000D01*
%TO.N,Net-(SW2-B)*%
D52*
X137560000Y-126850000D02*
X137610000Y-126800000D01*
X137610000Y-126800000D02*
X138800000Y-126800000D01*
X138800000Y-126800000D02*
X140000000Y-125600000D01*
X140000000Y-125600000D02*
X140000000Y-124600000D01*
X140000000Y-124600000D02*
X140930000Y-123670000D01*
X140930000Y-123670000D02*
X142260000Y-123670000D01*
%TO.N,/BRAKE Out*%
D51*
X179400000Y-99800000D02*
X172220000Y-99800000D01*
X172220000Y-99800000D02*
X172120000Y-99900000D01*
%TO.N,GND*%
X176400000Y-106100000D02*
X174500000Y-106100000D01*
X174500000Y-106100000D02*
X174400000Y-106200000D01*
%TO.N,/GPIO D7 (XIAO-ESP32-S3)*%
D53*
X142260000Y-113510000D02*
X144290000Y-113510000D01*
X144290000Y-113510000D02*
X148000000Y-109800000D01*
X148000000Y-109800000D02*
X148000000Y-107712500D01*
%TO.N,+3.3V*%
D52*
X137610000Y-123800000D02*
X137560000Y-123850000D01*
X139100000Y-123800000D02*
X137610000Y-123800000D01*
%TO.N,GND*%
X134417500Y-114217500D02*
X133730000Y-114905000D01*
%TO.N,/CAN TX*%
D53*
X142260000Y-121130000D02*
X141030000Y-121130000D01*
X141030000Y-121130000D02*
X138600000Y-118700000D01*
X138600000Y-118700000D02*
X138600000Y-115100000D01*
X138600000Y-115100000D02*
X138400000Y-114900000D01*
X138400000Y-114900000D02*
X138395000Y-114905000D01*
X138395000Y-114905000D02*
X136675000Y-114905000D01*
%TO.N,/CAN RX*%
X142260000Y-118590000D02*
X141010000Y-118590000D01*
X141010000Y-118590000D02*
X141000000Y-118600000D01*
X141000000Y-118600000D02*
X140300000Y-117900000D01*
X140300000Y-117900000D02*
X140300000Y-112000000D01*
X140300000Y-112000000D02*
X139395000Y-111095000D01*
X139395000Y-111095000D02*
X136675000Y-111095000D01*
%TO.N,/CANH*%
X131725000Y-113635000D02*
X130465000Y-113635000D01*
X130465000Y-113635000D02*
X130100000Y-114000000D01*
X130100000Y-114000000D02*
X128737500Y-114000000D01*
%TO.N,/CANL*%
X130465000Y-112365000D02*
X130200000Y-112100000D01*
X131725000Y-112365000D02*
X130465000Y-112365000D01*
X130200000Y-112100000D02*
X128737500Y-112100000D01*
X121950000Y-91750000D02*
X122650000Y-91750000D01*
X122650000Y-91750000D02*
X123250000Y-91150000D01*
X123250000Y-91150000D02*
X123250000Y-90000000D01*
%TO.N,/CANH*%
X119500000Y-91750000D02*
X120150000Y-91750000D01*
X120150000Y-91750000D02*
X120750000Y-91150000D01*
X120750000Y-91150000D02*
X120750000Y-90000000D01*
%TO.N,/CAN_SHLD*%
X125100000Y-86250000D02*
X125100000Y-84437500D01*
X126625000Y-84437500D02*
X126700000Y-84512500D01*
X125100000Y-84437500D02*
X126625000Y-84437500D01*
X128300000Y-84512500D02*
X133612500Y-84512500D01*
X125750000Y-86900000D02*
X125100000Y-86250000D01*
X134750000Y-85650000D02*
X134750000Y-86900000D01*
X133612500Y-84512500D02*
X134750000Y-85650000D01*
X126700000Y-84512500D02*
X128300000Y-84512500D01*
X134750000Y-90000000D02*
X134750000Y-86900000D01*
X125750000Y-86900000D02*
X125750000Y-90000000D01*
%TO.N,GND*%
X159300000Y-88800000D02*
X159400000Y-88900000D01*
D52*
X135000000Y-113635000D02*
X134417500Y-114217500D01*
D53*
X134340000Y-108362500D02*
X135462500Y-108362500D01*
X161300000Y-88662500D02*
X159637500Y-88662500D01*
D54*
X144400000Y-126200000D02*
X142270000Y-126200000D01*
D53*
X169462500Y-87200000D02*
X169425000Y-87237500D01*
X158500000Y-102800000D02*
X159500000Y-102800000D01*
X126812500Y-113100000D02*
X126862500Y-113050000D01*
X169425000Y-87237500D02*
X169262500Y-87237500D01*
D52*
X136675000Y-113635000D02*
X138410000Y-113635000D01*
D53*
X126675000Y-82712500D02*
X126700000Y-82687500D01*
D52*
X170500000Y-87200000D02*
X169300000Y-87200000D01*
X173700000Y-112300000D02*
X176750000Y-112300000D01*
X159525000Y-104300000D02*
X159525000Y-103675000D01*
D53*
X167300000Y-123600000D02*
X168000000Y-123600000D01*
X158000000Y-88800000D02*
X159300000Y-88800000D01*
D54*
X167700000Y-90700000D02*
X168925000Y-90700000D01*
D53*
X150600000Y-100790000D02*
X150600000Y-98700000D01*
D54*
X159300000Y-84000000D02*
X157000000Y-84000000D01*
D52*
X159525000Y-103675000D02*
X159737500Y-103462500D01*
X159737500Y-103462500D02*
X159737500Y-102700000D01*
X138410000Y-113635000D02*
X138700000Y-113925000D01*
D53*
X166400000Y-108000000D02*
X167475000Y-108000000D01*
D52*
X133730000Y-114905000D02*
X131725000Y-114905000D01*
D53*
X158500000Y-102800000D02*
X158075000Y-102800000D01*
X166400000Y-123600000D02*
X167300000Y-123600000D01*
D52*
X176750000Y-112300000D02*
X177900000Y-112300000D01*
D53*
X124012500Y-82712500D02*
X124000000Y-82700000D01*
X165400000Y-92900000D02*
X165300000Y-92800000D01*
X161775000Y-88187500D02*
X163325000Y-88187500D01*
X167475000Y-108000000D02*
X167500000Y-108025000D01*
D54*
X142270000Y-126200000D02*
X142260000Y-126210000D01*
D53*
X159500000Y-102800000D02*
X159600000Y-102700000D01*
X125100000Y-82712500D02*
X126675000Y-82712500D01*
X159525000Y-102775000D02*
X159600000Y-102700000D01*
X125100000Y-82712500D02*
X124012500Y-82712500D01*
X159500000Y-106225000D02*
X159525000Y-106200000D01*
D52*
X169300000Y-87200000D02*
X169262500Y-87237500D01*
D53*
X158075000Y-102800000D02*
X157400000Y-103475000D01*
X159637500Y-88662500D02*
X159400000Y-88900000D01*
D52*
X159200000Y-89100000D02*
X159400000Y-88900000D01*
D53*
X124900000Y-113100000D02*
X126812500Y-113100000D01*
X167200000Y-92900000D02*
X166200000Y-92900000D01*
X166200000Y-92900000D02*
X165400000Y-92900000D01*
X126700000Y-82687500D02*
X128300000Y-82687500D01*
X168000000Y-123600000D02*
X168200000Y-123800000D01*
D52*
X134400000Y-108422500D02*
X134340000Y-108362500D01*
X136675000Y-113635000D02*
X135000000Y-113635000D01*
D53*
X159600000Y-102700000D02*
X159737500Y-102700000D01*
X161300000Y-88662500D02*
X161775000Y-88187500D01*
X159500000Y-107200000D02*
X159500000Y-106225000D01*
%TO.N,+5V*%
D52*
X163325000Y-84025000D02*
X163300000Y-84000000D01*
X171300000Y-110300000D02*
X173700000Y-110300000D01*
D53*
X176725000Y-110400000D02*
X176750000Y-110425000D01*
D52*
X163325000Y-87237500D02*
X161600000Y-87237500D01*
X161800000Y-103800000D02*
X161462500Y-103462500D01*
D54*
X163300000Y-79300000D02*
X163300000Y-84000000D01*
D52*
X163325000Y-87237500D02*
X163325000Y-84025000D01*
D53*
X163300000Y-89162500D02*
X163325000Y-89137500D01*
D52*
X161462500Y-102700000D02*
X162700000Y-102700000D01*
X161600000Y-87237500D02*
X161300000Y-86937500D01*
D54*
X163300000Y-79300000D02*
X163300000Y-74300000D01*
D53*
X163300000Y-90200000D02*
X163300000Y-89162500D01*
D52*
X161800000Y-104300000D02*
X161800000Y-103800000D01*
X161300000Y-86937500D02*
X159512500Y-86937500D01*
X161462500Y-103462500D02*
X161462500Y-102700000D01*
X159512500Y-86937500D02*
X159400000Y-86825000D01*
X176750000Y-110575000D02*
X173975000Y-110575000D01*
X173975000Y-110575000D02*
X173700000Y-110300000D01*
X173600000Y-110200000D02*
X173700000Y-110300000D01*
%TO.N,/CANH*%
D53*
X133000000Y-97300000D02*
X132600000Y-97700000D01*
X129750000Y-91000000D02*
X129750000Y-90000000D01*
X122600000Y-97700000D02*
X120650000Y-97700000D01*
X133000000Y-94250000D02*
X129750000Y-91000000D01*
X120650000Y-97700000D02*
X118150000Y-100200000D01*
X118150000Y-110350000D02*
X121800000Y-114000000D01*
X133000000Y-95970000D02*
X133000000Y-97300000D01*
X118150000Y-100200000D02*
X118150000Y-110350000D01*
X129750000Y-90000000D02*
X129750000Y-86900000D01*
X133000000Y-95970000D02*
X133000000Y-94250000D01*
X132600000Y-97700000D02*
X127600000Y-97700000D01*
X121800000Y-114000000D02*
X128737500Y-114000000D01*
X122600000Y-97700000D02*
X127600000Y-97700000D01*
X120750000Y-86900000D02*
X120750000Y-90000000D01*
%TO.N,/CANL*%
X133500000Y-100700000D02*
X128100000Y-100700000D01*
X132250000Y-86900000D02*
X132200000Y-86850000D01*
X132250000Y-86900000D02*
X132250000Y-90000000D01*
X135540000Y-95970000D02*
X135540000Y-98660000D01*
X128737500Y-112100000D02*
X122850000Y-112100000D01*
X135540000Y-98660000D02*
X133500000Y-100700000D01*
X132250000Y-91050000D02*
X132250000Y-90000000D01*
X127600000Y-101200000D02*
X122600000Y-101200000D01*
X123250000Y-86900000D02*
X123250000Y-90000000D01*
X135540000Y-95970000D02*
X135540000Y-94340000D01*
X120050000Y-101800000D02*
X120650000Y-101200000D01*
X120650000Y-101200000D02*
X122600000Y-101200000D01*
X132035000Y-90215000D02*
X132250000Y-90000000D01*
X135540000Y-94340000D02*
X132250000Y-91050000D01*
X128100000Y-100700000D02*
X127600000Y-101200000D01*
X122850000Y-112100000D02*
X120050000Y-109300000D01*
X120050000Y-109300000D02*
X120050000Y-101800000D01*
%TO.N,+48V*%
D54*
X171000000Y-90700000D02*
X173900000Y-90700000D01*
%TO.N,/GPIO D0 (XIAO-ESP32-S3)*%
D53*
X157400000Y-105300000D02*
X159475000Y-105300000D01*
X159475000Y-105300000D02*
X159525000Y-105250000D01*
X154700000Y-108000000D02*
X157400000Y-105300000D01*
X157500000Y-128750000D02*
X156150000Y-128750000D01*
X154700000Y-127300000D02*
X154700000Y-108000000D01*
X156150000Y-128750000D02*
X154700000Y-127300000D01*
%TO.N,/Driver Out*%
X161800000Y-106200000D02*
X163800000Y-106200000D01*
%TO.N,/BRAKE GATE*%
X165625000Y-106200000D02*
X167500000Y-106200000D01*
X167500000Y-106200000D02*
X169840000Y-106200000D01*
%TO.N,/BRAKE Out*%
X171025000Y-94700000D02*
X173900000Y-94700000D01*
D51*
X173900000Y-98120000D02*
X172120000Y-99900000D01*
X173900000Y-94700000D02*
X173900000Y-98120000D01*
%TO.N,+3.3V*%
D52*
X150600000Y-110400000D02*
X150600000Y-108410000D01*
X165600000Y-87237500D02*
X166600000Y-87237500D01*
X136675000Y-112365000D02*
X135000000Y-112365000D01*
X136675000Y-112365000D02*
X138535000Y-112365000D01*
X166600000Y-87237500D02*
X167537500Y-87237500D01*
X166600000Y-88200000D02*
X166600000Y-87237500D01*
X171225000Y-116025000D02*
X171200000Y-116000000D01*
X176750000Y-116025000D02*
X171225000Y-116025000D01*
X138535000Y-112365000D02*
X138700000Y-112200000D01*
%TO.N,/Endresistor*%
D53*
X134340000Y-104970000D02*
X134270000Y-104900000D01*
X134340000Y-106637500D02*
X134340000Y-104970000D01*
X134270000Y-104900000D02*
X135140000Y-104900000D01*
X133452500Y-104900000D02*
X134270000Y-104900000D01*
%TO.N,/Endresistor CANL*%
X135540000Y-102700000D02*
X136965000Y-104125000D01*
X136965000Y-104125000D02*
X136965000Y-104900000D01*
%TO.N,/GPIO D2 (XIAO-ESP32-S3)*%
X157500000Y-123670000D02*
X160905000Y-123670000D01*
X160905000Y-123670000D02*
X160975000Y-123600000D01*
%TO.N,Net-(D4-A)*%
X162800000Y-123600000D02*
X164650000Y-123600000D01*
%TO.N,Net-(J6-Pin_2)*%
X150600000Y-103330000D02*
X153155000Y-103330000D01*
X153155000Y-103330000D02*
X153200000Y-103375000D01*
%TO.N,/GPIO D6 (XIAO-ESP32-S3)*%
X155400000Y-113500000D02*
X155810000Y-113510000D01*
X153200000Y-113500000D02*
X153200000Y-105200000D01*
X155810000Y-113510000D02*
X157500000Y-113510000D01*
%TO.N,/TLE4905L Out*%
X178400000Y-115200000D02*
X177400000Y-114200000D01*
X178400000Y-118600000D02*
X178400000Y-115200000D01*
X171475000Y-125525000D02*
X178400000Y-118600000D01*
X162800000Y-126200000D02*
X164600000Y-126200000D01*
X164600000Y-126200000D02*
X165275000Y-125525000D01*
X168200000Y-125525000D02*
X171475000Y-125525000D01*
D52*
X173800000Y-114200000D02*
X173700000Y-114300000D01*
D53*
X165275000Y-125525000D02*
X168200000Y-125525000D01*
D52*
X176750000Y-114200000D02*
X173800000Y-114200000D01*
D53*
X177400000Y-114200000D02*
X176750000Y-114200000D01*
%TO.N,/GPIO D3 (XIAO-ESP32-S3)*%
X153800000Y-121100000D02*
X153800000Y-120000000D01*
X153800000Y-120000000D02*
X153900000Y-119900000D01*
X154500000Y-106000000D02*
X154500000Y-100700000D01*
X169200000Y-94700000D02*
X167275000Y-94700000D01*
X160575000Y-94625000D02*
X165300000Y-94625000D01*
X167275000Y-94700000D02*
X167200000Y-94625000D01*
X153900000Y-119900000D02*
X153900000Y-106600000D01*
X167200000Y-94625000D02*
X165300000Y-94625000D01*
X154500000Y-100700000D02*
X160575000Y-94625000D01*
X153900000Y-106600000D02*
X154500000Y-106000000D01*
X157500000Y-121130000D02*
X155600000Y-121130000D01*
%TO.N,/Endresistor CANH*%
X133000000Y-102700000D02*
X131627500Y-104072500D01*
X131627500Y-104072500D02*
X131627500Y-104900000D01*
%TO.N,Net-(J6-Pin_3)*%
X150582500Y-105887500D02*
X150600000Y-105870000D01*
D52*
X148017500Y-105870000D02*
X148000000Y-105887500D01*
D53*
X148000000Y-105887500D02*
X150582500Y-105887500D01*
%TO.N,/GPIO D1 (XIAO-ESP32-S3)*%
X160965000Y-126210000D02*
X160975000Y-126200000D01*
X157500000Y-126210000D02*
X160965000Y-126210000D01*
%TD*%
M02*
